<?xml version="1.0" encoding="utf-8"?>
<!-- Generator: Adobe Illustrator 27.9.6, SVG Export Plug-In . SVG Version: 9.03 Build 54986)  -->
<svg version="1.1" id="Layer_1" xmlns="http://www.w3.org/2000/svg" xmlns:xlink="http://www.w3.org/1999/xlink" x="0px" y="0px"
	 viewBox="0 0 505.41 267.9" style="enable-background:new 0 0 505.41 267.9;" xml:space="preserve">
<style type="text/css">
	.st0{fill:none;stroke:#000000;stroke-width:2;stroke-miterlimit:10;}
	.st1{fill:#BCBEC0;}
	.st2{opacity:0;fill:none;stroke:#000000;stroke-width:1.000000e-06;stroke-miterlimit:10;}
	
		.st3{opacity:0;clip-path:url(#SVGID_00000182516787460133404140000000860654468837351571_);fill:none;stroke:#000000;stroke-width:1.000000e-06;stroke-miterlimit:10;}
	.st4{clip-path:url(#SVGID_00000182516787460133404140000000860654468837351571_);}
	
		.st5{opacity:0;clip-path:url(#SVGID_00000005249822905439819820000006988197686205201085_);fill:none;stroke:#000000;stroke-width:1.000000e-06;stroke-miterlimit:10;}
	.st6{clip-path:url(#SVGID_00000005249822905439819820000006988197686205201085_);}
	
		.st7{opacity:0;clip-path:url(#SVGID_00000173862926077895158550000014762529718540624280_);fill:none;stroke:#000000;stroke-width:1.000000e-06;stroke-miterlimit:10;}
	.st8{clip-path:url(#SVGID_00000173862926077895158550000014762529718540624280_);}
	
		.st9{opacity:0;clip-path:url(#SVGID_00000117642114112742005180000002123055199458464659_);fill:none;stroke:#000000;stroke-width:1.000000e-06;stroke-miterlimit:10;}
	.st10{clip-path:url(#SVGID_00000117642114112742005180000002123055199458464659_);}
	
		.st11{opacity:0;clip-path:url(#SVGID_00000178910862839834159760000005311389088658064311_);fill:none;stroke:#000000;stroke-width:1.000000e-06;stroke-miterlimit:10;}
	.st12{clip-path:url(#SVGID_00000178910862839834159760000005311389088658064311_);}
	
		.st13{opacity:0;clip-path:url(#SVGID_00000163786458543675489200000015617401976064559502_);fill:none;stroke:#000000;stroke-width:1.000000e-06;stroke-miterlimit:10;}
	.st14{clip-path:url(#SVGID_00000163786458543675489200000015617401976064559502_);}
	
		.st15{opacity:0;clip-path:url(#SVGID_00000181069485931280377980000006562307313228918697_);fill:none;stroke:#000000;stroke-width:1.000000e-06;stroke-miterlimit:10;}
	
		.st16{opacity:0;clip-path:url(#SVGID_00000093163669820455690670000008681088410650417290_);fill:none;stroke:#000000;stroke-width:1.000000e-06;stroke-miterlimit:10;}
	.st17{clip-path:url(#SVGID_00000104673640336478057060000005994010663407788702_);}
	
		.st18{opacity:0;clip-path:url(#SVGID_00000137848522680566333920000006436145194417006475_);fill:none;stroke:#000000;stroke-width:1.000000e-06;stroke-miterlimit:10;}
	.st19{clip-path:url(#SVGID_00000000937192079866822890000008391450704541445522_);}
	
		.st20{opacity:0;clip-path:url(#SVGID_00000050621316697404315260000015765740373054895283_);fill:none;stroke:#000000;stroke-width:1.000000e-06;stroke-miterlimit:10;}
	.st21{clip-path:url(#SVGID_00000050621316697404315260000015765740373054895283_);}
	
		.st22{opacity:0;clip-path:url(#SVGID_00000097492525517142140220000008592802182498412688_);fill:none;stroke:#000000;stroke-width:1.000000e-06;stroke-miterlimit:10;}
	.st23{clip-path:url(#SVGID_00000098184142498089230160000003728731317010064531_);}
	.st24{clip-path:url(#SVGID_00000008144676789867580400000016530078197374534803_);}
	
		.st25{opacity:0;clip-path:url(#SVGID_00000097467078458766166370000010361094130443677075_);fill:none;stroke:#000000;stroke-width:1.000000e-06;stroke-miterlimit:10;}
	.st26{clip-path:url(#SVGID_00000097467078458766166370000010361094130443677075_);}
	.st27{clip-path:url(#SVGID_00000057839214833280314060000006052042783112641691_);}
	.st28{clip-path:url(#SVGID_00000049216677235003379300000004359603220814582658_);}
</style>
<line class="st0" x1="148.1" y1="117.55" x2="100.1" y2="117.55"/>
<g>
	<path class="st1" d="M215.47,142.22c0,12.1-9.9,22-22,22H170.1c-12.1,0-22-9.9-22-22v-23.37c0-12.1,9.9-22,22-22h23.37
		c12.1,0,22,9.9,22,22V142.22z"/>
	<path class="st0" d="M215.47,142.22c0,12.1-9.9,22-22,22H170.1c-12.1,0-22-9.9-22-22v-23.37c0-12.1,9.9-22,22-22h23.37
		c12.1,0,22,9.9,22,22V142.22z"/>
</g>
<g>
	<path class="st1" d="M100.1,176.13c0,2.2-1.8,4-4,4H68.13c-2.2,0-4-1.8-4-4V93.09c0-2.2,1.8-4,4-4H96.1c2.2,0,4,1.8,4,4V176.13z"/>
	<path class="st0" d="M100.1,176.13c0,2.2-1.8,4-4,4H68.13c-2.2,0-4-1.8-4-4V93.09c0-2.2,1.8-4,4-4H96.1c2.2,0,4,1.8,4,4V176.13z"/>
</g>
<line class="st0" x1="148.1" y1="143.43" x2="100.1" y2="143.43"/>
<line class="st0" x1="263.47" y1="117.6" x2="215.47" y2="117.6"/>
<line class="st0" x1="263.47" y1="143.48" x2="215.47" y2="143.48"/>
<polygon class="st2" points="173.43,125.07 173.43,125.07 173.43,125.07 173.43,125.07 173.43,125.07 173.43,125.07 173.43,125.07 
	173.43,125.07 173.43,125.07 173.43,125.07 173.43,125.07 173.43,125.07 173.43,125.07 173.43,125.07 173.43,125.07 173.43,125.07 
	173.43,125.07 173.43,125.07 173.43,125.07 173.43,125.07 173.43,125.07 173.43,125.07 173.43,125.07 173.43,125.07 173.43,125.07 
	173.43,125.07 173.43,125.07 173.43,125.07 173.43,125.07 173.43,125.07 173.43,125.07 173.43,125.07 173.43,125.07 173.43,125.07 
	173.43,125.07 173.43,125.07 173.43,125.07 173.43,125.07 173.43,125.07 173.43,125.07 173.43,125.07 173.43,125.07 173.43,125.07 
	173.43,125.07 173.43,125.07 173.43,125.07 173.43,125.07 173.43,125.07 173.43,125.07 173.43,125.07 173.43,125.07 173.43,125.07 
	173.43,125.07 173.43,125.07 173.43,125.07 173.43,125.07 173.43,125.07 173.43,125.07 173.43,125.07 173.43,125.07 173.43,125.07 
	173.43,125.07 173.43,125.07 173.43,125.07 173.43,125.07 173.43,125.07 173.43,125.07 173.43,125.07 173.43,125.07 173.43,125.07 
	173.43,125.07 173.43,125.07 173.43,125.07 173.43,125.07 173.43,125.07 173.43,125.07 173.43,125.07 173.43,125.07 173.43,125.07 
	173.43,125.07 173.43,125.07 173.43,125.07 173.43,125.07 173.43,125.07 173.43,125.07 "/>
<polygon class="st2" points="477.22,148.77 477.22,148.77 477.22,148.77 477.22,148.77 477.22,148.77 477.22,148.77 477.22,148.77 
	477.22,148.77 477.22,148.77 477.22,148.77 477.22,148.77 477.22,148.77 477.22,148.77 477.22,148.77 477.22,148.77 477.22,148.77 
	477.22,148.77 477.22,148.77 477.22,148.77 477.22,148.77 477.22,148.77 477.22,148.77 477.22,148.77 477.22,148.77 477.22,148.77 
	477.22,148.77 477.22,148.77 477.22,148.77 477.22,148.77 477.22,148.77 477.22,148.77 477.22,148.77 477.22,148.77 477.22,148.77 
	477.22,148.77 477.22,148.77 477.22,148.77 477.22,148.77 477.22,148.77 477.22,148.77 477.22,148.77 477.22,148.77 477.22,148.77 
	477.22,148.77 477.22,148.77 477.22,148.77 477.22,148.77 477.22,148.77 477.22,148.77 477.22,148.77 477.22,148.77 477.22,148.77 
	477.22,148.77 477.22,148.77 477.22,148.77 477.22,148.77 477.22,148.77 477.22,148.77 477.22,148.77 477.22,148.77 477.22,148.77 
	477.22,148.77 477.22,148.77 477.22,148.77 477.22,148.77 477.22,148.77 477.22,148.77 477.22,148.77 477.22,148.77 477.22,148.77 
	477.22,148.77 477.22,148.77 477.22,148.77 477.22,148.77 477.22,148.77 477.22,148.77 477.22,148.77 477.22,148.77 477.22,148.77 
	477.22,148.77 477.22,148.77 477.22,148.77 477.22,148.77 477.22,148.77 477.22,148.77 "/>
<polygon class="st2" points="180.88,130.01 180.88,130.01 180.88,130.01 180.88,130.01 180.88,130.01 180.88,130.01 180.88,130.01 
	180.88,130.01 180.88,130.01 180.88,130.01 180.88,130.01 180.88,130.01 180.88,130.01 180.88,130.01 180.88,130.01 180.88,130.01 
	180.88,130.01 180.88,130.01 180.88,130.01 180.88,130.01 180.88,130.01 180.88,130.01 180.88,130.01 180.88,130.01 180.88,130.01 
	180.88,130.01 180.88,130.01 180.88,130.01 180.88,130.01 180.88,130.01 180.88,130.01 180.88,130.01 180.88,130.01 180.88,130.01 
	180.88,130.01 180.88,130.01 180.88,130.01 180.88,130.01 180.88,130.01 180.88,130.01 180.88,130.01 180.88,130.01 180.88,130.01 
	180.88,130.01 180.88,130.01 180.88,130.01 180.88,130.01 180.88,130.01 180.88,130.01 180.88,130.01 180.88,130.01 180.88,130.01 
	180.88,130.01 180.88,130.01 180.88,130.01 180.88,130.01 180.88,130.01 180.88,130.01 180.88,130.01 180.88,130.01 180.88,130.01 
	180.88,130.01 180.88,130.01 180.88,130.01 180.88,130.01 180.88,130.01 180.88,130.01 180.88,130.01 180.88,130.01 180.88,130.01 
	180.88,130.01 180.88,130.01 180.88,130.01 180.88,130.01 180.88,130.01 180.88,130.01 180.88,130.01 180.88,130.01 180.88,130.01 
	180.88,130.01 180.88,130.01 180.88,130.01 180.88,130.01 180.88,130.01 180.88,130.01 "/>
<g>
	<defs>
		<rect id="SVGID_1_" x="168.88" y="119.51" width="24" height="20"/>
	</defs>
	<clipPath id="SVGID_00000108276448877206050160000010612338375740688000_">
		<use xlink:href="#SVGID_1_"  style="overflow:visible;"/>
	</clipPath>
	
		<path style="opacity:0;clip-path:url(#SVGID_00000108276448877206050160000010612338375740688000_);fill:none;stroke:#000000;stroke-width:1.000000e-06;stroke-miterlimit:10;" d="
		M180.88,129.51L180.88,129.51z"/>
	<path style="clip-path:url(#SVGID_00000108276448877206050160000010612338375740688000_);" d="M182.6,127.55l-2.34-5.55
		c-0.08-0.22-0.14-0.33-0.14-0.36c0-0.17,0.47-0.7,1.65-0.81c0.28-0.03,0.56-0.05,0.56-0.53c0-0.33-0.33-0.33-0.42-0.33
		c-1.14,0-2.34,0.08-3.51,0.08c-0.7,0-2.43-0.08-3.12-0.08c-0.17,0-0.5,0-0.5,0.56c0,0.31,0.28,0.31,0.64,0.31
		c1.67,0,1.84,0.28,2.09,0.89l3.29,7.78l-5.88,6.33l-0.36,0.31c-1.37,1.48-2.68,1.92-4.1,2.01c-0.36,0.03-0.61,0.03-0.61,0.56
		c0,0.03,0,0.31,0.36,0.31c0.84,0,1.76-0.08,2.62-0.08c1.03,0,2.12,0.08,3.12,0.08c0.17,0,0.5,0,0.5-0.56
		c0-0.28-0.28-0.31-0.34-0.31c-0.25-0.03-1.11-0.08-1.11-0.86c0-0.45,0.42-0.89,0.75-1.25l2.84-3.01l2.51-2.73l2.82,6.66
		c0.11,0.31,0.14,0.33,0.14,0.39c0,0.22-0.53,0.7-1.62,0.81c-0.31,0.03-0.56,0.06-0.56,0.53c0,0.33,0.31,0.33,0.42,0.33
		c0.78,0,2.73-0.08,3.51-0.08c0.7,0,2.4,0.08,3.09,0.08c0.2,0,0.53,0,0.53-0.53c0-0.33-0.28-0.33-0.5-0.33
		c-1.87-0.03-1.92-0.11-2.4-1.23c-1.09-2.59-2.96-6.94-3.6-8.62c1.9-1.95,4.82-5.27,5.72-6.05c0.81-0.67,1.87-1.34,3.54-1.42
		c0.36-0.03,0.61-0.03,0.61-0.56c0-0.03,0-0.31-0.36-0.31c-0.84,0-1.76,0.08-2.62,0.08c-1.03,0-2.09-0.08-3.09-0.08
		c-0.17,0-0.53,0-0.53,0.56c0,0.2,0.14,0.28,0.33,0.31c0.25,0.03,1.11,0.08,1.11,0.87c0,0.39-0.31,0.75-0.53,1L182.6,127.55"/>
</g>
<line class="st0" x1="64.13" y1="117.6" x2="16.13" y2="117.6"/>
<line class="st0" x1="64.13" y1="143.48" x2="16.13" y2="143.48"/>
<polygon class="st2" points="85.53,139.1 85.53,139.1 85.53,139.1 85.53,139.1 85.53,139.1 85.53,139.1 85.53,139.1 85.53,139.1 
	85.53,139.1 85.53,139.1 85.53,139.1 85.53,139.1 85.53,139.1 85.53,139.1 85.53,139.1 85.53,139.1 85.53,139.1 85.53,139.1 
	85.53,139.1 85.53,139.1 85.53,139.1 85.53,139.1 85.53,139.1 85.53,139.1 85.53,139.1 85.53,139.1 85.53,139.1 85.53,139.1 
	85.53,139.1 85.53,139.1 85.53,139.1 85.53,139.1 85.53,139.1 85.53,139.1 85.53,139.1 85.53,139.1 85.53,139.1 85.53,139.1 
	85.53,139.1 85.53,139.1 85.53,139.1 85.53,139.1 85.53,139.1 85.53,139.1 85.53,139.1 85.53,139.1 85.53,139.1 85.53,139.1 
	85.53,139.1 85.53,139.1 85.53,139.1 85.53,139.1 85.53,139.1 85.53,139.1 85.53,139.1 85.53,139.1 85.53,139.1 85.53,139.1 
	85.53,139.1 85.53,139.1 85.53,139.1 85.53,139.1 85.53,139.1 85.53,139.1 85.53,139.1 85.53,139.1 85.53,139.1 85.53,139.1 
	85.53,139.1 85.53,139.1 85.53,139.1 85.53,139.1 85.53,139.1 85.53,139.1 85.53,139.1 85.53,139.1 85.53,139.1 85.53,139.1 
	85.53,139.1 85.53,139.1 85.53,139.1 85.53,139.1 85.53,139.1 85.53,139.1 85.53,139.1 "/>
<g>
	<defs>
		<rect id="SVGID_00000032649932846790298680000017196475362935906994_" x="72.01" y="120.61" width="20" height="26"/>
	</defs>
	<clipPath id="SVGID_00000143587721385380722790000012180383779736488112_">
		<use xlink:href="#SVGID_00000032649932846790298680000017196475362935906994_"  style="overflow:visible;"/>
	</clipPath>
	
		<path style="opacity:0;clip-path:url(#SVGID_00000143587721385380722790000012180383779736488112_);fill:none;stroke:#000000;stroke-width:1.000000e-06;stroke-miterlimit:10;" d="
		M82.01,133.61L82.01,133.61z"/>
	<path style="clip-path:url(#SVGID_00000143587721385380722790000012180383779736488112_);" d="M79.78,141.03
		c-0.39,0-1.28,0-1.28-1.2c0-1.11,1.06-2.23,2.23-2.23c1.17,0,1.7,0.67,1.7,2.37c0,0.42-0.03,0.45-0.31,0.56
		C81.39,140.84,80.56,141.03,79.78,141.03 M78.05,140.72c-2.18-0.86-3.12-3.04-3.12-5.55c0-1.92,0.73-5.88,2.84-8.89
		c2.04-2.84,4.66-4.13,6.69-4.13c2.79,0,4.82,2.17,4.82,5.91c0,2.79-1.42,9.31-6.11,11.93c-0.14-0.98-0.42-3.01-2.45-3.01
		c-1.48,0-2.84,1.39-2.84,2.84C77.88,140.39,78.05,140.69,78.05,140.72z M83.32,140.95c4.32-1.65,8.42-6.61,8.42-11.99
		c0-4.49-2.96-7.5-7.11-7.5c-6.02,0-12.16,6.33-12.16,12.82c0,4.63,3.12,7.45,7.14,7.45c0.7,0,1.65-0.11,2.73-0.42
		c-0.11,1.73-0.11,1.78-0.11,2.15c0,0.89,0,3.07,2.31,3.07c3.32,0,4.66-5.1,4.66-5.41c0-0.2-0.2-0.28-0.31-0.28
		c-0.22,0-0.28,0.14-0.33,0.31c-0.67,1.98-2.29,2.68-3.26,2.68C84.01,143.82,83.6,143.06,83.32,140.95z"/>
</g>
<polygon class="st2" points="295.7,154.36 295.7,154.36 295.7,154.36 295.7,154.36 295.7,154.36 295.7,154.36 295.7,154.36 
	295.7,154.36 295.7,154.36 295.7,154.36 295.7,154.36 295.7,154.36 295.7,154.36 295.7,154.36 295.7,154.36 295.7,154.36 
	295.7,154.36 295.7,154.36 295.7,154.36 295.7,154.36 295.7,154.36 295.7,154.36 295.7,154.36 295.7,154.36 295.7,154.36 
	295.7,154.36 295.7,154.36 295.7,154.36 295.7,154.36 295.7,154.36 295.7,154.36 295.7,154.36 295.7,154.36 295.7,154.36 
	295.7,154.36 295.7,154.36 295.7,154.36 295.7,154.36 295.7,154.36 295.7,154.36 295.7,154.36 295.7,154.36 295.7,154.36 
	295.7,154.36 295.7,154.36 295.7,154.36 295.7,154.36 295.7,154.36 295.7,154.36 295.7,154.36 295.7,154.36 295.7,154.36 
	295.7,154.36 295.7,154.36 295.7,154.36 295.7,154.36 295.7,154.36 295.7,154.36 295.7,154.36 295.7,154.36 295.7,154.36 
	295.7,154.36 295.7,154.36 295.7,154.36 295.7,154.36 295.7,154.36 295.7,154.36 295.7,154.36 295.7,154.36 295.7,154.36 
	295.7,154.36 295.7,154.36 295.7,154.36 295.7,154.36 295.7,154.36 295.7,154.36 295.7,154.36 295.7,154.36 295.7,154.36 
	295.7,154.36 295.7,154.36 295.7,154.36 295.7,154.36 295.7,154.36 295.7,154.36 295.7,154.36 "/>
<g>
	<defs>
		<rect id="SVGID_00000036243092612476384680000005494985609822471845_" x="288.85" y="125.04" width="20" height="13"/>
	</defs>
	<clipPath id="SVGID_00000085941550290070984990000009140573288303736212_">
		<use xlink:href="#SVGID_00000036243092612476384680000005494985609822471845_"  style="overflow:visible;"/>
	</clipPath>
	
		<path style="opacity:0;clip-path:url(#SVGID_00000085941550290070984990000009140573288303736212_);fill:none;stroke:#000000;stroke-width:1.000000e-06;stroke-miterlimit:10;" d="
		M298.85,131.54L298.85,131.54z"/>
	<path style="clip-path:url(#SVGID_00000085941550290070984990000009140573288303736212_);" d="M308.18,132.86
		c0-0.81-0.34-0.86-0.39-0.86c-0.11,0-0.36,0.14-0.39,0.75c-0.11,1.92-2.06,3.07-3.88,3.07c-1.62,0-3.01-0.87-4.46-1.84
		c-1.51-1-3.01-2.01-4.82-2.01c-2.59,0-4.66,1.98-4.66,4.55c0,0.61,0.22,0.84,0.39,0.84c0.28,0,0.39-0.53,0.39-0.64
		c0.14-2.34,2.43-3.18,3.88-3.18c1.62,0,3.01,0.87,4.46,1.84c1.5,1,3.01,2.01,4.82,2.01C306.17,137.38,308.18,135.32,308.18,132.86
		 M308.18,126.34c0-0.59-0.2-0.84-0.39-0.84c-0.11,0-0.36,0.11-0.39,0.75c-0.11,1.92-2.06,3.07-3.88,3.07
		c-1.62,0-3.01-0.86-4.46-1.84c-1.51-1-3.01-2.01-4.82-2.01c-2.59,0-4.66,1.98-4.66,4.54c0,0.61,0.22,0.84,0.39,0.84
		c0.28,0,0.39-0.53,0.39-0.64c0.14-2.34,2.43-3.18,3.88-3.18c1.62,0,3.01,0.86,4.46,1.84c1.5,1,3.01,2.01,4.82,2.01
		C306.12,130.88,308.18,128.91,308.18,126.34z"/>
</g>
<g>
	<path class="st1" d="M438.85,234.19c0,12.1-9.9,22-22,22h-23.37c-12.1,0-22-9.9-22-22v-23.37c0-12.1,9.9-22,22-22h23.37
		c12.1,0,22,9.9,22,22V234.19z"/>
	<path class="st0" d="M438.85,234.19c0,12.1-9.9,22-22,22h-23.37c-12.1,0-22-9.9-22-22v-23.37c0-12.1,9.9-22,22-22h23.37
		c12.1,0,22,9.9,22,22V234.19z"/>
</g>
<line class="st0" x1="486.85" y1="45.92" x2="438.85" y2="45.92"/>
<line class="st0" x1="486.85" y1="222.51" x2="438.85" y2="222.51"/>
<polygon class="st2" points="396.81,129.73 396.81,129.73 396.81,129.73 396.81,129.73 396.81,129.73 396.81,129.73 396.81,129.73 
	396.81,129.73 396.81,129.73 396.81,129.73 396.81,129.73 396.81,129.73 396.81,129.73 396.81,129.73 396.81,129.73 396.81,129.73 
	396.81,129.73 396.81,129.73 396.81,129.73 396.81,129.73 396.81,129.73 396.81,129.73 396.81,129.73 396.81,129.73 396.81,129.73 
	396.81,129.73 396.81,129.73 396.81,129.73 396.81,129.73 396.81,129.73 396.81,129.73 396.81,129.73 396.81,129.73 396.81,129.73 
	396.81,129.73 396.81,129.73 396.81,129.73 396.81,129.73 396.81,129.73 396.81,129.73 396.81,129.73 396.81,129.73 396.81,129.73 
	396.81,129.73 396.81,129.73 396.81,129.73 396.81,129.73 396.81,129.73 396.81,129.73 396.81,129.73 396.81,129.73 396.81,129.73 
	396.81,129.73 396.81,129.73 396.81,129.73 396.81,129.73 396.81,129.73 396.81,129.73 396.81,129.73 396.81,129.73 396.81,129.73 
	396.81,129.73 396.81,129.73 396.81,129.73 396.81,129.73 396.81,129.73 396.81,129.73 396.81,129.73 396.81,129.73 396.81,129.73 
	396.81,129.73 396.81,129.73 396.81,129.73 396.81,129.73 396.81,129.73 396.81,129.73 396.81,129.73 396.81,129.73 396.81,129.73 
	396.81,129.73 396.81,129.73 396.81,129.73 396.81,129.73 396.81,129.73 396.81,129.73 "/>
<polygon class="st2" points="404.25,134.67 404.25,134.67 404.25,134.67 404.25,134.67 404.25,134.67 404.25,134.67 404.25,134.67 
	404.25,134.67 404.25,134.67 404.25,134.67 404.25,134.67 404.25,134.67 404.25,134.67 404.25,134.67 404.25,134.67 404.25,134.67 
	404.25,134.67 404.25,134.67 404.25,134.67 404.25,134.67 404.25,134.67 404.25,134.67 404.25,134.67 404.25,134.67 404.25,134.67 
	404.25,134.67 404.25,134.67 404.25,134.67 404.25,134.67 404.25,134.67 404.25,134.67 404.25,134.67 404.25,134.67 404.25,134.67 
	404.25,134.67 404.25,134.67 404.25,134.67 404.25,134.67 404.25,134.67 404.25,134.67 404.25,134.67 404.25,134.67 404.25,134.67 
	404.25,134.67 404.25,134.67 404.25,134.67 404.25,134.67 404.25,134.67 404.25,134.67 404.25,134.67 404.25,134.67 404.25,134.67 
	404.25,134.67 404.25,134.67 404.25,134.67 404.25,134.67 404.25,134.67 404.25,134.67 404.25,134.67 404.25,134.67 404.25,134.67 
	404.25,134.67 404.25,134.67 404.25,134.67 404.25,134.67 404.25,134.67 404.25,134.67 404.25,134.67 404.25,134.67 404.25,134.67 
	404.25,134.67 404.25,134.67 404.25,134.67 404.25,134.67 404.25,134.67 404.25,134.67 404.25,134.67 404.25,134.67 404.25,134.67 
	404.25,134.67 404.25,134.67 404.25,134.67 404.25,134.67 404.25,134.67 404.25,134.67 "/>
<g>
	<path class="st1" d="M438.85,57.51c0,12.1-9.9,22-22,22h-23.37c-12.1,0-22-9.9-22-22V34.15c0-12.1,9.9-22,22-22h23.37
		c12.1,0,22,9.9,22,22V57.51z"/>
	<path class="st0" d="M438.85,57.51c0,12.1-9.9,22-22,22h-23.37c-12.1,0-22-9.9-22-22V34.15c0-12.1,9.9-22,22-22h23.37
		c12.1,0,22,9.9,22,22V57.51z"/>
</g>
<g>
	<path class="st1" d="M427.73,136.09c0,12.1-9.9,22-22,22h-2.96c-12.1,0-22-9.9-22-22v-2.96c0-12.1,9.9-22,22-22h2.96
		c12.1,0,22,9.9,22,22V136.09z"/>
	<path class="st0" d="M427.73,136.09c0,12.1-9.9,22-22,22h-2.96c-12.1,0-22-9.9-22-22v-2.96c0-12.1,9.9-22,22-22h2.96
		c12.1,0,22,9.9,22,22V136.09z"/>
</g>
<polygon class="st2" points="404.25,45.92 404.25,45.92 404.25,45.92 404.25,45.92 404.25,45.92 404.25,45.92 404.25,45.92 
	404.25,45.92 404.25,45.92 404.25,45.92 404.25,45.92 404.25,45.92 404.25,45.92 404.25,45.92 404.25,45.92 404.25,45.92 
	404.25,45.92 404.25,45.92 404.25,45.92 404.25,45.92 404.25,45.92 404.25,45.92 404.25,45.92 404.25,45.92 404.25,45.92 
	404.25,45.92 404.25,45.92 404.25,45.92 404.25,45.92 404.25,45.92 404.25,45.92 404.25,45.92 404.25,45.92 404.25,45.92 
	404.25,45.92 404.25,45.92 404.25,45.92 404.25,45.92 404.25,45.92 404.25,45.92 404.25,45.92 404.25,45.92 404.25,45.92 
	404.25,45.92 404.25,45.92 404.25,45.92 404.25,45.92 404.25,45.92 404.25,45.92 404.25,45.92 404.25,45.92 404.25,45.92 
	404.25,45.92 404.25,45.92 404.25,45.92 404.25,45.92 404.25,45.92 404.25,45.92 404.25,45.92 404.25,45.92 404.25,45.92 
	404.25,45.92 404.25,45.92 404.25,45.92 404.25,45.92 404.25,45.92 404.25,45.92 404.25,45.92 404.25,45.92 404.25,45.92 
	404.25,45.92 404.25,45.92 404.25,45.92 404.25,45.92 404.25,45.92 404.25,45.92 404.25,45.92 404.25,45.92 404.25,45.92 
	404.25,45.92 404.25,45.92 404.25,45.92 404.25,45.92 404.25,45.92 404.25,45.92 "/>
<g>
	<defs>
		<rect id="SVGID_00000068667635982003992650000011773922513720485310_" x="394.66" y="35.83" width="21" height="20"/>
	</defs>
	<clipPath id="SVGID_00000013160949110655780000000011384180496769220737_">
		<use xlink:href="#SVGID_00000068667635982003992650000011773922513720485310_"  style="overflow:visible;"/>
	</clipPath>
	
		<path style="opacity:0;clip-path:url(#SVGID_00000013160949110655780000000011384180496769220737_);fill:none;stroke:#000000;stroke-width:1.000000e-06;stroke-miterlimit:10;" d="
		M405.16,45.83L405.16,45.83z"/>
	<path style="clip-path:url(#SVGID_00000013160949110655780000000011384180496769220737_);" d="M411.47,39.02
		c0.28-1.14,0.78-1.98,3.01-2.06c0.14,0,0.48-0.03,0.48-0.56c0-0.03,0-0.31-0.36-0.31c-0.92,0-1.9,0.08-2.84,0.08
		c-0.95,0-1.98-0.08-2.9-0.08c-0.17,0-0.5,0-0.5,0.56c0,0.31,0.28,0.31,0.5,0.31c1.59,0.03,1.9,0.61,1.9,1.23
		c0,0.08-0.05,0.5-0.08,0.58l-2.51,9.95c-0.95,3.74-4.15,6.16-6.94,6.16c-1.9,0-3.4-1.23-3.4-3.62c0-0.06,0-0.95,0.31-2.17
		l2.7-10.85c0.25-1,0.31-1.28,2.34-1.28c0.73,0,0.95,0,0.95-0.56c0-0.31-0.31-0.31-0.39-0.31c-0.78,0-2.79,0.08-3.57,0.08
		c-0.81,0-2.79-0.08-3.6-0.08c-0.22,0-0.53,0-0.53,0.56c0,0.31,0.25,0.31,0.78,0.31c0.06,0,0.59,0,1.06,0.06
		c0.5,0.06,0.75,0.08,0.75,0.45c0,0.17-0.31,1.34-0.48,1.98l-0.61,2.45c-0.25,1.09-1.59,6.36-1.7,6.89c-0.2,0.78-0.2,1.2-0.2,1.62
		c0,3.4,2.54,5.35,5.47,5.35c3.51,0,6.97-3.15,7.89-6.83L411.47,39.02"/>
</g>
<polygon class="st2" points="687.79,173.39 687.79,173.39 687.79,173.39 687.79,173.39 687.79,173.39 687.79,173.39 687.79,173.39 
	687.79,173.39 687.79,173.39 687.79,173.39 687.79,173.39 687.79,173.39 687.79,173.39 687.79,173.39 687.79,173.39 687.79,173.39 
	687.79,173.39 687.79,173.39 687.79,173.39 687.79,173.39 687.79,173.39 687.79,173.39 687.79,173.39 687.79,173.39 687.79,173.39 
	687.79,173.39 687.79,173.39 687.79,173.39 687.79,173.39 687.79,173.39 687.79,173.39 687.79,173.39 687.79,173.39 687.79,173.39 
	687.79,173.39 687.79,173.39 687.79,173.39 687.79,173.39 687.79,173.39 687.79,173.39 687.79,173.39 687.79,173.39 687.79,173.39 
	687.79,173.39 687.79,173.39 687.79,173.39 687.79,173.39 687.79,173.39 687.79,173.39 687.79,173.39 687.79,173.39 687.79,173.39 
	687.79,173.39 687.79,173.39 687.79,173.39 687.79,173.39 687.79,173.39 687.79,173.39 687.79,173.39 687.79,173.39 687.79,173.39 
	687.79,173.39 687.79,173.39 687.79,173.39 687.79,173.39 687.79,173.39 687.79,173.39 687.79,173.39 687.79,173.39 687.79,173.39 
	687.79,173.39 687.79,173.39 687.79,173.39 687.79,173.39 687.79,173.39 687.79,173.39 687.79,173.39 687.79,173.39 687.79,173.39 
	687.79,173.39 687.79,173.39 687.79,173.39 687.79,173.39 687.79,173.39 687.79,173.39 687.79,173.39 "/>
<g>
	<defs>
		<rect id="SVGID_00000177441850895810749600000000854887173960020147_" x="395.25" y="124.67" width="18" height="20"/>
	</defs>
	<clipPath id="SVGID_00000108288797528788428710000015718419412907572650_">
		<use xlink:href="#SVGID_00000177441850895810749600000000854887173960020147_"  style="overflow:visible;"/>
	</clipPath>
	
		<path style="opacity:0;clip-path:url(#SVGID_00000108288797528788428710000015718419412907572650_);fill:none;stroke:#000000;stroke-width:1.000000e-06;stroke-miterlimit:10;" d="
		M404.25,134.67L404.25,134.67z"/>
	<path style="clip-path:url(#SVGID_00000108288797528788428710000015718419412907572650_);" d="M404.62,135.08
		c0.25-0.28,0.25-0.39,0.25-0.45c0-0.14-0.11-0.28-0.2-0.39l-5.72-8.25h6.44c4.71,0,6.11,1,6.69,5.41h0.7l-0.78-6.27h-15.47
		c-0.67,0-0.73,0-0.73,0.64l6.94,10.09l-6.64,7.55c-0.28,0.31-0.28,0.36-0.28,0.45c0,0.31,0.28,0.31,0.7,0.31h15.47l0.78-6.58h-0.7
		c-0.5,4.66-2.4,5.41-6.77,5.41h-7.7L404.62,135.08"/>
</g>
<polygon class="st2" points="403.76,224.93 403.76,224.93 403.76,224.93 403.76,224.93 403.76,224.93 403.76,224.93 403.76,224.93 
	403.76,224.93 403.76,224.93 403.76,224.93 403.76,224.93 403.76,224.93 403.76,224.93 403.76,224.93 403.76,224.93 403.76,224.93 
	403.76,224.93 403.76,224.93 403.76,224.93 403.76,224.93 403.76,224.93 403.76,224.93 403.76,224.93 403.76,224.93 403.76,224.93 
	403.76,224.93 403.76,224.93 403.76,224.93 403.76,224.93 403.76,224.93 403.76,224.93 403.76,224.93 403.76,224.93 403.76,224.93 
	403.76,224.93 403.76,224.93 403.76,224.93 403.76,224.93 403.76,224.93 403.76,224.93 403.76,224.93 403.76,224.93 403.76,224.93 
	403.76,224.93 403.76,224.93 403.76,224.93 403.76,224.93 403.76,224.93 403.76,224.93 403.76,224.93 403.76,224.93 403.76,224.93 
	403.76,224.93 403.76,224.93 403.76,224.93 403.76,224.93 403.76,224.93 403.76,224.93 403.76,224.93 403.76,224.93 403.76,224.93 
	403.76,224.93 403.76,224.93 403.76,224.93 403.76,224.93 403.76,224.93 403.76,224.93 403.76,224.93 403.76,224.93 403.76,224.93 
	403.76,224.93 403.76,224.93 403.76,224.93 403.76,224.93 403.76,224.93 403.76,224.93 403.76,224.93 403.76,224.93 403.76,224.93 
	403.76,224.93 403.76,224.93 403.76,224.93 403.76,224.93 403.76,224.93 403.76,224.93 "/>
<g>
	<defs>
		<rect id="SVGID_00000119101547279138517460000007726422804893864833_" x="394.69" y="212.84" width="21" height="20"/>
	</defs>
	<clipPath id="SVGID_00000168831746295716073020000000344611863603569586_">
		<use xlink:href="#SVGID_00000119101547279138517460000007726422804893864833_"  style="overflow:visible;"/>
	</clipPath>
	
		<path style="opacity:0;clip-path:url(#SVGID_00000168831746295716073020000000344611863603569586_);fill:none;stroke:#000000;stroke-width:1.000000e-06;stroke-miterlimit:10;" d="
		M405.19,222.84L405.19,222.84z"/>
	<path style="clip-path:url(#SVGID_00000168831746295716073020000000344611863603569586_);" d="M411.1,216.28
		c1.37-2.17,2.54-2.26,3.57-2.31c0.33-0.03,0.36-0.5,0.36-0.53c0-0.22-0.14-0.33-0.36-0.33c-0.73,0-1.53,0.08-2.29,0.08
		c-0.92,0-1.87-0.08-2.76-0.08c-0.17,0-0.53,0-0.53,0.53c0,0.31,0.25,0.33,0.45,0.33c0.75,0.06,1.28,0.34,1.28,0.92
		c0,0.42-0.42,1.03-0.42,1.06l-8.56,13.61l-1.9-14.75c0-0.48,0.64-0.84,1.92-0.84c0.39,0,0.7,0,0.7-0.56c0-0.25-0.22-0.31-0.39-0.31
		c-1.12,0-2.31,0.08-3.46,0.08c-0.5,0-1.03-0.03-1.53-0.03s-1.03-0.06-1.51-0.06c-0.2,0-0.53,0-0.53,0.53c0,0.33,0.25,0.33,0.7,0.33
		c1.56,0,1.59,0.25,1.67,0.95l2.2,17.2c0.08,0.56,0.2,0.64,0.56,0.64c0.45,0,0.56-0.14,0.78-0.5L411.1,216.28"/>
</g>
<line class="st0" x1="405.16" y1="111.13" x2="405.16" y2="79.51"/>
<line class="st0" x1="405.16" y1="189.71" x2="405.16" y2="158.09"/>
<line class="st0" x1="371.48" y1="45.92" x2="323.48" y2="45.92"/>
<line class="st0" x1="371.48" y1="224.93" x2="323.48" y2="224.93"/>
<polygon class="st2" points="902.56,102.62 902.56,102.62 902.56,102.62 902.56,102.62 902.56,102.62 902.56,102.62 902.56,102.62 
	902.56,102.62 902.56,102.62 902.56,102.62 902.56,102.62 902.56,102.62 902.56,102.62 902.56,102.62 902.56,102.62 902.56,102.62 
	902.56,102.62 902.56,102.62 902.56,102.62 902.56,102.62 902.56,102.62 902.56,102.62 902.56,102.62 902.56,102.62 902.56,102.62 
	902.56,102.62 902.56,102.62 902.56,102.62 902.56,102.62 902.56,102.62 902.56,102.62 902.56,102.62 902.56,102.62 902.56,102.62 
	902.56,102.62 902.56,102.62 902.56,102.62 902.56,102.62 902.56,102.62 902.56,102.62 902.56,102.62 902.56,102.62 902.56,102.62 
	902.56,102.62 902.56,102.62 902.56,102.62 902.56,102.62 902.56,102.62 902.56,102.62 902.56,102.62 902.56,102.62 902.56,102.62 
	902.56,102.62 902.56,102.62 902.56,102.62 902.56,102.62 902.56,102.62 902.56,102.62 902.56,102.62 902.56,102.62 902.56,102.62 
	902.56,102.62 902.56,102.62 902.56,102.62 902.56,102.62 902.56,102.62 902.56,102.62 902.56,102.62 902.56,102.62 902.56,102.62 
	902.56,102.62 902.56,102.62 902.56,102.62 902.56,102.62 902.56,102.62 902.56,102.62 902.56,102.62 902.56,102.62 902.56,102.62 
	902.56,102.62 902.56,102.62 902.56,102.62 902.56,102.62 902.56,102.62 902.56,102.62 "/>
<g>
	<defs>
		<rect id="SVGID_00000010299560245228142510000001764418121390800273_" x="896.46" y="91.24" width="13" height="21"/>
	</defs>
	<clipPath id="SVGID_00000089551887370949162010000004153992909057268619_">
		<use xlink:href="#SVGID_00000010299560245228142510000001764418121390800273_"  style="overflow:visible;"/>
	</clipPath>
	
		<path style="opacity:0;clip-path:url(#SVGID_00000089551887370949162010000004153992909057268619_);fill:none;stroke:#000000;stroke-width:1.000000e-06;stroke-miterlimit:10;" d="
		M902.96,101.74L902.96,101.74z"/>
</g>
<polygon class="st2" points="209.64,184.29 209.64,184.29 209.64,184.29 209.64,184.29 209.64,184.29 209.64,184.29 209.64,184.29 
	209.64,184.29 209.64,184.29 209.64,184.29 209.64,184.29 209.64,184.29 209.64,184.29 209.64,184.29 209.64,184.29 209.64,184.29 
	209.64,184.29 209.64,184.29 209.64,184.29 209.64,184.29 209.64,184.29 209.64,184.29 209.64,184.29 209.64,184.29 209.64,184.29 
	209.64,184.29 209.64,184.29 209.64,184.29 209.64,184.29 209.64,184.29 209.64,184.29 209.64,184.29 209.64,184.29 209.64,184.29 
	209.64,184.29 209.64,184.29 209.64,184.29 209.64,184.29 209.64,184.29 209.64,184.29 209.64,184.29 209.64,184.29 209.64,184.29 
	209.64,184.29 209.64,184.29 209.64,184.29 209.64,184.29 209.64,184.29 209.64,184.29 209.64,184.29 209.64,184.29 209.64,184.29 
	209.64,184.29 209.64,184.29 209.64,184.29 209.64,184.29 209.64,184.29 209.64,184.29 209.64,184.29 209.64,184.29 209.64,184.29 
	209.64,184.29 209.64,184.29 209.64,184.29 209.64,184.29 209.64,184.29 209.64,184.29 209.64,184.29 209.64,184.29 209.64,184.29 
	209.64,184.29 209.64,184.29 209.64,184.29 209.64,184.29 209.64,184.29 209.64,184.29 209.64,184.29 209.64,184.29 209.64,184.29 
	209.64,184.29 209.64,184.29 209.64,184.29 209.64,184.29 209.64,184.29 209.64,184.29 "/>
<g>
	<defs>
		<rect id="SVGID_00000127760865140852865460000014267660504245402772_" x="206.13" y="176.68" width="9" height="15"/>
	</defs>
	<clipPath id="SVGID_00000135666915965410437730000009032900831019386037_">
		<use xlink:href="#SVGID_00000127760865140852865460000014267660504245402772_"  style="overflow:visible;"/>
	</clipPath>
	
		<path style="opacity:0;clip-path:url(#SVGID_00000135666915965410437730000009032900831019386037_);fill:none;stroke:#000000;stroke-width:1.000000e-06;stroke-miterlimit:10;" d="
		M210.63,184.18L210.63,184.18z"/>
</g>
<g>
	<defs>
		<rect id="SVGID_00000126306806321732331660000015679072609425793963_" x="120.08" y="146.86" width="8.06" height="15"/>
	</defs>
	<clipPath id="SVGID_00000075869680814714385880000002830880675933959063_">
		<use xlink:href="#SVGID_00000126306806321732331660000015679072609425793963_"  style="overflow:visible;"/>
	</clipPath>
	<path style="clip-path:url(#SVGID_00000075869680814714385880000002830880675933959063_);" d="M124.57,147.74
		c0-0.53,0-0.57-0.5-0.57c-1.36,1.4-3.28,1.4-3.99,1.4v0.68c0.44,0,1.73,0,2.87-0.57v11.34c0,0.79-0.07,1.05-2.04,1.05h-0.7v0.68
		c0.77-0.07,2.67-0.07,3.55-0.07c0.88,0,2.78,0,3.55,0.07v-0.68h-0.7c-1.97,0-2.04-0.24-2.04-1.05V147.74"/>
</g>
<polygon class="st2" points="718.78,88.8 718.78,88.8 718.78,88.8 718.78,88.8 718.78,88.8 718.78,88.8 718.78,88.8 718.78,88.8 
	718.78,88.8 718.78,88.8 718.78,88.8 718.78,88.8 718.78,88.8 718.78,88.8 718.78,88.8 718.78,88.8 718.78,88.8 718.78,88.8 
	718.78,88.8 718.78,88.8 718.78,88.8 718.78,88.8 718.78,88.8 718.78,88.8 718.78,88.8 718.78,88.8 718.78,88.8 718.78,88.8 
	718.78,88.8 718.78,88.8 718.78,88.8 718.78,88.8 718.78,88.8 718.78,88.8 718.78,88.8 718.78,88.8 718.78,88.8 718.78,88.8 
	718.78,88.8 718.78,88.8 718.78,88.8 718.78,88.8 718.78,88.8 718.78,88.8 718.78,88.8 718.78,88.8 718.78,88.8 718.78,88.8 
	718.78,88.8 718.78,88.8 718.78,88.8 718.78,88.8 718.78,88.8 718.78,88.8 718.78,88.8 718.78,88.8 718.78,88.8 718.78,88.8 
	718.78,88.8 718.78,88.8 718.78,88.8 718.78,88.8 718.78,88.8 718.78,88.8 718.78,88.8 718.78,88.8 718.78,88.8 718.78,88.8 
	718.78,88.8 718.78,88.8 718.78,88.8 718.78,88.8 718.78,88.8 718.78,88.8 718.78,88.8 718.78,88.8 718.78,88.8 718.78,88.8 
	718.78,88.8 718.78,88.8 718.78,88.8 718.78,88.8 718.78,88.8 718.78,88.8 718.78,88.8 "/>
<g>
	<defs>
		<rect id="SVGID_00000111174870779426377720000010355911966433246366_" x="713.87" y="80.18" width="10" height="16"/>
	</defs>
	<clipPath id="SVGID_00000147935041723475293190000006168126289907148730_">
		<use xlink:href="#SVGID_00000111174870779426377720000010355911966433246366_"  style="overflow:visible;"/>
	</clipPath>
	
		<path style="opacity:0;clip-path:url(#SVGID_00000147935041723475293190000006168126289907148730_);fill:none;stroke:#000000;stroke-width:1.000000e-06;stroke-miterlimit:10;" d="
		M718.87,88.18L718.87,88.18z"/>
</g>
<g>
	<defs>
		<rect id="SVGID_00000025424898340747214110000018284286422044568502_" x="119.1" y="98.38" width="10" height="15.6"/>
	</defs>
	<clipPath id="SVGID_00000127030799845813591160000003498470608308044972_">
		<use xlink:href="#SVGID_00000025424898340747214110000018284286422044568502_"  style="overflow:visible;"/>
	</clipPath>
	<path style="clip-path:url(#SVGID_00000127030799845813591160000003498470608308044972_);" d="M123.76,113.28
		c-0.85,0-2.15-0.55-2.54-2.65c-0.24-1.31-0.24-3.33-0.24-4.62c0-1.4,0-2.85,0.18-4.03c0.42-2.61,2.06-2.8,2.61-2.8
		c0.72,0,2.17,0.39,2.58,2.56c0.22,1.23,0.22,2.89,0.22,4.27c0,1.64,0,3.13-0.24,4.53C125.99,112.62,124.74,113.28,123.76,113.28
		 M128.38,106.27c0-1.75-0.11-3.5-0.88-5.12c-1.01-2.1-2.8-2.45-3.72-2.45c-1.31,0-2.91,0.57-3.81,2.61
		c-0.7,1.51-0.81,3.22-0.81,4.97c0,1.64,0.09,3.61,0.98,5.28c0.94,1.77,2.54,2.21,3.61,2.21c1.18,0,2.85-0.46,3.81-2.54
		C128.27,109.71,128.38,108,128.38,106.27z"/>
</g>
<polygon class="st2" points="265.64,195.59 265.64,195.59 265.64,195.59 265.64,195.59 265.64,195.59 265.64,195.59 265.64,195.59 
	265.64,195.59 265.64,195.59 265.64,195.59 265.64,195.59 265.64,195.59 265.64,195.59 265.64,195.59 265.64,195.59 265.64,195.59 
	265.64,195.59 265.64,195.59 265.64,195.59 265.64,195.59 265.64,195.59 265.64,195.59 265.64,195.59 265.64,195.59 265.64,195.59 
	265.64,195.59 265.64,195.59 265.64,195.59 265.64,195.59 265.64,195.59 265.64,195.59 265.64,195.59 265.64,195.59 265.64,195.59 
	265.64,195.59 265.64,195.59 265.64,195.59 265.64,195.59 265.64,195.59 265.64,195.59 265.64,195.59 265.64,195.59 265.64,195.59 
	265.64,195.59 265.64,195.59 265.64,195.59 265.64,195.59 265.64,195.59 265.64,195.59 265.64,195.59 265.64,195.59 265.64,195.59 
	265.64,195.59 265.64,195.59 265.64,195.59 265.64,195.59 265.64,195.59 265.64,195.59 265.64,195.59 265.64,195.59 265.64,195.59 
	265.64,195.59 265.64,195.59 265.64,195.59 265.64,195.59 265.64,195.59 265.64,195.59 265.64,195.59 265.64,195.59 265.64,195.59 
	265.64,195.59 265.64,195.59 265.64,195.59 265.64,195.59 265.64,195.59 265.64,195.59 265.64,195.59 265.64,195.59 265.64,195.59 
	265.64,195.59 265.64,195.59 265.64,195.59 265.64,195.59 265.64,195.59 265.64,195.59 "/>
<g>
	<defs>
		<rect id="SVGID_00000152962608601404357040000009905829739289403552_" x="235.44" y="98.68" width="10" height="15"/>
	</defs>
	<clipPath id="SVGID_00000001649011410711992540000000093613900547602578_">
		<use xlink:href="#SVGID_00000152962608601404357040000009905829739289403552_"  style="overflow:visible;"/>
	</clipPath>
	
		<path style="opacity:0;clip-path:url(#SVGID_00000001649011410711992540000000093613900547602578_);fill:none;stroke:#000000;stroke-width:1.000000e-06;stroke-miterlimit:10;" d="
		M240.44,106.18L240.44,106.18z"/>
	<path style="clip-path:url(#SVGID_00000001649011410711992540000000093613900547602578_);" d="M237.42,111.89l2.32-2.26
		c3.42-3.02,4.73-4.2,4.73-6.39c0-2.5-1.97-4.25-4.64-4.25c-2.47,0-4.09,2.02-4.09,3.96c0,1.23,1.09,1.23,1.16,1.23
		c0.37,0,1.14-0.26,1.14-1.16c0-0.57-0.39-1.14-1.16-1.14c-0.18,0-0.22,0-0.28,0.02c0.5-1.42,1.69-2.23,2.96-2.23
		c1.99,0,2.93,1.77,2.93,3.57c0,1.75-1.1,3.48-2.3,4.84l-4.2,4.69c-0.24,0.24-0.24,0.29-0.24,0.81h8.12l0.61-3.81h-0.55
		c-0.11,0.66-0.26,1.62-0.48,1.95c-0.15,0.17-1.6,0.17-2.08,0.17H237.42"/>
</g>
<polygon class="st2" points="255.65,240.14 255.65,240.14 255.65,240.14 255.65,240.14 255.65,240.14 255.65,240.14 255.65,240.14 
	255.65,240.14 255.65,240.14 255.65,240.14 255.65,240.14 255.65,240.14 255.65,240.14 255.65,240.14 255.65,240.14 255.65,240.14 
	255.65,240.14 255.65,240.14 255.65,240.14 255.65,240.14 255.65,240.14 255.65,240.14 255.65,240.14 255.65,240.14 255.65,240.14 
	255.65,240.14 255.65,240.14 255.65,240.14 255.65,240.14 255.65,240.14 255.65,240.14 255.65,240.14 255.65,240.14 255.65,240.14 
	255.65,240.14 255.65,240.14 255.65,240.14 255.65,240.14 255.65,240.14 255.65,240.14 255.65,240.14 255.65,240.14 255.65,240.14 
	255.65,240.14 255.65,240.14 255.65,240.14 255.65,240.14 255.65,240.14 255.65,240.14 255.65,240.14 255.65,240.14 255.65,240.14 
	255.65,240.14 255.65,240.14 255.65,240.14 255.65,240.14 255.65,240.14 255.65,240.14 255.65,240.14 255.65,240.14 255.65,240.14 
	255.65,240.14 255.65,240.14 255.65,240.14 255.65,240.14 255.65,240.14 255.65,240.14 255.65,240.14 255.65,240.14 255.65,240.14 
	255.65,240.14 255.65,240.14 255.65,240.14 255.65,240.14 255.65,240.14 255.65,240.14 255.65,240.14 255.65,240.14 255.65,240.14 
	255.65,240.14 255.65,240.14 255.65,240.14 255.65,240.14 255.65,240.14 255.65,240.14 "/>
<g>
	<defs>
		<rect id="SVGID_00000118388368689550632620000013316638100762362789_" x="250.81" y="231.52" width="10" height="16"/>
	</defs>
	<clipPath id="SVGID_00000137117047441210596770000000662464556571771817_">
		<use xlink:href="#SVGID_00000118388368689550632620000013316638100762362789_"  style="overflow:visible;"/>
	</clipPath>
	
		<path style="opacity:0;clip-path:url(#SVGID_00000137117047441210596770000000662464556571771817_);fill:none;stroke:#000000;stroke-width:1.000000e-06;stroke-miterlimit:10;" d="
		M255.81,239.52L255.81,239.52z"/>
</g>
<g>
	<defs>
		<rect id="SVGID_00000002351703371665609930000013158766458862316962_" x="235.44" y="146.56" width="10" height="15.6"/>
	</defs>
	<clipPath id="SVGID_00000142151490598969314970000015400946910908037004_">
		<use xlink:href="#SVGID_00000002351703371665609930000013158766458862316962_"  style="overflow:visible;"/>
	</clipPath>
	<path style="clip-path:url(#SVGID_00000142151490598969314970000015400946910908037004_);" d="M240.99,153.75
		c1.8-0.59,3.07-2.12,3.07-3.85c0-1.8-1.93-3.02-4.03-3.02c-2.21,0-3.88,1.31-3.88,2.98c0,0.72,0.48,1.14,1.12,1.14
		c0.68,0,1.12-0.48,1.12-1.12c0-1.09-1.03-1.09-1.36-1.09c0.68-1.07,2.12-1.36,2.91-1.36c0.9,0,2.1,0.48,2.1,2.45
		c0,0.26-0.04,1.53-0.61,2.5c-0.66,1.05-1.4,1.12-1.95,1.14c-0.18,0.02-0.7,0.07-0.85,0.07c-0.18,0.02-0.33,0.04-0.33,0.26
		c0,0.24,0.15,0.24,0.53,0.24h0.96c1.8,0,2.61,1.49,2.61,3.64c0,2.98-1.51,3.61-2.48,3.61c-0.94,0-2.58-0.37-3.35-1.66
		c0.77,0.11,1.45-0.37,1.45-1.2c0-0.79-0.59-1.23-1.23-1.23c-0.52,0-1.22,0.31-1.22,1.27c0,1.99,2.04,3.44,4.42,3.44
		c2.67,0,4.66-1.99,4.66-4.22C244.65,155.92,243.27,154.21,240.99,153.75"/>
</g>
<g>
	<defs>
		<rect id="SVGID_00000071555123445918602810000006710099260058204333_" x="342.02" y="23.95" width="10" height="15.6"/>
	</defs>
	<clipPath id="SVGID_00000003809183508580557200000003554087879153092999_">
		<use xlink:href="#SVGID_00000071555123445918602810000006710099260058204333_"  style="overflow:visible;"/>
	</clipPath>
	<path style="clip-path:url(#SVGID_00000003809183508580557200000003554087879153092999_);" d="M346.67,38.85
		c-0.85,0-2.15-0.55-2.54-2.65c-0.24-1.31-0.24-3.33-0.24-4.62c0-1.4,0-2.85,0.18-4.03c0.42-2.61,2.06-2.8,2.61-2.8
		c0.72,0,2.17,0.39,2.58,2.56c0.22,1.23,0.22,2.89,0.22,4.27c0,1.64,0,3.13-0.24,4.53C348.91,38.2,347.66,38.85,346.67,38.85
		 M351.29,31.85c0-1.75-0.11-3.5-0.88-5.12c-1.01-2.1-2.8-2.45-3.72-2.45c-1.31,0-2.91,0.57-3.81,2.61
		c-0.7,1.51-0.81,3.22-0.81,4.97c0,1.64,0.09,3.61,0.98,5.28c0.94,1.77,2.54,2.21,3.61,2.21c1.18,0,2.85-0.46,3.81-2.54
		C351.18,35.28,351.29,33.58,351.29,31.85z"/>
</g>
<g>
	<defs>
		<rect id="SVGID_00000141430681581394723220000000876571802158961284_" x="458.36" y="24.25" width="10" height="15"/>
	</defs>
	<clipPath id="SVGID_00000065058261369117325540000014492448049115950983_">
		<use xlink:href="#SVGID_00000141430681581394723220000000876571802158961284_"  style="overflow:visible;"/>
	</clipPath>
	
		<path style="opacity:0;clip-path:url(#SVGID_00000065058261369117325540000014492448049115950983_);fill:none;stroke:#000000;stroke-width:1.000000e-06;stroke-miterlimit:10;" d="
		M463.36,31.75L463.36,31.75z"/>
	<path style="clip-path:url(#SVGID_00000065058261369117325540000014492448049115950983_);" d="M460.34,37.47l2.32-2.26
		c3.42-3.02,4.73-4.2,4.73-6.39c0-2.5-1.97-4.25-4.64-4.25c-2.47,0-4.09,2.02-4.09,3.96c0,1.23,1.09,1.23,1.16,1.23
		c0.37,0,1.14-0.26,1.14-1.16c0-0.57-0.39-1.14-1.16-1.14c-0.17,0-0.22,0-0.28,0.02c0.5-1.42,1.69-2.23,2.96-2.23
		c1.99,0,2.93,1.77,2.93,3.57c0,1.75-1.1,3.48-2.3,4.84l-4.2,4.69c-0.24,0.24-0.24,0.29-0.24,0.81h8.12l0.61-3.81h-0.55
		c-0.11,0.66-0.26,1.62-0.48,1.95c-0.15,0.17-1.6,0.17-2.08,0.17H460.34"/>
</g>
<g>
	<defs>
		<rect id="SVGID_00000137844273290829268290000009026807046955699356_" x="344.51" y="229.34" width="8.06" height="15"/>
	</defs>
	<clipPath id="SVGID_00000002356018869568654970000017554147061715777944_">
		<use xlink:href="#SVGID_00000137844273290829268290000009026807046955699356_"  style="overflow:visible;"/>
	</clipPath>
	<path style="clip-path:url(#SVGID_00000002356018869568654970000017554147061715777944_);" d="M349,230.23c0-0.53,0-0.57-0.5-0.57
		c-1.36,1.4-3.28,1.4-3.99,1.4v0.68c0.44,0,1.73,0,2.87-0.57v11.34c0,0.79-0.07,1.05-2.04,1.05h-0.7v0.68
		c0.77-0.07,2.67-0.07,3.55-0.07c0.88,0,2.78,0,3.55,0.07v-0.68h-0.7c-1.97,0-2.04-0.24-2.04-1.05V230.23"/>
</g>
<g>
	<defs>
		<rect id="SVGID_00000019645177650623095270000013855093228770640779_" x="456.87" y="228.04" width="10" height="15.6"/>
	</defs>
	<clipPath id="SVGID_00000183207241927858031480000015393360403859606656_">
		<use xlink:href="#SVGID_00000019645177650623095270000013855093228770640779_"  style="overflow:visible;"/>
	</clipPath>
	<path style="clip-path:url(#SVGID_00000183207241927858031480000015393360403859606656_);" d="M462.42,235.23
		c1.8-0.59,3.07-2.12,3.07-3.85c0-1.8-1.93-3.02-4.03-3.02c-2.21,0-3.88,1.31-3.88,2.98c0,0.72,0.48,1.14,1.12,1.14
		c0.68,0,1.12-0.48,1.12-1.12c0-1.09-1.03-1.09-1.36-1.09c0.68-1.07,2.12-1.36,2.91-1.36c0.9,0,2.1,0.48,2.1,2.45
		c0,0.26-0.04,1.53-0.61,2.5c-0.66,1.05-1.4,1.12-1.95,1.14c-0.17,0.02-0.7,0.07-0.85,0.07c-0.17,0.02-0.33,0.04-0.33,0.26
		c0,0.24,0.15,0.24,0.53,0.24h0.96c1.8,0,2.61,1.49,2.61,3.64c0,2.98-1.51,3.61-2.48,3.61c-0.94,0-2.58-0.37-3.35-1.66
		c0.77,0.11,1.45-0.37,1.45-1.2c0-0.79-0.59-1.23-1.23-1.23c-0.52,0-1.22,0.31-1.22,1.27c0,1.99,2.04,3.44,4.42,3.44
		c2.67,0,4.66-1.99,4.66-4.22C466.08,237.4,464.7,235.69,462.42,235.23"/>
</g>
</svg>
