<?xml version="1.0" encoding="utf-8"?>
<!-- Generator: Adobe Illustrator 27.9.6, SVG Export Plug-In . SVG Version: 9.03 Build 54986)  -->
<svg version="1.1" id="Layer_1" xmlns="http://www.w3.org/2000/svg" xmlns:xlink="http://www.w3.org/1999/xlink" x="0px" y="0px"
	 viewBox="0 0 298.16 164.33" style="enable-background:new 0 0 298.16 164.33;" xml:space="preserve">
<style type="text/css">
	.st0{fill:none;stroke:#000000;stroke-width:2;stroke-miterlimit:10;}
	.st1{fill:#BCBEC0;}
	.st2{opacity:0;fill:none;stroke:#000000;stroke-width:1.000000e-06;stroke-miterlimit:10;}
	
		.st3{opacity:0;clip-path:url(#SVGID_00000026124132230782462840000007446977080212390016_);fill:none;stroke:#000000;stroke-width:1.000000e-06;stroke-miterlimit:10;}
	.st4{clip-path:url(#SVGID_00000026124132230782462840000007446977080212390016_);}
	
		.st5{opacity:0;clip-path:url(#SVGID_00000059284167785872632790000008229619820101873334_);fill:none;stroke:#000000;stroke-width:1.000000e-06;stroke-miterlimit:10;}
	.st6{clip-path:url(#SVGID_00000059284167785872632790000008229619820101873334_);}
	
		.st7{opacity:0;clip-path:url(#SVGID_00000145765540108668800670000017031219208487327408_);fill:none;stroke:#000000;stroke-width:1.000000e-06;stroke-miterlimit:10;}
	.st8{clip-path:url(#SVGID_00000145765540108668800670000017031219208487327408_);}
	
		.st9{opacity:0;clip-path:url(#SVGID_00000141415309169867687210000012794188089562396036_);fill:none;stroke:#000000;stroke-width:1.000000e-06;stroke-miterlimit:10;}
	.st10{clip-path:url(#SVGID_00000141415309169867687210000012794188089562396036_);}
	
		.st11{opacity:0;clip-path:url(#SVGID_00000007399539336216698560000000454203203251166621_);fill:none;stroke:#000000;stroke-width:1.000000e-06;stroke-miterlimit:10;}
	.st12{clip-path:url(#SVGID_00000007399539336216698560000000454203203251166621_);}
	
		.st13{opacity:0;clip-path:url(#SVGID_00000044135380045148783930000012863047244717471405_);fill:none;stroke:#000000;stroke-width:1.000000e-06;stroke-miterlimit:10;}
	.st14{clip-path:url(#SVGID_00000044135380045148783930000012863047244717471405_);}
	
		.st15{opacity:0;clip-path:url(#SVGID_00000032627990209604901840000010131147335858896529_);fill:none;stroke:#000000;stroke-width:1.000000e-06;stroke-miterlimit:10;}
	
		.st16{opacity:0;clip-path:url(#SVGID_00000164493543833968941430000016689423995049035185_);fill:none;stroke:#000000;stroke-width:1.000000e-06;stroke-miterlimit:10;}
	.st17{clip-path:url(#SVGID_00000066509069199312760400000002717480286467285165_);}
	
		.st18{opacity:0;clip-path:url(#SVGID_00000128457213842264047840000005690290011502842559_);fill:none;stroke:#000000;stroke-width:1.000000e-06;stroke-miterlimit:10;}
	.st19{clip-path:url(#SVGID_00000056409733625273002550000014355660481950701240_);}
	
		.st20{opacity:0;clip-path:url(#SVGID_00000160884806420709064900000005873819291673422507_);fill:none;stroke:#000000;stroke-width:1.000000e-06;stroke-miterlimit:10;}
	.st21{clip-path:url(#SVGID_00000160884806420709064900000005873819291673422507_);}
	
		.st22{opacity:0;clip-path:url(#SVGID_00000058590903039410809820000006881831154934370187_);fill:none;stroke:#000000;stroke-width:1.000000e-06;stroke-miterlimit:10;}
	.st23{clip-path:url(#SVGID_00000052816412283344826060000009347452218028740238_);}
	.st24{clip-path:url(#SVGID_00000062165089303143752900000009617738522203166139_);}
	
		.st25{opacity:0;clip-path:url(#SVGID_00000069364278186586236990000004696389305634227866_);fill:none;stroke:#000000;stroke-width:1.000000e-06;stroke-miterlimit:10;}
	.st26{clip-path:url(#SVGID_00000069364278186586236990000004696389305634227866_);}
	.st27{clip-path:url(#SVGID_00000132777438238358128810000017596187224194930876_);}
	.st28{clip-path:url(#SVGID_00000145037409749610867230000004753393569949079697_);}
</style>
<line class="st0" x1="89.92" y1="68.2" x2="62.57" y2="68.2"/>
<g>
	<circle class="st1" cx="109.12" cy="75.61" r="19.2"/>
	<circle class="st0" cx="109.12" cy="75.61" r="19.2"/>
</g>
<g>
	<path class="st1" d="M62.57,99.87c0,2.2-1.8,4-4,4h-12.5c-2.2,0-4-1.8-4-4V55.98c0-2.2,1.8-4,4-4h12.5c2.2,0,4,1.8,4,4V99.87z"/>
	<path class="st0" d="M62.57,99.87c0,2.2-1.8,4-4,4h-12.5c-2.2,0-4-1.8-4-4V55.98c0-2.2,1.8-4,4-4h12.5c2.2,0,4,1.8,4,4V99.87z"/>
</g>
<line class="st0" x1="89.92" y1="82.95" x2="62.57" y2="82.95"/>
<line class="st0" x1="155.67" y1="68.23" x2="128.31" y2="68.23"/>
<line class="st0" x1="155.67" y1="82.98" x2="128.31" y2="82.98"/>
<polygon class="st2" points="104.36,72.49 104.36,72.49 104.36,72.49 104.36,72.49 104.36,72.49 104.36,72.49 104.36,72.49 
	104.36,72.49 104.36,72.49 104.36,72.49 104.36,72.49 104.36,72.49 104.36,72.49 104.36,72.49 104.36,72.49 104.36,72.49 
	104.36,72.49 104.36,72.49 104.36,72.49 104.36,72.49 104.36,72.49 104.36,72.49 104.36,72.49 104.36,72.49 104.36,72.49 
	104.36,72.49 104.36,72.49 104.36,72.49 104.36,72.49 104.36,72.49 104.36,72.49 104.36,72.49 104.36,72.49 104.36,72.49 
	104.36,72.49 104.36,72.49 104.36,72.49 104.36,72.49 104.36,72.49 104.36,72.49 104.36,72.49 104.36,72.49 104.36,72.49 
	104.36,72.49 104.36,72.49 104.36,72.49 104.36,72.49 104.36,72.49 104.36,72.49 104.36,72.49 104.36,72.49 104.36,72.49 
	104.36,72.49 104.36,72.49 104.36,72.49 104.36,72.49 104.36,72.49 104.36,72.49 104.36,72.49 104.36,72.49 104.36,72.49 
	104.36,72.49 104.36,72.49 104.36,72.49 104.36,72.49 104.36,72.49 104.36,72.49 104.36,72.49 104.36,72.49 104.36,72.49 
	104.36,72.49 104.36,72.49 104.36,72.49 104.36,72.49 104.36,72.49 104.36,72.49 104.36,72.49 104.36,72.49 104.36,72.49 
	104.36,72.49 104.36,72.49 104.36,72.49 104.36,72.49 104.36,72.49 104.36,72.49 "/>
<polygon class="st2" points="277.48,85.99 277.48,85.99 277.48,85.99 277.48,85.99 277.48,85.99 277.48,85.99 277.48,85.99 
	277.48,85.99 277.48,85.99 277.48,85.99 277.48,85.99 277.48,85.99 277.48,85.99 277.48,85.99 277.48,85.99 277.48,85.99 
	277.48,85.99 277.48,85.99 277.48,85.99 277.48,85.99 277.48,85.99 277.48,85.99 277.48,85.99 277.48,85.99 277.48,85.99 
	277.48,85.99 277.48,85.99 277.48,85.99 277.48,85.99 277.48,85.99 277.48,85.99 277.48,85.99 277.48,85.99 277.48,85.99 
	277.48,85.99 277.48,85.99 277.48,85.99 277.48,85.99 277.48,85.99 277.48,85.99 277.48,85.99 277.48,85.99 277.48,85.99 
	277.48,85.99 277.48,85.99 277.48,85.99 277.48,85.99 277.48,85.99 277.48,85.99 277.48,85.99 277.48,85.99 277.48,85.99 
	277.48,85.99 277.48,85.99 277.48,85.99 277.48,85.99 277.48,85.99 277.48,85.99 277.48,85.99 277.48,85.99 277.48,85.99 
	277.48,85.99 277.48,85.99 277.48,85.99 277.48,85.99 277.48,85.99 277.48,85.99 277.48,85.99 277.48,85.99 277.48,85.99 
	277.48,85.99 277.48,85.99 277.48,85.99 277.48,85.99 277.48,85.99 277.48,85.99 277.48,85.99 277.48,85.99 277.48,85.99 
	277.48,85.99 277.48,85.99 277.48,85.99 277.48,85.99 277.48,85.99 277.48,85.99 "/>
<polygon class="st2" points="108.6,75.3 108.6,75.3 108.6,75.3 108.6,75.3 108.6,75.3 108.6,75.3 108.6,75.3 108.6,75.3 108.6,75.3 
	108.6,75.3 108.6,75.3 108.6,75.3 108.6,75.3 108.6,75.3 108.6,75.3 108.6,75.3 108.6,75.3 108.6,75.3 108.6,75.3 108.6,75.3 
	108.6,75.3 108.6,75.3 108.6,75.3 108.6,75.3 108.6,75.3 108.6,75.3 108.6,75.3 108.6,75.3 108.6,75.3 108.6,75.3 108.6,75.3 
	108.6,75.3 108.6,75.3 108.6,75.3 108.6,75.3 108.6,75.3 108.6,75.3 108.6,75.3 108.6,75.3 108.6,75.3 108.6,75.3 108.6,75.3 
	108.6,75.3 108.6,75.3 108.6,75.3 108.6,75.3 108.6,75.3 108.6,75.3 108.6,75.3 108.6,75.3 108.6,75.3 108.6,75.3 108.6,75.3 
	108.6,75.3 108.6,75.3 108.6,75.3 108.6,75.3 108.6,75.3 108.6,75.3 108.6,75.3 108.6,75.3 108.6,75.3 108.6,75.3 108.6,75.3 
	108.6,75.3 108.6,75.3 108.6,75.3 108.6,75.3 108.6,75.3 108.6,75.3 108.6,75.3 108.6,75.3 108.6,75.3 108.6,75.3 108.6,75.3 
	108.6,75.3 108.6,75.3 108.6,75.3 108.6,75.3 108.6,75.3 108.6,75.3 108.6,75.3 108.6,75.3 108.6,75.3 108.6,75.3 "/>
<g>
	<defs>
		<rect id="SVGID_1_" x="101.76" y="69.32" width="13.68" height="11.4"/>
	</defs>
	<clipPath id="SVGID_00000084516346124420390970000007253444364920467875_">
		<use xlink:href="#SVGID_1_"  style="overflow:visible;"/>
	</clipPath>
	
		<path style="opacity:0;clip-path:url(#SVGID_00000084516346124420390970000007253444364920467875_);fill:none;stroke:#000000;stroke-width:1.000000e-06;stroke-miterlimit:10;" d="
		M108.6,75.02L108.6,75.02z"/>
	<path style="clip-path:url(#SVGID_00000084516346124420390970000007253444364920467875_);" d="M109.58,73.9l-1.33-3.16
		c-0.05-0.13-0.08-0.19-0.08-0.21c0-0.1,0.27-0.4,0.94-0.46c0.16-0.02,0.32-0.03,0.32-0.3c0-0.19-0.19-0.19-0.24-0.19
		c-0.65,0-1.33,0.05-2,0.05c-0.4,0-1.38-0.05-1.78-0.05c-0.1,0-0.29,0-0.29,0.32c0,0.17,0.16,0.17,0.37,0.17
		c0.95,0,1.05,0.16,1.19,0.51l1.87,4.43l-3.35,3.61l-0.21,0.17c-0.78,0.84-1.53,1.1-2.34,1.14c-0.21,0.02-0.35,0.02-0.35,0.32
		c0,0.02,0,0.17,0.21,0.17c0.48,0,1-0.05,1.49-0.05c0.59,0,1.21,0.05,1.78,0.05c0.1,0,0.29,0,0.29-0.32c0-0.16-0.16-0.17-0.19-0.17
		c-0.14-0.02-0.63-0.05-0.63-0.49c0-0.25,0.24-0.51,0.43-0.72l1.62-1.72l1.43-1.56l1.6,3.8c0.06,0.17,0.08,0.19,0.08,0.22
		c0,0.13-0.3,0.4-0.92,0.46c-0.18,0.02-0.32,0.03-0.32,0.3c0,0.19,0.17,0.19,0.24,0.19c0.44,0,1.56-0.05,2-0.05
		c0.4,0,1.37,0.05,1.76,0.05c0.11,0,0.3,0,0.3-0.3c0-0.19-0.16-0.19-0.29-0.19c-1.06-0.02-1.1-0.06-1.37-0.7
		c-0.62-1.48-1.68-3.96-2.05-4.91c1.08-1.11,2.75-3,3.26-3.45c0.46-0.38,1.06-0.76,2.02-0.81c0.21-0.02,0.35-0.02,0.35-0.32
		c0-0.02,0-0.18-0.21-0.18c-0.48,0-1,0.05-1.49,0.05c-0.59,0-1.19-0.05-1.76-0.05c-0.1,0-0.3,0-0.3,0.32c0,0.11,0.08,0.16,0.19,0.17
		c0.14,0.02,0.63,0.05,0.63,0.49c0,0.22-0.17,0.43-0.3,0.57L109.58,73.9"/>
</g>
<line class="st0" x1="42.07" y1="68.23" x2="14.71" y2="68.23"/>
<line class="st0" x1="42.07" y1="82.98" x2="14.71" y2="82.98"/>
<polygon class="st2" points="54.27,80.48 54.27,80.48 54.27,80.48 54.27,80.48 54.27,80.48 54.27,80.48 54.27,80.48 54.27,80.48 
	54.27,80.48 54.27,80.48 54.27,80.48 54.27,80.48 54.27,80.48 54.27,80.48 54.27,80.48 54.27,80.48 54.27,80.48 54.27,80.48 
	54.27,80.48 54.27,80.48 54.27,80.48 54.27,80.48 54.27,80.48 54.27,80.48 54.27,80.48 54.27,80.48 54.27,80.48 54.27,80.48 
	54.27,80.48 54.27,80.48 54.27,80.48 54.27,80.48 54.27,80.48 54.27,80.48 54.27,80.48 54.27,80.48 54.27,80.48 54.27,80.48 
	54.27,80.48 54.27,80.48 54.27,80.48 54.27,80.48 54.27,80.48 54.27,80.48 54.27,80.48 54.27,80.48 54.27,80.48 54.27,80.48 
	54.27,80.48 54.27,80.48 54.27,80.48 54.27,80.48 54.27,80.48 54.27,80.48 54.27,80.48 54.27,80.48 54.27,80.48 54.27,80.48 
	54.27,80.48 54.27,80.48 54.27,80.48 54.27,80.48 54.27,80.48 54.27,80.48 54.27,80.48 54.27,80.48 54.27,80.48 54.27,80.48 
	54.27,80.48 54.27,80.48 54.27,80.48 54.27,80.48 54.27,80.48 54.27,80.48 54.27,80.48 54.27,80.48 54.27,80.48 54.27,80.48 
	54.27,80.48 54.27,80.48 54.27,80.48 54.27,80.48 54.27,80.48 54.27,80.48 54.27,80.48 "/>
<g>
	<defs>
		<rect id="SVGID_00000147917730247899604000000005245230224739702665_" x="46.56" y="69.95" width="11.4" height="14.82"/>
	</defs>
	<clipPath id="SVGID_00000161632806497958036550000004577769984048998054_">
		<use xlink:href="#SVGID_00000147917730247899604000000005245230224739702665_"  style="overflow:visible;"/>
	</clipPath>
	
		<path style="opacity:0;clip-path:url(#SVGID_00000161632806497958036550000004577769984048998054_);fill:none;stroke:#000000;stroke-width:1.000000e-06;stroke-miterlimit:10;" d="
		M52.26,77.36L52.26,77.36z"/>
	<path style="clip-path:url(#SVGID_00000161632806497958036550000004577769984048998054_);" d="M50.99,81.58
		c-0.22,0-0.73,0-0.73-0.68c0-0.63,0.6-1.27,1.27-1.27c0.67,0,0.97,0.38,0.97,1.35c0,0.24-0.02,0.25-0.17,0.32
		C51.91,81.47,51.43,81.58,50.99,81.58 M50,81.41c-1.24-0.49-1.78-1.73-1.78-3.16c0-1.1,0.41-3.35,1.62-5.07
		c1.16-1.62,2.65-2.35,3.81-2.35c1.59,0,2.75,1.24,2.75,3.37c0,1.59-0.81,5.31-3.48,6.8c-0.08-0.56-0.24-1.72-1.4-1.72
		c-0.84,0-1.62,0.79-1.62,1.62C49.9,81.22,50,81.39,50,81.41z M53,81.54c2.46-0.94,4.8-3.77,4.8-6.83c0-2.56-1.68-4.27-4.05-4.27
		c-3.43,0-6.93,3.61-6.93,7.31c0,2.64,1.78,4.24,4.07,4.24c0.4,0,0.94-0.06,1.56-0.24c-0.06,0.98-0.06,1.02-0.06,1.22
		c0,0.51,0,1.75,1.32,1.75c1.89,0,2.65-2.91,2.65-3.08c0-0.11-0.11-0.16-0.17-0.16c-0.13,0-0.16,0.08-0.19,0.17
		c-0.38,1.13-1.3,1.53-1.86,1.53C53.4,83.17,53.16,82.74,53,81.54z"/>
</g>
<polygon class="st2" points="174.03,89.18 174.03,89.18 174.03,89.18 174.03,89.18 174.03,89.18 174.03,89.18 174.03,89.18 
	174.03,89.18 174.03,89.18 174.03,89.18 174.03,89.18 174.03,89.18 174.03,89.18 174.03,89.18 174.03,89.18 174.03,89.18 
	174.03,89.18 174.03,89.18 174.03,89.18 174.03,89.18 174.03,89.18 174.03,89.18 174.03,89.18 174.03,89.18 174.03,89.18 
	174.03,89.18 174.03,89.18 174.03,89.18 174.03,89.18 174.03,89.18 174.03,89.18 174.03,89.18 174.03,89.18 174.03,89.18 
	174.03,89.18 174.03,89.18 174.03,89.18 174.03,89.18 174.03,89.18 174.03,89.18 174.03,89.18 174.03,89.18 174.03,89.18 
	174.03,89.18 174.03,89.18 174.03,89.18 174.03,89.18 174.03,89.18 174.03,89.18 174.03,89.18 174.03,89.18 174.03,89.18 
	174.03,89.18 174.03,89.18 174.03,89.18 174.03,89.18 174.03,89.18 174.03,89.18 174.03,89.18 174.03,89.18 174.03,89.18 
	174.03,89.18 174.03,89.18 174.03,89.18 174.03,89.18 174.03,89.18 174.03,89.18 174.03,89.18 174.03,89.18 174.03,89.18 
	174.03,89.18 174.03,89.18 174.03,89.18 174.03,89.18 174.03,89.18 174.03,89.18 174.03,89.18 174.03,89.18 174.03,89.18 
	174.03,89.18 174.03,89.18 174.03,89.18 174.03,89.18 174.03,89.18 174.03,89.18 174.03,89.18 "/>
<g>
	<defs>
		<rect id="SVGID_00000021094387292345010530000008616847332646295721_" x="170.13" y="72.47" width="11.4" height="7.41"/>
	</defs>
	<clipPath id="SVGID_00000028295086866655530960000012507977540433028995_">
		<use xlink:href="#SVGID_00000021094387292345010530000008616847332646295721_"  style="overflow:visible;"/>
	</clipPath>
	
		<path style="opacity:0;clip-path:url(#SVGID_00000028295086866655530960000012507977540433028995_);fill:none;stroke:#000000;stroke-width:1.000000e-06;stroke-miterlimit:10;" d="
		M175.83,76.18L175.83,76.18z"/>
	<path style="clip-path:url(#SVGID_00000028295086866655530960000012507977540433028995_);" d="M181.15,76.93
		c0-0.46-0.19-0.49-0.22-0.49c-0.06,0-0.21,0.08-0.22,0.43c-0.06,1.1-1.18,1.75-2.21,1.75c-0.92,0-1.72-0.49-2.54-1.05
		c-0.86-0.57-1.72-1.14-2.75-1.14c-1.48,0-2.65,1.13-2.65,2.59c0,0.35,0.13,0.48,0.22,0.48c0.16,0,0.22-0.3,0.22-0.37
		c0.08-1.33,1.38-1.81,2.21-1.81c0.92,0,1.72,0.49,2.54,1.05c0.86,0.57,1.72,1.14,2.75,1.14C180.01,79.5,181.15,78.33,181.15,76.93
		 M181.15,73.21c0-0.33-0.11-0.48-0.22-0.48c-0.06,0-0.21,0.06-0.22,0.43c-0.06,1.1-1.18,1.75-2.21,1.75
		c-0.92,0-1.72-0.49-2.54-1.05c-0.86-0.57-1.72-1.14-2.75-1.14c-1.48,0-2.65,1.13-2.65,2.59c0,0.35,0.13,0.48,0.22,0.48
		c0.16,0,0.22-0.3,0.22-0.37c0.08-1.33,1.38-1.81,2.21-1.81c0.92,0,1.72,0.49,2.54,1.05c0.86,0.57,1.72,1.14,2.75,1.14
		C179.97,75.8,181.15,74.67,181.15,73.21z"/>
</g>
<g>
	<circle class="st1" cx="236.42" cy="128.01" r="19.2"/>
	<circle class="st0" cx="236.42" cy="128.01" r="19.2"/>
</g>
<line class="st0" x1="282.97" y1="27.38" x2="255.61" y2="27.38"/>
<line class="st0" x1="282.97" y1="128.01" x2="255.61" y2="128.01"/>
<polygon class="st2" points="231.66,75.14 231.66,75.14 231.66,75.14 231.66,75.14 231.66,75.14 231.66,75.14 231.66,75.14 
	231.66,75.14 231.66,75.14 231.66,75.14 231.66,75.14 231.66,75.14 231.66,75.14 231.66,75.14 231.66,75.14 231.66,75.14 
	231.66,75.14 231.66,75.14 231.66,75.14 231.66,75.14 231.66,75.14 231.66,75.14 231.66,75.14 231.66,75.14 231.66,75.14 
	231.66,75.14 231.66,75.14 231.66,75.14 231.66,75.14 231.66,75.14 231.66,75.14 231.66,75.14 231.66,75.14 231.66,75.14 
	231.66,75.14 231.66,75.14 231.66,75.14 231.66,75.14 231.66,75.14 231.66,75.14 231.66,75.14 231.66,75.14 231.66,75.14 
	231.66,75.14 231.66,75.14 231.66,75.14 231.66,75.14 231.66,75.14 231.66,75.14 231.66,75.14 231.66,75.14 231.66,75.14 
	231.66,75.14 231.66,75.14 231.66,75.14 231.66,75.14 231.66,75.14 231.66,75.14 231.66,75.14 231.66,75.14 231.66,75.14 
	231.66,75.14 231.66,75.14 231.66,75.14 231.66,75.14 231.66,75.14 231.66,75.14 231.66,75.14 231.66,75.14 231.66,75.14 
	231.66,75.14 231.66,75.14 231.66,75.14 231.66,75.14 231.66,75.14 231.66,75.14 231.66,75.14 231.66,75.14 231.66,75.14 
	231.66,75.14 231.66,75.14 231.66,75.14 231.66,75.14 231.66,75.14 231.66,75.14 "/>
<polygon class="st2" points="235.9,77.96 235.9,77.96 235.9,77.96 235.9,77.96 235.9,77.96 235.9,77.96 235.9,77.96 235.9,77.96 
	235.9,77.96 235.9,77.96 235.9,77.96 235.9,77.96 235.9,77.96 235.9,77.96 235.9,77.96 235.9,77.96 235.9,77.96 235.9,77.96 
	235.9,77.96 235.9,77.96 235.9,77.96 235.9,77.96 235.9,77.96 235.9,77.96 235.9,77.96 235.9,77.96 235.9,77.96 235.9,77.96 
	235.9,77.96 235.9,77.96 235.9,77.96 235.9,77.96 235.9,77.96 235.9,77.96 235.9,77.96 235.9,77.96 235.9,77.96 235.9,77.96 
	235.9,77.96 235.9,77.96 235.9,77.96 235.9,77.96 235.9,77.96 235.9,77.96 235.9,77.96 235.9,77.96 235.9,77.96 235.9,77.96 
	235.9,77.96 235.9,77.96 235.9,77.96 235.9,77.96 235.9,77.96 235.9,77.96 235.9,77.96 235.9,77.96 235.9,77.96 235.9,77.96 
	235.9,77.96 235.9,77.96 235.9,77.96 235.9,77.96 235.9,77.96 235.9,77.96 235.9,77.96 235.9,77.96 235.9,77.96 235.9,77.96 
	235.9,77.96 235.9,77.96 235.9,77.96 235.9,77.96 235.9,77.96 235.9,77.96 235.9,77.96 235.9,77.96 235.9,77.96 235.9,77.96 
	235.9,77.96 235.9,77.96 235.9,77.96 235.9,77.96 235.9,77.96 235.9,77.96 235.9,77.96 "/>
<g>
	<circle class="st1" cx="236.42" cy="27.33" r="19.2"/>
	<circle class="st0" cx="236.42" cy="27.33" r="19.2"/>
</g>
<g>
	<circle class="st1" cx="235.9" cy="77.93" r="13.38"/>
	<circle class="st0" cx="235.9" cy="77.93" r="13.38"/>
</g>
<polygon class="st2" points="235.9,27.38 235.9,27.38 235.9,27.38 235.9,27.38 235.9,27.38 235.9,27.38 235.9,27.38 235.9,27.38 
	235.9,27.38 235.9,27.38 235.9,27.38 235.9,27.38 235.9,27.38 235.9,27.38 235.9,27.38 235.9,27.38 235.9,27.38 235.9,27.38 
	235.9,27.38 235.9,27.38 235.9,27.38 235.9,27.38 235.9,27.38 235.9,27.38 235.9,27.38 235.9,27.38 235.9,27.38 235.9,27.38 
	235.9,27.38 235.9,27.38 235.9,27.38 235.9,27.38 235.9,27.38 235.9,27.38 235.9,27.38 235.9,27.38 235.9,27.38 235.9,27.38 
	235.9,27.38 235.9,27.38 235.9,27.38 235.9,27.38 235.9,27.38 235.9,27.38 235.9,27.38 235.9,27.38 235.9,27.38 235.9,27.38 
	235.9,27.38 235.9,27.38 235.9,27.38 235.9,27.38 235.9,27.38 235.9,27.38 235.9,27.38 235.9,27.38 235.9,27.38 235.9,27.38 
	235.9,27.38 235.9,27.38 235.9,27.38 235.9,27.38 235.9,27.38 235.9,27.38 235.9,27.38 235.9,27.38 235.9,27.38 235.9,27.38 
	235.9,27.38 235.9,27.38 235.9,27.38 235.9,27.38 235.9,27.38 235.9,27.38 235.9,27.38 235.9,27.38 235.9,27.38 235.9,27.38 
	235.9,27.38 235.9,27.38 235.9,27.38 235.9,27.38 235.9,27.38 235.9,27.38 235.9,27.38 "/>
<g>
	<defs>
		<rect id="SVGID_00000002375558524510696430000015717477137699008390_" x="230.44" y="21.63" width="11.97" height="11.4"/>
	</defs>
	<clipPath id="SVGID_00000001628649277892765490000005498490845013160115_">
		<use xlink:href="#SVGID_00000002375558524510696430000015717477137699008390_"  style="overflow:visible;"/>
	</clipPath>
	
		<path style="opacity:0;clip-path:url(#SVGID_00000001628649277892765490000005498490845013160115_);fill:none;stroke:#000000;stroke-width:1.000000e-06;stroke-miterlimit:10;" d="
		M236.42,27.33L236.42,27.33z"/>
	<path style="clip-path:url(#SVGID_00000001628649277892765490000005498490845013160115_);" d="M240.01,23.45
		c0.16-0.65,0.45-1.13,1.72-1.18c0.08,0,0.27-0.02,0.27-0.32c0-0.02,0-0.18-0.21-0.18c-0.52,0-1.08,0.05-1.62,0.05
		c-0.54,0-1.13-0.05-1.65-0.05c-0.1,0-0.29,0-0.29,0.32c0,0.17,0.16,0.17,0.29,0.17c0.91,0.02,1.08,0.35,1.08,0.7
		c0,0.05-0.03,0.29-0.05,0.33l-1.43,5.67c-0.54,2.13-2.37,3.51-3.96,3.51c-1.08,0-1.94-0.7-1.94-2.06c0-0.03,0-0.54,0.17-1.24
		l1.54-6.18c0.14-0.57,0.18-0.73,1.33-0.73c0.41,0,0.54,0,0.54-0.32c0-0.18-0.18-0.18-0.22-0.18c-0.45,0-1.59,0.05-2.03,0.05
		c-0.46,0-1.59-0.05-2.05-0.05c-0.13,0-0.3,0-0.3,0.32c0,0.17,0.14,0.17,0.45,0.17c0.03,0,0.33,0,0.6,0.03
		c0.29,0.03,0.43,0.05,0.43,0.25c0,0.1-0.18,0.76-0.27,1.13l-0.35,1.4c-0.14,0.62-0.91,3.62-0.97,3.92
		c-0.11,0.44-0.11,0.68-0.11,0.92c0,1.94,1.45,3.05,3.11,3.05c2,0,3.97-1.8,4.5-3.89L240.01,23.45"/>
</g>
<polygon class="st2" points="580.49,117.12 580.49,117.12 580.49,117.12 580.49,117.12 580.49,117.12 580.49,117.12 580.49,117.12 
	580.49,117.12 580.49,117.12 580.49,117.12 580.49,117.12 580.49,117.12 580.49,117.12 580.49,117.12 580.49,117.12 580.49,117.12 
	580.49,117.12 580.49,117.12 580.49,117.12 580.49,117.12 580.49,117.12 580.49,117.12 580.49,117.12 580.49,117.12 580.49,117.12 
	580.49,117.12 580.49,117.12 580.49,117.12 580.49,117.12 580.49,117.12 580.49,117.12 580.49,117.12 580.49,117.12 580.49,117.12 
	580.49,117.12 580.49,117.12 580.49,117.12 580.49,117.12 580.49,117.12 580.49,117.12 580.49,117.12 580.49,117.12 580.49,117.12 
	580.49,117.12 580.49,117.12 580.49,117.12 580.49,117.12 580.49,117.12 580.49,117.12 580.49,117.12 580.49,117.12 580.49,117.12 
	580.49,117.12 580.49,117.12 580.49,117.12 580.49,117.12 580.49,117.12 580.49,117.12 580.49,117.12 580.49,117.12 580.49,117.12 
	580.49,117.12 580.49,117.12 580.49,117.12 580.49,117.12 580.49,117.12 580.49,117.12 580.49,117.12 580.49,117.12 580.49,117.12 
	580.49,117.12 580.49,117.12 580.49,117.12 580.49,117.12 580.49,117.12 580.49,117.12 580.49,117.12 580.49,117.12 580.49,117.12 
	580.49,117.12 580.49,117.12 580.49,117.12 580.49,117.12 580.49,117.12 580.49,117.12 580.49,117.12 "/>
<g>
	<defs>
		<rect id="SVGID_00000093150109346349727950000004429801557292138662_" x="230.77" y="72.26" width="10.26" height="11.4"/>
	</defs>
	<clipPath id="SVGID_00000165918035905566367370000004020181181435665800_">
		<use xlink:href="#SVGID_00000093150109346349727950000004429801557292138662_"  style="overflow:visible;"/>
	</clipPath>
	
		<path style="opacity:0;clip-path:url(#SVGID_00000165918035905566367370000004020181181435665800_);fill:none;stroke:#000000;stroke-width:1.000000e-06;stroke-miterlimit:10;" d="
		M235.9,77.96L235.9,77.96z"/>
	<path style="clip-path:url(#SVGID_00000165918035905566367370000004020181181435665800_);" d="M236.11,78.19
		c0.14-0.16,0.14-0.22,0.14-0.25c0-0.08-0.06-0.16-0.11-0.22l-3.26-4.7h3.67c2.69,0,3.48,0.57,3.81,3.08h0.4l-0.45-3.58h-8.82
		c-0.38,0-0.41,0-0.41,0.37l3.96,5.75l-3.78,4.31c-0.16,0.18-0.16,0.21-0.16,0.25c0,0.17,0.16,0.17,0.4,0.17h8.82l0.45-3.75h-0.4
		c-0.29,2.65-1.37,3.08-3.86,3.08h-4.39L236.11,78.19"/>
</g>
<polygon class="st2" points="235.62,129.4 235.62,129.4 235.62,129.4 235.62,129.4 235.62,129.4 235.62,129.4 235.62,129.4 
	235.62,129.4 235.62,129.4 235.62,129.4 235.62,129.4 235.62,129.4 235.62,129.4 235.62,129.4 235.62,129.4 235.62,129.4 
	235.62,129.4 235.62,129.4 235.62,129.4 235.62,129.4 235.62,129.4 235.62,129.4 235.62,129.4 235.62,129.4 235.62,129.4 
	235.62,129.4 235.62,129.4 235.62,129.4 235.62,129.4 235.62,129.4 235.62,129.4 235.62,129.4 235.62,129.4 235.62,129.4 
	235.62,129.4 235.62,129.4 235.62,129.4 235.62,129.4 235.62,129.4 235.62,129.4 235.62,129.4 235.62,129.4 235.62,129.4 
	235.62,129.4 235.62,129.4 235.62,129.4 235.62,129.4 235.62,129.4 235.62,129.4 235.62,129.4 235.62,129.4 235.62,129.4 
	235.62,129.4 235.62,129.4 235.62,129.4 235.62,129.4 235.62,129.4 235.62,129.4 235.62,129.4 235.62,129.4 235.62,129.4 
	235.62,129.4 235.62,129.4 235.62,129.4 235.62,129.4 235.62,129.4 235.62,129.4 235.62,129.4 235.62,129.4 235.62,129.4 
	235.62,129.4 235.62,129.4 235.62,129.4 235.62,129.4 235.62,129.4 235.62,129.4 235.62,129.4 235.62,129.4 235.62,129.4 
	235.62,129.4 235.62,129.4 235.62,129.4 235.62,129.4 235.62,129.4 235.62,129.4 "/>
<g>
	<defs>
		<rect id="SVGID_00000153697613075599438030000002087439716193467281_" x="230.45" y="122.51" width="11.97" height="11.4"/>
	</defs>
	<clipPath id="SVGID_00000150075103464522308770000014487934710578556291_">
		<use xlink:href="#SVGID_00000153697613075599438030000002087439716193467281_"  style="overflow:visible;"/>
	</clipPath>
	
		<path style="opacity:0;clip-path:url(#SVGID_00000150075103464522308770000014487934710578556291_);fill:none;stroke:#000000;stroke-width:1.000000e-06;stroke-miterlimit:10;" d="
		M236.43,128.21L236.43,128.21z"/>
	<path style="clip-path:url(#SVGID_00000150075103464522308770000014487934710578556291_);" d="M239.8,124.47
		c0.78-1.24,1.45-1.29,2.03-1.32c0.19-0.02,0.21-0.29,0.21-0.3c0-0.13-0.08-0.19-0.21-0.19c-0.41,0-0.87,0.05-1.3,0.05
		c-0.52,0-1.06-0.05-1.57-0.05c-0.1,0-0.3,0-0.3,0.3c0,0.18,0.14,0.19,0.25,0.19c0.43,0.03,0.73,0.19,0.73,0.52
		c0,0.24-0.24,0.59-0.24,0.6l-4.88,7.75l-1.08-8.4c0-0.27,0.37-0.48,1.1-0.48c0.22,0,0.4,0,0.4-0.32c0-0.14-0.13-0.18-0.22-0.18
		c-0.64,0-1.32,0.05-1.97,0.05c-0.29,0-0.59-0.02-0.87-0.02c-0.29,0-0.59-0.03-0.86-0.03c-0.11,0-0.3,0-0.3,0.3
		c0,0.19,0.14,0.19,0.4,0.19c0.89,0,0.91,0.14,0.95,0.54l1.25,9.8c0.05,0.32,0.11,0.37,0.32,0.37c0.25,0,0.32-0.08,0.45-0.29
		L239.8,124.47"/>
</g>
<line class="st0" x1="236.42" y1="64.55" x2="236.42" y2="46.53"/>
<line class="st0" x1="236.42" y1="109.33" x2="236.42" y2="91.31"/>
<line class="st0" x1="217.22" y1="27.38" x2="189.87" y2="27.38"/>
<line class="st0" x1="217.22" y1="129.4" x2="189.87" y2="129.4"/>
<polygon class="st2" points="795.27,46.34 795.27,46.34 795.27,46.34 795.27,46.34 795.27,46.34 795.27,46.34 795.27,46.34 
	795.27,46.34 795.27,46.34 795.27,46.34 795.27,46.34 795.27,46.34 795.27,46.34 795.27,46.34 795.27,46.34 795.27,46.34 
	795.27,46.34 795.27,46.34 795.27,46.34 795.27,46.34 795.27,46.34 795.27,46.34 795.27,46.34 795.27,46.34 795.27,46.34 
	795.27,46.34 795.27,46.34 795.27,46.34 795.27,46.34 795.27,46.34 795.27,46.34 795.27,46.34 795.27,46.34 795.27,46.34 
	795.27,46.34 795.27,46.34 795.27,46.34 795.27,46.34 795.27,46.34 795.27,46.34 795.27,46.34 795.27,46.34 795.27,46.34 
	795.27,46.34 795.27,46.34 795.27,46.34 795.27,46.34 795.27,46.34 795.27,46.34 795.27,46.34 795.27,46.34 795.27,46.34 
	795.27,46.34 795.27,46.34 795.27,46.34 795.27,46.34 795.27,46.34 795.27,46.34 795.27,46.34 795.27,46.34 795.27,46.34 
	795.27,46.34 795.27,46.34 795.27,46.34 795.27,46.34 795.27,46.34 795.27,46.34 795.27,46.34 795.27,46.34 795.27,46.34 
	795.27,46.34 795.27,46.34 795.27,46.34 795.27,46.34 795.27,46.34 795.27,46.34 795.27,46.34 795.27,46.34 795.27,46.34 
	795.27,46.34 795.27,46.34 795.27,46.34 795.27,46.34 795.27,46.34 795.27,46.34 "/>
<g>
	<defs>
		<rect id="SVGID_00000014606111335632426700000001852098563056722873_" x="789.17" y="34.96" width="13" height="21"/>
	</defs>
	<clipPath id="SVGID_00000122702330100805507820000014374606154793722534_">
		<use xlink:href="#SVGID_00000014606111335632426700000001852098563056722873_"  style="overflow:visible;"/>
	</clipPath>
	
		<path style="opacity:0;clip-path:url(#SVGID_00000122702330100805507820000014374606154793722534_);fill:none;stroke:#000000;stroke-width:1.000000e-06;stroke-miterlimit:10;" d="
		M795.67,45.46L795.67,45.46z"/>
</g>
<polygon class="st2" points="125,106.24 125,106.24 125,106.24 125,106.24 125,106.24 125,106.24 125,106.24 125,106.24 125,106.24 
	125,106.24 125,106.24 125,106.24 125,106.24 125,106.24 125,106.24 125,106.24 125,106.24 125,106.24 125,106.24 125,106.24 
	125,106.24 125,106.24 125,106.24 125,106.24 125,106.24 125,106.24 125,106.24 125,106.24 125,106.24 125,106.24 125,106.24 
	125,106.24 125,106.24 125,106.24 125,106.24 125,106.24 125,106.24 125,106.24 125,106.24 125,106.24 125,106.24 125,106.24 
	125,106.24 125,106.24 125,106.24 125,106.24 125,106.24 125,106.24 125,106.24 125,106.24 125,106.24 125,106.24 125,106.24 
	125,106.24 125,106.24 125,106.24 125,106.24 125,106.24 125,106.24 125,106.24 125,106.24 125,106.24 125,106.24 125,106.24 
	125,106.24 125,106.24 125,106.24 125,106.24 125,106.24 125,106.24 125,106.24 125,106.24 125,106.24 125,106.24 125,106.24 
	125,106.24 125,106.24 125,106.24 125,106.24 125,106.24 125,106.24 125,106.24 125,106.24 125,106.24 125,106.24 "/>
<g>
	<defs>
		<rect id="SVGID_00000055704644838578438190000001609672597984516027_" x="122.99" y="101.9" width="5.13" height="8.55"/>
	</defs>
	<clipPath id="SVGID_00000011019617043476635890000017515950317293043121_">
		<use xlink:href="#SVGID_00000055704644838578438190000001609672597984516027_"  style="overflow:visible;"/>
	</clipPath>
	
		<path style="opacity:0;clip-path:url(#SVGID_00000011019617043476635890000017515950317293043121_);fill:none;stroke:#000000;stroke-width:1.000000e-06;stroke-miterlimit:10;" d="
		M125.56,106.18L125.56,106.18z"/>
</g>
<g>
	<defs>
		<rect id="SVGID_00000011747217062135118330000010295092530626149051_" x="73.95" y="84.9" width="4.59" height="8.55"/>
	</defs>
	<clipPath id="SVGID_00000003811189901831591270000004392781479809098651_">
		<use xlink:href="#SVGID_00000011747217062135118330000010295092530626149051_"  style="overflow:visible;"/>
	</clipPath>
	<path style="clip-path:url(#SVGID_00000003811189901831591270000004392781479809098651_);" d="M76.51,85.41c0-0.3,0-0.33-0.29-0.33
		c-0.77,0.8-1.87,0.8-2.27,0.8v0.39c0.25,0,0.99,0,1.63-0.33v6.46c0,0.45-0.04,0.6-1.16,0.6h-0.4v0.39
		c0.44-0.04,1.52-0.04,2.02-0.04c0.5,0,1.58,0,2.02,0.04v-0.39h-0.4c-1.12,0-1.16-0.14-1.16-0.6V85.41"/>
</g>
<polygon class="st2" points="611.49,32.52 611.49,32.52 611.49,32.52 611.49,32.52 611.49,32.52 611.49,32.52 611.49,32.52 
	611.49,32.52 611.49,32.52 611.49,32.52 611.49,32.52 611.49,32.52 611.49,32.52 611.49,32.52 611.49,32.52 611.49,32.52 
	611.49,32.52 611.49,32.52 611.49,32.52 611.49,32.52 611.49,32.52 611.49,32.52 611.49,32.52 611.49,32.52 611.49,32.52 
	611.49,32.52 611.49,32.52 611.49,32.52 611.49,32.52 611.49,32.52 611.49,32.52 611.49,32.52 611.49,32.52 611.49,32.52 
	611.49,32.52 611.49,32.52 611.49,32.52 611.49,32.52 611.49,32.52 611.49,32.52 611.49,32.52 611.49,32.52 611.49,32.52 
	611.49,32.52 611.49,32.52 611.49,32.52 611.49,32.52 611.49,32.52 611.49,32.52 611.49,32.52 611.49,32.52 611.49,32.52 
	611.49,32.52 611.49,32.52 611.49,32.52 611.49,32.52 611.49,32.52 611.49,32.52 611.49,32.52 611.49,32.52 611.49,32.52 
	611.49,32.52 611.49,32.52 611.49,32.52 611.49,32.52 611.49,32.52 611.49,32.52 611.49,32.52 611.49,32.52 611.49,32.52 
	611.49,32.52 611.49,32.52 611.49,32.52 611.49,32.52 611.49,32.52 611.49,32.52 611.49,32.52 611.49,32.52 611.49,32.52 
	611.49,32.52 611.49,32.52 611.49,32.52 611.49,32.52 611.49,32.52 611.49,32.52 "/>
<g>
	<defs>
		<rect id="SVGID_00000144311793285978648460000017081191496108712833_" x="606.58" y="23.91" width="10" height="16"/>
	</defs>
	<clipPath id="SVGID_00000115505340266817227990000001563750374742891692_">
		<use xlink:href="#SVGID_00000144311793285978648460000017081191496108712833_"  style="overflow:visible;"/>
	</clipPath>
	
		<path style="opacity:0;clip-path:url(#SVGID_00000115505340266817227990000001563750374742891692_);fill:none;stroke:#000000;stroke-width:1.000000e-06;stroke-miterlimit:10;" d="
		M611.58,31.91L611.58,31.91z"/>
</g>
<g>
	<defs>
		<rect id="SVGID_00000028297427519677393220000010537405908948465579_" x="73.4" y="57.28" width="5.7" height="8.89"/>
	</defs>
	<clipPath id="SVGID_00000051367540768194488450000008649800987735174310_">
		<use xlink:href="#SVGID_00000028297427519677393220000010537405908948465579_"  style="overflow:visible;"/>
	</clipPath>
	<path style="clip-path:url(#SVGID_00000051367540768194488450000008649800987735174310_);" d="M76.05,65.77
		c-0.49,0-1.22-0.31-1.45-1.51c-0.14-0.75-0.14-1.9-0.14-2.63c0-0.8,0-1.62,0.1-2.3c0.24-1.49,1.17-1.6,1.49-1.6
		c0.41,0,1.24,0.22,1.47,1.46c0.12,0.7,0.12,1.65,0.12,2.43c0,0.94,0,1.78-0.14,2.58C77.32,65.39,76.61,65.77,76.05,65.77
		 M78.68,61.77c0-1-0.06-2-0.5-2.92c-0.57-1.2-1.6-1.4-2.12-1.4c-0.75,0-1.66,0.33-2.17,1.49c-0.4,0.86-0.46,1.83-0.46,2.83
		c0,0.94,0.05,2.06,0.56,3.01c0.54,1.01,1.45,1.26,2.06,1.26c0.67,0,1.62-0.26,2.17-1.45C78.62,63.73,78.68,62.76,78.68,61.77z"/>
</g>
<polygon class="st2" points="156.9,112.68 156.9,112.68 156.9,112.68 156.9,112.68 156.9,112.68 156.9,112.68 156.9,112.68 
	156.9,112.68 156.9,112.68 156.9,112.68 156.9,112.68 156.9,112.68 156.9,112.68 156.9,112.68 156.9,112.68 156.9,112.68 
	156.9,112.68 156.9,112.68 156.9,112.68 156.9,112.68 156.9,112.68 156.9,112.68 156.9,112.68 156.9,112.68 156.9,112.68 
	156.9,112.68 156.9,112.68 156.9,112.68 156.9,112.68 156.9,112.68 156.9,112.68 156.9,112.68 156.9,112.68 156.9,112.68 
	156.9,112.68 156.9,112.68 156.9,112.68 156.9,112.68 156.9,112.68 156.9,112.68 156.9,112.68 156.9,112.68 156.9,112.68 
	156.9,112.68 156.9,112.68 156.9,112.68 156.9,112.68 156.9,112.68 156.9,112.68 156.9,112.68 156.9,112.68 156.9,112.68 
	156.9,112.68 156.9,112.68 156.9,112.68 156.9,112.68 156.9,112.68 156.9,112.68 156.9,112.68 156.9,112.68 156.9,112.68 
	156.9,112.68 156.9,112.68 156.9,112.68 156.9,112.68 156.9,112.68 156.9,112.68 156.9,112.68 156.9,112.68 156.9,112.68 
	156.9,112.68 156.9,112.68 156.9,112.68 156.9,112.68 156.9,112.68 156.9,112.68 156.9,112.68 156.9,112.68 156.9,112.68 
	156.9,112.68 156.9,112.68 156.9,112.68 156.9,112.68 156.9,112.68 156.9,112.68 "/>
<g>
	<defs>
		<rect id="SVGID_00000175307851622301586170000006405672356253649833_" x="139.7" y="57.45" width="5.7" height="8.55"/>
	</defs>
	<clipPath id="SVGID_00000070813465017970644350000011030186321021890475_">
		<use xlink:href="#SVGID_00000175307851622301586170000006405672356253649833_"  style="overflow:visible;"/>
	</clipPath>
	
		<path style="opacity:0;clip-path:url(#SVGID_00000070813465017970644350000011030186321021890475_);fill:none;stroke:#000000;stroke-width:1.000000e-06;stroke-miterlimit:10;" d="
		M142.54,61.72L142.54,61.72z"/>
	<path style="clip-path:url(#SVGID_00000070813465017970644350000011030186321021890475_);" d="M140.82,64.98l1.32-1.29
		c1.95-1.72,2.7-2.4,2.7-3.64c0-1.42-1.12-2.42-2.65-2.42c-1.41,0-2.33,1.15-2.33,2.26c0,0.7,0.62,0.7,0.66,0.7
		c0.21,0,0.65-0.15,0.65-0.66c0-0.32-0.22-0.65-0.66-0.65c-0.1,0-0.12,0-0.16,0.01c0.29-0.81,0.96-1.27,1.68-1.27
		c1.14,0,1.67,1.01,1.67,2.03c0,1-0.62,1.98-1.31,2.76l-2.4,2.67c-0.14,0.14-0.14,0.16-0.14,0.46h4.63l0.35-2.17h-0.31
		c-0.06,0.37-0.15,0.92-0.27,1.11c-0.09,0.1-0.91,0.1-1.19,0.1H140.82"/>
</g>
<polygon class="st2" points="151.21,138.06 151.21,138.06 151.21,138.06 151.21,138.06 151.21,138.06 151.21,138.06 151.21,138.06 
	151.21,138.06 151.21,138.06 151.21,138.06 151.21,138.06 151.21,138.06 151.21,138.06 151.21,138.06 151.21,138.06 151.21,138.06 
	151.21,138.06 151.21,138.06 151.21,138.06 151.21,138.06 151.21,138.06 151.21,138.06 151.21,138.06 151.21,138.06 151.21,138.06 
	151.21,138.06 151.21,138.06 151.21,138.06 151.21,138.06 151.21,138.06 151.21,138.06 151.21,138.06 151.21,138.06 151.21,138.06 
	151.21,138.06 151.21,138.06 151.21,138.06 151.21,138.06 151.21,138.06 151.21,138.06 151.21,138.06 151.21,138.06 151.21,138.06 
	151.21,138.06 151.21,138.06 151.21,138.06 151.21,138.06 151.21,138.06 151.21,138.06 151.21,138.06 151.21,138.06 151.21,138.06 
	151.21,138.06 151.21,138.06 151.21,138.06 151.21,138.06 151.21,138.06 151.21,138.06 151.21,138.06 151.21,138.06 151.21,138.06 
	151.21,138.06 151.21,138.06 151.21,138.06 151.21,138.06 151.21,138.06 151.21,138.06 151.21,138.06 151.21,138.06 151.21,138.06 
	151.21,138.06 151.21,138.06 151.21,138.06 151.21,138.06 151.21,138.06 151.21,138.06 151.21,138.06 151.21,138.06 151.21,138.06 
	151.21,138.06 151.21,138.06 151.21,138.06 151.21,138.06 151.21,138.06 151.21,138.06 "/>
<g>
	<defs>
		<rect id="SVGID_00000039819294948481907170000016527472442443339680_" x="148.46" y="133.15" width="5.7" height="9.12"/>
	</defs>
	<clipPath id="SVGID_00000116235882762951318810000011445752475881623979_">
		<use xlink:href="#SVGID_00000039819294948481907170000016527472442443339680_"  style="overflow:visible;"/>
	</clipPath>
	
		<path style="opacity:0;clip-path:url(#SVGID_00000116235882762951318810000011445752475881623979_);fill:none;stroke:#000000;stroke-width:1.000000e-06;stroke-miterlimit:10;" d="
		M151.3,137.71L151.3,137.71z"/>
</g>
<g>
	<defs>
		<rect id="SVGID_00000129887995405860183810000004432017900511605431_" x="139.7" y="84.73" width="5.7" height="8.89"/>
	</defs>
	<clipPath id="SVGID_00000029046407020014180580000011010589000499551880_">
		<use xlink:href="#SVGID_00000129887995405860183810000004432017900511605431_"  style="overflow:visible;"/>
	</clipPath>
	<path style="clip-path:url(#SVGID_00000029046407020014180580000011010589000499551880_);" d="M142.86,88.83
		c1.02-0.34,1.75-1.21,1.75-2.2c0-1.02-1.1-1.72-2.3-1.72c-1.26,0-2.21,0.75-2.21,1.7c0,0.41,0.27,0.65,0.64,0.65
		c0.39,0,0.64-0.27,0.64-0.64c0-0.62-0.59-0.62-0.77-0.62c0.39-0.61,1.21-0.77,1.66-0.77c0.51,0,1.2,0.27,1.2,1.4
		c0,0.15-0.02,0.87-0.35,1.42c-0.37,0.6-0.8,0.64-1.11,0.65c-0.1,0.01-0.4,0.04-0.49,0.04c-0.1,0.01-0.19,0.02-0.19,0.15
		c0,0.14,0.09,0.14,0.3,0.14h0.55c1.02,0,1.49,0.85,1.49,2.07c0,1.7-0.86,2.06-1.41,2.06c-0.54,0-1.47-0.21-1.91-0.95
		c0.44,0.06,0.82-0.21,0.82-0.69c0-0.45-0.34-0.7-0.7-0.7c-0.3,0-0.7,0.17-0.7,0.72c0,1.14,1.16,1.96,2.52,1.96
		c1.52,0,2.66-1.14,2.66-2.41C144.94,90.07,144.16,89.09,142.86,88.83"/>
</g>
<g>
	<defs>
		<rect id="SVGID_00000034778039652654271090000000099355090825616024_" x="200.43" y="14.86" width="5.7" height="8.89"/>
	</defs>
	<clipPath id="SVGID_00000138566539348545009220000016311677020659844512_">
		<use xlink:href="#SVGID_00000034778039652654271090000000099355090825616024_"  style="overflow:visible;"/>
	</clipPath>
	<path style="clip-path:url(#SVGID_00000138566539348545009220000016311677020659844512_);" d="M203.09,23.35
		c-0.49,0-1.22-0.31-1.45-1.51c-0.14-0.75-0.14-1.9-0.14-2.63c0-0.8,0-1.62,0.1-2.3c0.24-1.49,1.17-1.6,1.49-1.6
		c0.41,0,1.24,0.22,1.47,1.46c0.12,0.7,0.12,1.65,0.12,2.43c0,0.94,0,1.78-0.14,2.58C204.36,22.98,203.65,23.35,203.09,23.35
		 M205.72,19.36c0-1-0.06-2-0.5-2.92c-0.57-1.2-1.6-1.4-2.12-1.4c-0.75,0-1.66,0.33-2.17,1.49c-0.4,0.86-0.46,1.83-0.46,2.83
		c0,0.94,0.05,2.06,0.56,3.01c0.54,1.01,1.45,1.26,2.06,1.26c0.67,0,1.62-0.26,2.17-1.45C205.66,21.32,205.72,20.35,205.72,19.36z"
		/>
</g>
<g>
	<defs>
		<rect id="SVGID_00000122711708539183853640000000851653895698939811_" x="266.73" y="15.03" width="5.7" height="8.55"/>
	</defs>
	<clipPath id="SVGID_00000150812360729729794930000008701502028321539970_">
		<use xlink:href="#SVGID_00000122711708539183853640000000851653895698939811_"  style="overflow:visible;"/>
	</clipPath>
	
		<path style="opacity:0;clip-path:url(#SVGID_00000150812360729729794930000008701502028321539970_);fill:none;stroke:#000000;stroke-width:1.000000e-06;stroke-miterlimit:10;" d="
		M269.58,19.31L269.58,19.31z"/>
	<path style="clip-path:url(#SVGID_00000150812360729729794930000008701502028321539970_);" d="M267.86,22.56l1.32-1.29
		c1.95-1.72,2.7-2.4,2.7-3.64c0-1.42-1.12-2.42-2.65-2.42c-1.41,0-2.33,1.15-2.33,2.26c0,0.7,0.62,0.7,0.66,0.7
		c0.21,0,0.65-0.15,0.65-0.66c0-0.32-0.22-0.65-0.66-0.65c-0.1,0-0.12,0-0.16,0.01c0.29-0.81,0.96-1.27,1.68-1.27
		c1.14,0,1.67,1.01,1.67,2.03c0,1-0.62,1.98-1.31,2.76l-2.4,2.67c-0.14,0.14-0.14,0.16-0.14,0.46h4.63l0.35-2.17h-0.31
		c-0.06,0.37-0.15,0.92-0.27,1.11c-0.09,0.1-0.91,0.1-1.19,0.1H267.86"/>
</g>
<g>
	<defs>
		<rect id="SVGID_00000036935838055450405420000002910082000353238437_" x="201.85" y="131.91" width="4.59" height="8.55"/>
	</defs>
	<clipPath id="SVGID_00000118379528569845037840000014509166674446985615_">
		<use xlink:href="#SVGID_00000036935838055450405420000002910082000353238437_"  style="overflow:visible;"/>
	</clipPath>
	<path style="clip-path:url(#SVGID_00000118379528569845037840000014509166674446985615_);" d="M204.41,132.42
		c0-0.3,0-0.33-0.29-0.33c-0.77,0.8-1.87,0.8-2.27,0.8v0.39c0.25,0,0.99,0,1.63-0.32v6.46c0,0.45-0.04,0.6-1.16,0.6h-0.4v0.39
		c0.44-0.04,1.52-0.04,2.02-0.04c0.5,0,1.58,0,2.02,0.04v-0.39h-0.4c-1.12,0-1.16-0.14-1.16-0.6V132.42"/>
</g>
<g>
	<defs>
		<rect id="SVGID_00000082357209558646113660000007244051328836817596_" x="265.88" y="131.17" width="5.7" height="8.89"/>
	</defs>
	<clipPath id="SVGID_00000107559532861681719590000000224647401044063127_">
		<use xlink:href="#SVGID_00000082357209558646113660000007244051328836817596_"  style="overflow:visible;"/>
	</clipPath>
	<path style="clip-path:url(#SVGID_00000107559532861681719590000000224647401044063127_);" d="M269.05,135.27
		c1.02-0.34,1.75-1.21,1.75-2.2c0-1.02-1.1-1.72-2.3-1.72c-1.26,0-2.21,0.75-2.21,1.7c0,0.41,0.27,0.65,0.64,0.65
		c0.39,0,0.64-0.27,0.64-0.64c0-0.62-0.59-0.62-0.77-0.62c0.39-0.61,1.21-0.77,1.66-0.77c0.51,0,1.2,0.27,1.2,1.4
		c0,0.15-0.02,0.87-0.35,1.42c-0.37,0.6-0.8,0.64-1.11,0.65c-0.1,0.01-0.4,0.04-0.49,0.04c-0.1,0.01-0.19,0.02-0.19,0.15
		c0,0.14,0.09,0.14,0.3,0.14h0.55c1.02,0,1.49,0.85,1.49,2.07c0,1.7-0.86,2.06-1.41,2.06c-0.54,0-1.47-0.21-1.91-0.95
		c0.44,0.06,0.82-0.21,0.82-0.69c0-0.45-0.34-0.7-0.7-0.7c-0.3,0-0.7,0.17-0.7,0.72c0,1.14,1.16,1.96,2.52,1.96
		c1.52,0,2.66-1.14,2.66-2.41C271.13,136.5,270.35,135.53,269.05,135.27"/>
</g>
</svg>
