<?xml version="1.0" encoding="utf-8"?>
<!-- Generator: Adobe Illustrator 27.9.6, SVG Export Plug-In . SVG Version: 9.03 Build 54986)  -->
<svg version="1.1" id="Layer_1" xmlns="http://www.w3.org/2000/svg" xmlns:xlink="http://www.w3.org/1999/xlink" x="0px" y="0px"
	 viewBox="0 0 176.19 90.35" style="enable-background:new 0 0 176.19 90.35;" xml:space="preserve">
<style type="text/css">
	.st0{fill:none;stroke:#BCBEC0;stroke-miterlimit:10;}
	.st1{fill:#BCBEC0;}
	.st2{opacity:0;fill:none;}
	.st3{opacity:0;clip-path:url(#SVGID_00000041290001397671171500000011605656949300435075_);fill:none;}
	.st4{clip-path:url(#SVGID_00000041290001397671171500000011605656949300435075_);}
	.st5{opacity:0;clip-path:url(#SVGID_00000056418557485964881180000016858073352929931684_);fill:none;}
	.st6{clip-path:url(#SVGID_00000056418557485964881180000016858073352929931684_);}
	.st7{opacity:0;clip-path:url(#SVGID_00000028313362759700657410000014992966862767721624_);fill:none;}
	.st8{clip-path:url(#SVGID_00000028313362759700657410000014992966862767721624_);}
	.st9{opacity:0;fill:none;stroke:#000000;stroke-width:1.000000e-06;stroke-miterlimit:10;}
	.st10{opacity:0;clip-path:url(#SVGID_00000022542962750330322350000013761436812032154770_);fill:none;}
	.st11{clip-path:url(#SVGID_00000022542962750330322350000013761436812032154770_);}
	.st12{opacity:0;clip-path:url(#SVGID_00000068660560664645365720000007962453008676794033_);fill:none;}
	.st13{clip-path:url(#SVGID_00000068660560664645365720000007962453008676794033_);}
	
		.st14{opacity:0;clip-path:url(#SVGID_00000160905253144184966200000008577461690994147466_);fill:none;stroke:#000000;stroke-width:1.000000e-06;stroke-miterlimit:10;}
	.st15{opacity:0;clip-path:url(#SVGID_00000115482867818119154640000009855295644341731490_);fill:none;}
	
		.st16{opacity:0;clip-path:url(#SVGID_00000119809545051091736540000015533886070942877870_);fill:none;stroke:#000000;stroke-width:1.000000e-06;stroke-miterlimit:10;}
	.st17{opacity:0;clip-path:url(#SVGID_00000145024198739458517320000017293994924303048323_);fill:none;}
	
		.st18{opacity:0;clip-path:url(#SVGID_00000121238799185662720990000007900555254019342489_);fill:none;stroke:#000000;stroke-width:1.000000e-06;stroke-miterlimit:10;}
	
		.st19{opacity:0;clip-path:url(#SVGID_00000069363409551929985680000012531820869671545480_);fill:none;stroke:#000000;stroke-width:1.000000e-06;stroke-miterlimit:10;}
	
		.st20{opacity:0;clip-path:url(#SVGID_00000088103030329545395170000009821226802761702333_);fill:none;stroke:#000000;stroke-width:1.000000e-06;stroke-miterlimit:10;}
	.st21{clip-path:url(#SVGID_00000108277711015953346170000009803488049264320397_);fill:#E4E4E3;}
	
		.st22{opacity:0;clip-path:url(#SVGID_00000183970305457141438790000006274957163243407269_);fill:none;stroke:#000000;stroke-width:1.000000e-06;stroke-miterlimit:10;}
	.st23{clip-path:url(#SVGID_00000183970305457141438790000006274957163243407269_);fill:#E4E4E3;}
	
		.st24{opacity:0;clip-path:url(#SVGID_00000100342366145232751690000004821688489787743145_);fill:none;stroke:#000000;stroke-width:1.000000e-06;stroke-miterlimit:10;}
	.st25{clip-path:url(#SVGID_00000100342366145232751690000004821688489787743145_);fill:#E4E4E3;}
	.st26{clip-path:url(#SVGID_00000119095000469316259130000007767357255256032910_);fill:#E4E4E3;}
	
		.st27{opacity:0;clip-path:url(#SVGID_00000119808200827302520240000009390650997123852931_);fill:none;stroke:#000000;stroke-width:1.000000e-06;stroke-miterlimit:10;}
	.st28{clip-path:url(#SVGID_00000119808200827302520240000009390650997123852931_);fill:#E4E4E3;}
	
		.st29{opacity:0;clip-path:url(#SVGID_00000095318211637320826930000008296688287746100122_);fill:none;stroke:#000000;stroke-width:1.000000e-06;stroke-miterlimit:10;}
	.st30{clip-path:url(#SVGID_00000095318211637320826930000008296688287746100122_);fill:#E4E4E3;}
	.st31{clip-path:url(#SVGID_00000118371795814825718000000001023647288148112290_);fill:#E4E4E3;}
	.st32{clip-path:url(#SVGID_00000103956617746091148650000016705086794738204826_);fill:#E4E4E3;}
	
		.st33{opacity:0;clip-path:url(#SVGID_00000070814349515704160700000016402669118632354489_);fill:none;stroke:#000000;stroke-width:1.000000e-06;stroke-miterlimit:10;}
	.st34{clip-path:url(#SVGID_00000070814349515704160700000016402669118632354489_);fill:#E4E4E3;}
</style>
<line class="st0" x1="49.5" y1="39.62" x2="32.56" y2="39.62"/>
<g>
	<circle class="st1" cx="59.69" cy="43.93" r="11.19"/>
</g>
<g>
	<path class="st1" d="M32.56,56.4c0,2.2-1.8,4-4,4h-3.95c-2.2,0-4-1.8-4-4V34.17c0-2.2,1.8-4,4-4h3.95c2.2,0,4,1.8,4,4V56.4z"/>
</g>
<line class="st0" x1="49.5" y1="48.21" x2="32.56" y2="48.21"/>
<line class="st0" x1="85.81" y1="39.63" x2="69.87" y2="39.63"/>
<line class="st0" x1="85.81" y1="48.23" x2="69.87" y2="48.23"/>
<polygon class="st2" points="56.91,42.11 56.91,42.11 56.91,42.11 56.91,42.11 56.91,42.11 56.91,42.11 56.91,42.11 56.91,42.11 
	56.91,42.11 56.91,42.11 56.91,42.11 56.91,42.11 56.91,42.11 56.91,42.11 56.91,42.11 56.91,42.11 56.91,42.11 56.91,42.11 
	56.91,42.11 56.91,42.11 56.91,42.11 56.91,42.11 56.91,42.11 56.91,42.11 56.91,42.11 56.91,42.11 56.91,42.11 56.91,42.11 
	56.91,42.11 56.91,42.11 56.91,42.11 56.91,42.11 56.91,42.11 56.91,42.11 56.91,42.11 56.91,42.11 56.91,42.11 56.91,42.11 
	56.91,42.11 56.91,42.11 56.91,42.11 56.91,42.11 56.91,42.11 56.91,42.11 56.91,42.11 56.91,42.11 56.91,42.11 56.91,42.11 
	56.91,42.11 56.91,42.11 56.91,42.11 56.91,42.11 56.91,42.11 56.91,42.11 56.91,42.11 56.91,42.11 56.91,42.11 56.91,42.11 
	56.91,42.11 56.91,42.11 56.91,42.11 56.91,42.11 56.91,42.11 56.91,42.11 56.91,42.11 56.91,42.11 56.91,42.11 56.91,42.11 
	56.91,42.11 56.91,42.11 56.91,42.11 56.91,42.11 56.91,42.11 56.91,42.11 56.91,42.11 56.91,42.11 56.91,42.11 56.91,42.11 
	56.91,42.11 56.91,42.11 56.91,42.11 56.91,42.11 56.91,42.11 56.91,42.11 56.91,42.11 "/>
<polygon class="st2" points="157.79,49.98 157.79,49.98 157.79,49.98 157.79,49.98 157.79,49.98 157.79,49.98 157.79,49.98 
	157.79,49.98 157.79,49.98 157.79,49.98 157.79,49.98 157.79,49.98 157.79,49.98 157.79,49.98 157.79,49.98 157.79,49.98 
	157.79,49.98 157.79,49.98 157.79,49.98 157.79,49.98 157.79,49.98 157.79,49.98 157.79,49.98 157.79,49.98 157.79,49.98 
	157.79,49.98 157.79,49.98 157.79,49.98 157.79,49.98 157.79,49.98 157.79,49.98 157.79,49.98 157.79,49.98 157.79,49.98 
	157.79,49.98 157.79,49.98 157.79,49.98 157.79,49.98 157.79,49.98 157.79,49.98 157.79,49.98 157.79,49.98 157.79,49.98 
	157.79,49.98 157.79,49.98 157.79,49.98 157.79,49.98 157.79,49.98 157.79,49.98 157.79,49.98 157.79,49.98 157.79,49.98 
	157.79,49.98 157.79,49.98 157.79,49.98 157.79,49.98 157.79,49.98 157.79,49.98 157.79,49.98 157.79,49.98 157.79,49.98 
	157.79,49.98 157.79,49.98 157.79,49.98 157.79,49.98 157.79,49.98 157.79,49.98 157.79,49.98 157.79,49.98 157.79,49.98 
	157.79,49.98 157.79,49.98 157.79,49.98 157.79,49.98 157.79,49.98 157.79,49.98 157.79,49.98 157.79,49.98 157.79,49.98 
	157.79,49.98 157.79,49.98 157.79,49.98 157.79,49.98 157.79,49.98 157.79,49.98 "/>
<polygon class="st2" points="59.38,43.75 59.38,43.75 59.38,43.75 59.38,43.75 59.38,43.75 59.38,43.75 59.38,43.75 59.38,43.75 
	59.38,43.75 59.38,43.75 59.38,43.75 59.38,43.75 59.38,43.75 59.38,43.75 59.38,43.75 59.38,43.75 59.38,43.75 59.38,43.75 
	59.38,43.75 59.38,43.75 59.38,43.75 59.38,43.75 59.38,43.75 59.38,43.75 59.38,43.75 59.38,43.75 59.38,43.75 59.38,43.75 
	59.38,43.75 59.38,43.75 59.38,43.75 59.38,43.75 59.38,43.75 59.38,43.75 59.38,43.75 59.38,43.75 59.38,43.75 59.38,43.75 
	59.38,43.75 59.38,43.75 59.38,43.75 59.38,43.75 59.38,43.75 59.38,43.75 59.38,43.75 59.38,43.75 59.38,43.75 59.38,43.75 
	59.38,43.75 59.38,43.75 59.38,43.75 59.38,43.75 59.38,43.75 59.38,43.75 59.38,43.75 59.38,43.75 59.38,43.75 59.38,43.75 
	59.38,43.75 59.38,43.75 59.38,43.75 59.38,43.75 59.38,43.75 59.38,43.75 59.38,43.75 59.38,43.75 59.38,43.75 59.38,43.75 
	59.38,43.75 59.38,43.75 59.38,43.75 59.38,43.75 59.38,43.75 59.38,43.75 59.38,43.75 59.38,43.75 59.38,43.75 59.38,43.75 
	59.38,43.75 59.38,43.75 59.38,43.75 59.38,43.75 59.38,43.75 59.38,43.75 59.38,43.75 "/>
<g>
	<defs>
		<rect id="SVGID_1_" x="55.4" y="40.27" width="7.97" height="6.64"/>
	</defs>
	<clipPath id="SVGID_00000141415791922043178070000006275303623692950692_">
		<use xlink:href="#SVGID_1_"  style="overflow:visible;"/>
	</clipPath>
	<path style="opacity:0;clip-path:url(#SVGID_00000141415791922043178070000006275303623692950692_);fill:none;" d="M59.38,43.59
		L59.38,43.59z"/>
	<path style="clip-path:url(#SVGID_00000141415791922043178070000006275303623692950692_);" d="M59.96,42.94l-0.78-1.84
		c-0.03-0.07-0.05-0.11-0.05-0.12c0-0.06,0.16-0.23,0.55-0.27c0.09-0.01,0.18-0.02,0.18-0.18c0-0.11-0.11-0.11-0.14-0.11
		c-0.38,0-0.78,0.03-1.17,0.03c-0.23,0-0.81-0.03-1.04-0.03c-0.06,0-0.17,0-0.17,0.19c0,0.1,0.09,0.1,0.21,0.1
		c0.56,0,0.61,0.09,0.69,0.3l1.09,2.58l-1.95,2.1l-0.12,0.1c-0.45,0.49-0.89,0.64-1.36,0.67c-0.12,0.01-0.2,0.01-0.2,0.19
		c0,0.01,0,0.1,0.12,0.1c0.28,0,0.58-0.03,0.87-0.03c0.34,0,0.7,0.03,1.04,0.03c0.06,0,0.17,0,0.17-0.19c0-0.09-0.09-0.1-0.11-0.1
		c-0.08-0.01-0.37-0.03-0.37-0.29c0-0.15,0.14-0.3,0.25-0.42l0.94-1l0.83-0.91l0.94,2.21c0.04,0.1,0.05,0.11,0.05,0.13
		c0,0.07-0.18,0.23-0.54,0.27c-0.1,0.01-0.19,0.02-0.19,0.18c0,0.11,0.1,0.11,0.14,0.11c0.26,0,0.91-0.03,1.17-0.03
		c0.23,0,0.8,0.03,1.03,0.03c0.06,0,0.18,0,0.18-0.18c0-0.11-0.09-0.11-0.17-0.11c-0.62-0.01-0.64-0.04-0.8-0.41
		c-0.36-0.86-0.98-2.31-1.19-2.86c0.63-0.65,1.6-1.75,1.9-2.01c0.27-0.22,0.62-0.44,1.18-0.47c0.12-0.01,0.2-0.01,0.2-0.18
		c0-0.01,0-0.1-0.12-0.1c-0.28,0-0.58,0.03-0.87,0.03c-0.34,0-0.69-0.03-1.03-0.03c-0.06,0-0.18,0-0.18,0.19
		c0,0.06,0.05,0.09,0.11,0.1c0.08,0.01,0.37,0.03,0.37,0.29c0,0.13-0.1,0.25-0.18,0.33L59.96,42.94"/>
</g>
<line class="st0" x1="20.61" y1="39.63" x2="4.67" y2="39.63"/>
<line class="st0" x1="20.61" y1="48.23" x2="4.67" y2="48.23"/>
<polygon class="st2" points="27.72,46.77 27.72,46.77 27.72,46.77 27.72,46.77 27.72,46.77 27.72,46.77 27.72,46.77 27.72,46.77 
	27.72,46.77 27.72,46.77 27.72,46.77 27.72,46.77 27.72,46.77 27.72,46.77 27.72,46.77 27.72,46.77 27.72,46.77 27.72,46.77 
	27.72,46.77 27.72,46.77 27.72,46.77 27.72,46.77 27.72,46.77 27.72,46.77 27.72,46.77 27.72,46.77 27.72,46.77 27.72,46.77 
	27.72,46.77 27.72,46.77 27.72,46.77 27.72,46.77 27.72,46.77 27.72,46.77 27.72,46.77 27.72,46.77 27.72,46.77 27.72,46.77 
	27.72,46.77 27.72,46.77 27.72,46.77 27.72,46.77 27.72,46.77 27.72,46.77 27.72,46.77 27.72,46.77 27.72,46.77 27.72,46.77 
	27.72,46.77 27.72,46.77 27.72,46.77 27.72,46.77 27.72,46.77 27.72,46.77 27.72,46.77 27.72,46.77 27.72,46.77 27.72,46.77 
	27.72,46.77 27.72,46.77 27.72,46.77 27.72,46.77 27.72,46.77 27.72,46.77 27.72,46.77 27.72,46.77 27.72,46.77 27.72,46.77 
	27.72,46.77 27.72,46.77 27.72,46.77 27.72,46.77 27.72,46.77 27.72,46.77 27.72,46.77 27.72,46.77 27.72,46.77 27.72,46.77 
	27.72,46.77 27.72,46.77 27.72,46.77 27.72,46.77 27.72,46.77 27.72,46.77 27.72,46.77 "/>
<g>
	<defs>
		<rect id="SVGID_00000126298851579091536100000015052742355734623910_" x="23.23" y="40.97" width="6.64" height="8.63"/>
	</defs>
	<clipPath id="SVGID_00000098904916208742821590000009746608541791652767_">
		<use xlink:href="#SVGID_00000126298851579091536100000015052742355734623910_"  style="overflow:visible;"/>
	</clipPath>
	<path style="opacity:0;clip-path:url(#SVGID_00000098904916208742821590000009746608541791652767_);fill:none;" d="M26.55,45.28
		L26.55,45.28z"/>
	<path style="clip-path:url(#SVGID_00000098904916208742821590000009746608541791652767_);" d="M25.81,47.75
		c-0.13,0-0.43,0-0.43-0.4c0-0.37,0.35-0.74,0.74-0.74c0.39,0,0.56,0.22,0.56,0.79c0,0.14-0.01,0.15-0.1,0.19
		C26.35,47.68,26.07,47.75,25.81,47.75 M25.24,47.64c-0.72-0.29-1.04-1.01-1.04-1.84c0-0.64,0.24-1.95,0.94-2.95
		c0.68-0.94,1.55-1.37,2.22-1.37c0.93,0,1.6,0.72,1.6,1.96c0,0.93-0.47,3.09-2.03,3.96c-0.05-0.32-0.14-1-0.81-1
		c-0.49,0-0.94,0.46-0.94,0.94C25.18,47.53,25.24,47.64,25.24,47.64z M26.99,47.72c1.44-0.55,2.8-2.19,2.8-3.98
		c0-1.49-0.98-2.49-2.36-2.49c-2,0-4.04,2.1-4.04,4.26c0,1.54,1.04,2.47,2.37,2.47c0.23,0,0.55-0.04,0.91-0.14
		c-0.04,0.57-0.04,0.59-0.04,0.71c0,0.3,0,1.02,0.77,1.02c1.1,0,1.55-1.69,1.55-1.8c0-0.06-0.06-0.09-0.1-0.09
		c-0.07,0-0.09,0.05-0.11,0.1c-0.22,0.66-0.76,0.89-1.08,0.89C27.22,48.67,27.08,48.42,26.99,47.72z"/>
</g>
<polygon class="st2" points="97.51,51.84 97.51,51.84 97.51,51.84 97.51,51.84 97.51,51.84 97.51,51.84 97.51,51.84 97.51,51.84 
	97.51,51.84 97.51,51.84 97.51,51.84 97.51,51.84 97.51,51.84 97.51,51.84 97.51,51.84 97.51,51.84 97.51,51.84 97.51,51.84 
	97.51,51.84 97.51,51.84 97.51,51.84 97.51,51.84 97.51,51.84 97.51,51.84 97.51,51.84 97.51,51.84 97.51,51.84 97.51,51.84 
	97.51,51.84 97.51,51.84 97.51,51.84 97.51,51.84 97.51,51.84 97.51,51.84 97.51,51.84 97.51,51.84 97.51,51.84 97.51,51.84 
	97.51,51.84 97.51,51.84 97.51,51.84 97.51,51.84 97.51,51.84 97.51,51.84 97.51,51.84 97.51,51.84 97.51,51.84 97.51,51.84 
	97.51,51.84 97.51,51.84 97.51,51.84 97.51,51.84 97.51,51.84 97.51,51.84 97.51,51.84 97.51,51.84 97.51,51.84 97.51,51.84 
	97.51,51.84 97.51,51.84 97.51,51.84 97.51,51.84 97.51,51.84 97.51,51.84 97.51,51.84 97.51,51.84 97.51,51.84 97.51,51.84 
	97.51,51.84 97.51,51.84 97.51,51.84 97.51,51.84 97.51,51.84 97.51,51.84 97.51,51.84 97.51,51.84 97.51,51.84 97.51,51.84 
	97.51,51.84 97.51,51.84 97.51,51.84 97.51,51.84 97.51,51.84 97.51,51.84 97.51,51.84 97.51,51.84 "/>
<g>
	<circle class="st1" cx="133.87" cy="74.47" r="11.19"/>
</g>
<line class="st0" x1="160.99" y1="15.83" x2="145.05" y2="15.83"/>
<line class="st0" x1="160.99" y1="74.47" x2="145.05" y2="74.47"/>
<polygon class="st2" points="131.09,43.66 131.09,43.66 131.09,43.66 131.09,43.66 131.09,43.66 131.09,43.66 131.09,43.66 
	131.09,43.66 131.09,43.66 131.09,43.66 131.09,43.66 131.09,43.66 131.09,43.66 131.09,43.66 131.09,43.66 131.09,43.66 
	131.09,43.66 131.09,43.66 131.09,43.66 131.09,43.66 131.09,43.66 131.09,43.66 131.09,43.66 131.09,43.66 131.09,43.66 
	131.09,43.66 131.09,43.66 131.09,43.66 131.09,43.66 131.09,43.66 131.09,43.66 131.09,43.66 131.09,43.66 131.09,43.66 
	131.09,43.66 131.09,43.66 131.09,43.66 131.09,43.66 131.09,43.66 131.09,43.66 131.09,43.66 131.09,43.66 131.09,43.66 
	131.09,43.66 131.09,43.66 131.09,43.66 131.09,43.66 131.09,43.66 131.09,43.66 131.09,43.66 131.09,43.66 131.09,43.66 
	131.09,43.66 131.09,43.66 131.09,43.66 131.09,43.66 131.09,43.66 131.09,43.66 131.09,43.66 131.09,43.66 131.09,43.66 
	131.09,43.66 131.09,43.66 131.09,43.66 131.09,43.66 131.09,43.66 131.09,43.66 131.09,43.66 131.09,43.66 131.09,43.66 
	131.09,43.66 131.09,43.66 131.09,43.66 131.09,43.66 131.09,43.66 131.09,43.66 131.09,43.66 131.09,43.66 131.09,43.66 
	131.09,43.66 131.09,43.66 131.09,43.66 131.09,43.66 131.09,43.66 131.09,43.66 "/>
<polygon class="st2" points="133.56,45.3 133.56,45.3 133.56,45.3 133.56,45.3 133.56,45.3 133.56,45.3 133.56,45.3 133.56,45.3 
	133.56,45.3 133.56,45.3 133.56,45.3 133.56,45.3 133.56,45.3 133.56,45.3 133.56,45.3 133.56,45.3 133.56,45.3 133.56,45.3 
	133.56,45.3 133.56,45.3 133.56,45.3 133.56,45.3 133.56,45.3 133.56,45.3 133.56,45.3 133.56,45.3 133.56,45.3 133.56,45.3 
	133.56,45.3 133.56,45.3 133.56,45.3 133.56,45.3 133.56,45.3 133.56,45.3 133.56,45.3 133.56,45.3 133.56,45.3 133.56,45.3 
	133.56,45.3 133.56,45.3 133.56,45.3 133.56,45.3 133.56,45.3 133.56,45.3 133.56,45.3 133.56,45.3 133.56,45.3 133.56,45.3 
	133.56,45.3 133.56,45.3 133.56,45.3 133.56,45.3 133.56,45.3 133.56,45.3 133.56,45.3 133.56,45.3 133.56,45.3 133.56,45.3 
	133.56,45.3 133.56,45.3 133.56,45.3 133.56,45.3 133.56,45.3 133.56,45.3 133.56,45.3 133.56,45.3 133.56,45.3 133.56,45.3 
	133.56,45.3 133.56,45.3 133.56,45.3 133.56,45.3 133.56,45.3 133.56,45.3 133.56,45.3 133.56,45.3 133.56,45.3 133.56,45.3 
	133.56,45.3 133.56,45.3 133.56,45.3 133.56,45.3 133.56,45.3 133.56,45.3 133.56,45.3 "/>
<g>
	<circle class="st1" cx="133.87" cy="15.8" r="11.19"/>
</g>
<g>
	<circle class="st1" cx="133.56" cy="45.28" r="7.8"/>
</g>
<polygon class="st2" points="133.56,15.83 133.56,15.83 133.56,15.83 133.56,15.83 133.56,15.83 133.56,15.83 133.56,15.83 
	133.56,15.83 133.56,15.83 133.56,15.83 133.56,15.83 133.56,15.83 133.56,15.83 133.56,15.83 133.56,15.83 133.56,15.83 
	133.56,15.83 133.56,15.83 133.56,15.83 133.56,15.83 133.56,15.83 133.56,15.83 133.56,15.83 133.56,15.83 133.56,15.83 
	133.56,15.83 133.56,15.83 133.56,15.83 133.56,15.83 133.56,15.83 133.56,15.83 133.56,15.83 133.56,15.83 133.56,15.83 
	133.56,15.83 133.56,15.83 133.56,15.83 133.56,15.83 133.56,15.83 133.56,15.83 133.56,15.83 133.56,15.83 133.56,15.83 
	133.56,15.83 133.56,15.83 133.56,15.83 133.56,15.83 133.56,15.83 133.56,15.83 133.56,15.83 133.56,15.83 133.56,15.83 
	133.56,15.83 133.56,15.83 133.56,15.83 133.56,15.83 133.56,15.83 133.56,15.83 133.56,15.83 133.56,15.83 133.56,15.83 
	133.56,15.83 133.56,15.83 133.56,15.83 133.56,15.83 133.56,15.83 133.56,15.83 133.56,15.83 133.56,15.83 133.56,15.83 
	133.56,15.83 133.56,15.83 133.56,15.83 133.56,15.83 133.56,15.83 133.56,15.83 133.56,15.83 133.56,15.83 133.56,15.83 
	133.56,15.83 133.56,15.83 133.56,15.83 133.56,15.83 133.56,15.83 133.56,15.83 "/>
<g>
	<defs>
		<rect id="SVGID_00000178171052839735888750000010225969351681773705_" x="130.38" y="12.48" width="6.97" height="6.64"/>
	</defs>
	<clipPath id="SVGID_00000174567447212378459920000014338497183974686596_">
		<use xlink:href="#SVGID_00000178171052839735888750000010225969351681773705_"  style="overflow:visible;"/>
	</clipPath>
	<path style="opacity:0;clip-path:url(#SVGID_00000174567447212378459920000014338497183974686596_);fill:none;" d="M133.87,15.8
		L133.87,15.8z"/>
	<path style="clip-path:url(#SVGID_00000174567447212378459920000014338497183974686596_);" d="M135.96,13.54
		c0.09-0.38,0.26-0.66,1-0.69c0.05,0,0.16-0.01,0.16-0.18c0-0.01,0-0.1-0.12-0.1c-0.31,0-0.63,0.03-0.94,0.03
		c-0.31,0-0.66-0.03-0.96-0.03c-0.06,0-0.17,0-0.17,0.19c0,0.1,0.09,0.1,0.17,0.1c0.53,0.01,0.63,0.2,0.63,0.41
		c0,0.03-0.02,0.17-0.03,0.19l-0.83,3.31c-0.31,1.24-1.38,2.05-2.31,2.05c-0.63,0-1.13-0.41-1.13-1.2c0-0.02,0-0.31,0.1-0.72
		l0.9-3.6c0.08-0.33,0.1-0.43,0.78-0.43c0.24,0,0.31,0,0.31-0.18c0-0.1-0.1-0.1-0.13-0.1c-0.26,0-0.93,0.03-1.19,0.03
		c-0.27,0-0.93-0.03-1.19-0.03c-0.07,0-0.18,0-0.18,0.19c0,0.1,0.08,0.1,0.26,0.1c0.02,0,0.19,0,0.35,0.02
		c0.17,0.02,0.25,0.03,0.25,0.15c0,0.06-0.1,0.44-0.16,0.66l-0.2,0.82c-0.08,0.36-0.53,2.11-0.57,2.29
		c-0.06,0.26-0.06,0.4-0.06,0.54c0,1.13,0.84,1.78,1.82,1.78c1.17,0,2.31-1.05,2.62-2.27L135.96,13.54"/>
</g>
<polygon class="st9" points="458.52,55.56 458.52,55.56 458.52,55.56 458.52,55.56 458.52,55.56 458.52,55.56 458.52,55.56 
	458.52,55.56 458.52,55.56 458.52,55.56 458.52,55.56 458.52,55.56 458.52,55.56 458.52,55.56 458.52,55.56 458.52,55.56 
	458.52,55.56 458.52,55.56 458.52,55.56 458.52,55.56 458.52,55.56 458.52,55.56 458.52,55.56 458.52,55.56 458.52,55.56 
	458.52,55.56 458.52,55.56 458.52,55.56 458.52,55.56 458.52,55.56 458.52,55.56 458.52,55.56 458.52,55.56 458.52,55.56 
	458.52,55.56 458.52,55.56 458.52,55.56 458.52,55.56 458.52,55.56 458.52,55.56 458.52,55.56 458.52,55.56 458.52,55.56 
	458.52,55.56 458.52,55.56 458.52,55.56 458.52,55.56 458.52,55.56 458.52,55.56 458.52,55.56 458.52,55.56 458.52,55.56 
	458.52,55.56 458.52,55.56 458.52,55.56 458.52,55.56 458.52,55.56 458.52,55.56 458.52,55.56 458.52,55.56 458.52,55.56 
	458.52,55.56 458.52,55.56 458.52,55.56 458.52,55.56 458.52,55.56 458.52,55.56 458.52,55.56 458.52,55.56 458.52,55.56 
	458.52,55.56 458.52,55.56 458.52,55.56 458.52,55.56 458.52,55.56 458.52,55.56 458.52,55.56 458.52,55.56 458.52,55.56 
	458.52,55.56 458.52,55.56 458.52,55.56 458.52,55.56 458.52,55.56 458.52,55.56 458.52,55.56 "/>
<g>
	<defs>
		<rect id="SVGID_00000167386497005317739230000012859606049239310976_" x="130.57" y="41.98" width="5.98" height="6.64"/>
	</defs>
	<clipPath id="SVGID_00000103945108957933697450000000649253503743428793_">
		<use xlink:href="#SVGID_00000167386497005317739230000012859606049239310976_"  style="overflow:visible;"/>
	</clipPath>
	<path style="opacity:0;clip-path:url(#SVGID_00000103945108957933697450000000649253503743428793_);fill:none;" d="M133.56,45.3
		L133.56,45.3z"/>
	<path style="clip-path:url(#SVGID_00000103945108957933697450000000649253503743428793_);" d="M133.69,45.44
		c0.08-0.09,0.08-0.13,0.08-0.15c0-0.05-0.04-0.09-0.06-0.13l-1.9-2.74h2.14c1.56,0,2.03,0.33,2.22,1.8h0.23l-0.26-2.08H131
		c-0.22,0-0.24,0-0.24,0.21l2.31,3.35l-2.2,2.51c-0.09,0.1-0.09,0.12-0.09,0.15c0,0.1,0.09,0.1,0.23,0.1h5.14l0.26-2.19h-0.23
		c-0.17,1.55-0.8,1.8-2.25,1.8h-2.56L133.69,45.44"/>
</g>
<polygon class="st2" points="133.4,75.28 133.4,75.28 133.4,75.28 133.4,75.28 133.4,75.28 133.4,75.28 133.4,75.28 133.4,75.28 
	133.4,75.28 133.4,75.28 133.4,75.28 133.4,75.28 133.4,75.28 133.4,75.28 133.4,75.28 133.4,75.28 133.4,75.28 133.4,75.28 
	133.4,75.28 133.4,75.28 133.4,75.28 133.4,75.28 133.4,75.28 133.4,75.28 133.4,75.28 133.4,75.28 133.4,75.28 133.4,75.28 
	133.4,75.28 133.4,75.28 133.4,75.28 133.4,75.28 133.4,75.28 133.4,75.28 133.4,75.28 133.4,75.28 133.4,75.28 133.4,75.28 
	133.4,75.28 133.4,75.28 133.4,75.28 133.4,75.28 133.4,75.28 133.4,75.28 133.4,75.28 133.4,75.28 133.4,75.28 133.4,75.28 
	133.4,75.28 133.4,75.28 133.4,75.28 133.4,75.28 133.4,75.28 133.4,75.28 133.4,75.28 133.4,75.28 133.4,75.28 133.4,75.28 
	133.4,75.28 133.4,75.28 133.4,75.28 133.4,75.28 133.4,75.28 133.4,75.28 133.4,75.28 133.4,75.28 133.4,75.28 133.4,75.28 
	133.4,75.28 133.4,75.28 133.4,75.28 133.4,75.28 133.4,75.28 133.4,75.28 133.4,75.28 133.4,75.28 133.4,75.28 133.4,75.28 
	133.4,75.28 133.4,75.28 133.4,75.28 133.4,75.28 133.4,75.28 133.4,75.28 133.4,75.28 "/>
<g>
	<defs>
		<rect id="SVGID_00000024695797148720584100000015309781483116905097_" x="130.39" y="71.26" width="6.97" height="6.64"/>
	</defs>
	<clipPath id="SVGID_00000062163210349968393450000007805534055706230161_">
		<use xlink:href="#SVGID_00000024695797148720584100000015309781483116905097_"  style="overflow:visible;"/>
	</clipPath>
	<path style="opacity:0;clip-path:url(#SVGID_00000062163210349968393450000007805534055706230161_);fill:none;" d="M133.87,74.58
		L133.87,74.58z"/>
	<path style="clip-path:url(#SVGID_00000062163210349968393450000007805534055706230161_);" d="M135.84,72.4
		c0.45-0.72,0.84-0.75,1.19-0.77c0.11-0.01,0.12-0.17,0.12-0.18c0-0.07-0.05-0.11-0.12-0.11c-0.24,0-0.51,0.03-0.76,0.03
		c-0.31,0-0.62-0.03-0.92-0.03c-0.06,0-0.18,0-0.18,0.18c0,0.1,0.08,0.11,0.15,0.11c0.25,0.02,0.43,0.11,0.43,0.31
		c0,0.14-0.14,0.34-0.14,0.35l-2.84,4.52l-0.63-4.9c0-0.16,0.21-0.28,0.64-0.28c0.13,0,0.23,0,0.23-0.18c0-0.08-0.07-0.1-0.13-0.1
		c-0.37,0-0.77,0.03-1.15,0.03c-0.17,0-0.34-0.01-0.51-0.01s-0.34-0.02-0.5-0.02c-0.06,0-0.18,0-0.18,0.18
		c0,0.11,0.08,0.11,0.23,0.11c0.52,0,0.53,0.08,0.56,0.31l0.73,5.71c0.03,0.19,0.06,0.21,0.19,0.21c0.15,0,0.19-0.05,0.26-0.17
		L135.84,72.4"/>
</g>
<line class="st0" x1="133.87" y1="37.49" x2="133.87" y2="26.99"/>
<line class="st0" x1="133.87" y1="63.58" x2="133.87" y2="53.08"/>
<line class="st0" x1="122.68" y1="15.83" x2="106.74" y2="15.83"/>
<line class="st0" x1="122.68" y1="75.28" x2="106.74" y2="75.28"/>
<polygon class="st9" points="673.29,-15.21 673.29,-15.21 673.29,-15.21 673.29,-15.21 673.29,-15.21 673.29,-15.21 673.29,-15.21 
	673.29,-15.21 673.29,-15.21 673.29,-15.21 673.29,-15.21 673.29,-15.21 673.29,-15.21 673.29,-15.21 673.29,-15.21 673.29,-15.21 
	673.29,-15.21 673.29,-15.21 673.29,-15.21 673.29,-15.21 673.29,-15.21 673.29,-15.21 673.29,-15.21 673.29,-15.21 673.29,-15.21 
	673.29,-15.21 673.29,-15.21 673.29,-15.21 673.29,-15.21 673.29,-15.21 673.29,-15.21 673.29,-15.21 673.29,-15.21 673.29,-15.21 
	673.29,-15.21 673.29,-15.21 673.29,-15.21 673.29,-15.21 673.29,-15.21 673.29,-15.21 673.29,-15.21 673.29,-15.21 673.29,-15.21 
	673.29,-15.21 673.29,-15.21 673.29,-15.21 673.29,-15.21 673.29,-15.21 673.29,-15.21 673.29,-15.21 673.29,-15.21 673.29,-15.21 
	673.29,-15.21 673.29,-15.21 673.29,-15.21 673.29,-15.21 673.29,-15.21 673.29,-15.21 673.29,-15.21 673.29,-15.21 673.29,-15.21 
	673.29,-15.21 673.29,-15.21 673.29,-15.21 673.29,-15.21 673.29,-15.21 673.29,-15.21 673.29,-15.21 673.29,-15.21 673.29,-15.21 
	673.29,-15.21 673.29,-15.21 673.29,-15.21 673.29,-15.21 673.29,-15.21 673.29,-15.21 673.29,-15.21 673.29,-15.21 673.29,-15.21 
	673.29,-15.21 673.29,-15.21 673.29,-15.21 673.29,-15.21 673.29,-15.21 673.29,-15.21 "/>
<g>
	<defs>
		<rect id="SVGID_00000163034554264639774620000008759376853676796563_" x="667.19" y="-26.59" width="13" height="21"/>
	</defs>
	<clipPath id="SVGID_00000170260747973150109290000011463060524742865326_">
		<use xlink:href="#SVGID_00000163034554264639774620000008759376853676796563_"  style="overflow:visible;"/>
	</clipPath>
	
		<path style="opacity:0;clip-path:url(#SVGID_00000170260747973150109290000011463060524742865326_);fill:none;stroke:#000000;stroke-width:1.000000e-06;stroke-miterlimit:10;" d="
		M673.69-16.09L673.69-16.09z"/>
</g>
<polygon class="st2" points="68.94,61.78 68.94,61.78 68.94,61.78 68.94,61.78 68.94,61.78 68.94,61.78 68.94,61.78 68.94,61.78 
	68.94,61.78 68.94,61.78 68.94,61.78 68.94,61.78 68.94,61.78 68.94,61.78 68.94,61.78 68.94,61.78 68.94,61.78 68.94,61.78 
	68.94,61.78 68.94,61.78 68.94,61.78 68.94,61.78 68.94,61.78 68.94,61.78 68.94,61.78 68.94,61.78 68.94,61.78 68.94,61.78 
	68.94,61.78 68.94,61.78 68.94,61.78 68.94,61.78 68.94,61.78 68.94,61.78 68.94,61.78 68.94,61.78 68.94,61.78 68.94,61.78 
	68.94,61.78 68.94,61.78 68.94,61.78 68.94,61.78 68.94,61.78 68.94,61.78 68.94,61.78 68.94,61.78 68.94,61.78 68.94,61.78 
	68.94,61.78 68.94,61.78 68.94,61.78 68.94,61.78 68.94,61.78 68.94,61.78 68.94,61.78 68.94,61.78 68.94,61.78 68.94,61.78 
	68.94,61.78 68.94,61.78 68.94,61.78 68.94,61.78 68.94,61.78 68.94,61.78 68.94,61.78 68.94,61.78 68.94,61.78 68.94,61.78 
	68.94,61.78 68.94,61.78 68.94,61.78 68.94,61.78 68.94,61.78 68.94,61.78 68.94,61.78 68.94,61.78 68.94,61.78 68.94,61.78 
	68.94,61.78 68.94,61.78 68.94,61.78 68.94,61.78 68.94,61.78 68.94,61.78 68.94,61.78 "/>
<g>
	<defs>
		<rect id="SVGID_00000008834775882962227390000013836462086310610063_" x="67.77" y="59.25" width="2.99" height="4.98"/>
	</defs>
	<clipPath id="SVGID_00000060726394135865487270000003550875663762839941_">
		<use xlink:href="#SVGID_00000008834775882962227390000013836462086310610063_"  style="overflow:visible;"/>
	</clipPath>
	<path style="opacity:0;clip-path:url(#SVGID_00000060726394135865487270000003550875663762839941_);fill:none;" d="M69.27,61.75
		L69.27,61.75z"/>
</g>
<polygon class="st9" points="489.51,-29.03 489.51,-29.04 489.51,-29.04 489.51,-29.04 489.51,-29.04 489.51,-29.04 489.51,-29.04 
	489.51,-29.04 489.51,-29.04 489.51,-29.04 489.51,-29.04 489.51,-29.04 489.51,-29.04 489.51,-29.04 489.51,-29.04 489.51,-29.04 
	489.51,-29.04 489.51,-29.04 489.51,-29.04 489.51,-29.04 489.51,-29.04 489.51,-29.04 489.51,-29.04 489.51,-29.04 489.51,-29.04 
	489.51,-29.04 489.51,-29.04 489.51,-29.04 489.51,-29.04 489.51,-29.04 489.51,-29.04 489.51,-29.04 489.51,-29.04 489.51,-29.04 
	489.51,-29.04 489.51,-29.04 489.51,-29.04 489.51,-29.04 489.51,-29.04 489.51,-29.04 489.51,-29.04 489.51,-29.04 489.51,-29.04 
	489.51,-29.04 489.51,-29.04 489.51,-29.04 489.51,-29.04 489.51,-29.04 489.51,-29.04 489.51,-29.04 489.51,-29.04 489.51,-29.04 
	489.51,-29.04 489.51,-29.04 489.51,-29.04 489.51,-29.04 489.51,-29.04 489.51,-29.04 489.51,-29.04 489.51,-29.04 489.51,-29.04 
	489.51,-29.04 489.51,-29.04 489.51,-29.04 489.51,-29.04 489.51,-29.04 489.51,-29.04 489.51,-29.04 489.51,-29.04 489.51,-29.04 
	489.51,-29.04 489.51,-29.04 489.51,-29.04 489.51,-29.04 489.51,-29.04 489.51,-29.04 489.51,-29.04 489.51,-29.04 489.51,-29.04 
	489.51,-29.04 489.51,-29.04 489.51,-29.04 489.51,-29.04 489.51,-29.04 489.51,-29.04 "/>
<g>
	<defs>
		<rect id="SVGID_00000002377775943520443410000017245112196285687685_" x="484.6" y="-37.65" width="10" height="16"/>
	</defs>
	<clipPath id="SVGID_00000174578096554144227330000016843523491511794579_">
		<use xlink:href="#SVGID_00000002377775943520443410000017245112196285687685_"  style="overflow:visible;"/>
	</clipPath>
	
		<path style="opacity:0;clip-path:url(#SVGID_00000174578096554144227330000016843523491511794579_);fill:none;stroke:#000000;stroke-width:1.000000e-06;stroke-miterlimit:10;" d="
		M489.6-29.65L489.6-29.65z"/>
</g>
<polygon class="st2" points="87.53,65.53 87.53,65.53 87.53,65.53 87.53,65.53 87.53,65.53 87.53,65.53 87.53,65.53 87.53,65.53 
	87.53,65.53 87.53,65.53 87.53,65.53 87.53,65.53 87.53,65.53 87.53,65.53 87.53,65.53 87.53,65.53 87.53,65.53 87.53,65.53 
	87.53,65.53 87.53,65.53 87.53,65.53 87.53,65.53 87.53,65.53 87.53,65.53 87.53,65.53 87.53,65.53 87.53,65.53 87.53,65.53 
	87.53,65.53 87.53,65.53 87.53,65.53 87.53,65.53 87.53,65.53 87.53,65.53 87.53,65.53 87.53,65.53 87.53,65.53 87.53,65.53 
	87.53,65.53 87.53,65.53 87.53,65.53 87.53,65.53 87.53,65.53 87.53,65.53 87.53,65.53 87.53,65.53 87.53,65.53 87.53,65.53 
	87.53,65.53 87.53,65.53 87.53,65.53 87.53,65.53 87.53,65.53 87.53,65.53 87.53,65.53 87.53,65.53 87.53,65.53 87.53,65.53 
	87.53,65.53 87.53,65.53 87.53,65.53 87.53,65.53 87.53,65.53 87.53,65.53 87.53,65.53 87.53,65.53 87.53,65.53 87.53,65.53 
	87.53,65.53 87.53,65.53 87.53,65.53 87.53,65.53 87.53,65.53 87.53,65.53 87.53,65.53 87.53,65.53 87.53,65.53 87.53,65.53 
	87.53,65.53 87.53,65.53 87.53,65.53 87.53,65.53 87.53,65.53 87.53,65.53 87.53,65.53 "/>
<polygon class="st2" points="84.21,80.33 84.21,80.33 84.21,80.33 84.21,80.33 84.21,80.33 84.21,80.33 84.21,80.33 84.21,80.33 
	84.21,80.33 84.21,80.33 84.21,80.33 84.21,80.33 84.21,80.33 84.21,80.33 84.21,80.33 84.21,80.33 84.21,80.33 84.21,80.33 
	84.21,80.33 84.21,80.33 84.21,80.33 84.21,80.33 84.21,80.33 84.21,80.33 84.21,80.33 84.21,80.33 84.21,80.33 84.21,80.33 
	84.21,80.33 84.21,80.33 84.21,80.33 84.21,80.33 84.21,80.33 84.21,80.33 84.21,80.33 84.21,80.33 84.21,80.33 84.21,80.33 
	84.21,80.33 84.21,80.33 84.21,80.33 84.21,80.33 84.21,80.33 84.21,80.33 84.21,80.33 84.21,80.33 84.21,80.33 84.21,80.33 
	84.21,80.33 84.21,80.33 84.21,80.33 84.21,80.33 84.21,80.33 84.21,80.33 84.21,80.33 84.21,80.33 84.21,80.33 84.21,80.33 
	84.21,80.33 84.21,80.33 84.21,80.33 84.21,80.33 84.21,80.33 84.21,80.33 84.21,80.33 84.21,80.33 84.21,80.33 84.21,80.33 
	84.21,80.33 84.21,80.33 84.21,80.33 84.21,80.33 84.21,80.33 84.21,80.33 84.21,80.33 84.21,80.33 84.21,80.33 84.21,80.33 
	84.21,80.33 84.21,80.33 84.21,80.33 84.21,80.33 84.21,80.33 84.21,80.33 84.21,80.33 "/>
<g>
	<defs>
		<rect id="SVGID_00000168830731009250442210000006373071758268667554_" x="82.61" y="77.47" width="3.32" height="5.31"/>
	</defs>
	<clipPath id="SVGID_00000106145457478336739320000009074024463203546811_">
		<use xlink:href="#SVGID_00000168830731009250442210000006373071758268667554_"  style="overflow:visible;"/>
	</clipPath>
	<path style="opacity:0;clip-path:url(#SVGID_00000106145457478336739320000009074024463203546811_);fill:none;" d="M84.27,80.12
		L84.27,80.12z"/>
</g>
<polygon class="st9" points="79.74,64.42 79.74,64.42 79.74,64.42 79.74,64.42 79.74,64.42 79.74,64.42 79.74,64.42 79.74,64.42 
	79.74,64.42 79.74,64.42 79.74,64.42 79.74,64.42 79.74,64.42 79.74,64.42 79.74,64.42 79.74,64.42 79.74,64.42 79.74,64.42 
	79.74,64.42 79.74,64.42 79.74,64.42 79.74,64.42 79.74,64.42 79.74,64.42 79.74,64.42 79.74,64.42 79.74,64.42 79.74,64.42 
	79.74,64.42 79.74,64.42 79.74,64.42 79.74,64.42 79.74,64.42 79.74,64.42 79.74,64.42 79.74,64.42 79.74,64.42 79.74,64.42 
	79.74,64.42 79.74,64.42 79.74,64.42 79.74,64.42 79.74,64.42 79.74,64.42 79.74,64.42 79.74,64.42 79.74,64.42 79.74,64.42 
	79.74,64.42 79.74,64.42 79.74,64.42 79.74,64.42 79.74,64.42 79.74,64.42 79.74,64.42 79.74,64.42 79.74,64.42 79.74,64.42 
	79.74,64.42 79.74,64.42 79.74,64.42 79.74,64.42 79.74,64.42 79.74,64.42 79.74,64.42 79.74,64.42 79.74,64.42 79.74,64.42 
	79.74,64.42 79.74,64.42 79.74,64.42 79.74,64.42 79.74,64.42 79.74,64.42 79.74,64.42 79.74,64.42 79.74,64.42 79.74,64.42 
	79.74,64.42 79.74,64.42 79.74,64.42 79.74,64.42 79.74,64.42 79.74,64.42 79.74,64.42 "/>
<g>
	<defs>
		<rect id="SVGID_00000013191632874993486480000012027240911055146625_" x="74.91" y="55.81" width="10" height="16"/>
	</defs>
	<clipPath id="SVGID_00000111182723591224092970000015945815115114511744_">
		<use xlink:href="#SVGID_00000013191632874993486480000012027240911055146625_"  style="overflow:visible;"/>
	</clipPath>
	
		<path style="opacity:0;clip-path:url(#SVGID_00000111182723591224092970000015945815115114511744_);fill:none;stroke:#000000;stroke-width:1.000000e-06;stroke-miterlimit:10;" d="
		M79.91,63.81L79.91,63.81z"/>
</g>
<polygon class="st9" points="69.86,66.4 69.86,66.4 69.86,66.4 69.86,66.4 69.86,66.4 69.86,66.4 69.86,66.4 69.86,66.4 69.86,66.4 
	69.86,66.4 69.86,66.4 69.86,66.4 69.86,66.4 69.86,66.4 69.86,66.4 69.86,66.4 69.86,66.4 69.86,66.4 69.86,66.4 69.86,66.4 
	69.86,66.4 69.86,66.4 69.86,66.4 69.86,66.4 69.86,66.4 69.86,66.4 69.86,66.4 69.86,66.4 69.86,66.4 69.86,66.4 69.86,66.4 
	69.86,66.4 69.86,66.4 69.86,66.4 69.86,66.4 69.86,66.4 69.86,66.4 69.86,66.4 69.86,66.4 69.86,66.4 69.86,66.4 69.86,66.4 
	69.86,66.4 69.86,66.4 69.86,66.4 69.86,66.4 69.86,66.4 69.86,66.4 69.86,66.4 69.86,66.4 69.86,66.4 69.86,66.4 69.86,66.4 
	69.86,66.4 69.86,66.4 69.86,66.4 69.86,66.4 69.86,66.4 69.86,66.4 69.86,66.4 69.86,66.4 69.86,66.4 69.86,66.4 69.86,66.4 
	69.86,66.4 69.86,66.4 69.86,66.4 69.86,66.4 69.86,66.4 69.86,66.4 69.86,66.4 69.86,66.4 69.86,66.4 69.86,66.4 69.86,66.4 
	69.86,66.4 69.86,66.4 69.86,66.4 69.86,66.4 69.86,66.4 69.86,66.4 69.86,66.4 69.86,66.4 69.86,66.4 69.86,66.4 69.86,66.4 "/>
<g>
	<defs>
		<rect id="SVGID_00000096053500743008944530000004820083506003776177_" x="65.02" y="57.79" width="10" height="16"/>
	</defs>
	<clipPath id="SVGID_00000147181089727606680460000003784579997110418858_">
		<use xlink:href="#SVGID_00000096053500743008944530000004820083506003776177_"  style="overflow:visible;"/>
	</clipPath>
	
		<path style="opacity:0;clip-path:url(#SVGID_00000147181089727606680460000003784579997110418858_);fill:none;stroke:#000000;stroke-width:1.000000e-06;stroke-miterlimit:10;" d="
		M70.02,65.79L70.02,65.79z"/>
</g>
<polygon class="st9" points="58,83.91 58,83.91 58,83.91 58,83.91 58,83.91 58,83.91 58,83.91 58,83.91 58,83.91 58,83.91 58,83.91 
	58,83.91 58,83.91 58,83.91 58,83.91 58,83.91 58,83.91 58,83.91 58,83.91 58,83.91 58,83.91 58,83.91 58,83.91 58,83.91 58,83.91 
	58,83.91 58,83.91 58,83.91 58,83.91 58,83.91 58,83.91 58,83.91 58,83.91 58,83.91 58,83.91 58,83.91 58,83.91 58,83.91 58,83.91 
	58,83.91 58,83.91 58,83.91 58,83.91 58,83.91 58,83.91 58,83.91 58,83.91 58,83.91 58,83.91 58,83.91 58,83.91 58,83.91 58,83.91 
	58,83.91 58,83.91 58,83.91 58,83.91 58,83.91 58,83.91 58,83.91 58,83.91 58,83.91 58,83.91 58,83.91 58,83.91 58,83.91 58,83.91 
	58,83.91 58,83.91 58,83.91 58,83.91 58,83.91 58,83.91 58,83.91 58,83.91 58,83.91 58,83.91 58,83.91 58,83.91 58,83.91 58,83.91 
	58,83.91 58,83.91 58,83.91 58,83.91 58,83.91 "/>
<g>
	<defs>
		<rect id="SVGID_00000085229951654096820390000008076458182956631997_" x="53.16" y="75.29" width="10" height="16"/>
	</defs>
	<clipPath id="SVGID_00000004525518337667996410000010952994730709119653_">
		<use xlink:href="#SVGID_00000085229951654096820390000008076458182956631997_"  style="overflow:visible;"/>
	</clipPath>
	
		<path style="opacity:0;clip-path:url(#SVGID_00000004525518337667996410000010952994730709119653_);fill:none;stroke:#000000;stroke-width:1.000000e-06;stroke-miterlimit:10;" d="
		M58.16,83.29L58.16,83.29z"/>
</g>
<g>
	<defs>
		<rect id="SVGID_00000115484880876490303140000003298011599140907166_" x="76.58" y="50.19" width="3.16" height="4.93"/>
	</defs>
	<clipPath id="SVGID_00000002354823046158990680000007732592866472544902_">
		<use xlink:href="#SVGID_00000115484880876490303140000003298011599140907166_"  style="overflow:visible;"/>
	</clipPath>
	<path style="clip-path:url(#SVGID_00000002354823046158990680000007732592866472544902_);fill:#E4E4E3;" d="M78.34,52.46
		c0.57-0.19,0.97-0.67,0.97-1.22c0-0.57-0.61-0.95-1.27-0.95c-0.7,0-1.22,0.41-1.22,0.94c0,0.23,0.15,0.36,0.35,0.36
		c0.21,0,0.35-0.15,0.35-0.35c0-0.35-0.32-0.35-0.43-0.35c0.21-0.34,0.67-0.43,0.92-0.43c0.28,0,0.66,0.15,0.66,0.77
		c0,0.08-0.01,0.48-0.19,0.79c-0.21,0.33-0.44,0.35-0.62,0.36c-0.06,0.01-0.22,0.02-0.27,0.02c-0.06,0.01-0.1,0.01-0.1,0.08
		c0,0.08,0.05,0.08,0.17,0.08h0.3c0.57,0,0.82,0.47,0.82,1.15c0,0.94-0.48,1.14-0.78,1.14c-0.3,0-0.82-0.12-1.06-0.53
		c0.24,0.03,0.46-0.12,0.46-0.38c0-0.25-0.19-0.39-0.39-0.39c-0.17,0-0.39,0.1-0.39,0.4c0,0.63,0.64,1.09,1.4,1.09
		c0.84,0,1.47-0.63,1.47-1.33C79.49,53.15,79.06,52.61,78.34,52.46"/>
</g>
<polygon class="st9" points="84.88,34.83 84.88,34.83 84.88,34.83 84.88,34.83 84.88,34.83 84.88,34.83 84.88,34.83 84.88,34.83 
	84.88,34.83 84.88,34.83 84.88,34.83 84.88,34.83 84.88,34.83 84.88,34.83 84.88,34.83 84.88,34.83 84.88,34.83 84.88,34.83 
	84.88,34.83 84.88,34.83 84.88,34.83 84.88,34.83 84.88,34.83 84.88,34.83 84.88,34.83 84.88,34.83 84.88,34.83 84.88,34.83 
	84.88,34.83 84.88,34.83 84.88,34.83 84.88,34.83 84.88,34.83 84.88,34.83 84.88,34.83 84.88,34.83 84.88,34.83 84.88,34.83 
	84.88,34.83 84.88,34.83 84.88,34.83 84.88,34.83 84.88,34.83 84.88,34.83 84.88,34.83 84.88,34.83 84.88,34.83 84.88,34.83 
	84.88,34.83 84.88,34.83 84.88,34.83 84.88,34.83 84.88,34.83 84.88,34.83 84.88,34.83 84.88,34.83 84.88,34.83 84.88,34.83 
	84.88,34.83 84.88,34.83 84.88,34.83 84.88,34.83 84.88,34.83 84.88,34.83 84.88,34.83 84.88,34.83 84.88,34.83 84.88,34.83 
	84.88,34.83 84.88,34.83 84.88,34.83 84.88,34.83 84.88,34.83 84.88,34.83 84.88,34.83 84.88,34.83 84.88,34.83 84.88,34.83 
	84.88,34.83 84.88,34.83 84.88,34.83 84.88,34.83 84.88,34.83 84.88,34.83 84.88,34.83 84.88,34.83 "/>
<g>
	<defs>
		<rect id="SVGID_00000025423223894070628020000009670171973015017876_" x="76.21" y="32.38" width="3.27" height="4.9"/>
	</defs>
	<clipPath id="SVGID_00000005985579838513923850000011826400290006859168_">
		<use xlink:href="#SVGID_00000025423223894070628020000009670171973015017876_"  style="overflow:visible;"/>
	</clipPath>
	
		<path style="opacity:0;clip-path:url(#SVGID_00000005985579838513923850000011826400290006859168_);fill:none;stroke:#000000;stroke-width:1.000000e-06;stroke-miterlimit:10;" d="
		M77.84,34.83L77.84,34.83z"/>
	<path style="clip-path:url(#SVGID_00000005985579838513923850000011826400290006859168_);fill:#E4E4E3;" d="M77.09,36.57l0.69-0.67
		c1.02-0.9,1.41-1.25,1.41-1.9c0-0.74-0.59-1.26-1.38-1.26c-0.74,0-1.22,0.6-1.22,1.18c0,0.36,0.33,0.36,0.35,0.36
		c0.11,0,0.34-0.08,0.34-0.34c0-0.17-0.12-0.34-0.34-0.34c-0.05,0-0.06,0-0.08,0.01c0.15-0.42,0.5-0.66,0.88-0.66
		c0.59,0,0.87,0.53,0.87,1.06c0,0.52-0.33,1.03-0.68,1.44l-1.25,1.39c-0.07,0.07-0.07,0.08-0.07,0.24H79l0.18-1.13h-0.16
		c-0.03,0.2-0.08,0.48-0.14,0.58c-0.05,0.05-0.47,0.05-0.62,0.05H77.09"/>
</g>
<polygon class="st9" points="41.53,35.93 41.53,35.93 41.53,35.93 41.53,35.93 41.53,35.93 41.53,35.93 41.53,35.93 41.53,35.93 
	41.53,35.93 41.53,35.93 41.53,35.93 41.53,35.93 41.53,35.93 41.53,35.93 41.53,35.93 41.53,35.93 41.53,35.93 41.53,35.93 
	41.53,35.93 41.53,35.93 41.53,35.93 41.53,35.93 41.53,35.93 41.53,35.93 41.53,35.93 41.53,35.93 41.53,35.93 41.53,35.93 
	41.53,35.93 41.53,35.93 41.53,35.93 41.53,35.93 41.53,35.93 41.53,35.93 41.53,35.93 41.53,35.93 41.53,35.93 41.53,35.93 
	41.53,35.93 41.53,35.93 41.53,35.93 41.53,35.93 41.53,35.93 41.53,35.93 41.53,35.93 41.53,35.93 41.53,35.93 41.53,35.93 
	41.53,35.93 41.53,35.93 41.53,35.93 41.53,35.93 41.53,35.93 41.53,35.93 41.53,35.93 41.53,35.93 41.53,35.93 41.53,35.93 
	41.53,35.93 41.53,35.93 41.53,35.93 41.53,35.93 41.53,35.93 41.53,35.93 41.53,35.93 41.53,35.93 41.53,35.93 41.53,35.93 
	41.53,35.93 41.53,35.93 41.53,35.93 41.53,35.93 41.53,35.93 41.53,35.93 41.53,35.93 41.53,35.93 41.53,35.93 41.53,35.93 
	41.53,35.93 41.53,35.93 41.53,35.93 41.53,35.93 41.53,35.93 41.53,35.93 41.53,35.93 41.53,35.93 "/>
<g>
	<defs>
		<rect id="SVGID_00000016775803990112739220000002348058433597047986_" x="38.75" y="32.16" width="3.56" height="5.34"/>
	</defs>
	<clipPath id="SVGID_00000093147034456087667690000016461780351282986426_">
		<use xlink:href="#SVGID_00000016775803990112739220000002348058433597047986_"  style="overflow:visible;"/>
	</clipPath>
	
		<path style="opacity:0;clip-path:url(#SVGID_00000093147034456087667690000016461780351282986426_);fill:none;stroke:#000000;stroke-width:1.000000e-06;stroke-miterlimit:10;" d="
		M40.53,34.83L40.53,34.83z"/>
	<path style="clip-path:url(#SVGID_00000093147034456087667690000016461780351282986426_);fill:#E4E4E3;" d="M40.57,37.27
		c-0.28,0-0.69-0.18-0.82-0.86c-0.08-0.43-0.08-1.08-0.08-1.5c0-0.45,0-0.92,0.06-1.31c0.13-0.84,0.67-0.91,0.84-0.91
		c0.23,0,0.7,0.13,0.84,0.83c0.07,0.4,0.07,0.94,0.07,1.38c0,0.53,0,1.01-0.08,1.47C41.3,37.06,40.89,37.27,40.57,37.27 M42.07,35
		c0-0.57-0.04-1.14-0.28-1.66c-0.33-0.68-0.91-0.79-1.21-0.79c-0.43,0-0.94,0.18-1.23,0.84c-0.23,0.49-0.26,1.04-0.26,1.61
		c0,0.53,0.03,1.17,0.32,1.71c0.31,0.57,0.82,0.72,1.17,0.72c0.38,0,0.92-0.15,1.23-0.82C42.04,36.11,42.07,35.56,42.07,35z"/>
</g>
<g>
	<defs>
		<rect id="SVGID_00000101071935488838117000000014246801848602479250_" x="39.31" y="49.96" width="2.44" height="5.38"/>
	</defs>
	<clipPath id="SVGID_00000104664404539094782330000004306517559765481629_">
		<use xlink:href="#SVGID_00000101071935488838117000000014246801848602479250_"  style="overflow:visible;"/>
	</clipPath>
	<path style="clip-path:url(#SVGID_00000104664404539094782330000004306517559765481629_);fill:#E4E4E3;" d="M40.79,50.53
		c0-0.17,0-0.19-0.17-0.19c-0.44,0.46-1.08,0.46-1.31,0.46v0.22c0.14,0,0.57,0,0.94-0.19v3.72c0,0.26-0.02,0.34-0.67,0.34h-0.23
		v0.22c0.25-0.02,0.88-0.02,1.16-0.02c0.29,0,0.91,0,1.16,0.02v-0.22h-0.23c-0.65,0-0.67-0.08-0.67-0.34V50.53"/>
</g>
<g>
	<defs>
		<rect id="SVGID_00000087376380995939706690000017471224917844992419_" x="112.93" y="9.03" width="3.56" height="5.34"/>
	</defs>
	<clipPath id="SVGID_00000113321073484496087520000015840966770040923544_">
		<use xlink:href="#SVGID_00000087376380995939706690000017471224917844992419_"  style="overflow:visible;"/>
	</clipPath>
	
		<path style="opacity:0;clip-path:url(#SVGID_00000113321073484496087520000015840966770040923544_);fill:none;stroke:#000000;stroke-width:1.000000e-06;stroke-miterlimit:10;" d="
		M114.71,11.7L114.71,11.7z"/>
	<path style="clip-path:url(#SVGID_00000113321073484496087520000015840966770040923544_);fill:#E4E4E3;" d="M114.76,14.14
		c-0.28,0-0.69-0.18-0.82-0.86c-0.08-0.43-0.08-1.08-0.08-1.5c0-0.45,0-0.92,0.06-1.31c0.13-0.84,0.67-0.91,0.84-0.91
		c0.23,0,0.7,0.13,0.84,0.83c0.07,0.4,0.07,0.94,0.07,1.38c0,0.53,0,1.01-0.08,1.47C115.48,13.92,115.07,14.14,114.76,14.14
		 M116.25,11.87c0-0.57-0.04-1.14-0.28-1.66c-0.33-0.68-0.91-0.79-1.21-0.79c-0.43,0-0.94,0.18-1.23,0.84
		c-0.23,0.49-0.26,1.04-0.26,1.61c0,0.53,0.03,1.17,0.32,1.71c0.31,0.57,0.82,0.72,1.17,0.72c0.38,0,0.92-0.15,1.23-0.82
		C116.22,12.98,116.25,12.43,116.25,11.87z"/>
</g>
<g>
	<defs>
		<rect id="SVGID_00000130629993917168087980000003582980634993494163_" x="151.94" y="9.25" width="3.27" height="4.9"/>
	</defs>
	<clipPath id="SVGID_00000041985319405795816980000006859661372829171596_">
		<use xlink:href="#SVGID_00000130629993917168087980000003582980634993494163_"  style="overflow:visible;"/>
	</clipPath>
	
		<path style="opacity:0;clip-path:url(#SVGID_00000041985319405795816980000006859661372829171596_);fill:none;stroke:#000000;stroke-width:1.000000e-06;stroke-miterlimit:10;" d="
		M153.57,11.7L153.57,11.7z"/>
	<path style="clip-path:url(#SVGID_00000041985319405795816980000006859661372829171596_);fill:#E4E4E3;" d="M152.82,13.43
		l0.69-0.67c1.02-0.9,1.41-1.25,1.41-1.9c0-0.74-0.59-1.26-1.38-1.26c-0.74,0-1.22,0.6-1.22,1.18c0,0.36,0.33,0.36,0.35,0.36
		c0.11,0,0.34-0.08,0.34-0.34c0-0.17-0.12-0.34-0.34-0.34c-0.05,0-0.06,0-0.08,0.01c0.15-0.42,0.5-0.66,0.88-0.66
		c0.59,0,0.87,0.53,0.87,1.06c0,0.52-0.33,1.03-0.68,1.44l-1.25,1.39c-0.07,0.07-0.07,0.08-0.07,0.24h2.41l0.18-1.13h-0.16
		c-0.03,0.2-0.08,0.48-0.14,0.58c-0.05,0.05-0.47,0.05-0.62,0.05H152.82"/>
</g>
<g>
	<defs>
		<rect id="SVGID_00000033330865020803146770000011808721648293010838_" x="152.84" y="75.88" width="3.16" height="4.93"/>
	</defs>
	<clipPath id="SVGID_00000145762686378659217820000004455045110603179183_">
		<use xlink:href="#SVGID_00000033330865020803146770000011808721648293010838_"  style="overflow:visible;"/>
	</clipPath>
	<path style="clip-path:url(#SVGID_00000145762686378659217820000004455045110603179183_);fill:#E4E4E3;" d="M154.6,78.15
		c0.57-0.19,0.97-0.67,0.97-1.22c0-0.57-0.61-0.95-1.27-0.95c-0.7,0-1.22,0.41-1.22,0.94c0,0.23,0.15,0.36,0.35,0.36
		c0.21,0,0.35-0.15,0.35-0.35c0-0.35-0.32-0.35-0.43-0.35c0.21-0.34,0.67-0.43,0.92-0.43c0.28,0,0.66,0.15,0.66,0.77
		c0,0.08-0.01,0.48-0.19,0.79c-0.21,0.33-0.44,0.35-0.62,0.36c-0.06,0.01-0.22,0.02-0.27,0.02c-0.06,0.01-0.1,0.01-0.1,0.08
		c0,0.08,0.05,0.08,0.17,0.08h0.3c0.57,0,0.82,0.47,0.82,1.15c0,0.94-0.48,1.14-0.78,1.14c-0.3,0-0.82-0.12-1.06-0.53
		c0.24,0.03,0.46-0.12,0.46-0.38c0-0.25-0.19-0.39-0.39-0.39c-0.17,0-0.39,0.1-0.39,0.4c0,0.63,0.64,1.09,1.4,1.09
		c0.84,0,1.47-0.63,1.47-1.33C155.75,78.83,155.32,78.29,154.6,78.15"/>
</g>
<g>
	<defs>
		<rect id="SVGID_00000027595289145976397860000000300988717975474581_" x="115.57" y="75.88" width="2.44" height="5.38"/>
	</defs>
	<clipPath id="SVGID_00000059286673773503282370000014433546577760397710_">
		<use xlink:href="#SVGID_00000027595289145976397860000000300988717975474581_"  style="overflow:visible;"/>
	</clipPath>
	<path style="clip-path:url(#SVGID_00000059286673773503282370000014433546577760397710_);fill:#E4E4E3;" d="M117.05,76.45
		c0-0.17,0-0.19-0.17-0.19c-0.44,0.46-1.08,0.46-1.31,0.46v0.22c0.14,0,0.57,0,0.94-0.19v3.72c0,0.26-0.02,0.34-0.67,0.34h-0.23
		v0.22c0.25-0.02,0.88-0.02,1.16-0.02c0.29,0,0.91,0,1.16,0.02v-0.22h-0.23c-0.65,0-0.67-0.08-0.67-0.34V76.45"/>
</g>
<polygon class="st9" points="93.17,60.51 93.17,60.51 93.17,60.51 93.17,60.51 93.17,60.51 93.17,60.51 93.17,60.51 93.17,60.51 
	93.17,60.51 93.17,60.51 93.17,60.51 93.17,60.51 93.17,60.51 93.17,60.51 93.17,60.51 93.17,60.51 93.17,60.51 93.17,60.51 
	93.17,60.51 93.17,60.51 93.17,60.51 93.17,60.51 93.17,60.51 93.17,60.51 93.17,60.51 93.17,60.51 93.17,60.51 93.17,60.51 
	93.17,60.51 93.17,60.51 93.17,60.51 93.17,60.51 93.17,60.51 93.17,60.51 93.17,60.51 93.17,60.51 93.17,60.51 93.17,60.51 
	93.17,60.51 93.17,60.51 93.17,60.51 93.17,60.51 93.17,60.51 93.17,60.51 93.17,60.51 93.17,60.51 93.17,60.51 93.17,60.51 
	93.17,60.51 93.17,60.51 93.17,60.51 93.17,60.51 93.17,60.51 93.17,60.51 93.17,60.51 93.17,60.51 93.17,60.51 93.17,60.51 
	93.17,60.51 93.17,60.51 93.17,60.51 93.17,60.51 93.17,60.51 93.17,60.51 93.17,60.51 93.17,60.51 93.17,60.51 93.17,60.51 
	93.17,60.51 93.17,60.51 93.17,60.51 93.17,60.51 93.17,60.51 93.17,60.51 93.17,60.51 93.17,60.51 93.17,60.51 93.17,60.51 
	93.17,60.51 93.17,60.51 93.17,60.51 93.17,60.51 93.17,60.51 93.17,60.51 93.17,60.51 93.17,60.51 93.17,60.51 "/>
<g>
	<defs>
		<rect id="SVGID_00000061472434498666216220000000726107041117566100_" x="97.84" y="41.15" width="7.2" height="4.8"/>
	</defs>
	<clipPath id="SVGID_00000064325047156805969380000015052226633882906037_">
		<use xlink:href="#SVGID_00000061472434498666216220000000726107041117566100_"  style="overflow:visible;"/>
	</clipPath>
	
		<path style="opacity:0;clip-path:url(#SVGID_00000064325047156805969380000015052226633882906037_);fill:none;stroke:#000000;stroke-width:1.000000e-06;stroke-miterlimit:10;" d="
		M101.44,43.55L101.44,43.55z"/>
	<path style="clip-path:url(#SVGID_00000064325047156805969380000015052226633882906037_);fill:#E4E4E3;" d="M104.43,44.35
		c0-0.28-0.12-0.3-0.13-0.3c-0.04,0-0.12,0.05-0.13,0.26c-0.04,0.66-0.71,1.05-1.33,1.05c-0.55,0-1.03-0.3-1.53-0.63
		c-0.52-0.34-1.03-0.69-1.65-0.69c-0.89,0-1.6,0.68-1.6,1.56c0,0.21,0.08,0.29,0.13,0.29c0.1,0,0.13-0.18,0.13-0.22
		c0.05-0.8,0.83-1.09,1.33-1.09c0.55,0,1.03,0.3,1.53,0.63c0.52,0.34,1.03,0.69,1.65,0.69C103.74,45.89,104.43,45.19,104.43,44.35
		 M104.43,42.11c0-0.2-0.07-0.29-0.13-0.29c-0.04,0-0.12,0.04-0.13,0.26c-0.04,0.66-0.71,1.05-1.33,1.05c-0.55,0-1.03-0.3-1.53-0.63
		c-0.52-0.34-1.03-0.69-1.65-0.69c-0.89,0-1.6,0.68-1.6,1.56c0,0.21,0.08,0.29,0.13,0.29c0.1,0,0.13-0.18,0.13-0.22
		c0.05-0.8,0.83-1.09,1.33-1.09c0.55,0,1.03,0.3,1.53,0.63c0.52,0.34,1.03,0.69,1.65,0.69C103.72,43.67,104.43,42.99,104.43,42.11z"
		/>
</g>
</svg>
