<?xml version="1.0" encoding="utf-8"?>
<!-- Generator: Adobe Illustrator 27.9.6, SVG Export Plug-In . SVG Version: 9.03 Build 54986)  -->
<svg version="1.1" id="Layer_1" xmlns="http://www.w3.org/2000/svg" xmlns:xlink="http://www.w3.org/1999/xlink" x="0px" y="0px"
	 viewBox="0 0 129.88 73.98" style="enable-background:new 0 0 129.88 73.98;" xml:space="preserve">
<style type="text/css">
	.st0{fill:none;stroke:#BCBEC0;stroke-miterlimit:10;}
	.st1{fill:#BCBEC0;}
	.st2{opacity:0;fill:none;}
	.st3{opacity:0;clip-path:url(#SVGID_00000014633616998537698890000012037597918296425380_);fill:none;}
	.st4{clip-path:url(#SVGID_00000014633616998537698890000012037597918296425380_);}
	.st5{opacity:0;clip-path:url(#SVGID_00000132796333765014705520000014037418911861567630_);fill:none;}
	.st6{clip-path:url(#SVGID_00000132796333765014705520000014037418911861567630_);}
	.st7{opacity:0;clip-path:url(#SVGID_00000092451678902335467520000014482624491100034994_);fill:none;}
	.st8{clip-path:url(#SVGID_00000092451678902335467520000014482624491100034994_);}
	.st9{opacity:0;clip-path:url(#SVGID_00000041992581785945097920000003382310417208107908_);fill:none;}
	.st10{clip-path:url(#SVGID_00000041992581785945097920000003382310417208107908_);}
	.st11{opacity:0;fill:none;stroke:#000000;stroke-width:1.000000e-06;stroke-miterlimit:10;}
	.st12{opacity:0;clip-path:url(#SVGID_00000062166135744667333730000017640847583008383117_);fill:none;}
	.st13{clip-path:url(#SVGID_00000062166135744667333730000017640847583008383117_);}
	.st14{opacity:0;clip-path:url(#SVGID_00000052099636898628652100000007951370424178575521_);fill:none;}
	.st15{clip-path:url(#SVGID_00000052099636898628652100000007951370424178575521_);}
	
		.st16{opacity:0;clip-path:url(#SVGID_00000105417800222663137430000014071095231116461713_);fill:none;stroke:#000000;stroke-width:1.000000e-06;stroke-miterlimit:10;}
	.st17{opacity:0;clip-path:url(#SVGID_00000025434508393588263790000011211434837261162936_);fill:none;}
	.st18{clip-path:url(#SVGID_00000059281103789467090590000016293229848291358095_);}
	
		.st19{opacity:0;clip-path:url(#SVGID_00000078734697247073702910000000691599297335896464_);fill:none;stroke:#000000;stroke-width:1.000000e-06;stroke-miterlimit:10;}
	.st20{clip-path:url(#SVGID_00000098209551968968727390000007864610286703294372_);}
	.st21{opacity:0;clip-path:url(#SVGID_00000097476743147968176410000012098348520876493189_);fill:none;}
	.st22{clip-path:url(#SVGID_00000097476743147968176410000012098348520876493189_);}
	.st23{opacity:0;clip-path:url(#SVGID_00000100358918681740633450000011909315166904357018_);fill:none;}
	.st24{clip-path:url(#SVGID_00000003067413997362570270000013090432345417435834_);}
	.st25{clip-path:url(#SVGID_00000119079769608438926390000004630644753275982979_);}
	.st26{opacity:0;clip-path:url(#SVGID_00000108304997866509966140000003348092289806692995_);fill:none;}
	.st27{clip-path:url(#SVGID_00000108304997866509966140000003348092289806692995_);}
	.st28{clip-path:url(#SVGID_00000138566933760391870710000004910754483883794607_);}
	.st29{clip-path:url(#SVGID_00000078023212551202440190000000689785493069242753_);}
</style>
<line class="st0" x1="37.97" y1="33.88" x2="29.73" y2="33.88"/>
<g>
	<circle class="st1" cx="42.93" cy="35.98" r="5.44"/>
</g>
<g>
	<path class="st1" d="M29.73,40c0,2.2-1.31,4-2.91,4s-2.91-1.8-2.91-4v-6.72c0-2.2,1.31-4,2.91-4s2.91,1.8,2.91,4V40z"/>
</g>
<line class="st0" x1="37.97" y1="38.07" x2="29.73" y2="38.07"/>
<line class="st0" x1="55.65" y1="33.89" x2="47.89" y2="33.89"/>
<line class="st0" x1="55.65" y1="38.08" x2="47.89" y2="38.08"/>
<polygon class="st2" points="41.58,35.1 41.58,35.1 41.58,35.1 41.58,35.1 41.58,35.1 41.58,35.1 41.58,35.1 41.58,35.1 41.58,35.1 
	41.58,35.1 41.58,35.1 41.58,35.1 41.58,35.1 41.58,35.1 41.58,35.1 41.58,35.1 41.58,35.1 41.58,35.1 41.58,35.1 41.58,35.1 
	41.58,35.1 41.58,35.1 41.58,35.1 41.58,35.1 41.58,35.1 41.58,35.1 41.58,35.1 41.58,35.1 41.58,35.1 41.58,35.1 41.58,35.1 
	41.58,35.1 41.58,35.1 41.58,35.1 41.58,35.1 41.58,35.1 41.58,35.1 41.58,35.1 41.58,35.1 41.58,35.1 41.58,35.1 41.58,35.1 
	41.58,35.1 41.58,35.1 41.58,35.1 41.58,35.1 41.58,35.1 41.58,35.1 41.58,35.1 41.58,35.1 41.58,35.1 41.58,35.1 41.58,35.1 
	41.58,35.1 41.58,35.1 41.58,35.1 41.58,35.1 41.58,35.1 41.58,35.1 41.58,35.1 41.58,35.1 41.58,35.1 41.58,35.1 41.58,35.1 
	41.58,35.1 41.58,35.1 41.58,35.1 41.58,35.1 41.58,35.1 41.58,35.1 41.58,35.1 41.58,35.1 41.58,35.1 41.58,35.1 41.58,35.1 
	41.58,35.1 41.58,35.1 41.58,35.1 41.58,35.1 41.58,35.1 41.58,35.1 41.58,35.1 41.58,35.1 41.58,35.1 41.58,35.1 "/>
<polygon class="st2" points="90.68,38.93 90.68,38.93 90.68,38.93 90.68,38.93 90.68,38.93 90.68,38.93 90.68,38.93 90.68,38.93 
	90.68,38.93 90.68,38.93 90.68,38.93 90.68,38.93 90.68,38.93 90.68,38.93 90.68,38.93 90.68,38.93 90.68,38.93 90.68,38.93 
	90.68,38.93 90.68,38.93 90.68,38.93 90.68,38.93 90.68,38.93 90.68,38.93 90.68,38.93 90.68,38.93 90.68,38.93 90.68,38.93 
	90.68,38.93 90.68,38.93 90.68,38.93 90.68,38.93 90.68,38.93 90.68,38.93 90.68,38.93 90.68,38.93 90.68,38.93 90.68,38.93 
	90.68,38.93 90.68,38.93 90.68,38.93 90.68,38.93 90.68,38.93 90.68,38.93 90.68,38.93 90.68,38.93 90.68,38.93 90.68,38.93 
	90.68,38.93 90.68,38.93 90.68,38.93 90.68,38.93 90.68,38.93 90.68,38.93 90.68,38.93 90.68,38.93 90.68,38.93 90.68,38.93 
	90.68,38.93 90.68,38.93 90.68,38.93 90.68,38.93 90.68,38.93 90.68,38.93 90.68,38.93 90.68,38.93 90.68,38.93 90.68,38.93 
	90.68,38.93 90.68,38.93 90.68,38.93 90.68,38.93 90.68,38.93 90.68,38.93 90.68,38.93 90.68,38.93 90.68,38.93 90.68,38.93 
	90.68,38.93 90.68,38.93 90.68,38.93 90.68,38.93 90.68,38.93 90.68,38.93 90.68,38.93 "/>
<polygon class="st2" points="42.78,35.9 42.78,35.9 42.78,35.9 42.78,35.9 42.78,35.9 42.78,35.9 42.78,35.9 42.78,35.9 42.78,35.9 
	42.78,35.9 42.78,35.9 42.78,35.9 42.78,35.9 42.78,35.9 42.78,35.9 42.78,35.9 42.78,35.9 42.78,35.9 42.78,35.9 42.78,35.9 
	42.78,35.9 42.78,35.9 42.78,35.9 42.78,35.9 42.78,35.9 42.78,35.9 42.78,35.9 42.78,35.9 42.78,35.9 42.78,35.9 42.78,35.9 
	42.78,35.9 42.78,35.9 42.78,35.9 42.78,35.9 42.78,35.9 42.78,35.9 42.78,35.9 42.78,35.9 42.78,35.9 42.78,35.9 42.78,35.9 
	42.78,35.9 42.78,35.9 42.78,35.9 42.78,35.9 42.78,35.9 42.78,35.9 42.78,35.9 42.78,35.9 42.78,35.9 42.78,35.9 42.78,35.9 
	42.78,35.9 42.78,35.9 42.78,35.9 42.78,35.9 42.78,35.9 42.78,35.9 42.78,35.9 42.78,35.9 42.78,35.9 42.78,35.9 42.78,35.9 
	42.78,35.9 42.78,35.9 42.78,35.9 42.78,35.9 42.78,35.9 42.78,35.9 42.78,35.9 42.78,35.9 42.78,35.9 42.78,35.9 42.78,35.9 
	42.78,35.9 42.78,35.9 42.78,35.9 42.78,35.9 42.78,35.9 42.78,35.9 42.78,35.9 42.78,35.9 42.78,35.9 42.78,35.9 "/>
<g>
	<defs>
		<rect id="SVGID_1_" x="40.85" y="34.2" width="3.88" height="3.23"/>
	</defs>
	<clipPath id="SVGID_00000067923274000210944160000010344791037853454976_">
		<use xlink:href="#SVGID_1_"  style="overflow:visible;"/>
	</clipPath>
	<path style="opacity:0;clip-path:url(#SVGID_00000067923274000210944160000010344791037853454976_);fill:none;" d="M42.78,35.82
		L42.78,35.82z"/>
	<path style="clip-path:url(#SVGID_00000067923274000210944160000010344791037853454976_);" d="M43.06,35.5l-0.38-0.9
		c-0.01-0.04-0.02-0.05-0.02-0.06c0-0.03,0.08-0.11,0.27-0.13c0.04,0,0.09-0.01,0.09-0.09c0-0.05-0.05-0.05-0.07-0.05
		c-0.18,0-0.38,0.01-0.57,0.01c-0.11,0-0.39-0.01-0.5-0.01c-0.03,0-0.08,0-0.08,0.09c0,0.05,0.04,0.05,0.1,0.05
		c0.27,0,0.3,0.05,0.34,0.14l0.53,1.26l-0.95,1.02l-0.06,0.05c-0.22,0.24-0.43,0.31-0.66,0.32c-0.06,0-0.1,0-0.1,0.09
		c0,0,0,0.05,0.06,0.05c0.14,0,0.28-0.01,0.42-0.01c0.17,0,0.34,0.01,0.5,0.01c0.03,0,0.08,0,0.08-0.09c0-0.04-0.05-0.05-0.05-0.05
		c-0.04,0-0.18-0.01-0.18-0.14c0-0.07,0.07-0.14,0.12-0.2l0.46-0.49l0.41-0.44l0.46,1.08c0.02,0.05,0.02,0.05,0.02,0.06
		c0,0.04-0.09,0.11-0.26,0.13c-0.05,0-0.09,0.01-0.09,0.09c0,0.05,0.05,0.05,0.07,0.05c0.13,0,0.44-0.01,0.57-0.01
		c0.11,0,0.39,0.01,0.5,0.01c0.03,0,0.09,0,0.09-0.09c0-0.05-0.04-0.05-0.08-0.05c-0.3,0-0.31-0.02-0.39-0.2
		c-0.18-0.42-0.48-1.12-0.58-1.39c0.31-0.32,0.78-0.85,0.92-0.98c0.13-0.11,0.3-0.22,0.57-0.23c0.06,0,0.1,0,0.1-0.09
		c0,0,0-0.05-0.06-0.05c-0.14,0-0.28,0.01-0.42,0.01c-0.17,0-0.34-0.01-0.5-0.01c-0.03,0-0.09,0-0.09,0.09
		c0,0.03,0.02,0.05,0.05,0.05c0.04,0,0.18,0.01,0.18,0.14c0,0.06-0.05,0.12-0.09,0.16L43.06,35.5"/>
</g>
<line class="st0" x1="23.91" y1="33.89" x2="16.15" y2="33.89"/>
<line class="st0" x1="23.91" y1="38.08" x2="16.15" y2="38.08"/>
<polygon class="st2" points="27.37,37.37 27.37,37.37 27.37,37.37 27.37,37.37 27.37,37.37 27.37,37.37 27.37,37.37 27.37,37.37 
	27.37,37.37 27.37,37.37 27.37,37.37 27.37,37.37 27.37,37.37 27.37,37.37 27.37,37.37 27.37,37.37 27.37,37.37 27.37,37.37 
	27.37,37.37 27.37,37.37 27.37,37.37 27.37,37.37 27.37,37.37 27.37,37.37 27.37,37.37 27.37,37.37 27.37,37.37 27.37,37.37 
	27.37,37.37 27.37,37.37 27.37,37.37 27.37,37.37 27.37,37.37 27.37,37.37 27.37,37.37 27.37,37.37 27.37,37.37 27.37,37.37 
	27.37,37.37 27.37,37.37 27.37,37.37 27.37,37.37 27.37,37.37 27.37,37.37 27.37,37.37 27.37,37.37 27.37,37.37 27.37,37.37 
	27.37,37.37 27.37,37.37 27.37,37.37 27.37,37.37 27.37,37.37 27.37,37.37 27.37,37.37 27.37,37.37 27.37,37.37 27.37,37.37 
	27.37,37.37 27.37,37.37 27.37,37.37 27.37,37.37 27.37,37.37 27.37,37.37 27.37,37.37 27.37,37.37 27.37,37.37 27.37,37.37 
	27.37,37.37 27.37,37.37 27.37,37.37 27.37,37.37 27.37,37.37 27.37,37.37 27.37,37.37 27.37,37.37 27.37,37.37 27.37,37.37 
	27.37,37.37 27.37,37.37 27.37,37.37 27.37,37.37 27.37,37.37 27.37,37.37 27.37,37.37 "/>
<g>
	<defs>
		<rect id="SVGID_00000067950639595236514900000002594419654493222561_" x="25.19" y="34.38" width="3.23" height="4.2"/>
	</defs>
	<clipPath id="SVGID_00000163031337911633319050000017160423045686493575_">
		<use xlink:href="#SVGID_00000067950639595236514900000002594419654493222561_"  style="overflow:visible;"/>
	</clipPath>
	<path style="opacity:0;clip-path:url(#SVGID_00000163031337911633319050000017160423045686493575_);fill:none;" d="M26.8,36.48
		L26.8,36.48z"/>
	<path style="clip-path:url(#SVGID_00000163031337911633319050000017160423045686493575_);" d="M26.44,37.68
		c-0.06,0-0.21,0-0.21-0.19c0-0.18,0.17-0.36,0.36-0.36c0.19,0,0.27,0.11,0.27,0.38c0,0.07,0,0.07-0.05,0.09
		C26.7,37.65,26.57,37.68,26.44,37.68 M26.16,37.63c-0.35-0.14-0.5-0.49-0.5-0.9c0-0.31,0.12-0.95,0.46-1.44
		c0.33-0.46,0.75-0.67,1.08-0.67c0.45,0,0.78,0.35,0.78,0.96c0,0.45-0.23,1.5-0.99,1.93c-0.02-0.16-0.07-0.49-0.4-0.49
		c-0.24,0-0.46,0.23-0.46,0.46C26.14,37.58,26.16,37.62,26.16,37.63z M27.01,37.67c0.7-0.27,1.36-1.07,1.36-1.94
		c0-0.73-0.48-1.21-1.15-1.21c-0.97,0-1.96,1.02-1.96,2.07c0,0.75,0.5,1.2,1.15,1.2c0.11,0,0.27-0.02,0.44-0.07
		c-0.02,0.28-0.02,0.29-0.02,0.35c0,0.14,0,0.5,0.37,0.5c0.54,0,0.75-0.82,0.75-0.87c0-0.03-0.03-0.04-0.05-0.04
		c-0.04,0-0.05,0.02-0.05,0.05c-0.11,0.32-0.37,0.43-0.53,0.43C27.13,38.13,27.06,38.01,27.01,37.67z"/>
</g>
<polygon class="st2" points="61.34,39.83 61.34,39.83 61.34,39.83 61.34,39.83 61.34,39.83 61.34,39.83 61.34,39.83 61.34,39.83 
	61.34,39.83 61.34,39.83 61.34,39.83 61.34,39.83 61.34,39.83 61.34,39.83 61.34,39.83 61.34,39.83 61.34,39.83 61.34,39.83 
	61.34,39.83 61.34,39.83 61.34,39.83 61.34,39.83 61.34,39.83 61.34,39.83 61.34,39.83 61.34,39.83 61.34,39.83 61.34,39.83 
	61.34,39.83 61.34,39.83 61.34,39.83 61.34,39.83 61.34,39.83 61.34,39.83 61.34,39.83 61.34,39.83 61.34,39.83 61.34,39.83 
	61.34,39.83 61.34,39.83 61.34,39.83 61.34,39.83 61.34,39.83 61.34,39.83 61.34,39.83 61.34,39.83 61.34,39.83 61.34,39.83 
	61.34,39.83 61.34,39.83 61.34,39.83 61.34,39.83 61.34,39.83 61.34,39.83 61.34,39.83 61.34,39.83 61.34,39.83 61.34,39.83 
	61.34,39.83 61.34,39.83 61.34,39.83 61.34,39.83 61.34,39.83 61.34,39.83 61.34,39.83 61.34,39.83 61.34,39.83 61.34,39.83 
	61.34,39.83 61.34,39.83 61.34,39.83 61.34,39.83 61.34,39.83 61.34,39.83 61.34,39.83 61.34,39.83 61.34,39.83 61.34,39.83 
	61.34,39.83 61.34,39.83 61.34,39.83 61.34,39.83 61.34,39.83 61.34,39.83 61.34,39.83 61.34,39.83 "/>
<g>
	<defs>
		<rect id="SVGID_00000109009811476331495560000001424887596543365783_" x="60.72" y="35.09" width="3.23" height="2.1"/>
	</defs>
	<clipPath id="SVGID_00000034078538630059798320000017512432105169231270_">
		<use xlink:href="#SVGID_00000109009811476331495560000001424887596543365783_"  style="overflow:visible;"/>
	</clipPath>
	<path style="opacity:0;clip-path:url(#SVGID_00000034078538630059798320000017512432105169231270_);fill:none;" d="M62.34,36.15
		L62.34,36.15z"/>
	<path style="clip-path:url(#SVGID_00000034078538630059798320000017512432105169231270_);" d="M63.85,36.36
		c0-0.13-0.05-0.14-0.06-0.14c-0.02,0-0.06,0.02-0.06,0.12c-0.02,0.31-0.33,0.5-0.63,0.5c-0.26,0-0.49-0.14-0.72-0.3
		c-0.24-0.16-0.49-0.32-0.78-0.32c-0.42,0-0.75,0.32-0.75,0.73c0,0.1,0.04,0.14,0.06,0.14c0.05,0,0.06-0.09,0.06-0.1
		c0.02-0.38,0.39-0.51,0.63-0.51c0.26,0,0.49,0.14,0.72,0.3c0.24,0.16,0.49,0.32,0.78,0.32C63.52,37.09,63.85,36.76,63.85,36.36
		 M63.85,35.3c0-0.09-0.03-0.14-0.06-0.14c-0.02,0-0.06,0.02-0.06,0.12c-0.02,0.31-0.33,0.5-0.63,0.5c-0.26,0-0.49-0.14-0.72-0.3
		c-0.24-0.16-0.49-0.32-0.78-0.32c-0.42,0-0.75,0.32-0.75,0.73c0,0.1,0.04,0.14,0.06,0.14c0.05,0,0.06-0.09,0.06-0.1
		c0.02-0.38,0.39-0.51,0.63-0.51c0.26,0,0.49,0.14,0.72,0.3c0.24,0.16,0.49,0.32,0.78,0.32C63.51,36.04,63.85,35.72,63.85,35.3z"/>
</g>
<g>
	<circle class="st1" cx="79.04" cy="50.85" r="5.44"/>
</g>
<line class="st0" x1="92.24" y1="22.31" x2="84.48" y2="22.31"/>
<line class="st0" x1="92.24" y1="50.85" x2="84.48" y2="50.85"/>
<polygon class="st2" points="77.69,35.85 77.69,35.85 77.69,35.85 77.69,35.85 77.69,35.85 77.69,35.85 77.69,35.85 77.69,35.85 
	77.69,35.85 77.69,35.85 77.69,35.85 77.69,35.85 77.69,35.85 77.69,35.85 77.69,35.85 77.69,35.85 77.69,35.85 77.69,35.85 
	77.69,35.85 77.69,35.85 77.69,35.85 77.69,35.85 77.69,35.85 77.69,35.85 77.69,35.85 77.69,35.85 77.69,35.85 77.69,35.85 
	77.69,35.85 77.69,35.85 77.69,35.85 77.69,35.85 77.69,35.85 77.69,35.85 77.69,35.85 77.69,35.85 77.69,35.85 77.69,35.85 
	77.69,35.85 77.69,35.85 77.69,35.85 77.69,35.85 77.69,35.85 77.69,35.85 77.69,35.85 77.69,35.85 77.69,35.85 77.69,35.85 
	77.69,35.85 77.69,35.85 77.69,35.85 77.69,35.85 77.69,35.85 77.69,35.85 77.69,35.85 77.69,35.85 77.69,35.85 77.69,35.85 
	77.69,35.85 77.69,35.85 77.69,35.85 77.69,35.85 77.69,35.85 77.69,35.85 77.69,35.85 77.69,35.85 77.69,35.85 77.69,35.85 
	77.69,35.85 77.69,35.85 77.69,35.85 77.69,35.85 77.69,35.85 77.69,35.85 77.69,35.85 77.69,35.85 77.69,35.85 77.69,35.85 
	77.69,35.85 77.69,35.85 77.69,35.85 77.69,35.85 77.69,35.85 77.69,35.85 77.69,35.85 "/>
<polygon class="st2" points="78.89,36.65 78.89,36.65 78.89,36.65 78.89,36.65 78.89,36.65 78.89,36.65 78.89,36.65 78.89,36.65 
	78.89,36.65 78.89,36.65 78.89,36.65 78.89,36.65 78.89,36.65 78.89,36.65 78.89,36.65 78.89,36.65 78.89,36.65 78.89,36.65 
	78.89,36.65 78.89,36.65 78.89,36.65 78.89,36.65 78.89,36.65 78.89,36.65 78.89,36.65 78.89,36.65 78.89,36.65 78.89,36.65 
	78.89,36.65 78.89,36.65 78.89,36.65 78.89,36.65 78.89,36.65 78.89,36.65 78.89,36.65 78.89,36.65 78.89,36.65 78.89,36.65 
	78.89,36.65 78.89,36.65 78.89,36.65 78.89,36.65 78.89,36.65 78.89,36.65 78.89,36.65 78.89,36.65 78.89,36.65 78.89,36.65 
	78.89,36.65 78.89,36.65 78.89,36.65 78.89,36.65 78.89,36.65 78.89,36.65 78.89,36.65 78.89,36.65 78.89,36.65 78.89,36.65 
	78.89,36.65 78.89,36.65 78.89,36.65 78.89,36.65 78.89,36.65 78.89,36.65 78.89,36.65 78.89,36.65 78.89,36.65 78.89,36.65 
	78.89,36.65 78.89,36.65 78.89,36.65 78.89,36.65 78.89,36.65 78.89,36.65 78.89,36.65 78.89,36.65 78.89,36.65 78.89,36.65 
	78.89,36.65 78.89,36.65 78.89,36.65 78.89,36.65 78.89,36.65 78.89,36.65 78.89,36.65 "/>
<g>
	<circle class="st1" cx="79.04" cy="22.29" r="5.44"/>
</g>
<g>
	<circle class="st1" cx="78.89" cy="36.64" r="3.8"/>
</g>
<polygon class="st2" points="78.89,22.31 78.89,22.31 78.89,22.31 78.89,22.31 78.89,22.31 78.89,22.31 78.89,22.31 78.89,22.31 
	78.89,22.31 78.89,22.31 78.89,22.31 78.89,22.31 78.89,22.31 78.89,22.31 78.89,22.31 78.89,22.31 78.89,22.31 78.89,22.31 
	78.89,22.31 78.89,22.31 78.89,22.31 78.89,22.31 78.89,22.31 78.89,22.31 78.89,22.31 78.89,22.31 78.89,22.31 78.89,22.31 
	78.89,22.31 78.89,22.31 78.89,22.31 78.89,22.31 78.89,22.31 78.89,22.31 78.89,22.31 78.89,22.31 78.89,22.31 78.89,22.31 
	78.89,22.31 78.89,22.31 78.89,22.31 78.89,22.31 78.89,22.31 78.89,22.31 78.89,22.31 78.89,22.31 78.89,22.31 78.89,22.31 
	78.89,22.31 78.89,22.31 78.89,22.31 78.89,22.31 78.89,22.31 78.89,22.31 78.89,22.31 78.89,22.31 78.89,22.31 78.89,22.31 
	78.89,22.31 78.89,22.31 78.89,22.31 78.89,22.31 78.89,22.31 78.89,22.31 78.89,22.31 78.89,22.31 78.89,22.31 78.89,22.31 
	78.89,22.31 78.89,22.31 78.89,22.31 78.89,22.31 78.89,22.31 78.89,22.31 78.89,22.31 78.89,22.31 78.89,22.31 78.89,22.31 
	78.89,22.31 78.89,22.31 78.89,22.31 78.89,22.31 78.89,22.31 78.89,22.31 78.89,22.31 "/>
<g>
	<defs>
		<rect id="SVGID_00000011031818507244097400000014207182349523751830_" x="77.34" y="20.68" width="3.39" height="3.23"/>
	</defs>
	<clipPath id="SVGID_00000026134598050350289910000015764055392255064961_">
		<use xlink:href="#SVGID_00000011031818507244097400000014207182349523751830_"  style="overflow:visible;"/>
	</clipPath>
	<path style="opacity:0;clip-path:url(#SVGID_00000026134598050350289910000015764055392255064961_);fill:none;" d="M79.04,22.29
		L79.04,22.29z"/>
	<path style="clip-path:url(#SVGID_00000026134598050350289910000015764055392255064961_);" d="M80.06,21.19
		c0.05-0.18,0.13-0.32,0.49-0.33c0.02,0,0.08,0,0.08-0.09c0,0,0-0.05-0.06-0.05c-0.15,0-0.31,0.01-0.46,0.01
		c-0.15,0-0.32-0.01-0.47-0.01c-0.03,0-0.08,0-0.08,0.09c0,0.05,0.04,0.05,0.08,0.05c0.26,0,0.31,0.1,0.31,0.2
		c0,0.01-0.01,0.08-0.01,0.09l-0.41,1.61c-0.15,0.6-0.67,1-1.12,1c-0.31,0-0.55-0.2-0.55-0.59c0-0.01,0-0.15,0.05-0.35l0.44-1.75
		c0.04-0.16,0.05-0.21,0.38-0.21c0.12,0,0.15,0,0.15-0.09c0-0.05-0.05-0.05-0.06-0.05c-0.13,0-0.45,0.01-0.58,0.01
		c-0.13,0-0.45-0.01-0.58-0.01c-0.04,0-0.09,0-0.09,0.09c0,0.05,0.04,0.05,0.13,0.05c0.01,0,0.09,0,0.17,0.01
		c0.08,0.01,0.12,0.01,0.12,0.07c0,0.03-0.05,0.22-0.08,0.32l-0.1,0.4c-0.04,0.18-0.26,1.03-0.28,1.11
		c-0.03,0.13-0.03,0.19-0.03,0.26c0,0.55,0.41,0.87,0.88,0.87c0.57,0,1.13-0.51,1.28-1.1L80.06,21.19"/>
</g>
<polygon class="st11" points="389.76,26.2 389.76,26.2 389.76,26.2 389.76,26.2 389.76,26.2 389.76,26.2 389.76,26.2 389.76,26.2 
	389.76,26.2 389.76,26.2 389.76,26.2 389.76,26.2 389.76,26.2 389.76,26.2 389.76,26.2 389.76,26.2 389.76,26.2 389.76,26.2 
	389.76,26.2 389.76,26.2 389.76,26.2 389.76,26.2 389.76,26.2 389.76,26.2 389.76,26.2 389.76,26.2 389.76,26.2 389.76,26.2 
	389.76,26.2 389.76,26.2 389.76,26.2 389.76,26.2 389.76,26.2 389.76,26.2 389.76,26.2 389.76,26.2 389.76,26.2 389.76,26.2 
	389.76,26.2 389.76,26.2 389.76,26.2 389.76,26.2 389.76,26.2 389.76,26.2 389.76,26.2 389.76,26.2 389.76,26.2 389.76,26.2 
	389.76,26.2 389.76,26.2 389.76,26.2 389.76,26.2 389.76,26.2 389.76,26.2 389.76,26.2 389.76,26.2 389.76,26.2 389.76,26.2 
	389.76,26.2 389.76,26.2 389.76,26.2 389.76,26.2 389.76,26.2 389.76,26.2 389.76,26.2 389.76,26.2 389.76,26.2 389.76,26.2 
	389.76,26.2 389.76,26.2 389.76,26.2 389.76,26.2 389.76,26.2 389.76,26.2 389.76,26.2 389.76,26.2 389.76,26.2 389.76,26.2 
	389.76,26.2 389.76,26.2 389.76,26.2 389.76,26.2 389.76,26.2 389.76,26.2 389.76,26.2 389.76,26.2 "/>
<g>
	<defs>
		<rect id="SVGID_00000170988808718869702920000014557111240279061910_" x="77.43" y="35.03" width="2.91" height="3.23"/>
	</defs>
	<clipPath id="SVGID_00000002355812919171934130000010302081465133075863_">
		<use xlink:href="#SVGID_00000170988808718869702920000014557111240279061910_"  style="overflow:visible;"/>
	</clipPath>
	<path style="opacity:0;clip-path:url(#SVGID_00000002355812919171934130000010302081465133075863_);fill:none;" d="M78.89,36.65
		L78.89,36.65z"/>
	<path style="clip-path:url(#SVGID_00000002355812919171934130000010302081465133075863_);" d="M78.95,36.72
		c0.04-0.04,0.04-0.06,0.04-0.07c0-0.02-0.02-0.05-0.03-0.06l-0.92-1.33h1.04c0.76,0,0.99,0.16,1.08,0.87h0.11l-0.13-1.01h-2.5
		c-0.11,0-0.12,0-0.12,0.1l1.12,1.63l-1.07,1.22c-0.04,0.05-0.04,0.06-0.04,0.07c0,0.05,0.04,0.05,0.11,0.05h2.5l0.13-1.06h-0.11
		C80.08,37.88,79.77,38,79.06,38h-1.24L78.95,36.72"/>
</g>
<polygon class="st2" points="78.81,51.24 78.81,51.24 78.81,51.24 78.81,51.24 78.81,51.24 78.81,51.24 78.81,51.24 78.81,51.24 
	78.81,51.24 78.81,51.24 78.81,51.24 78.81,51.24 78.81,51.24 78.81,51.24 78.81,51.24 78.81,51.24 78.81,51.24 78.81,51.24 
	78.81,51.24 78.81,51.24 78.81,51.24 78.81,51.24 78.81,51.24 78.81,51.24 78.81,51.24 78.81,51.24 78.81,51.24 78.81,51.24 
	78.81,51.24 78.81,51.24 78.81,51.24 78.81,51.24 78.81,51.24 78.81,51.24 78.81,51.24 78.81,51.24 78.81,51.24 78.81,51.24 
	78.81,51.24 78.81,51.24 78.81,51.24 78.81,51.24 78.81,51.24 78.81,51.24 78.81,51.24 78.81,51.24 78.81,51.24 78.81,51.24 
	78.81,51.24 78.81,51.24 78.81,51.24 78.81,51.24 78.81,51.24 78.81,51.24 78.81,51.24 78.81,51.24 78.81,51.24 78.81,51.24 
	78.81,51.24 78.81,51.24 78.81,51.24 78.81,51.24 78.81,51.24 78.81,51.24 78.81,51.24 78.81,51.24 78.81,51.24 78.81,51.24 
	78.81,51.24 78.81,51.24 78.81,51.24 78.81,51.24 78.81,51.24 78.81,51.24 78.81,51.24 78.81,51.24 78.81,51.24 78.81,51.24 
	78.81,51.24 78.81,51.24 78.81,51.24 78.81,51.24 78.81,51.24 78.81,51.24 78.81,51.24 "/>
<g>
	<defs>
		<rect id="SVGID_00000031892054477121586760000008980449443593851542_" x="77.34" y="49.29" width="3.39" height="3.23"/>
	</defs>
	<clipPath id="SVGID_00000132060008012573910470000014320205124980648351_">
		<use xlink:href="#SVGID_00000031892054477121586760000008980449443593851542_"  style="overflow:visible;"/>
	</clipPath>
	<path style="opacity:0;clip-path:url(#SVGID_00000132060008012573910470000014320205124980648351_);fill:none;" d="M79.04,50.9
		L79.04,50.9z"/>
	<path style="clip-path:url(#SVGID_00000132060008012573910470000014320205124980648351_);" d="M80,49.84
		c0.22-0.35,0.41-0.36,0.58-0.37c0.05,0,0.06-0.08,0.06-0.09c0-0.04-0.02-0.05-0.06-0.05c-0.12,0-0.25,0.01-0.37,0.01
		c-0.15,0-0.3-0.01-0.45-0.01c-0.03,0-0.09,0-0.09,0.09c0,0.05,0.04,0.05,0.07,0.05c0.12,0.01,0.21,0.05,0.21,0.15
		c0,0.07-0.07,0.17-0.07,0.17l-1.38,2.2l-0.31-2.38c0-0.08,0.1-0.14,0.31-0.14c0.06,0,0.11,0,0.11-0.09c0-0.04-0.04-0.05-0.06-0.05
		c-0.18,0-0.37,0.01-0.56,0.01c-0.08,0-0.17,0-0.25,0s-0.17-0.01-0.24-0.01c-0.03,0-0.09,0-0.09,0.09c0,0.05,0.04,0.05,0.11,0.05
		c0.25,0,0.26,0.04,0.27,0.15l0.36,2.78c0.01,0.09,0.03,0.1,0.09,0.1c0.07,0,0.09-0.02,0.13-0.08L80,49.84"/>
</g>
<line class="st0" x1="79.04" y1="32.85" x2="79.04" y2="27.74"/>
<line class="st0" x1="79.04" y1="45.55" x2="79.04" y2="40.44"/>
<line class="st0" x1="73.59" y1="22.31" x2="65.83" y2="22.31"/>
<line class="st0" x1="73.59" y1="51.24" x2="65.83" y2="51.24"/>
<polygon class="st11" points="604.54,-44.58 604.54,-44.58 604.54,-44.58 604.54,-44.58 604.54,-44.58 604.54,-44.58 604.54,-44.58 
	604.54,-44.58 604.54,-44.58 604.54,-44.58 604.54,-44.58 604.54,-44.58 604.54,-44.58 604.54,-44.58 604.54,-44.58 604.54,-44.58 
	604.54,-44.58 604.54,-44.58 604.54,-44.58 604.54,-44.58 604.54,-44.58 604.54,-44.58 604.54,-44.58 604.54,-44.58 604.54,-44.58 
	604.54,-44.58 604.54,-44.58 604.54,-44.58 604.54,-44.58 604.54,-44.58 604.54,-44.58 604.54,-44.58 604.54,-44.58 604.54,-44.58 
	604.54,-44.58 604.54,-44.58 604.54,-44.58 604.54,-44.58 604.54,-44.58 604.54,-44.58 604.54,-44.58 604.54,-44.58 604.54,-44.58 
	604.54,-44.58 604.54,-44.58 604.54,-44.58 604.54,-44.58 604.54,-44.58 604.54,-44.58 604.54,-44.58 604.54,-44.58 604.54,-44.58 
	604.54,-44.58 604.54,-44.58 604.54,-44.58 604.54,-44.58 604.54,-44.58 604.54,-44.58 604.54,-44.58 604.54,-44.58 604.54,-44.58 
	604.54,-44.58 604.54,-44.58 604.54,-44.58 604.54,-44.58 604.54,-44.58 604.54,-44.58 604.54,-44.58 604.54,-44.58 604.54,-44.58 
	604.54,-44.58 604.54,-44.58 604.54,-44.58 604.54,-44.58 604.54,-44.58 604.54,-44.58 604.54,-44.58 604.54,-44.58 604.54,-44.58 
	604.54,-44.58 604.54,-44.58 604.54,-44.58 604.54,-44.58 604.54,-44.58 604.54,-44.58 "/>
<g>
	<defs>
		<rect id="SVGID_00000070812953016042638230000001842795922091023789_" x="598.44" y="-55.96" width="13" height="21"/>
	</defs>
	<clipPath id="SVGID_00000148620431501910255520000002089526994185388718_">
		<use xlink:href="#SVGID_00000070812953016042638230000001842795922091023789_"  style="overflow:visible;"/>
	</clipPath>
	
		<path style="opacity:0;clip-path:url(#SVGID_00000148620431501910255520000002089526994185388718_);fill:none;stroke:#000000;stroke-width:1.000000e-06;stroke-miterlimit:10;" d="
		M604.94-45.46L604.94-45.46z"/>
</g>
<polygon class="st2" points="47.43,44.67 47.43,44.67 47.43,44.67 47.43,44.67 47.43,44.67 47.43,44.67 47.43,44.67 47.43,44.67 
	47.43,44.67 47.43,44.67 47.43,44.67 47.43,44.67 47.43,44.67 47.43,44.67 47.43,44.67 47.43,44.67 47.43,44.67 47.43,44.67 
	47.43,44.67 47.43,44.67 47.43,44.67 47.43,44.67 47.43,44.67 47.43,44.67 47.43,44.67 47.43,44.67 47.43,44.67 47.43,44.67 
	47.43,44.67 47.43,44.67 47.43,44.67 47.43,44.67 47.43,44.67 47.43,44.67 47.43,44.67 47.43,44.67 47.43,44.67 47.43,44.67 
	47.43,44.67 47.43,44.67 47.43,44.67 47.43,44.67 47.43,44.67 47.43,44.67 47.43,44.67 47.43,44.67 47.43,44.67 47.43,44.67 
	47.43,44.67 47.43,44.67 47.43,44.67 47.43,44.67 47.43,44.67 47.43,44.67 47.43,44.67 47.43,44.67 47.43,44.67 47.43,44.67 
	47.43,44.67 47.43,44.67 47.43,44.67 47.43,44.67 47.43,44.67 47.43,44.67 47.43,44.67 47.43,44.67 47.43,44.67 47.43,44.67 
	47.43,44.67 47.43,44.67 47.43,44.67 47.43,44.67 47.43,44.67 47.43,44.67 47.43,44.67 47.43,44.67 47.43,44.67 47.43,44.67 
	47.43,44.67 47.43,44.67 47.43,44.67 47.43,44.67 47.43,44.67 47.43,44.67 47.43,44.67 "/>
<g>
	<defs>
		<rect id="SVGID_00000143599072983014963150000003550385782049922709_" x="46.87" y="43.44" width="1.45" height="2.42"/>
	</defs>
	<clipPath id="SVGID_00000168096146688951803560000011336513011542610816_">
		<use xlink:href="#SVGID_00000143599072983014963150000003550385782049922709_"  style="overflow:visible;"/>
	</clipPath>
	<path style="opacity:0;clip-path:url(#SVGID_00000168096146688951803560000011336513011542610816_);fill:none;" d="M47.59,44.65
		L47.59,44.65z"/>
</g>
<g>
	<defs>
		<rect id="SVGID_00000002374604776174786280000013235423192891708852_" x="32.96" y="38.62" width="1.3" height="2.42"/>
	</defs>
	<clipPath id="SVGID_00000145058212396002553410000001718706999715053460_">
		<use xlink:href="#SVGID_00000002374604776174786280000013235423192891708852_"  style="overflow:visible;"/>
	</clipPath>
	<path style="clip-path:url(#SVGID_00000145058212396002553410000001718706999715053460_);" d="M33.68,38.76
		c0-0.09,0-0.09-0.08-0.09c-0.22,0.23-0.53,0.23-0.64,0.23v0.11c0.07,0,0.28,0,0.46-0.09v1.83c0,0.13-0.01,0.17-0.33,0.17h-0.11
		v0.11c0.12-0.01,0.43-0.01,0.57-0.01c0.14,0,0.45,0,0.57,0.01v-0.11h-0.11c-0.32,0-0.33-0.04-0.33-0.17V38.76"/>
</g>
<polygon class="st11" points="420.76,-58.4 420.76,-58.4 420.76,-58.4 420.76,-58.4 420.76,-58.4 420.76,-58.4 420.76,-58.4 
	420.76,-58.4 420.76,-58.4 420.76,-58.4 420.76,-58.4 420.76,-58.4 420.76,-58.4 420.76,-58.4 420.76,-58.4 420.76,-58.4 
	420.76,-58.4 420.76,-58.4 420.76,-58.4 420.76,-58.4 420.76,-58.4 420.76,-58.4 420.76,-58.4 420.76,-58.4 420.76,-58.4 
	420.76,-58.4 420.76,-58.4 420.76,-58.4 420.76,-58.4 420.76,-58.4 420.76,-58.4 420.76,-58.4 420.76,-58.4 420.76,-58.4 
	420.76,-58.4 420.76,-58.4 420.76,-58.4 420.76,-58.4 420.76,-58.4 420.76,-58.4 420.76,-58.4 420.76,-58.4 420.76,-58.4 
	420.76,-58.4 420.76,-58.4 420.76,-58.4 420.76,-58.4 420.76,-58.4 420.76,-58.4 420.76,-58.4 420.76,-58.4 420.76,-58.4 
	420.76,-58.4 420.76,-58.4 420.76,-58.4 420.76,-58.4 420.76,-58.4 420.76,-58.4 420.76,-58.4 420.76,-58.4 420.76,-58.4 
	420.76,-58.4 420.76,-58.4 420.76,-58.4 420.76,-58.4 420.76,-58.4 420.76,-58.4 420.76,-58.4 420.76,-58.4 420.76,-58.4 
	420.76,-58.4 420.76,-58.4 420.76,-58.4 420.76,-58.4 420.76,-58.4 420.76,-58.4 420.76,-58.4 420.76,-58.4 420.76,-58.4 
	420.76,-58.4 420.76,-58.4 420.76,-58.4 420.76,-58.4 420.76,-58.4 420.76,-58.4 "/>
<g>
	<defs>
		<rect id="SVGID_00000109728552808231130730000007390290429024791685_" x="415.85" y="-67.01" width="10" height="16"/>
	</defs>
	<clipPath id="SVGID_00000033346403038104913830000003813648802768939680_">
		<use xlink:href="#SVGID_00000109728552808231130730000007390290429024791685_"  style="overflow:visible;"/>
	</clipPath>
	
		<path style="opacity:0;clip-path:url(#SVGID_00000033346403038104913830000003813648802768939680_);fill:none;stroke:#000000;stroke-width:1.000000e-06;stroke-miterlimit:10;" d="
		M420.85-59.01L420.85-59.01z"/>
</g>
<g>
	<defs>
		<rect id="SVGID_00000155848402536235409690000000724742249351319685_" x="32.8" y="30.79" width="1.62" height="2.52"/>
	</defs>
	<clipPath id="SVGID_00000021814113574606025420000004468419846157085114_">
		<use xlink:href="#SVGID_00000155848402536235409690000000724742249351319685_"  style="overflow:visible;"/>
	</clipPath>
	<path style="clip-path:url(#SVGID_00000021814113574606025420000004468419846157085114_);" d="M33.55,33.19
		c-0.14,0-0.35-0.09-0.41-0.43c-0.04-0.21-0.04-0.54-0.04-0.75c0-0.23,0-0.46,0.03-0.65c0.07-0.42,0.33-0.45,0.42-0.45
		c0.12,0,0.35,0.06,0.42,0.41C34,31.53,34,31.8,34,32.02c0,0.27,0,0.51-0.04,0.73C33.91,33.09,33.71,33.19,33.55,33.19 M34.3,32.06
		c0-0.28-0.02-0.57-0.14-0.83c-0.16-0.34-0.45-0.4-0.6-0.4c-0.21,0-0.47,0.09-0.62,0.42c-0.11,0.24-0.13,0.52-0.13,0.8
		c0,0.27,0.01,0.58,0.16,0.85c0.15,0.29,0.41,0.36,0.58,0.36c0.19,0,0.46-0.07,0.62-0.41C34.28,32.62,34.3,32.34,34.3,32.06z"/>
</g>
<polygon class="st2" points="56.48,46.5 56.48,46.5 56.48,46.5 56.48,46.5 56.48,46.5 56.48,46.5 56.48,46.5 56.48,46.5 56.48,46.5 
	56.48,46.5 56.48,46.5 56.48,46.5 56.48,46.5 56.48,46.5 56.48,46.5 56.48,46.5 56.48,46.5 56.48,46.5 56.48,46.5 56.48,46.5 
	56.48,46.5 56.48,46.5 56.48,46.5 56.48,46.5 56.48,46.5 56.48,46.5 56.48,46.5 56.48,46.5 56.48,46.5 56.48,46.5 56.48,46.5 
	56.48,46.5 56.48,46.5 56.48,46.5 56.48,46.5 56.48,46.5 56.48,46.5 56.48,46.5 56.48,46.5 56.48,46.5 56.48,46.5 56.48,46.5 
	56.48,46.5 56.48,46.5 56.48,46.5 56.48,46.5 56.48,46.5 56.48,46.5 56.48,46.5 56.48,46.5 56.48,46.5 56.48,46.5 56.48,46.5 
	56.48,46.5 56.48,46.5 56.48,46.5 56.48,46.5 56.48,46.5 56.48,46.5 56.48,46.5 56.48,46.5 56.48,46.5 56.48,46.5 56.48,46.5 
	56.48,46.5 56.48,46.5 56.48,46.5 56.48,46.5 56.48,46.5 56.48,46.5 56.48,46.5 56.48,46.5 56.48,46.5 56.48,46.5 56.48,46.5 
	56.48,46.5 56.48,46.5 56.48,46.5 56.48,46.5 56.48,46.5 56.48,46.5 56.48,46.5 56.48,46.5 56.48,46.5 56.48,46.5 "/>
<g>
	<defs>
		<rect id="SVGID_00000002363468154194559920000006363178958247509906_" x="51.12" y="30.83" width="1.62" height="2.42"/>
	</defs>
	<clipPath id="SVGID_00000107549038429079657530000017951417291146048421_">
		<use xlink:href="#SVGID_00000002363468154194559920000006363178958247509906_"  style="overflow:visible;"/>
	</clipPath>
	<path style="opacity:0;clip-path:url(#SVGID_00000107549038429079657530000017951417291146048421_);fill:none;" d="M51.92,32.05
		L51.92,32.05z"/>
	<path style="clip-path:url(#SVGID_00000107549038429079657530000017951417291146048421_);" d="M51.44,32.97l0.38-0.36
		c0.55-0.49,0.76-0.68,0.76-1.03c0-0.4-0.32-0.69-0.75-0.69c-0.4,0-0.66,0.33-0.66,0.64c0,0.2,0.18,0.2,0.19,0.2
		c0.06,0,0.18-0.04,0.18-0.19c0-0.09-0.06-0.18-0.19-0.18c-0.03,0-0.04,0-0.05,0c0.08-0.23,0.27-0.36,0.48-0.36
		c0.32,0,0.47,0.29,0.47,0.58c0,0.28-0.18,0.56-0.37,0.78l-0.68,0.76c-0.04,0.04-0.04,0.05-0.04,0.13h1.31l0.1-0.62h-0.09
		c-0.02,0.11-0.04,0.26-0.08,0.32c-0.02,0.03-0.26,0.03-0.34,0.03H51.44"/>
</g>
<polygon class="st2" points="54.87,53.7 54.87,53.7 54.87,53.7 54.87,53.7 54.87,53.7 54.87,53.7 54.87,53.7 54.87,53.7 54.87,53.7 
	54.87,53.7 54.87,53.7 54.87,53.7 54.87,53.7 54.87,53.7 54.87,53.7 54.87,53.7 54.87,53.7 54.87,53.7 54.87,53.7 54.87,53.7 
	54.87,53.7 54.87,53.7 54.87,53.7 54.87,53.7 54.87,53.7 54.87,53.7 54.87,53.7 54.87,53.7 54.87,53.7 54.87,53.7 54.87,53.7 
	54.87,53.7 54.87,53.7 54.87,53.7 54.87,53.7 54.87,53.7 54.87,53.7 54.87,53.7 54.87,53.7 54.87,53.7 54.87,53.7 54.87,53.7 
	54.87,53.7 54.87,53.7 54.87,53.7 54.87,53.7 54.87,53.7 54.87,53.7 54.87,53.7 54.87,53.7 54.87,53.7 54.87,53.7 54.87,53.7 
	54.87,53.7 54.87,53.7 54.87,53.7 54.87,53.7 54.87,53.7 54.87,53.7 54.87,53.7 54.87,53.7 54.87,53.7 54.87,53.7 54.87,53.7 
	54.87,53.7 54.87,53.7 54.87,53.7 54.87,53.7 54.87,53.7 54.87,53.7 54.87,53.7 54.87,53.7 54.87,53.7 54.87,53.7 54.87,53.7 
	54.87,53.7 54.87,53.7 54.87,53.7 54.87,53.7 54.87,53.7 54.87,53.7 54.87,53.7 54.87,53.7 54.87,53.7 54.87,53.7 "/>
<g>
	<defs>
		<rect id="SVGID_00000026874363722221176240000017280094387091079349_" x="54.09" y="52.31" width="1.62" height="2.59"/>
	</defs>
	<clipPath id="SVGID_00000039102281070153231040000018046926549443482505_">
		<use xlink:href="#SVGID_00000026874363722221176240000017280094387091079349_"  style="overflow:visible;"/>
	</clipPath>
	<path style="opacity:0;clip-path:url(#SVGID_00000039102281070153231040000018046926549443482505_);fill:none;" d="M54.9,53.6
		L54.9,53.6z"/>
</g>
<g>
	<defs>
		<rect id="SVGID_00000120557127609505447890000015388870498971507096_" x="51.12" y="38.57" width="1.62" height="2.52"/>
	</defs>
	<clipPath id="SVGID_00000068669193555697945900000015234066723195368584_">
		<use xlink:href="#SVGID_00000120557127609505447890000015388870498971507096_"  style="overflow:visible;"/>
	</clipPath>
	<path style="clip-path:url(#SVGID_00000068669193555697945900000015234066723195368584_);" d="M52.01,39.73
		c0.29-0.1,0.5-0.34,0.5-0.62c0-0.29-0.31-0.49-0.65-0.49c-0.36,0-0.63,0.21-0.63,0.48c0,0.12,0.08,0.18,0.18,0.18
		c0.11,0,0.18-0.08,0.18-0.18c0-0.18-0.17-0.18-0.22-0.18c0.11-0.17,0.34-0.22,0.47-0.22c0.15,0,0.34,0.08,0.34,0.4
		c0,0.04-0.01,0.25-0.1,0.4c-0.11,0.17-0.23,0.18-0.31,0.18c-0.03,0-0.11,0.01-0.14,0.01c-0.03,0-0.05,0.01-0.05,0.04
		c0,0.04,0.03,0.04,0.09,0.04h0.16c0.29,0,0.42,0.24,0.42,0.59c0,0.48-0.24,0.58-0.4,0.58c-0.15,0-0.42-0.06-0.54-0.27
		c0.12,0.02,0.23-0.06,0.23-0.19c0-0.13-0.1-0.2-0.2-0.2c-0.08,0-0.2,0.05-0.2,0.21c0,0.32,0.33,0.56,0.71,0.56
		c0.43,0,0.75-0.32,0.75-0.68C52.6,40.08,52.38,39.81,52.01,39.73"/>
</g>
<g>
	<defs>
		<rect id="SVGID_00000040554026872841296210000003915645345573446813_" x="68.83" y="18.76" width="1.62" height="2.52"/>
	</defs>
	<clipPath id="SVGID_00000029046571445710445980000017420176708990514050_">
		<use xlink:href="#SVGID_00000040554026872841296210000003915645345573446813_"  style="overflow:visible;"/>
	</clipPath>
	<path style="clip-path:url(#SVGID_00000029046571445710445980000017420176708990514050_);" d="M69.58,21.16
		c-0.14,0-0.35-0.09-0.41-0.43c-0.04-0.21-0.04-0.54-0.04-0.75c0-0.23,0-0.46,0.03-0.65c0.07-0.42,0.33-0.45,0.42-0.45
		c0.12,0,0.35,0.06,0.42,0.41c0.04,0.2,0.04,0.47,0.04,0.69c0,0.27,0,0.51-0.04,0.73C69.94,21.06,69.74,21.16,69.58,21.16
		 M70.33,20.03c0-0.28-0.02-0.57-0.14-0.83c-0.16-0.34-0.45-0.4-0.6-0.4c-0.21,0-0.47,0.09-0.62,0.42c-0.11,0.24-0.13,0.52-0.13,0.8
		c0,0.27,0.01,0.58,0.16,0.85c0.15,0.29,0.41,0.36,0.58,0.36c0.19,0,0.46-0.07,0.62-0.41C70.31,20.59,70.33,20.31,70.33,20.03z"/>
</g>
<g>
	<defs>
		<rect id="SVGID_00000159463423865962515330000000169324785773472191_" x="87.63" y="18.8" width="1.62" height="2.42"/>
	</defs>
	<clipPath id="SVGID_00000158020712825268166170000001508424971450600321_">
		<use xlink:href="#SVGID_00000159463423865962515330000000169324785773472191_"  style="overflow:visible;"/>
	</clipPath>
	<path style="opacity:0;clip-path:url(#SVGID_00000158020712825268166170000001508424971450600321_);fill:none;" d="M88.44,20.02
		L88.44,20.02z"/>
	<path style="clip-path:url(#SVGID_00000158020712825268166170000001508424971450600321_);" d="M87.95,20.94l0.38-0.36
		c0.55-0.49,0.76-0.68,0.76-1.03c0-0.4-0.32-0.69-0.75-0.69c-0.4,0-0.66,0.33-0.66,0.64c0,0.2,0.18,0.2,0.19,0.2
		c0.06,0,0.18-0.04,0.18-0.19c0-0.09-0.06-0.18-0.19-0.18c-0.03,0-0.04,0-0.05,0c0.08-0.23,0.27-0.36,0.48-0.36
		c0.32,0,0.47,0.29,0.47,0.58c0,0.28-0.18,0.56-0.37,0.78l-0.68,0.76c-0.04,0.04-0.04,0.05-0.04,0.13H89l0.1-0.62h-0.09
		c-0.02,0.11-0.04,0.26-0.08,0.32c-0.02,0.03-0.26,0.03-0.34,0.03H87.95"/>
</g>
<g>
	<defs>
		<rect id="SVGID_00000111907663082246516310000004141792411050400152_" x="69.23" y="51.95" width="1.3" height="2.42"/>
	</defs>
	<clipPath id="SVGID_00000079463113713940620930000001713458116300168626_">
		<use xlink:href="#SVGID_00000111907663082246516310000004141792411050400152_"  style="overflow:visible;"/>
	</clipPath>
	<path style="clip-path:url(#SVGID_00000079463113713940620930000001713458116300168626_);" d="M69.96,52.1c0-0.09,0-0.09-0.08-0.09
		c-0.22,0.23-0.53,0.23-0.64,0.23v0.11c0.07,0,0.28,0,0.46-0.09v1.83c0,0.13-0.01,0.17-0.33,0.17h-0.11v0.11
		c0.12-0.01,0.43-0.01,0.57-0.01c0.14,0,0.45,0,0.57,0.01v-0.11h-0.11c-0.32,0-0.33-0.04-0.33-0.17V52.1"/>
</g>
<g>
	<defs>
		<rect id="SVGID_00000005948184683836996190000004130825118114663063_" x="87.39" y="51.74" width="1.62" height="2.52"/>
	</defs>
	<clipPath id="SVGID_00000165932237413014615080000007527768130056489886_">
		<use xlink:href="#SVGID_00000005948184683836996190000004130825118114663063_"  style="overflow:visible;"/>
	</clipPath>
	<path style="clip-path:url(#SVGID_00000165932237413014615080000007527768130056489886_);" d="M88.29,52.91
		c0.29-0.1,0.5-0.34,0.5-0.62c0-0.29-0.31-0.49-0.65-0.49c-0.36,0-0.63,0.21-0.63,0.48c0,0.12,0.08,0.18,0.18,0.18
		c0.11,0,0.18-0.08,0.18-0.18c0-0.18-0.17-0.18-0.22-0.18c0.11-0.17,0.34-0.22,0.47-0.22c0.15,0,0.34,0.08,0.34,0.4
		c0,0.04-0.01,0.25-0.1,0.4c-0.11,0.17-0.23,0.18-0.31,0.18c-0.03,0-0.11,0.01-0.14,0.01c-0.03,0-0.05,0.01-0.05,0.04
		c0,0.04,0.03,0.04,0.09,0.04h0.16c0.29,0,0.42,0.24,0.42,0.59c0,0.48-0.24,0.58-0.4,0.58c-0.15,0-0.42-0.06-0.54-0.27
		c0.12,0.02,0.23-0.06,0.23-0.19c0-0.13-0.1-0.2-0.2-0.2c-0.08,0-0.2,0.05-0.2,0.21c0,0.32,0.33,0.56,0.71,0.56
		c0.43,0,0.75-0.32,0.75-0.68C88.88,53.26,88.66,52.98,88.29,52.91"/>
</g>
</svg>
