<?xml version="1.0" encoding="utf-8"?>
<!-- Generator: Adobe Illustrator 27.9.6, SVG Export Plug-In . SVG Version: 9.03 Build 54986)  -->
<svg version="1.1" id="Layer_1" xmlns="http://www.w3.org/2000/svg" xmlns:xlink="http://www.w3.org/1999/xlink" x="0px" y="0px"
	 viewBox="0 0 177.13 90.73" style="enable-background:new 0 0 177.13 90.73;" xml:space="preserve">
<style type="text/css">
	.st0{fill:none;stroke:#BCBEC0;stroke-miterlimit:10;}
	.st1{fill:#BCBEC0;}
	.st2{opacity:0;fill:none;}
	.st3{opacity:0;clip-path:url(#SVGID_00000067950595691847828680000012511384216803132052_);fill:none;}
	.st4{clip-path:url(#SVGID_00000067950595691847828680000012511384216803132052_);}
	.st5{opacity:0;clip-path:url(#SVGID_00000027600355127009521450000000527260542399354254_);fill:none;}
	.st6{clip-path:url(#SVGID_00000027600355127009521450000000527260542399354254_);}
	.st7{opacity:0;clip-path:url(#SVGID_00000030453699424315856130000001125713154225715081_);fill:none;}
	.st8{clip-path:url(#SVGID_00000030453699424315856130000001125713154225715081_);}
	.st9{opacity:0;clip-path:url(#SVGID_00000023988907516856955210000010343082665566885806_);fill:none;}
	.st10{clip-path:url(#SVGID_00000023988907516856955210000010343082665566885806_);}
	.st11{opacity:0;fill:none;stroke:#000000;stroke-width:1.000000e-06;stroke-miterlimit:10;}
	.st12{opacity:0;clip-path:url(#SVGID_00000019640546931507997280000006285307286517839006_);fill:none;}
	.st13{clip-path:url(#SVGID_00000019640546931507997280000006285307286517839006_);}
	.st14{opacity:0;clip-path:url(#SVGID_00000087385023956133164190000005608788909136818566_);fill:none;}
	.st15{clip-path:url(#SVGID_00000087385023956133164190000005608788909136818566_);}
	
		.st16{opacity:0;clip-path:url(#SVGID_00000060743531395461595360000004504443893479827349_);fill:none;stroke:#000000;stroke-width:1.000000e-06;stroke-miterlimit:10;}
	.st17{opacity:0;clip-path:url(#SVGID_00000093877001507907150390000005220831098182339233_);fill:none;}
	.st18{clip-path:url(#SVGID_00000111188666976883597960000011591092511864880016_);}
	
		.st19{opacity:0;clip-path:url(#SVGID_00000052069176666129998010000012179515952817930634_);fill:none;stroke:#000000;stroke-width:1.000000e-06;stroke-miterlimit:10;}
	.st20{clip-path:url(#SVGID_00000149340578574207483890000002888872438634102672_);}
	.st21{opacity:0;clip-path:url(#SVGID_00000171712192320844383780000007465400990834721696_);fill:none;}
	.st22{clip-path:url(#SVGID_00000171712192320844383780000007465400990834721696_);}
	.st23{opacity:0;clip-path:url(#SVGID_00000068642991107111447520000003796408302054961046_);fill:none;}
	.st24{clip-path:url(#SVGID_00000106859342559843784210000012615982169140409770_);}
	.st25{clip-path:url(#SVGID_00000088114870998354163540000010206681490258149015_);}
	.st26{opacity:0;clip-path:url(#SVGID_00000152240650790233421630000006748118601568692365_);fill:none;}
	.st27{clip-path:url(#SVGID_00000152240650790233421630000006748118601568692365_);}
	.st28{clip-path:url(#SVGID_00000171713575803660797000000017279997579964115074_);}
	.st29{clip-path:url(#SVGID_00000016064511295871377440000013479344495571026325_);}
</style>
<line class="st0" x1="50.44" y1="38.77" x2="33.5" y2="38.77"/>
<g>
	<circle class="st1" cx="60.63" cy="43.08" r="11.19"/>
</g>
<g>
	<path class="st1" d="M33.5,55.55c0,2.2-1.8,4-4,4h-3.95c-2.2,0-4-1.8-4-4V33.32c0-2.2,1.8-4,4-4h3.95c2.2,0,4,1.8,4,4V55.55z"/>
</g>
<line class="st0" x1="50.44" y1="47.36" x2="33.5" y2="47.36"/>
<line class="st0" x1="86.75" y1="38.79" x2="70.81" y2="38.79"/>
<line class="st0" x1="86.75" y1="47.38" x2="70.81" y2="47.38"/>
<polygon class="st2" points="57.85,41.27 57.85,41.27 57.85,41.27 57.85,41.27 57.85,41.27 57.85,41.27 57.85,41.27 57.85,41.27 
	57.85,41.27 57.85,41.27 57.85,41.27 57.85,41.27 57.85,41.27 57.85,41.27 57.85,41.27 57.85,41.27 57.85,41.27 57.85,41.27 
	57.85,41.27 57.85,41.27 57.85,41.27 57.85,41.27 57.85,41.27 57.85,41.27 57.85,41.27 57.85,41.27 57.85,41.27 57.85,41.27 
	57.85,41.27 57.85,41.27 57.85,41.27 57.85,41.27 57.85,41.27 57.85,41.27 57.85,41.27 57.85,41.27 57.85,41.27 57.85,41.27 
	57.85,41.27 57.85,41.27 57.85,41.27 57.85,41.27 57.85,41.27 57.85,41.27 57.85,41.27 57.85,41.27 57.85,41.27 57.85,41.27 
	57.85,41.27 57.85,41.27 57.85,41.27 57.85,41.27 57.85,41.27 57.85,41.27 57.85,41.27 57.85,41.27 57.85,41.27 57.85,41.27 
	57.85,41.27 57.85,41.27 57.85,41.27 57.85,41.27 57.85,41.27 57.85,41.27 57.85,41.27 57.85,41.27 57.85,41.27 57.85,41.27 
	57.85,41.27 57.85,41.27 57.85,41.27 57.85,41.27 57.85,41.27 57.85,41.27 57.85,41.27 57.85,41.27 57.85,41.27 57.85,41.27 
	57.85,41.27 57.85,41.27 57.85,41.27 57.85,41.27 57.85,41.27 57.85,41.27 57.85,41.27 "/>
<polygon class="st2" points="158.74,49.14 158.74,49.14 158.74,49.14 158.74,49.14 158.74,49.14 158.74,49.14 158.74,49.14 
	158.74,49.14 158.74,49.14 158.74,49.14 158.74,49.14 158.74,49.14 158.74,49.14 158.74,49.14 158.74,49.14 158.74,49.14 
	158.74,49.14 158.74,49.14 158.74,49.14 158.74,49.14 158.74,49.14 158.74,49.14 158.74,49.14 158.74,49.14 158.74,49.14 
	158.74,49.14 158.74,49.14 158.74,49.14 158.74,49.14 158.74,49.14 158.74,49.14 158.74,49.14 158.74,49.14 158.74,49.14 
	158.74,49.14 158.74,49.14 158.74,49.14 158.74,49.14 158.74,49.14 158.74,49.14 158.74,49.14 158.74,49.14 158.74,49.14 
	158.74,49.14 158.74,49.14 158.74,49.14 158.74,49.14 158.74,49.14 158.74,49.14 158.74,49.14 158.74,49.14 158.74,49.14 
	158.74,49.14 158.74,49.14 158.74,49.14 158.74,49.14 158.74,49.14 158.74,49.14 158.74,49.14 158.74,49.14 158.74,49.14 
	158.74,49.14 158.74,49.14 158.74,49.14 158.74,49.14 158.74,49.14 158.74,49.14 158.74,49.14 158.74,49.14 158.74,49.14 
	158.74,49.14 158.74,49.14 158.74,49.14 158.74,49.14 158.74,49.14 158.74,49.14 158.74,49.14 158.74,49.14 158.74,49.14 
	158.74,49.14 158.74,49.14 158.74,49.14 158.74,49.14 158.74,49.14 158.74,49.14 "/>
<polygon class="st2" points="60.32,42.91 60.32,42.91 60.32,42.91 60.32,42.91 60.32,42.91 60.32,42.91 60.32,42.91 60.32,42.91 
	60.32,42.91 60.32,42.91 60.32,42.91 60.32,42.91 60.32,42.91 60.32,42.91 60.32,42.91 60.32,42.91 60.32,42.91 60.32,42.91 
	60.32,42.91 60.32,42.91 60.32,42.91 60.32,42.91 60.32,42.91 60.32,42.91 60.32,42.91 60.32,42.91 60.32,42.91 60.32,42.91 
	60.32,42.91 60.32,42.91 60.32,42.91 60.32,42.91 60.32,42.91 60.32,42.91 60.32,42.91 60.32,42.91 60.32,42.91 60.32,42.91 
	60.32,42.91 60.32,42.91 60.32,42.91 60.32,42.91 60.32,42.91 60.32,42.91 60.32,42.91 60.32,42.91 60.32,42.91 60.32,42.91 
	60.32,42.91 60.32,42.91 60.32,42.91 60.32,42.91 60.32,42.91 60.32,42.91 60.32,42.91 60.32,42.91 60.32,42.91 60.32,42.91 
	60.32,42.91 60.32,42.91 60.32,42.91 60.32,42.91 60.32,42.91 60.32,42.91 60.32,42.91 60.32,42.91 60.32,42.91 60.32,42.91 
	60.32,42.91 60.32,42.91 60.32,42.91 60.32,42.91 60.32,42.91 60.32,42.91 60.32,42.91 60.32,42.91 60.32,42.91 60.32,42.91 
	60.32,42.91 60.32,42.91 60.32,42.91 60.32,42.91 60.32,42.91 60.32,42.91 60.32,42.91 "/>
<g>
	<defs>
		<rect id="SVGID_1_" x="56.34" y="39.42" width="7.97" height="6.64"/>
	</defs>
	<clipPath id="SVGID_00000068639386127795701400000013533086076370252219_">
		<use xlink:href="#SVGID_1_"  style="overflow:visible;"/>
	</clipPath>
	<path style="opacity:0;clip-path:url(#SVGID_00000068639386127795701400000013533086076370252219_);fill:none;" d="M60.33,42.74
		L60.33,42.74z"/>
	<path style="clip-path:url(#SVGID_00000068639386127795701400000013533086076370252219_);" d="M60.9,42.09l-0.78-1.84
		c-0.03-0.07-0.05-0.11-0.05-0.12c0-0.06,0.16-0.23,0.55-0.27c0.09-0.01,0.18-0.02,0.18-0.18c0-0.11-0.11-0.11-0.14-0.11
		c-0.38,0-0.78,0.03-1.17,0.03c-0.23,0-0.81-0.03-1.04-0.03c-0.06,0-0.17,0-0.17,0.19c0,0.1,0.09,0.1,0.21,0.1
		c0.56,0,0.61,0.09,0.69,0.3l1.09,2.58l-1.95,2.1l-0.12,0.1c-0.45,0.49-0.89,0.64-1.36,0.67c-0.12,0.01-0.2,0.01-0.2,0.19
		c0,0.01,0,0.1,0.12,0.1c0.28,0,0.58-0.03,0.87-0.03c0.34,0,0.7,0.03,1.04,0.03c0.06,0,0.17,0,0.17-0.19c0-0.09-0.09-0.1-0.11-0.1
		c-0.08-0.01-0.37-0.03-0.37-0.29c0-0.15,0.14-0.3,0.25-0.42l0.94-1L60.4,43l0.94,2.21c0.04,0.1,0.05,0.11,0.05,0.13
		c0,0.07-0.18,0.23-0.54,0.27c-0.1,0.01-0.19,0.02-0.19,0.18c0,0.11,0.1,0.11,0.14,0.11c0.26,0,0.91-0.03,1.17-0.03
		c0.23,0,0.8,0.03,1.03,0.03c0.06,0,0.18,0,0.18-0.18c0-0.11-0.09-0.11-0.17-0.11c-0.62-0.01-0.64-0.04-0.8-0.41
		c-0.36-0.86-0.98-2.31-1.19-2.86c0.63-0.65,1.6-1.75,1.9-2.01c0.27-0.22,0.62-0.44,1.18-0.47c0.12-0.01,0.2-0.01,0.2-0.18
		c0-0.01,0-0.1-0.12-0.1c-0.28,0-0.58,0.03-0.87,0.03c-0.34,0-0.69-0.03-1.03-0.03c-0.06,0-0.18,0-0.18,0.19
		c0,0.06,0.05,0.09,0.11,0.1c0.08,0.01,0.37,0.03,0.37,0.29c0,0.13-0.1,0.25-0.18,0.33L60.9,42.09"/>
</g>
<line class="st0" x1="21.55" y1="38.79" x2="5.61" y2="38.79"/>
<line class="st0" x1="21.55" y1="47.38" x2="5.61" y2="47.38"/>
<polygon class="st2" points="28.66,45.93 28.66,45.93 28.66,45.93 28.66,45.93 28.66,45.93 28.66,45.93 28.66,45.93 28.66,45.93 
	28.66,45.93 28.66,45.93 28.66,45.93 28.66,45.93 28.66,45.93 28.66,45.93 28.66,45.93 28.66,45.93 28.66,45.93 28.66,45.93 
	28.66,45.93 28.66,45.93 28.66,45.93 28.66,45.93 28.66,45.93 28.66,45.93 28.66,45.93 28.66,45.93 28.66,45.93 28.66,45.93 
	28.66,45.93 28.66,45.93 28.66,45.93 28.66,45.93 28.66,45.93 28.66,45.93 28.66,45.93 28.66,45.93 28.66,45.93 28.66,45.93 
	28.66,45.93 28.66,45.93 28.66,45.93 28.66,45.93 28.66,45.93 28.66,45.93 28.66,45.93 28.66,45.93 28.66,45.93 28.66,45.93 
	28.66,45.93 28.66,45.93 28.66,45.93 28.66,45.93 28.66,45.93 28.66,45.93 28.66,45.93 28.66,45.93 28.66,45.93 28.66,45.93 
	28.66,45.93 28.66,45.93 28.66,45.93 28.66,45.93 28.66,45.93 28.66,45.93 28.66,45.93 28.66,45.93 28.66,45.93 28.66,45.93 
	28.66,45.93 28.66,45.93 28.66,45.93 28.66,45.93 28.66,45.93 28.66,45.93 28.66,45.93 28.66,45.93 28.66,45.93 28.66,45.93 
	28.66,45.93 28.66,45.93 28.66,45.93 28.66,45.93 28.66,45.93 28.66,45.93 28.66,45.93 "/>
<g>
	<defs>
		<rect id="SVGID_00000165231787810052059490000006789942434214729625_" x="24.17" y="39.79" width="6.64" height="8.63"/>
	</defs>
	<clipPath id="SVGID_00000137090531236545467640000001114437418592872870_">
		<use xlink:href="#SVGID_00000165231787810052059490000006789942434214729625_"  style="overflow:visible;"/>
	</clipPath>
	<path style="opacity:0;clip-path:url(#SVGID_00000137090531236545467640000001114437418592872870_);fill:none;" d="M27.49,44.1
		L27.49,44.1z"/>
	<path style="clip-path:url(#SVGID_00000137090531236545467640000001114437418592872870_);" d="M26.75,46.57
		c-0.13,0-0.43,0-0.43-0.4c0-0.37,0.35-0.74,0.74-0.74c0.39,0,0.56,0.22,0.56,0.79c0,0.14-0.01,0.15-0.1,0.19
		C27.29,46.5,27.01,46.57,26.75,46.57 M26.18,46.47c-0.72-0.29-1.04-1.01-1.04-1.84c0-0.64,0.24-1.95,0.94-2.95
		c0.68-0.94,1.55-1.37,2.22-1.37c0.93,0,1.6,0.72,1.6,1.96c0,0.93-0.47,3.09-2.03,3.96c-0.05-0.32-0.14-1-0.81-1
		c-0.49,0-0.94,0.46-0.94,0.94C26.12,46.35,26.18,46.46,26.18,46.47z M27.93,46.54c1.44-0.55,2.8-2.19,2.8-3.98
		c0-1.49-0.98-2.49-2.36-2.49c-2,0-4.04,2.1-4.04,4.26c0,1.54,1.04,2.47,2.37,2.47c0.23,0,0.55-0.04,0.91-0.14
		c-0.04,0.57-0.04,0.59-0.04,0.71c0,0.3,0,1.02,0.77,1.02c1.1,0,1.55-1.69,1.55-1.8c0-0.06-0.06-0.09-0.1-0.09
		c-0.07,0-0.09,0.05-0.11,0.1c-0.22,0.66-0.76,0.89-1.08,0.89C28.16,47.49,28.02,47.24,27.93,46.54z"/>
</g>
<polygon class="st2" points="98.45,50.99 98.45,50.99 98.45,50.99 98.45,50.99 98.45,50.99 98.45,50.99 98.45,50.99 98.45,50.99 
	98.45,50.99 98.45,50.99 98.45,50.99 98.45,50.99 98.45,50.99 98.45,50.99 98.45,50.99 98.45,50.99 98.45,50.99 98.45,50.99 
	98.45,50.99 98.45,50.99 98.45,50.99 98.45,50.99 98.45,50.99 98.45,50.99 98.45,50.99 98.45,50.99 98.45,50.99 98.45,50.99 
	98.45,50.99 98.45,50.99 98.45,50.99 98.45,50.99 98.45,50.99 98.45,50.99 98.45,50.99 98.45,50.99 98.45,50.99 98.45,50.99 
	98.45,50.99 98.45,50.99 98.45,50.99 98.45,50.99 98.45,50.99 98.45,50.99 98.45,50.99 98.45,50.99 98.45,50.99 98.45,50.99 
	98.45,50.99 98.45,50.99 98.45,50.99 98.45,50.99 98.45,50.99 98.45,50.99 98.45,50.99 98.45,50.99 98.45,50.99 98.45,50.99 
	98.45,50.99 98.45,50.99 98.45,50.99 98.45,50.99 98.45,50.99 98.45,50.99 98.45,50.99 98.45,50.99 98.45,50.99 98.45,50.99 
	98.45,50.99 98.45,50.99 98.45,50.99 98.45,50.99 98.45,50.99 98.45,50.99 98.45,50.99 98.45,50.99 98.45,50.99 98.45,50.99 
	98.45,50.99 98.45,50.99 98.45,50.99 98.45,50.99 98.45,50.99 98.45,50.99 98.45,50.99 98.45,50.99 "/>
<g>
	<defs>
		<rect id="SVGID_00000027606219923399749270000006463268851336938129_" x="97.18" y="41.26" width="6.64" height="4.32"/>
	</defs>
	<clipPath id="SVGID_00000021833069984308631810000015629565928897175688_">
		<use xlink:href="#SVGID_00000027606219923399749270000006463268851336938129_"  style="overflow:visible;"/>
	</clipPath>
	<path style="opacity:0;clip-path:url(#SVGID_00000021833069984308631810000015629565928897175688_);fill:none;" d="M100.5,43.42
		L100.5,43.42z"/>
	<path style="clip-path:url(#SVGID_00000021833069984308631810000015629565928897175688_);" d="M103.6,43.86
		c0-0.27-0.11-0.29-0.13-0.29c-0.04,0-0.12,0.05-0.13,0.25c-0.04,0.64-0.68,1.02-1.29,1.02c-0.54,0-1-0.29-1.48-0.61
		c-0.5-0.33-1-0.67-1.6-0.67c-0.86,0-1.55,0.66-1.55,1.51c0,0.2,0.07,0.28,0.13,0.28c0.09,0,0.13-0.18,0.13-0.21
		c0.05-0.78,0.81-1.06,1.29-1.06c0.54,0,1,0.29,1.48,0.61c0.5,0.33,1,0.67,1.6,0.67C102.93,45.36,103.6,44.67,103.6,43.86
		 M103.6,41.69c0-0.19-0.06-0.28-0.13-0.28c-0.04,0-0.12,0.04-0.13,0.25c-0.04,0.64-0.68,1.02-1.29,1.02c-0.54,0-1-0.29-1.48-0.61
		c-0.5-0.33-1-0.67-1.6-0.67c-0.86,0-1.55,0.66-1.55,1.51c0,0.2,0.07,0.28,0.13,0.28c0.09,0,0.13-0.18,0.13-0.21
		c0.05-0.78,0.81-1.06,1.29-1.06c0.54,0,1,0.29,1.48,0.61c0.5,0.33,1,0.67,1.6,0.67C102.92,43.2,103.6,42.54,103.6,41.69z"/>
</g>
<g>
	<circle class="st1" cx="134.81" cy="73.62" r="11.19"/>
</g>
<line class="st0" x1="161.93" y1="14.98" x2="145.99" y2="14.98"/>
<line class="st0" x1="161.93" y1="73.62" x2="145.99" y2="73.62"/>
<polygon class="st2" points="132.03,42.82 132.03,42.82 132.03,42.82 132.03,42.82 132.03,42.82 132.03,42.82 132.03,42.82 
	132.03,42.82 132.03,42.82 132.03,42.82 132.03,42.82 132.03,42.82 132.03,42.82 132.03,42.82 132.03,42.82 132.03,42.82 
	132.03,42.82 132.03,42.82 132.03,42.82 132.03,42.82 132.03,42.82 132.03,42.82 132.03,42.82 132.03,42.82 132.03,42.82 
	132.03,42.82 132.03,42.82 132.03,42.82 132.03,42.82 132.03,42.82 132.03,42.82 132.03,42.82 132.03,42.82 132.03,42.82 
	132.03,42.82 132.03,42.82 132.03,42.82 132.03,42.82 132.03,42.82 132.03,42.82 132.03,42.82 132.03,42.82 132.03,42.82 
	132.03,42.82 132.03,42.82 132.03,42.82 132.03,42.82 132.03,42.82 132.03,42.82 132.03,42.82 132.03,42.82 132.03,42.82 
	132.03,42.82 132.03,42.82 132.03,42.82 132.03,42.82 132.03,42.82 132.03,42.82 132.03,42.82 132.03,42.82 132.03,42.82 
	132.03,42.82 132.03,42.82 132.03,42.82 132.03,42.82 132.03,42.82 132.03,42.82 132.03,42.82 132.03,42.82 132.03,42.82 
	132.03,42.82 132.03,42.82 132.03,42.82 132.03,42.82 132.03,42.82 132.03,42.82 132.03,42.82 132.03,42.82 132.03,42.82 
	132.03,42.82 132.03,42.82 132.03,42.82 132.03,42.82 132.03,42.82 132.03,42.82 "/>
<polygon class="st2" points="134.51,44.46 134.51,44.46 134.51,44.46 134.51,44.46 134.51,44.46 134.51,44.46 134.51,44.46 
	134.51,44.46 134.51,44.46 134.51,44.46 134.51,44.46 134.51,44.46 134.51,44.46 134.51,44.46 134.51,44.46 134.51,44.46 
	134.51,44.46 134.51,44.46 134.51,44.46 134.51,44.46 134.51,44.46 134.51,44.46 134.51,44.46 134.51,44.46 134.51,44.46 
	134.51,44.46 134.51,44.46 134.51,44.46 134.51,44.46 134.51,44.46 134.51,44.46 134.51,44.46 134.51,44.46 134.51,44.46 
	134.51,44.46 134.51,44.46 134.51,44.46 134.51,44.46 134.51,44.46 134.51,44.46 134.51,44.46 134.51,44.46 134.51,44.46 
	134.51,44.46 134.51,44.46 134.51,44.46 134.51,44.46 134.51,44.46 134.51,44.46 134.51,44.46 134.51,44.46 134.51,44.46 
	134.51,44.46 134.51,44.46 134.51,44.46 134.51,44.46 134.51,44.46 134.51,44.46 134.51,44.46 134.51,44.46 134.51,44.46 
	134.51,44.46 134.51,44.46 134.51,44.46 134.51,44.46 134.51,44.46 134.51,44.46 134.51,44.46 134.51,44.46 134.51,44.46 
	134.51,44.46 134.51,44.46 134.51,44.46 134.51,44.46 134.51,44.46 134.51,44.46 134.51,44.46 134.51,44.46 134.51,44.46 
	134.51,44.46 134.51,44.46 134.51,44.46 134.51,44.46 134.51,44.46 134.51,44.46 "/>
<g>
	<circle class="st1" cx="134.81" cy="14.95" r="11.19"/>
</g>
<g>
	<circle class="st1" cx="134.51" cy="44.44" r="7.8"/>
</g>
<polygon class="st2" points="134.5,14.98 134.5,14.98 134.5,14.98 134.5,14.98 134.5,14.98 134.5,14.98 134.5,14.98 134.5,14.98 
	134.5,14.98 134.5,14.98 134.5,14.98 134.5,14.98 134.5,14.98 134.5,14.98 134.5,14.98 134.5,14.98 134.5,14.98 134.5,14.98 
	134.5,14.98 134.5,14.98 134.5,14.98 134.5,14.98 134.5,14.98 134.5,14.98 134.5,14.98 134.5,14.98 134.5,14.98 134.5,14.98 
	134.5,14.98 134.5,14.98 134.5,14.98 134.5,14.98 134.5,14.98 134.5,14.98 134.5,14.98 134.5,14.98 134.5,14.98 134.5,14.98 
	134.5,14.98 134.5,14.98 134.5,14.98 134.5,14.98 134.5,14.98 134.5,14.98 134.5,14.98 134.5,14.98 134.5,14.98 134.5,14.98 
	134.5,14.98 134.5,14.98 134.5,14.98 134.5,14.98 134.5,14.98 134.5,14.98 134.5,14.98 134.5,14.98 134.5,14.98 134.5,14.98 
	134.5,14.98 134.5,14.98 134.5,14.98 134.5,14.98 134.5,14.98 134.5,14.98 134.5,14.98 134.5,14.98 134.5,14.98 134.5,14.98 
	134.5,14.98 134.5,14.98 134.5,14.98 134.5,14.98 134.5,14.98 134.5,14.98 134.5,14.98 134.5,14.98 134.5,14.98 134.5,14.98 
	134.5,14.98 134.5,14.98 134.5,14.98 134.5,14.98 134.5,14.98 134.5,14.98 134.5,14.98 "/>
<g>
	<defs>
		<rect id="SVGID_00000151510534306198231360000010147480426383342222_" x="131.32" y="11.63" width="6.97" height="6.64"/>
	</defs>
	<clipPath id="SVGID_00000080927454850031707180000015877081290374695814_">
		<use xlink:href="#SVGID_00000151510534306198231360000010147480426383342222_"  style="overflow:visible;"/>
	</clipPath>
	<path style="opacity:0;clip-path:url(#SVGID_00000080927454850031707180000015877081290374695814_);fill:none;" d="M134.81,14.95
		L134.81,14.95z"/>
	<path style="clip-path:url(#SVGID_00000080927454850031707180000015877081290374695814_);" d="M136.9,12.69
		c0.09-0.38,0.26-0.66,1-0.69c0.05,0,0.16-0.01,0.16-0.18c0-0.01,0-0.1-0.12-0.1c-0.31,0-0.63,0.03-0.94,0.03
		c-0.31,0-0.66-0.03-0.96-0.03c-0.06,0-0.17,0-0.17,0.19c0,0.1,0.09,0.1,0.17,0.1c0.53,0.01,0.63,0.2,0.63,0.41
		c0,0.03-0.02,0.17-0.03,0.19l-0.83,3.31c-0.31,1.24-1.38,2.05-2.31,2.05c-0.63,0-1.13-0.41-1.13-1.2c0-0.02,0-0.31,0.1-0.72
		l0.9-3.6c0.08-0.33,0.1-0.43,0.78-0.43c0.24,0,0.31,0,0.31-0.18c0-0.1-0.1-0.1-0.13-0.1c-0.26,0-0.93,0.03-1.19,0.03
		c-0.27,0-0.93-0.03-1.19-0.03c-0.07,0-0.18,0-0.18,0.19c0,0.1,0.08,0.1,0.26,0.1c0.02,0,0.19,0,0.35,0.02
		c0.17,0.02,0.25,0.03,0.25,0.15c0,0.06-0.1,0.44-0.16,0.66l-0.2,0.82c-0.08,0.36-0.53,2.11-0.57,2.29
		c-0.06,0.26-0.06,0.4-0.06,0.54c0,1.13,0.84,1.78,1.82,1.78c1.17,0,2.31-1.05,2.62-2.27L136.9,12.69"/>
</g>
<polygon class="st11" points="459.46,54.72 459.46,54.72 459.46,54.72 459.46,54.72 459.46,54.72 459.46,54.72 459.46,54.72 
	459.46,54.72 459.46,54.72 459.46,54.72 459.46,54.72 459.46,54.72 459.46,54.72 459.46,54.72 459.46,54.72 459.46,54.72 
	459.46,54.72 459.46,54.72 459.46,54.72 459.46,54.72 459.46,54.72 459.46,54.72 459.46,54.72 459.46,54.72 459.46,54.72 
	459.46,54.72 459.46,54.72 459.46,54.72 459.46,54.72 459.46,54.72 459.46,54.72 459.46,54.72 459.46,54.72 459.46,54.72 
	459.46,54.72 459.46,54.72 459.46,54.72 459.46,54.72 459.46,54.72 459.46,54.72 459.46,54.72 459.46,54.72 459.46,54.72 
	459.46,54.72 459.46,54.72 459.46,54.72 459.46,54.72 459.46,54.72 459.46,54.72 459.46,54.72 459.46,54.72 459.46,54.72 
	459.46,54.72 459.46,54.72 459.46,54.72 459.46,54.72 459.46,54.72 459.46,54.72 459.46,54.72 459.46,54.72 459.46,54.72 
	459.46,54.72 459.46,54.72 459.46,54.72 459.46,54.72 459.46,54.72 459.46,54.72 459.46,54.72 459.46,54.72 459.46,54.72 
	459.46,54.72 459.46,54.72 459.46,54.72 459.46,54.72 459.46,54.72 459.46,54.72 459.46,54.72 459.46,54.72 459.46,54.72 
	459.46,54.72 459.46,54.72 459.46,54.72 459.46,54.72 459.46,54.72 459.46,54.72 459.46,54.72 "/>
<g>
	<defs>
		<rect id="SVGID_00000072972621101821428070000009155964738794881927_" x="131.52" y="41.14" width="5.98" height="6.64"/>
	</defs>
	<clipPath id="SVGID_00000149350809273277730500000003251861263365397906_">
		<use xlink:href="#SVGID_00000072972621101821428070000009155964738794881927_"  style="overflow:visible;"/>
	</clipPath>
	<path style="opacity:0;clip-path:url(#SVGID_00000149350809273277730500000003251861263365397906_);fill:none;" d="M134.5,44.46
		L134.5,44.46z"/>
	<path style="clip-path:url(#SVGID_00000149350809273277730500000003251861263365397906_);" d="M134.63,44.59
		c0.08-0.09,0.08-0.13,0.08-0.15c0-0.05-0.04-0.09-0.06-0.13l-1.9-2.74h2.14c1.56,0,2.03,0.33,2.22,1.8h0.23l-0.26-2.08h-5.14
		c-0.22,0-0.24,0-0.24,0.21l2.31,3.35l-2.2,2.51c-0.09,0.1-0.09,0.12-0.09,0.15c0,0.1,0.09,0.1,0.23,0.1h5.14l0.26-2.19h-0.23
		c-0.17,1.55-0.8,1.8-2.25,1.8h-2.56L134.63,44.59"/>
</g>
<polygon class="st2" points="134.34,74.43 134.34,74.43 134.34,74.43 134.34,74.43 134.34,74.43 134.34,74.43 134.34,74.43 
	134.34,74.43 134.34,74.43 134.34,74.43 134.34,74.43 134.34,74.43 134.34,74.43 134.34,74.43 134.34,74.43 134.34,74.43 
	134.34,74.43 134.34,74.43 134.34,74.43 134.34,74.43 134.34,74.43 134.34,74.43 134.34,74.43 134.34,74.43 134.34,74.43 
	134.34,74.43 134.34,74.43 134.34,74.43 134.34,74.43 134.34,74.43 134.34,74.43 134.34,74.43 134.34,74.43 134.34,74.43 
	134.34,74.43 134.34,74.43 134.34,74.43 134.34,74.43 134.34,74.43 134.34,74.43 134.34,74.43 134.34,74.43 134.34,74.43 
	134.34,74.43 134.34,74.43 134.34,74.43 134.34,74.43 134.34,74.43 134.34,74.43 134.34,74.43 134.34,74.43 134.34,74.43 
	134.34,74.43 134.34,74.43 134.34,74.43 134.34,74.43 134.34,74.43 134.34,74.43 134.34,74.43 134.34,74.43 134.34,74.43 
	134.34,74.43 134.34,74.43 134.34,74.43 134.34,74.43 134.34,74.43 134.34,74.43 134.34,74.43 134.34,74.43 134.34,74.43 
	134.34,74.43 134.34,74.43 134.34,74.43 134.34,74.43 134.34,74.43 134.34,74.43 134.34,74.43 134.34,74.43 134.34,74.43 
	134.34,74.43 134.34,74.43 134.34,74.43 134.34,74.43 134.34,74.43 134.34,74.43 "/>
<g>
	<defs>
		<rect id="SVGID_00000008106566759770917270000013784799521679680647_" x="131.33" y="70.42" width="6.97" height="6.64"/>
	</defs>
	<clipPath id="SVGID_00000134211481414747822580000000670523343819546291_">
		<use xlink:href="#SVGID_00000008106566759770917270000013784799521679680647_"  style="overflow:visible;"/>
	</clipPath>
	<path style="opacity:0;clip-path:url(#SVGID_00000134211481414747822580000000670523343819546291_);fill:none;" d="M134.82,73.74
		L134.82,73.74z"/>
	<path style="clip-path:url(#SVGID_00000134211481414747822580000000670523343819546291_);" d="M136.78,71.56
		c0.45-0.72,0.84-0.75,1.19-0.77c0.11-0.01,0.12-0.17,0.12-0.18c0-0.07-0.05-0.11-0.12-0.11c-0.24,0-0.51,0.03-0.76,0.03
		c-0.31,0-0.62-0.03-0.92-0.03c-0.06,0-0.18,0-0.18,0.18c0,0.1,0.08,0.11,0.15,0.11c0.25,0.02,0.43,0.11,0.43,0.31
		c0,0.14-0.14,0.34-0.14,0.35l-2.84,4.52l-0.63-4.9c0-0.16,0.21-0.28,0.64-0.28c0.13,0,0.23,0,0.23-0.18c0-0.08-0.07-0.1-0.13-0.1
		c-0.37,0-0.77,0.03-1.15,0.03c-0.17,0-0.34-0.01-0.51-0.01s-0.34-0.02-0.5-0.02c-0.06,0-0.18,0-0.18,0.18
		c0,0.11,0.08,0.11,0.23,0.11c0.52,0,0.53,0.08,0.56,0.31l0.73,5.71c0.03,0.19,0.06,0.21,0.19,0.21c0.15,0,0.19-0.05,0.26-0.17
		L136.78,71.56"/>
</g>
<line class="st0" x1="134.81" y1="36.64" x2="134.81" y2="26.14"/>
<line class="st0" x1="134.81" y1="62.73" x2="134.81" y2="52.23"/>
<line class="st0" x1="123.62" y1="14.98" x2="107.68" y2="14.98"/>
<line class="st0" x1="123.62" y1="74.43" x2="107.68" y2="74.43"/>
<polygon class="st11" points="674.23,-16.06 674.23,-16.06 674.23,-16.06 674.23,-16.06 674.23,-16.06 674.23,-16.06 674.23,-16.06 
	674.23,-16.06 674.23,-16.06 674.23,-16.06 674.23,-16.06 674.23,-16.06 674.23,-16.06 674.23,-16.06 674.23,-16.06 674.23,-16.06 
	674.23,-16.06 674.23,-16.06 674.23,-16.06 674.23,-16.06 674.23,-16.06 674.23,-16.06 674.23,-16.06 674.23,-16.06 674.23,-16.06 
	674.23,-16.06 674.23,-16.06 674.23,-16.06 674.23,-16.06 674.23,-16.06 674.23,-16.06 674.23,-16.06 674.23,-16.06 674.23,-16.06 
	674.23,-16.06 674.23,-16.06 674.23,-16.06 674.23,-16.06 674.23,-16.06 674.23,-16.06 674.23,-16.06 674.23,-16.06 674.23,-16.06 
	674.23,-16.06 674.23,-16.06 674.23,-16.06 674.23,-16.06 674.23,-16.06 674.23,-16.06 674.23,-16.06 674.23,-16.06 674.23,-16.06 
	674.23,-16.06 674.23,-16.06 674.23,-16.06 674.23,-16.06 674.23,-16.06 674.23,-16.06 674.23,-16.06 674.23,-16.06 674.23,-16.06 
	674.23,-16.06 674.23,-16.06 674.23,-16.06 674.23,-16.06 674.23,-16.06 674.23,-16.06 674.23,-16.06 674.23,-16.06 674.23,-16.06 
	674.23,-16.06 674.23,-16.06 674.23,-16.06 674.23,-16.06 674.23,-16.06 674.23,-16.06 674.23,-16.06 674.23,-16.06 674.23,-16.06 
	674.23,-16.06 674.23,-16.06 674.23,-16.06 674.23,-16.06 674.23,-16.06 674.23,-16.06 "/>
<g>
	<defs>
		<rect id="SVGID_00000006696323227573324370000011942077382881500606_" x="668.13" y="-27.44" width="13" height="21"/>
	</defs>
	<clipPath id="SVGID_00000007411299757079283720000015452281154808426167_">
		<use xlink:href="#SVGID_00000006696323227573324370000011942077382881500606_"  style="overflow:visible;"/>
	</clipPath>
	
		<path style="opacity:0;clip-path:url(#SVGID_00000007411299757079283720000015452281154808426167_);fill:none;stroke:#000000;stroke-width:1.000000e-06;stroke-miterlimit:10;" d="
		M674.63-16.94L674.63-16.94z"/>
</g>
<polygon class="st2" points="69.88,60.93 69.88,60.93 69.88,60.93 69.88,60.93 69.88,60.93 69.88,60.93 69.88,60.93 69.88,60.93 
	69.88,60.93 69.88,60.93 69.88,60.93 69.88,60.93 69.88,60.93 69.88,60.93 69.88,60.93 69.88,60.93 69.88,60.93 69.88,60.93 
	69.88,60.93 69.88,60.93 69.88,60.93 69.88,60.93 69.88,60.93 69.88,60.93 69.88,60.93 69.88,60.93 69.88,60.93 69.88,60.93 
	69.88,60.93 69.88,60.93 69.88,60.93 69.88,60.93 69.88,60.93 69.88,60.93 69.88,60.93 69.88,60.93 69.88,60.93 69.88,60.93 
	69.88,60.93 69.88,60.93 69.88,60.93 69.88,60.93 69.88,60.93 69.88,60.93 69.88,60.93 69.88,60.93 69.88,60.93 69.88,60.93 
	69.88,60.93 69.88,60.93 69.88,60.93 69.88,60.93 69.88,60.93 69.88,60.93 69.88,60.93 69.88,60.93 69.88,60.93 69.88,60.93 
	69.88,60.93 69.88,60.93 69.88,60.93 69.88,60.93 69.88,60.93 69.88,60.93 69.88,60.93 69.88,60.93 69.88,60.93 69.88,60.93 
	69.88,60.93 69.88,60.93 69.88,60.93 69.88,60.93 69.88,60.93 69.88,60.93 69.88,60.93 69.88,60.93 69.88,60.93 69.88,60.93 
	69.88,60.93 69.88,60.93 69.88,60.93 69.88,60.93 69.88,60.93 69.88,60.93 69.88,60.93 "/>
<g>
	<defs>
		<rect id="SVGID_00000059991719229402584750000015420127552247001999_" x="68.71" y="58.41" width="2.99" height="4.98"/>
	</defs>
	<clipPath id="SVGID_00000056401547231411891550000002966338217294827137_">
		<use xlink:href="#SVGID_00000059991719229402584750000015420127552247001999_"  style="overflow:visible;"/>
	</clipPath>
	<path style="opacity:0;clip-path:url(#SVGID_00000056401547231411891550000002966338217294827137_);fill:none;" d="M70.21,60.9
		L70.21,60.9z"/>
</g>
<g>
	<defs>
		<rect id="SVGID_00000028291955714044457050000010735064445457014175_" x="40.13" y="48.5" width="2.68" height="4.98"/>
	</defs>
	<clipPath id="SVGID_00000060734408446496302490000001840464261744339092_">
		<use xlink:href="#SVGID_00000028291955714044457050000010735064445457014175_"  style="overflow:visible;"/>
	</clipPath>
	<path style="clip-path:url(#SVGID_00000060734408446496302490000001840464261744339092_);" d="M41.63,48.8c0-0.17,0-0.19-0.17-0.19
		c-0.45,0.47-1.09,0.47-1.32,0.47v0.23c0.15,0,0.57,0,0.95-0.19v3.77c0,0.26-0.02,0.35-0.68,0.35h-0.23v0.23
		c0.25-0.02,0.89-0.02,1.18-0.02c0.29,0,0.92,0,1.18,0.02v-0.23H42.3c-0.65,0-0.68-0.08-0.68-0.35V48.8"/>
</g>
<polygon class="st11" points="490.45,-29.88 490.45,-29.88 490.45,-29.88 490.45,-29.88 490.45,-29.88 490.45,-29.88 490.45,-29.88 
	490.45,-29.88 490.45,-29.88 490.45,-29.88 490.45,-29.88 490.45,-29.88 490.45,-29.88 490.45,-29.88 490.45,-29.88 490.45,-29.88 
	490.45,-29.88 490.45,-29.88 490.45,-29.88 490.45,-29.88 490.45,-29.88 490.45,-29.88 490.45,-29.88 490.45,-29.88 490.45,-29.88 
	490.45,-29.88 490.45,-29.88 490.45,-29.88 490.45,-29.88 490.45,-29.88 490.45,-29.88 490.45,-29.88 490.45,-29.88 490.45,-29.88 
	490.45,-29.88 490.45,-29.88 490.45,-29.88 490.45,-29.88 490.45,-29.88 490.45,-29.88 490.45,-29.88 490.45,-29.88 490.45,-29.88 
	490.45,-29.88 490.45,-29.88 490.45,-29.88 490.45,-29.88 490.45,-29.88 490.45,-29.88 490.45,-29.88 490.45,-29.88 490.45,-29.88 
	490.45,-29.88 490.45,-29.88 490.45,-29.88 490.45,-29.88 490.45,-29.88 490.45,-29.88 490.45,-29.88 490.45,-29.88 490.45,-29.88 
	490.45,-29.88 490.45,-29.88 490.45,-29.88 490.45,-29.88 490.45,-29.88 490.45,-29.88 490.45,-29.88 490.45,-29.88 490.45,-29.88 
	490.45,-29.88 490.45,-29.88 490.45,-29.88 490.45,-29.88 490.45,-29.88 490.45,-29.88 490.45,-29.88 490.45,-29.88 490.45,-29.88 
	490.45,-29.88 490.45,-29.88 490.45,-29.88 490.45,-29.88 490.45,-29.88 490.45,-29.88 "/>
<g>
	<defs>
		<rect id="SVGID_00000170267537015751701020000012696979571714236584_" x="485.54" y="-38.49" width="10" height="16"/>
	</defs>
	<clipPath id="SVGID_00000111180704872036427450000018157697905719150771_">
		<use xlink:href="#SVGID_00000170267537015751701020000012696979571714236584_"  style="overflow:visible;"/>
	</clipPath>
	
		<path style="opacity:0;clip-path:url(#SVGID_00000111180704872036427450000018157697905719150771_);fill:none;stroke:#000000;stroke-width:1.000000e-06;stroke-miterlimit:10;" d="
		M490.54-30.49L490.54-30.49z"/>
</g>
<g>
	<defs>
		<rect id="SVGID_00000119832715794070081840000006704934484614001071_" x="39.81" y="32.4" width="3.32" height="5.18"/>
	</defs>
	<clipPath id="SVGID_00000008864895472326567360000012271200031083171263_">
		<use xlink:href="#SVGID_00000119832715794070081840000006704934484614001071_"  style="overflow:visible;"/>
	</clipPath>
	<path style="clip-path:url(#SVGID_00000008864895472326567360000012271200031083171263_);" d="M41.36,37.35
		c-0.28,0-0.71-0.18-0.84-0.88c-0.08-0.44-0.08-1.11-0.08-1.53c0-0.47,0-0.95,0.06-1.34c0.14-0.87,0.68-0.93,0.87-0.93
		c0.24,0,0.72,0.13,0.86,0.85c0.07,0.41,0.07,0.96,0.07,1.42c0,0.55,0,1.04-0.08,1.51C42.1,37.13,41.68,37.35,41.36,37.35
		 M42.89,35.02c0-0.58-0.04-1.16-0.29-1.7c-0.33-0.7-0.93-0.81-1.24-0.81c-0.44,0-0.97,0.19-1.27,0.87
		c-0.23,0.5-0.27,1.07-0.27,1.65c0,0.55,0.03,1.2,0.33,1.75c0.31,0.59,0.84,0.73,1.2,0.73c0.39,0,0.94-0.15,1.27-0.84
		C42.85,36.17,42.89,35.6,42.89,35.02z"/>
</g>
<polygon class="st2" points="88.47,64.69 88.47,64.69 88.47,64.69 88.47,64.69 88.47,64.69 88.47,64.69 88.47,64.69 88.47,64.69 
	88.47,64.69 88.47,64.69 88.47,64.69 88.47,64.69 88.47,64.69 88.47,64.69 88.47,64.69 88.47,64.69 88.47,64.69 88.47,64.69 
	88.47,64.69 88.47,64.69 88.47,64.69 88.47,64.69 88.47,64.69 88.47,64.69 88.47,64.69 88.47,64.69 88.47,64.69 88.47,64.69 
	88.47,64.69 88.47,64.69 88.47,64.69 88.47,64.69 88.47,64.69 88.47,64.69 88.47,64.69 88.47,64.69 88.47,64.69 88.47,64.69 
	88.47,64.69 88.47,64.69 88.47,64.69 88.47,64.69 88.47,64.69 88.47,64.69 88.47,64.69 88.47,64.69 88.47,64.69 88.47,64.69 
	88.47,64.69 88.47,64.69 88.47,64.69 88.47,64.69 88.47,64.69 88.47,64.69 88.47,64.69 88.47,64.69 88.47,64.69 88.47,64.69 
	88.47,64.69 88.47,64.69 88.47,64.69 88.47,64.69 88.47,64.69 88.47,64.69 88.47,64.69 88.47,64.69 88.47,64.69 88.47,64.69 
	88.47,64.69 88.47,64.69 88.47,64.69 88.47,64.69 88.47,64.69 88.47,64.69 88.47,64.69 88.47,64.69 88.47,64.69 88.47,64.69 
	88.47,64.69 88.47,64.69 88.47,64.69 88.47,64.69 88.47,64.69 88.47,64.69 88.47,64.69 "/>
<g>
	<defs>
		<rect id="SVGID_00000070101051625588307340000009212112201521586061_" x="77.44" y="32.5" width="3.32" height="4.98"/>
	</defs>
	<clipPath id="SVGID_00000076598706903307061370000012938168633095156118_">
		<use xlink:href="#SVGID_00000070101051625588307340000009212112201521586061_"  style="overflow:visible;"/>
	</clipPath>
	<path style="opacity:0;clip-path:url(#SVGID_00000076598706903307061370000012938168633095156118_);fill:none;" d="M79.1,34.99
		L79.1,34.99z"/>
	<path style="clip-path:url(#SVGID_00000076598706903307061370000012938168633095156118_);" d="M78.1,36.89l0.77-0.75
		c1.13-1,1.57-1.4,1.57-2.12c0-0.83-0.65-1.41-1.54-1.41c-0.82,0-1.36,0.67-1.36,1.32c0,0.41,0.36,0.41,0.39,0.41
		c0.12,0,0.38-0.09,0.38-0.39c0-0.19-0.13-0.38-0.39-0.38c-0.06,0-0.07,0-0.09,0.01c0.17-0.47,0.56-0.74,0.98-0.74
		c0.66,0,0.97,0.59,0.97,1.19c0,0.58-0.36,1.16-0.76,1.61l-1.4,1.56c-0.08,0.08-0.08,0.09-0.08,0.27h2.7l0.2-1.27h-0.18
		c-0.04,0.22-0.09,0.54-0.16,0.65c-0.05,0.06-0.53,0.06-0.69,0.06H78.1"/>
</g>
<polygon class="st2" points="85.16,79.48 85.16,79.48 85.16,79.48 85.16,79.48 85.16,79.48 85.16,79.48 85.16,79.48 85.16,79.48 
	85.16,79.48 85.16,79.48 85.16,79.48 85.16,79.48 85.16,79.48 85.16,79.48 85.16,79.48 85.16,79.48 85.16,79.48 85.16,79.48 
	85.16,79.48 85.16,79.48 85.16,79.48 85.16,79.48 85.16,79.48 85.16,79.48 85.16,79.48 85.16,79.48 85.16,79.48 85.16,79.48 
	85.16,79.48 85.16,79.48 85.16,79.48 85.16,79.48 85.16,79.48 85.16,79.48 85.16,79.48 85.16,79.48 85.16,79.48 85.16,79.48 
	85.16,79.48 85.16,79.48 85.16,79.48 85.16,79.48 85.16,79.48 85.16,79.48 85.16,79.48 85.16,79.48 85.16,79.48 85.16,79.48 
	85.16,79.48 85.16,79.48 85.16,79.48 85.16,79.48 85.16,79.48 85.16,79.48 85.16,79.48 85.16,79.48 85.16,79.48 85.16,79.48 
	85.16,79.48 85.16,79.48 85.16,79.48 85.16,79.48 85.16,79.48 85.16,79.48 85.16,79.48 85.16,79.48 85.16,79.48 85.16,79.48 
	85.16,79.48 85.16,79.48 85.16,79.48 85.16,79.48 85.16,79.48 85.16,79.48 85.16,79.48 85.16,79.48 85.16,79.48 85.16,79.48 
	85.16,79.48 85.16,79.48 85.16,79.48 85.16,79.48 85.16,79.48 85.16,79.48 85.16,79.48 "/>
<g>
	<defs>
		<rect id="SVGID_00000112602898523684245430000017599012286363362199_" x="83.55" y="76.62" width="3.32" height="5.31"/>
	</defs>
	<clipPath id="SVGID_00000083059635919793014170000005416006851592243613_">
		<use xlink:href="#SVGID_00000112602898523684245430000017599012286363362199_"  style="overflow:visible;"/>
	</clipPath>
	<path style="opacity:0;clip-path:url(#SVGID_00000083059635919793014170000005416006851592243613_);fill:none;" d="M85.21,79.28
		L85.21,79.28z"/>
</g>
<g>
	<defs>
		<rect id="SVGID_00000003080039727904646500000001108586873571356045_" x="77.44" y="48.4" width="3.32" height="5.18"/>
	</defs>
	<clipPath id="SVGID_00000042696141275945796180000017098384236334354090_">
		<use xlink:href="#SVGID_00000003080039727904646500000001108586873571356045_"  style="overflow:visible;"/>
	</clipPath>
	<path style="clip-path:url(#SVGID_00000042696141275945796180000017098384236334354090_);" d="M79.29,50.79
		c0.6-0.2,1.02-0.71,1.02-1.28c0-0.6-0.64-1-1.34-1c-0.73,0-1.29,0.44-1.29,0.99c0,0.24,0.16,0.38,0.37,0.38
		c0.23,0,0.37-0.16,0.37-0.37c0-0.36-0.34-0.36-0.45-0.36c0.23-0.36,0.71-0.45,0.97-0.45c0.3,0,0.7,0.16,0.7,0.81
		c0,0.09-0.01,0.51-0.2,0.83c-0.22,0.35-0.46,0.37-0.65,0.38c-0.06,0.01-0.23,0.02-0.28,0.02c-0.06,0.01-0.11,0.01-0.11,0.09
		c0,0.08,0.05,0.08,0.17,0.08h0.32c0.6,0,0.87,0.49,0.87,1.21c0,0.99-0.5,1.2-0.82,1.2c-0.31,0-0.86-0.12-1.11-0.55
		c0.25,0.04,0.48-0.12,0.48-0.4c0-0.26-0.2-0.41-0.41-0.41c-0.17,0-0.41,0.1-0.41,0.42c0,0.66,0.68,1.14,1.47,1.14
		c0.89,0,1.55-0.66,1.55-1.4C80.5,51.51,80.04,50.94,79.29,50.79"/>
</g>
<g>
	<defs>
		<rect id="SVGID_00000101097321224689845780000010037961360308540064_" x="113.84" y="7.69" width="3.32" height="5.18"/>
	</defs>
	<clipPath id="SVGID_00000052096474906649509030000004455263571989095838_">
		<use xlink:href="#SVGID_00000101097321224689845780000010037961360308540064_"  style="overflow:visible;"/>
	</clipPath>
	<path style="clip-path:url(#SVGID_00000052096474906649509030000004455263571989095838_);" d="M115.38,12.64
		c-0.28,0-0.71-0.18-0.84-0.88c-0.08-0.44-0.08-1.11-0.08-1.53c0-0.47,0-0.95,0.06-1.34c0.14-0.87,0.68-0.93,0.87-0.93
		c0.24,0,0.72,0.13,0.86,0.85c0.07,0.41,0.07,0.96,0.07,1.42c0,0.55,0,1.04-0.08,1.51C116.12,12.42,115.71,12.64,115.38,12.64
		 M116.92,10.31c0-0.58-0.04-1.16-0.29-1.7c-0.33-0.7-0.93-0.81-1.24-0.81c-0.44,0-0.97,0.19-1.27,0.87
		c-0.23,0.5-0.27,1.07-0.27,1.65c0,0.55,0.03,1.2,0.33,1.75c0.31,0.59,0.84,0.73,1.2,0.73c0.39,0,0.94-0.15,1.27-0.84
		C116.88,11.45,116.92,10.88,116.92,10.31z"/>
</g>
<g>
	<defs>
		<rect id="SVGID_00000163774908443327316350000018085974134656489088_" x="152.47" y="7.79" width="3.32" height="4.98"/>
	</defs>
	<clipPath id="SVGID_00000139253215176934103100000010276123538186899387_">
		<use xlink:href="#SVGID_00000163774908443327316350000018085974134656489088_"  style="overflow:visible;"/>
	</clipPath>
	<path style="opacity:0;clip-path:url(#SVGID_00000139253215176934103100000010276123538186899387_);fill:none;" d="M154.13,10.28
		L154.13,10.28z"/>
	<path style="clip-path:url(#SVGID_00000139253215176934103100000010276123538186899387_);" d="M153.13,12.18l0.77-0.75
		c1.13-1,1.57-1.4,1.57-2.12c0-0.83-0.65-1.41-1.54-1.41c-0.82,0-1.36,0.67-1.36,1.32c0,0.41,0.36,0.41,0.39,0.41
		c0.12,0,0.38-0.09,0.38-0.39c0-0.19-0.13-0.38-0.39-0.38c-0.06,0-0.07,0-0.09,0.01c0.17-0.47,0.56-0.74,0.98-0.74
		c0.66,0,0.97,0.59,0.97,1.19c0,0.58-0.36,1.16-0.76,1.61l-1.4,1.56c-0.08,0.08-0.08,0.09-0.08,0.27h2.7l0.2-1.27h-0.18
		c-0.04,0.22-0.09,0.54-0.16,0.65c-0.05,0.06-0.53,0.06-0.69,0.06H153.13"/>
</g>
<g>
	<defs>
		<rect id="SVGID_00000167364395742070529820000012415815410923990928_" x="114.66" y="75.89" width="2.68" height="4.98"/>
	</defs>
	<clipPath id="SVGID_00000120537295077871396200000015615964587534963101_">
		<use xlink:href="#SVGID_00000167364395742070529820000012415815410923990928_"  style="overflow:visible;"/>
	</clipPath>
	<path style="clip-path:url(#SVGID_00000120537295077871396200000015615964587534963101_);" d="M116.16,76.19
		c0-0.17,0-0.19-0.17-0.19c-0.45,0.47-1.09,0.47-1.32,0.47v0.23c0.15,0,0.57,0,0.95-0.19v3.77c0,0.26-0.02,0.35-0.68,0.35h-0.23
		v0.23c0.25-0.02,0.89-0.02,1.18-0.02c0.29,0,0.92,0,1.18,0.02v-0.23h-0.23c-0.65,0-0.68-0.08-0.68-0.35V76.19"/>
</g>
<g>
	<defs>
		<rect id="SVGID_00000109011265316600278410000013981477205565569412_" x="151.98" y="75.46" width="3.32" height="5.18"/>
	</defs>
	<clipPath id="SVGID_00000044144868949928000820000014428618132261834917_">
		<use xlink:href="#SVGID_00000109011265316600278410000013981477205565569412_"  style="overflow:visible;"/>
	</clipPath>
	<path style="clip-path:url(#SVGID_00000044144868949928000820000014428618132261834917_);" d="M153.82,77.85
		c0.6-0.2,1.02-0.71,1.02-1.28c0-0.6-0.64-1-1.34-1c-0.73,0-1.29,0.44-1.29,0.99c0,0.24,0.16,0.38,0.37,0.38
		c0.23,0,0.37-0.16,0.37-0.37c0-0.36-0.34-0.36-0.45-0.36c0.23-0.36,0.71-0.45,0.97-0.45c0.3,0,0.7,0.16,0.7,0.81
		c0,0.09-0.01,0.51-0.2,0.83c-0.22,0.35-0.46,0.37-0.65,0.38c-0.06,0.01-0.23,0.02-0.28,0.02c-0.06,0.01-0.11,0.01-0.11,0.09
		c0,0.08,0.05,0.08,0.17,0.08h0.32c0.6,0,0.87,0.49,0.87,1.21c0,0.99-0.5,1.2-0.82,1.2c-0.31,0-0.86-0.12-1.11-0.55
		c0.25,0.04,0.48-0.12,0.48-0.4c0-0.26-0.2-0.41-0.41-0.41c-0.17,0-0.41,0.1-0.41,0.42c0,0.66,0.68,1.14,1.47,1.14
		c0.89,0,1.55-0.66,1.55-1.4C155.04,78.57,154.58,78,153.82,77.85"/>
</g>
</svg>
