<?xml version="1.0" encoding="utf-8"?>
<!-- Generator: Adobe Illustrator 27.9.6, SVG Export Plug-In . SVG Version: 9.03 Build 54986)  -->
<svg version="1.1" id="Layer_1" xmlns="http://www.w3.org/2000/svg" xmlns:xlink="http://www.w3.org/1999/xlink" x="0px" y="0px"
	 viewBox="0 0 94.31 43.76" style="enable-background:new 0 0 94.31 43.76;" xml:space="preserve">
<style type="text/css">
	.st0{fill:none;stroke:#BCBEC0;stroke-miterlimit:10;}
	.st1{fill:#BCBEC0;}
	.st2{opacity:0;fill:none;}
	.st3{opacity:0;clip-path:url(#SVGID_00000052067837239964046170000012858873897557347766_);fill:none;}
	.st4{clip-path:url(#SVGID_00000052067837239964046170000012858873897557347766_);}
	.st5{opacity:0;clip-path:url(#SVGID_00000119110475465805875180000003562400999361107872_);fill:none;}
	.st6{clip-path:url(#SVGID_00000119110475465805875180000003562400999361107872_);}
	.st7{opacity:0;clip-path:url(#SVGID_00000112629206491016460270000005154928294544307373_);fill:none;}
	.st8{clip-path:url(#SVGID_00000112629206491016460270000005154928294544307373_);}
	.st9{opacity:0;clip-path:url(#SVGID_00000001629147274825462270000001148615799206844066_);fill:none;}
	.st10{clip-path:url(#SVGID_00000001629147274825462270000001148615799206844066_);}
	.st11{opacity:0;fill:none;stroke:#000000;stroke-width:1.000000e-06;stroke-miterlimit:10;}
	.st12{opacity:0;clip-path:url(#SVGID_00000008869495027631426330000013090631434513445053_);fill:none;}
	.st13{clip-path:url(#SVGID_00000008869495027631426330000013090631434513445053_);}
	.st14{opacity:0;clip-path:url(#SVGID_00000028300473702287677370000004341660999120906929_);fill:none;}
	.st15{clip-path:url(#SVGID_00000028300473702287677370000004341660999120906929_);}
	
		.st16{opacity:0;clip-path:url(#SVGID_00000142141502339231034660000002934397529260380591_);fill:none;stroke:#000000;stroke-width:1.000000e-06;stroke-miterlimit:10;}
	.st17{opacity:0;clip-path:url(#SVGID_00000039130337188459329830000006308858930690592152_);fill:none;}
	.st18{clip-path:url(#SVGID_00000089556068603430098020000017136919640047262597_);}
	
		.st19{opacity:0;clip-path:url(#SVGID_00000163792233568599325740000012262539226812824739_);fill:none;stroke:#000000;stroke-width:1.000000e-06;stroke-miterlimit:10;}
	.st20{clip-path:url(#SVGID_00000009566505562574406520000010588184599926412672_);}
	.st21{opacity:0;clip-path:url(#SVGID_00000139981946920007774360000007494759644911731646_);fill:none;}
	.st22{clip-path:url(#SVGID_00000139981946920007774360000007494759644911731646_);}
	.st23{opacity:0;clip-path:url(#SVGID_00000171680194971218465040000011330327793337672352_);fill:none;}
	.st24{clip-path:url(#SVGID_00000176723098905157265570000015237500921264458423_);}
	.st25{clip-path:url(#SVGID_00000080197057896456564090000011500189067310172045_);}
	.st26{opacity:0;clip-path:url(#SVGID_00000041253971111833452340000002244114346508934079_);fill:none;}
	.st27{clip-path:url(#SVGID_00000041253971111833452340000002244114346508934079_);}
	.st28{clip-path:url(#SVGID_00000123408781114274459940000003642456598092505256_);}
	.st29{clip-path:url(#SVGID_00000021086851713081670720000009228759407998009523_);}
</style>
<line class="st0" x1="24.84" y1="19.11" x2="16.6" y2="19.11"/>
<g>
	<circle class="st1" cx="29.8" cy="21.21" r="5.44"/>
</g>
<g>
	<path class="st1" d="M16.6,25.22c0,2.2-1.31,4-2.91,4s-2.91-1.8-2.91-4v-6.72c0-2.2,1.31-4,2.91-4s2.91,1.8,2.91,4V25.22z"/>
</g>
<line class="st0" x1="24.84" y1="23.29" x2="16.6" y2="23.29"/>
<line class="st0" x1="42.52" y1="19.12" x2="34.76" y2="19.12"/>
<line class="st0" x1="42.52" y1="23.3" x2="34.76" y2="23.3"/>
<polygon class="st2" points="28.45,20.32 28.45,20.32 28.45,20.32 28.45,20.32 28.45,20.32 28.45,20.32 28.45,20.32 28.45,20.32 
	28.45,20.32 28.45,20.32 28.45,20.32 28.45,20.32 28.45,20.32 28.45,20.32 28.45,20.32 28.45,20.32 28.45,20.32 28.45,20.32 
	28.45,20.32 28.45,20.32 28.45,20.32 28.45,20.32 28.45,20.32 28.45,20.32 28.45,20.32 28.45,20.32 28.45,20.32 28.45,20.32 
	28.45,20.32 28.45,20.32 28.45,20.32 28.45,20.32 28.45,20.32 28.45,20.32 28.45,20.32 28.45,20.32 28.45,20.32 28.45,20.32 
	28.45,20.32 28.45,20.32 28.45,20.32 28.45,20.32 28.45,20.32 28.45,20.32 28.45,20.32 28.45,20.32 28.45,20.32 28.45,20.32 
	28.45,20.32 28.45,20.32 28.45,20.32 28.45,20.32 28.45,20.32 28.45,20.32 28.45,20.32 28.45,20.32 28.45,20.32 28.45,20.32 
	28.45,20.32 28.45,20.32 28.45,20.32 28.45,20.32 28.45,20.32 28.45,20.32 28.45,20.32 28.45,20.32 28.45,20.32 28.45,20.32 
	28.45,20.32 28.45,20.32 28.45,20.32 28.45,20.32 28.45,20.32 28.45,20.32 28.45,20.32 28.45,20.32 28.45,20.32 28.45,20.32 
	28.45,20.32 28.45,20.32 28.45,20.32 28.45,20.32 28.45,20.32 28.45,20.32 28.45,20.32 "/>
<polygon class="st2" points="77.55,24.15 77.55,24.15 77.55,24.15 77.55,24.15 77.55,24.15 77.55,24.15 77.55,24.15 77.55,24.15 
	77.55,24.15 77.55,24.15 77.55,24.15 77.55,24.15 77.55,24.15 77.55,24.15 77.55,24.15 77.55,24.15 77.55,24.15 77.55,24.15 
	77.55,24.15 77.55,24.15 77.55,24.15 77.55,24.15 77.55,24.15 77.55,24.15 77.55,24.15 77.55,24.15 77.55,24.15 77.55,24.15 
	77.55,24.15 77.55,24.15 77.55,24.15 77.55,24.15 77.55,24.15 77.55,24.15 77.55,24.15 77.55,24.15 77.55,24.15 77.55,24.15 
	77.55,24.15 77.55,24.15 77.55,24.15 77.55,24.15 77.55,24.15 77.55,24.15 77.55,24.15 77.55,24.15 77.55,24.15 77.55,24.15 
	77.55,24.15 77.55,24.15 77.55,24.15 77.55,24.15 77.55,24.15 77.55,24.15 77.55,24.15 77.55,24.15 77.55,24.15 77.55,24.15 
	77.55,24.15 77.55,24.15 77.55,24.15 77.55,24.15 77.55,24.15 77.55,24.15 77.55,24.15 77.55,24.15 77.55,24.15 77.55,24.15 
	77.55,24.15 77.55,24.15 77.55,24.15 77.55,24.15 77.55,24.15 77.55,24.15 77.55,24.15 77.55,24.15 77.55,24.15 77.55,24.15 
	77.55,24.15 77.55,24.15 77.55,24.15 77.55,24.15 77.55,24.15 77.55,24.15 77.55,24.15 "/>
<polygon class="st2" points="29.65,21.12 29.65,21.12 29.65,21.12 29.65,21.12 29.65,21.12 29.65,21.12 29.65,21.12 29.65,21.12 
	29.65,21.12 29.65,21.12 29.65,21.12 29.65,21.12 29.65,21.12 29.65,21.12 29.65,21.12 29.65,21.12 29.65,21.12 29.65,21.12 
	29.65,21.12 29.65,21.12 29.65,21.12 29.65,21.12 29.65,21.12 29.65,21.12 29.65,21.12 29.65,21.12 29.65,21.12 29.65,21.12 
	29.65,21.12 29.65,21.12 29.65,21.12 29.65,21.12 29.65,21.12 29.65,21.12 29.65,21.12 29.65,21.12 29.65,21.12 29.65,21.12 
	29.65,21.12 29.65,21.12 29.65,21.12 29.65,21.12 29.65,21.12 29.65,21.12 29.65,21.12 29.65,21.12 29.65,21.12 29.65,21.12 
	29.65,21.12 29.65,21.12 29.65,21.12 29.65,21.12 29.65,21.12 29.65,21.12 29.65,21.12 29.65,21.12 29.65,21.12 29.65,21.12 
	29.65,21.12 29.65,21.12 29.65,21.12 29.65,21.12 29.65,21.12 29.65,21.12 29.65,21.12 29.65,21.12 29.65,21.12 29.65,21.12 
	29.65,21.12 29.65,21.12 29.65,21.12 29.65,21.12 29.65,21.12 29.65,21.12 29.65,21.12 29.65,21.12 29.65,21.12 29.65,21.12 
	29.65,21.12 29.65,21.12 29.65,21.12 29.65,21.12 29.65,21.12 29.65,21.12 29.65,21.12 "/>
<g>
	<defs>
		<rect id="SVGID_1_" x="27.72" y="19.42" width="3.88" height="3.23"/>
	</defs>
	<clipPath id="SVGID_00000010277893953102873510000013827592245765164931_">
		<use xlink:href="#SVGID_1_"  style="overflow:visible;"/>
	</clipPath>
	<path style="opacity:0;clip-path:url(#SVGID_00000010277893953102873510000013827592245765164931_);fill:none;" d="M29.66,21.04
		L29.66,21.04z"/>
	<path style="clip-path:url(#SVGID_00000010277893953102873510000013827592245765164931_);" d="M29.93,20.72l-0.38-0.9
		c-0.01-0.04-0.02-0.05-0.02-0.06c0-0.03,0.08-0.11,0.27-0.13c0.04,0,0.09-0.01,0.09-0.09c0-0.05-0.05-0.05-0.07-0.05
		c-0.18,0-0.38,0.01-0.57,0.01c-0.11,0-0.39-0.01-0.5-0.01c-0.03,0-0.08,0-0.08,0.09c0,0.05,0.04,0.05,0.1,0.05
		c0.27,0,0.3,0.05,0.34,0.14l0.53,1.26l-0.95,1.02l-0.06,0.05c-0.22,0.24-0.43,0.31-0.66,0.32c-0.06,0-0.1,0-0.1,0.09
		c0,0,0,0.05,0.06,0.05c0.14,0,0.28-0.01,0.42-0.01c0.17,0,0.34,0.01,0.5,0.01c0.03,0,0.08,0,0.08-0.09c0-0.04-0.05-0.05-0.05-0.05
		c-0.04,0-0.18-0.01-0.18-0.14c0-0.07,0.07-0.14,0.12-0.2l0.46-0.49l0.41-0.44l0.46,1.08c0.02,0.05,0.02,0.05,0.02,0.06
		c0,0.04-0.09,0.11-0.26,0.13c-0.05,0-0.09,0.01-0.09,0.09c0,0.05,0.05,0.05,0.07,0.05c0.13,0,0.44-0.01,0.57-0.01
		c0.11,0,0.39,0.01,0.5,0.01c0.03,0,0.09,0,0.09-0.09c0-0.05-0.04-0.05-0.08-0.05c-0.3,0-0.31-0.02-0.39-0.2
		c-0.18-0.42-0.48-1.12-0.58-1.39c0.31-0.32,0.78-0.85,0.92-0.98c0.13-0.11,0.3-0.22,0.57-0.23c0.06,0,0.1,0,0.1-0.09
		c0,0,0-0.05-0.06-0.05c-0.14,0-0.28,0.01-0.42,0.01c-0.17,0-0.34-0.01-0.5-0.01c-0.03,0-0.09,0-0.09,0.09
		c0,0.03,0.02,0.05,0.05,0.05c0.04,0,0.18,0.01,0.18,0.14c0,0.06-0.05,0.12-0.09,0.16L29.93,20.72"/>
</g>
<line class="st0" x1="10.78" y1="19.12" x2="3.03" y2="19.12"/>
<line class="st0" x1="10.78" y1="23.3" x2="3.03" y2="23.3"/>
<polygon class="st2" points="14.24,22.59 14.24,22.59 14.24,22.59 14.24,22.59 14.24,22.59 14.24,22.59 14.24,22.59 14.24,22.59 
	14.24,22.59 14.24,22.59 14.24,22.59 14.24,22.59 14.24,22.59 14.24,22.59 14.24,22.59 14.24,22.59 14.24,22.59 14.24,22.59 
	14.24,22.59 14.24,22.59 14.24,22.59 14.24,22.59 14.24,22.59 14.24,22.59 14.24,22.59 14.24,22.59 14.24,22.59 14.24,22.59 
	14.24,22.59 14.24,22.59 14.24,22.59 14.24,22.59 14.24,22.59 14.24,22.59 14.24,22.59 14.24,22.59 14.24,22.59 14.24,22.59 
	14.24,22.59 14.24,22.59 14.24,22.59 14.24,22.59 14.24,22.59 14.24,22.59 14.24,22.59 14.24,22.59 14.24,22.59 14.24,22.59 
	14.24,22.59 14.24,22.59 14.24,22.59 14.24,22.59 14.24,22.59 14.24,22.59 14.24,22.59 14.24,22.59 14.24,22.59 14.24,22.59 
	14.24,22.59 14.24,22.59 14.24,22.59 14.24,22.59 14.24,22.59 14.24,22.59 14.24,22.59 14.24,22.59 14.24,22.59 14.24,22.59 
	14.24,22.59 14.24,22.59 14.24,22.59 14.24,22.59 14.24,22.59 14.24,22.59 14.24,22.59 14.24,22.59 14.24,22.59 14.24,22.59 
	14.24,22.59 14.24,22.59 14.24,22.59 14.24,22.59 14.24,22.59 14.24,22.59 14.24,22.59 "/>
<g>
	<defs>
		<rect id="SVGID_00000036244864875008361490000016446869025027876287_" x="12.06" y="19.6" width="3.23" height="4.2"/>
	</defs>
	<clipPath id="SVGID_00000034081789775412435230000018024129695184073145_">
		<use xlink:href="#SVGID_00000036244864875008361490000016446869025027876287_"  style="overflow:visible;"/>
	</clipPath>
	<path style="opacity:0;clip-path:url(#SVGID_00000034081789775412435230000018024129695184073145_);fill:none;" d="M13.67,21.7
		L13.67,21.7z"/>
	<path style="clip-path:url(#SVGID_00000034081789775412435230000018024129695184073145_);" d="M13.31,22.9
		c-0.06,0-0.21,0-0.21-0.19c0-0.18,0.17-0.36,0.36-0.36c0.19,0,0.27,0.11,0.27,0.38c0,0.07,0,0.07-0.05,0.09
		C13.57,22.87,13.44,22.9,13.31,22.9 M13.03,22.85c-0.35-0.14-0.5-0.49-0.5-0.9c0-0.31,0.12-0.95,0.46-1.44
		c0.33-0.46,0.75-0.67,1.08-0.67c0.45,0,0.78,0.35,0.78,0.96c0,0.45-0.23,1.5-0.99,1.93c-0.02-0.16-0.07-0.49-0.4-0.49
		c-0.24,0-0.46,0.23-0.46,0.46C13.01,22.8,13.03,22.85,13.03,22.85z M13.89,22.89c0.7-0.27,1.36-1.07,1.36-1.94
		c0-0.73-0.48-1.21-1.15-1.21c-0.97,0-1.96,1.02-1.96,2.07c0,0.75,0.5,1.2,1.15,1.2c0.11,0,0.27-0.02,0.44-0.07
		c-0.02,0.28-0.02,0.29-0.02,0.35c0,0.14,0,0.5,0.37,0.5c0.54,0,0.75-0.82,0.75-0.87c0-0.03-0.03-0.04-0.05-0.04
		c-0.04,0-0.05,0.02-0.05,0.05c-0.11,0.32-0.37,0.43-0.53,0.43C14,23.35,13.93,23.23,13.89,22.89z"/>
</g>
<polygon class="st2" points="48.21,25.06 48.21,25.06 48.21,25.06 48.21,25.06 48.21,25.06 48.21,25.06 48.21,25.06 48.21,25.06 
	48.21,25.06 48.21,25.06 48.21,25.06 48.21,25.06 48.21,25.06 48.21,25.06 48.21,25.06 48.21,25.06 48.21,25.06 48.21,25.06 
	48.21,25.06 48.21,25.06 48.21,25.06 48.21,25.06 48.21,25.06 48.21,25.06 48.21,25.06 48.21,25.06 48.21,25.06 48.21,25.06 
	48.21,25.06 48.21,25.06 48.21,25.06 48.21,25.06 48.21,25.06 48.21,25.06 48.21,25.06 48.21,25.06 48.21,25.06 48.21,25.06 
	48.21,25.06 48.21,25.06 48.21,25.06 48.21,25.06 48.21,25.06 48.21,25.06 48.21,25.06 48.21,25.06 48.21,25.06 48.21,25.06 
	48.21,25.06 48.21,25.06 48.21,25.06 48.21,25.06 48.21,25.06 48.21,25.06 48.21,25.06 48.21,25.06 48.21,25.06 48.21,25.06 
	48.21,25.06 48.21,25.06 48.21,25.06 48.21,25.06 48.21,25.06 48.21,25.06 48.21,25.06 48.21,25.06 48.21,25.06 48.21,25.06 
	48.21,25.06 48.21,25.06 48.21,25.06 48.21,25.06 48.21,25.06 48.21,25.06 48.21,25.06 48.21,25.06 48.21,25.06 48.21,25.06 
	48.21,25.06 48.21,25.06 48.21,25.06 48.21,25.06 48.21,25.06 48.21,25.06 48.21,25.06 48.21,25.06 "/>
<g>
	<defs>
		<rect id="SVGID_00000019666823767528458110000005643567342059924404_" x="47.59" y="20.32" width="3.23" height="2.1"/>
	</defs>
	<clipPath id="SVGID_00000012435531746759388410000015844628706122429095_">
		<use xlink:href="#SVGID_00000019666823767528458110000005643567342059924404_"  style="overflow:visible;"/>
	</clipPath>
	<path style="opacity:0;clip-path:url(#SVGID_00000012435531746759388410000015844628706122429095_);fill:none;" d="M49.21,21.37
		L49.21,21.37z"/>
	<path style="clip-path:url(#SVGID_00000012435531746759388410000015844628706122429095_);" d="M50.72,21.58
		c0-0.13-0.05-0.14-0.06-0.14c-0.02,0-0.06,0.02-0.06,0.12c-0.02,0.31-0.33,0.5-0.63,0.5c-0.26,0-0.49-0.14-0.72-0.3
		c-0.24-0.16-0.49-0.32-0.78-0.32c-0.42,0-0.75,0.32-0.75,0.73c0,0.1,0.04,0.14,0.06,0.14c0.05,0,0.06-0.09,0.06-0.1
		c0.02-0.38,0.39-0.51,0.63-0.51c0.26,0,0.49,0.14,0.72,0.3c0.24,0.16,0.49,0.32,0.78,0.32C50.39,22.31,50.72,21.98,50.72,21.58
		 M50.72,20.53c0-0.09-0.03-0.14-0.06-0.14c-0.02,0-0.06,0.02-0.06,0.12c-0.02,0.31-0.33,0.5-0.63,0.5c-0.26,0-0.49-0.14-0.72-0.3
		c-0.24-0.16-0.49-0.32-0.78-0.32c-0.42,0-0.75,0.32-0.75,0.73c0,0.1,0.04,0.14,0.06,0.14c0.05,0,0.06-0.09,0.06-0.1
		c0.02-0.38,0.39-0.51,0.63-0.51c0.26,0,0.49,0.14,0.72,0.3c0.24,0.16,0.49,0.32,0.78,0.32C50.38,21.26,50.72,20.94,50.72,20.53z"/>
</g>
<g>
	<circle class="st1" cx="65.91" cy="36.07" r="5.44"/>
</g>
<line class="st0" x1="79.11" y1="7.53" x2="71.35" y2="7.53"/>
<line class="st0" x1="79.11" y1="36.07" x2="71.35" y2="36.07"/>
<polygon class="st2" points="64.56,21.08 64.56,21.08 64.56,21.08 64.56,21.08 64.56,21.08 64.56,21.08 64.56,21.08 64.56,21.08 
	64.56,21.08 64.56,21.08 64.56,21.08 64.56,21.08 64.56,21.08 64.56,21.08 64.56,21.08 64.56,21.08 64.56,21.08 64.56,21.08 
	64.56,21.08 64.56,21.08 64.56,21.08 64.56,21.08 64.56,21.08 64.56,21.08 64.56,21.08 64.56,21.08 64.56,21.08 64.56,21.08 
	64.56,21.08 64.56,21.08 64.56,21.08 64.56,21.08 64.56,21.08 64.56,21.08 64.56,21.08 64.56,21.08 64.56,21.08 64.56,21.08 
	64.56,21.08 64.56,21.08 64.56,21.08 64.56,21.08 64.56,21.08 64.56,21.08 64.56,21.08 64.56,21.08 64.56,21.08 64.56,21.08 
	64.56,21.08 64.56,21.08 64.56,21.08 64.56,21.08 64.56,21.08 64.56,21.08 64.56,21.08 64.56,21.08 64.56,21.08 64.56,21.08 
	64.56,21.08 64.56,21.08 64.56,21.08 64.56,21.08 64.56,21.08 64.56,21.08 64.56,21.08 64.56,21.08 64.56,21.08 64.56,21.08 
	64.56,21.08 64.56,21.08 64.56,21.08 64.56,21.08 64.56,21.08 64.56,21.08 64.56,21.08 64.56,21.08 64.56,21.08 64.56,21.08 
	64.56,21.08 64.56,21.08 64.56,21.08 64.56,21.08 64.56,21.08 64.56,21.08 64.56,21.08 "/>
<polygon class="st2" points="65.76,21.87 65.76,21.87 65.76,21.87 65.76,21.87 65.76,21.87 65.76,21.87 65.76,21.87 65.76,21.87 
	65.76,21.87 65.76,21.87 65.76,21.87 65.76,21.87 65.76,21.87 65.76,21.87 65.76,21.87 65.76,21.87 65.76,21.87 65.76,21.87 
	65.76,21.87 65.76,21.87 65.76,21.87 65.76,21.87 65.76,21.87 65.76,21.87 65.76,21.87 65.76,21.87 65.76,21.87 65.76,21.87 
	65.76,21.87 65.76,21.87 65.76,21.87 65.76,21.87 65.76,21.87 65.76,21.87 65.76,21.87 65.76,21.87 65.76,21.87 65.76,21.87 
	65.76,21.87 65.76,21.87 65.76,21.87 65.76,21.87 65.76,21.87 65.76,21.87 65.76,21.87 65.76,21.87 65.76,21.87 65.76,21.87 
	65.76,21.87 65.76,21.87 65.76,21.87 65.76,21.87 65.76,21.87 65.76,21.87 65.76,21.87 65.76,21.87 65.76,21.87 65.76,21.87 
	65.76,21.87 65.76,21.87 65.76,21.87 65.76,21.87 65.76,21.87 65.76,21.87 65.76,21.87 65.76,21.87 65.76,21.87 65.76,21.87 
	65.76,21.87 65.76,21.87 65.76,21.87 65.76,21.87 65.76,21.87 65.76,21.87 65.76,21.87 65.76,21.87 65.76,21.87 65.76,21.87 
	65.76,21.87 65.76,21.87 65.76,21.87 65.76,21.87 65.76,21.87 65.76,21.87 65.76,21.87 "/>
<g>
	<circle class="st1" cx="65.91" cy="7.51" r="5.44"/>
</g>
<g>
	<circle class="st1" cx="65.76" cy="21.87" r="3.8"/>
</g>
<polygon class="st2" points="65.76,7.53 65.76,7.53 65.76,7.53 65.76,7.53 65.76,7.53 65.76,7.53 65.76,7.53 65.76,7.53 65.76,7.53 
	65.76,7.53 65.76,7.53 65.76,7.53 65.76,7.53 65.76,7.53 65.76,7.53 65.76,7.53 65.76,7.53 65.76,7.53 65.76,7.53 65.76,7.53 
	65.76,7.53 65.76,7.53 65.76,7.53 65.76,7.53 65.76,7.53 65.76,7.53 65.76,7.53 65.76,7.53 65.76,7.53 65.76,7.53 65.76,7.53 
	65.76,7.53 65.76,7.53 65.76,7.53 65.76,7.53 65.76,7.53 65.76,7.53 65.76,7.53 65.76,7.53 65.76,7.53 65.76,7.53 65.76,7.53 
	65.76,7.53 65.76,7.53 65.76,7.53 65.76,7.53 65.76,7.53 65.76,7.53 65.76,7.53 65.76,7.53 65.76,7.53 65.76,7.53 65.76,7.53 
	65.76,7.53 65.76,7.53 65.76,7.53 65.76,7.53 65.76,7.53 65.76,7.53 65.76,7.53 65.76,7.53 65.76,7.53 65.76,7.53 65.76,7.53 
	65.76,7.53 65.76,7.53 65.76,7.53 65.76,7.53 65.76,7.53 65.76,7.53 65.76,7.53 65.76,7.53 65.76,7.53 65.76,7.53 65.76,7.53 
	65.76,7.53 65.76,7.53 65.76,7.53 65.76,7.53 65.76,7.53 65.76,7.53 65.76,7.53 65.76,7.53 65.76,7.53 65.76,7.53 "/>
<g>
	<defs>
		<rect id="SVGID_00000149378804082133833260000016509022452087642026_" x="64.21" y="5.9" width="3.39" height="3.23"/>
	</defs>
	<clipPath id="SVGID_00000061472058704447738810000009869351501414496698_">
		<use xlink:href="#SVGID_00000149378804082133833260000016509022452087642026_"  style="overflow:visible;"/>
	</clipPath>
	<path style="opacity:0;clip-path:url(#SVGID_00000061472058704447738810000009869351501414496698_);fill:none;" d="M65.91,7.51
		L65.91,7.51z"/>
	<path style="clip-path:url(#SVGID_00000061472058704447738810000009869351501414496698_);" d="M66.93,6.41
		c0.05-0.18,0.13-0.32,0.49-0.33c0.02,0,0.08,0,0.08-0.09c0,0,0-0.05-0.06-0.05c-0.15,0-0.31,0.01-0.46,0.01
		c-0.15,0-0.32-0.01-0.47-0.01c-0.03,0-0.08,0-0.08,0.09c0,0.05,0.04,0.05,0.08,0.05c0.26,0,0.31,0.1,0.31,0.2
		c0,0.01-0.01,0.08-0.01,0.09l-0.41,1.61c-0.15,0.6-0.67,1-1.12,1c-0.31,0-0.55-0.2-0.55-0.59c0-0.01,0-0.15,0.05-0.35l0.44-1.75
		c0.04-0.16,0.05-0.21,0.38-0.21c0.12,0,0.15,0,0.15-0.09c0-0.05-0.05-0.05-0.06-0.05c-0.13,0-0.45,0.01-0.58,0.01
		c-0.13,0-0.45-0.01-0.58-0.01c-0.04,0-0.09,0-0.09,0.09c0,0.05,0.04,0.05,0.13,0.05c0.01,0,0.09,0,0.17,0.01
		c0.08,0.01,0.12,0.01,0.12,0.07c0,0.03-0.05,0.22-0.08,0.32l-0.1,0.4c-0.04,0.18-0.26,1.03-0.28,1.11
		c-0.03,0.13-0.03,0.19-0.03,0.26c0,0.55,0.41,0.87,0.88,0.87c0.57,0,1.13-0.51,1.28-1.1L66.93,6.41"/>
</g>
<polygon class="st11" points="376.63,11.42 376.63,11.42 376.63,11.42 376.63,11.42 376.63,11.42 376.63,11.42 376.63,11.42 
	376.63,11.42 376.63,11.42 376.63,11.42 376.63,11.42 376.63,11.42 376.63,11.42 376.63,11.42 376.63,11.42 376.63,11.42 
	376.63,11.42 376.63,11.42 376.63,11.42 376.63,11.42 376.63,11.42 376.63,11.42 376.63,11.42 376.63,11.42 376.63,11.42 
	376.63,11.42 376.63,11.42 376.63,11.42 376.63,11.42 376.63,11.42 376.63,11.42 376.63,11.42 376.63,11.42 376.63,11.42 
	376.63,11.42 376.63,11.42 376.63,11.42 376.63,11.42 376.63,11.42 376.63,11.42 376.63,11.42 376.63,11.42 376.63,11.42 
	376.63,11.42 376.63,11.42 376.63,11.42 376.63,11.42 376.63,11.42 376.63,11.42 376.63,11.42 376.63,11.42 376.63,11.42 
	376.63,11.42 376.63,11.42 376.63,11.42 376.63,11.42 376.63,11.42 376.63,11.42 376.63,11.42 376.63,11.42 376.63,11.42 
	376.63,11.42 376.63,11.42 376.63,11.42 376.63,11.42 376.63,11.42 376.63,11.42 376.63,11.42 376.63,11.42 376.63,11.42 
	376.63,11.42 376.63,11.42 376.63,11.42 376.63,11.42 376.63,11.42 376.63,11.42 376.63,11.42 376.63,11.42 376.63,11.42 
	376.63,11.42 376.63,11.42 376.63,11.42 376.63,11.42 376.63,11.42 376.63,11.42 376.63,11.42 "/>
<g>
	<defs>
		<rect id="SVGID_00000147191214132888921670000003823614140741546368_" x="64.31" y="20.26" width="2.91" height="3.23"/>
	</defs>
	<clipPath id="SVGID_00000013185720041785548090000011854866677943371908_">
		<use xlink:href="#SVGID_00000147191214132888921670000003823614140741546368_"  style="overflow:visible;"/>
	</clipPath>
	<path style="opacity:0;clip-path:url(#SVGID_00000013185720041785548090000011854866677943371908_);fill:none;" d="M65.76,21.87
		L65.76,21.87z"/>
	<path style="clip-path:url(#SVGID_00000013185720041785548090000011854866677943371908_);" d="M65.82,21.94
		c0.04-0.04,0.04-0.06,0.04-0.07c0-0.02-0.02-0.05-0.03-0.06l-0.92-1.33h1.04c0.76,0,0.99,0.16,1.08,0.87h0.11l-0.13-1.01h-2.5
		c-0.11,0-0.12,0-0.12,0.1l1.12,1.63l-1.07,1.22c-0.04,0.05-0.04,0.06-0.04,0.07c0,0.05,0.04,0.05,0.11,0.05h2.5l0.13-1.06h-0.11
		c-0.08,0.75-0.39,0.87-1.09,0.87h-1.24L65.82,21.94"/>
</g>
<polygon class="st2" points="65.68,36.46 65.68,36.46 65.68,36.46 65.68,36.46 65.68,36.46 65.68,36.46 65.68,36.46 65.68,36.46 
	65.68,36.46 65.68,36.46 65.68,36.46 65.68,36.46 65.68,36.46 65.68,36.46 65.68,36.46 65.68,36.46 65.68,36.46 65.68,36.46 
	65.68,36.46 65.68,36.46 65.68,36.46 65.68,36.46 65.68,36.46 65.68,36.46 65.68,36.46 65.68,36.46 65.68,36.46 65.68,36.46 
	65.68,36.46 65.68,36.46 65.68,36.46 65.68,36.46 65.68,36.46 65.68,36.46 65.68,36.46 65.68,36.46 65.68,36.46 65.68,36.46 
	65.68,36.46 65.68,36.46 65.68,36.46 65.68,36.46 65.68,36.46 65.68,36.46 65.68,36.46 65.68,36.46 65.68,36.46 65.68,36.46 
	65.68,36.46 65.68,36.46 65.68,36.46 65.68,36.46 65.68,36.46 65.68,36.46 65.68,36.46 65.68,36.46 65.68,36.46 65.68,36.46 
	65.68,36.46 65.68,36.46 65.68,36.46 65.68,36.46 65.68,36.46 65.68,36.46 65.68,36.46 65.68,36.46 65.68,36.46 65.68,36.46 
	65.68,36.46 65.68,36.46 65.68,36.46 65.68,36.46 65.68,36.46 65.68,36.46 65.68,36.46 65.68,36.46 65.68,36.46 65.68,36.46 
	65.68,36.46 65.68,36.46 65.68,36.46 65.68,36.46 65.68,36.46 65.68,36.46 65.68,36.46 "/>
<g>
	<defs>
		<rect id="SVGID_00000054263518220681244200000009363597747766495913_" x="64.21" y="34.51" width="3.39" height="3.23"/>
	</defs>
	<clipPath id="SVGID_00000120529044768162437930000012090053377683857824_">
		<use xlink:href="#SVGID_00000054263518220681244200000009363597747766495913_"  style="overflow:visible;"/>
	</clipPath>
	<path style="opacity:0;clip-path:url(#SVGID_00000120529044768162437930000012090053377683857824_);fill:none;" d="M65.91,36.13
		L65.91,36.13z"/>
	<path style="clip-path:url(#SVGID_00000120529044768162437930000012090053377683857824_);" d="M66.87,35.07
		c0.22-0.35,0.41-0.36,0.58-0.37c0.05,0,0.06-0.08,0.06-0.09c0-0.04-0.02-0.05-0.06-0.05c-0.12,0-0.25,0.01-0.37,0.01
		c-0.15,0-0.3-0.01-0.45-0.01c-0.03,0-0.09,0-0.09,0.09c0,0.05,0.04,0.05,0.07,0.05c0.12,0.01,0.21,0.05,0.21,0.15
		c0,0.07-0.07,0.17-0.07,0.17l-1.38,2.2l-0.31-2.38c0-0.08,0.1-0.14,0.31-0.14c0.06,0,0.11,0,0.11-0.09c0-0.04-0.04-0.05-0.06-0.05
		c-0.18,0-0.37,0.01-0.56,0.01c-0.08,0-0.17,0-0.25,0s-0.17-0.01-0.24-0.01c-0.03,0-0.09,0-0.09,0.09c0,0.05,0.04,0.05,0.11,0.05
		c0.25,0,0.26,0.04,0.27,0.15l0.36,2.78c0.01,0.09,0.03,0.1,0.09,0.1c0.07,0,0.09-0.02,0.13-0.08L66.87,35.07"/>
</g>
<line class="st0" x1="65.91" y1="18.07" x2="65.91" y2="12.96"/>
<line class="st0" x1="65.91" y1="30.77" x2="65.91" y2="25.66"/>
<line class="st0" x1="60.46" y1="7.53" x2="52.7" y2="7.53"/>
<line class="st0" x1="60.46" y1="36.46" x2="52.7" y2="36.46"/>
<polygon class="st11" points="591.41,-59.35 591.41,-59.35 591.41,-59.35 591.41,-59.35 591.41,-59.35 591.41,-59.35 591.41,-59.35 
	591.41,-59.35 591.41,-59.35 591.41,-59.35 591.41,-59.35 591.41,-59.35 591.41,-59.35 591.41,-59.35 591.41,-59.35 591.41,-59.35 
	591.41,-59.35 591.41,-59.35 591.41,-59.35 591.41,-59.35 591.41,-59.35 591.41,-59.35 591.41,-59.35 591.41,-59.35 591.41,-59.35 
	591.41,-59.35 591.41,-59.35 591.41,-59.35 591.41,-59.35 591.41,-59.35 591.41,-59.35 591.41,-59.35 591.41,-59.35 591.41,-59.35 
	591.41,-59.35 591.41,-59.35 591.41,-59.35 591.41,-59.35 591.41,-59.35 591.41,-59.35 591.41,-59.35 591.41,-59.35 591.41,-59.35 
	591.41,-59.35 591.41,-59.35 591.41,-59.35 591.41,-59.35 591.41,-59.35 591.41,-59.35 591.41,-59.35 591.41,-59.35 591.41,-59.35 
	591.41,-59.35 591.41,-59.35 591.41,-59.35 591.41,-59.35 591.41,-59.35 591.41,-59.35 591.41,-59.35 591.41,-59.35 591.41,-59.35 
	591.41,-59.35 591.41,-59.35 591.41,-59.35 591.41,-59.35 591.41,-59.35 591.41,-59.35 591.41,-59.35 591.41,-59.35 591.41,-59.35 
	591.41,-59.35 591.41,-59.35 591.41,-59.35 591.41,-59.35 591.41,-59.35 591.41,-59.35 591.41,-59.35 591.41,-59.35 591.41,-59.35 
	591.41,-59.35 591.41,-59.35 591.41,-59.35 591.41,-59.35 591.41,-59.35 591.41,-59.35 "/>
<g>
	<defs>
		<rect id="SVGID_00000089571667215931107360000011977514013567598238_" x="585.31" y="-70.74" width="13" height="21"/>
	</defs>
	<clipPath id="SVGID_00000165917118622536353120000006456548157487468216_">
		<use xlink:href="#SVGID_00000089571667215931107360000011977514013567598238_"  style="overflow:visible;"/>
	</clipPath>
	
		<path style="opacity:0;clip-path:url(#SVGID_00000165917118622536353120000006456548157487468216_);fill:none;stroke:#000000;stroke-width:1.000000e-06;stroke-miterlimit:10;" d="
		M591.81-60.24L591.81-60.24z"/>
</g>
<polygon class="st2" points="34.3,29.9 34.3,29.9 34.3,29.9 34.3,29.9 34.3,29.9 34.3,29.9 34.3,29.9 34.3,29.9 34.3,29.9 
	34.3,29.9 34.3,29.9 34.3,29.9 34.3,29.9 34.3,29.9 34.3,29.9 34.3,29.9 34.3,29.9 34.3,29.9 34.3,29.9 34.3,29.9 34.3,29.9 
	34.3,29.9 34.3,29.9 34.3,29.9 34.3,29.9 34.3,29.9 34.3,29.9 34.3,29.9 34.3,29.9 34.3,29.9 34.3,29.9 34.3,29.9 34.3,29.9 
	34.3,29.9 34.3,29.9 34.3,29.9 34.3,29.9 34.3,29.9 34.3,29.9 34.3,29.9 34.3,29.9 34.3,29.9 34.3,29.9 34.3,29.9 34.3,29.9 
	34.3,29.9 34.3,29.9 34.3,29.9 34.3,29.9 34.3,29.9 34.3,29.9 34.3,29.9 34.3,29.9 34.3,29.9 34.3,29.9 34.3,29.9 34.3,29.9 
	34.3,29.9 34.3,29.9 34.3,29.9 34.3,29.9 34.3,29.9 34.3,29.9 34.3,29.9 34.3,29.9 34.3,29.9 34.3,29.9 34.3,29.9 34.3,29.9 
	34.3,29.9 34.3,29.9 34.3,29.9 34.3,29.9 34.3,29.9 34.3,29.9 34.3,29.9 34.3,29.9 34.3,29.9 34.3,29.9 34.3,29.9 34.3,29.9 
	34.3,29.9 34.3,29.9 34.3,29.9 34.3,29.9 "/>
<g>
	<defs>
		<rect id="SVGID_00000062897150120470136130000018348493226162535307_" x="33.74" y="28.67" width="1.45" height="2.42"/>
	</defs>
	<clipPath id="SVGID_00000074401411570245203160000012465909559541907390_">
		<use xlink:href="#SVGID_00000062897150120470136130000018348493226162535307_"  style="overflow:visible;"/>
	</clipPath>
	<path style="opacity:0;clip-path:url(#SVGID_00000074401411570245203160000012465909559541907390_);fill:none;" d="M34.46,29.88
		L34.46,29.88z"/>
</g>
<g>
	<defs>
		<rect id="SVGID_00000002377477994687513050000001776488840092516246_" x="19.83" y="23.84" width="1.3" height="2.42"/>
	</defs>
	<clipPath id="SVGID_00000142898367825580855800000014584389201143407748_">
		<use xlink:href="#SVGID_00000002377477994687513050000001776488840092516246_"  style="overflow:visible;"/>
	</clipPath>
	<path style="clip-path:url(#SVGID_00000142898367825580855800000014584389201143407748_);" d="M20.55,23.99
		c0-0.09,0-0.09-0.08-0.09c-0.22,0.23-0.53,0.23-0.64,0.23v0.11c0.07,0,0.28,0,0.46-0.09v1.83c0,0.13-0.01,0.17-0.33,0.17h-0.11
		v0.11c0.12-0.01,0.43-0.01,0.57-0.01c0.14,0,0.45,0,0.57,0.01v-0.11h-0.11c-0.32,0-0.33-0.04-0.33-0.17V23.99"/>
</g>
<polygon class="st11" points="407.63,-73.18 407.63,-73.18 407.63,-73.18 407.63,-73.18 407.63,-73.18 407.63,-73.18 407.63,-73.18 
	407.63,-73.18 407.63,-73.18 407.63,-73.18 407.63,-73.18 407.63,-73.18 407.63,-73.18 407.63,-73.18 407.63,-73.18 407.63,-73.18 
	407.63,-73.18 407.63,-73.18 407.63,-73.18 407.63,-73.18 407.63,-73.18 407.63,-73.18 407.63,-73.18 407.63,-73.18 407.63,-73.18 
	407.63,-73.18 407.63,-73.18 407.63,-73.18 407.63,-73.18 407.63,-73.18 407.63,-73.18 407.63,-73.18 407.63,-73.18 407.63,-73.18 
	407.63,-73.18 407.63,-73.18 407.63,-73.18 407.63,-73.18 407.63,-73.18 407.63,-73.18 407.63,-73.18 407.63,-73.18 407.63,-73.18 
	407.63,-73.18 407.63,-73.18 407.63,-73.18 407.63,-73.18 407.63,-73.18 407.63,-73.18 407.63,-73.18 407.63,-73.18 407.63,-73.18 
	407.63,-73.18 407.63,-73.18 407.63,-73.18 407.63,-73.18 407.63,-73.18 407.63,-73.18 407.63,-73.18 407.63,-73.18 407.63,-73.18 
	407.63,-73.18 407.63,-73.18 407.63,-73.18 407.63,-73.18 407.63,-73.18 407.63,-73.18 407.63,-73.18 407.63,-73.18 407.63,-73.18 
	407.63,-73.18 407.63,-73.18 407.63,-73.18 407.63,-73.18 407.63,-73.18 407.63,-73.18 407.63,-73.18 407.63,-73.18 407.63,-73.18 
	407.63,-73.18 407.63,-73.18 407.63,-73.18 407.63,-73.18 407.63,-73.18 407.63,-73.18 "/>
<g>
	<defs>
		<rect id="SVGID_00000028300200958132193750000015970051403102545594_" x="402.72" y="-81.79" width="10" height="16"/>
	</defs>
	<clipPath id="SVGID_00000161617554537929652790000010614382034818955666_">
		<use xlink:href="#SVGID_00000028300200958132193750000015970051403102545594_"  style="overflow:visible;"/>
	</clipPath>
	
		<path style="opacity:0;clip-path:url(#SVGID_00000161617554537929652790000010614382034818955666_);fill:none;stroke:#000000;stroke-width:1.000000e-06;stroke-miterlimit:10;" d="
		M407.72-73.79L407.72-73.79z"/>
</g>
<g>
	<defs>
		<rect id="SVGID_00000116215714783789774600000016411008470286214309_" x="19.67" y="16.01" width="1.62" height="2.52"/>
	</defs>
	<clipPath id="SVGID_00000167377995328289752020000003634844595130011014_">
		<use xlink:href="#SVGID_00000116215714783789774600000016411008470286214309_"  style="overflow:visible;"/>
	</clipPath>
	<path style="clip-path:url(#SVGID_00000167377995328289752020000003634844595130011014_);" d="M20.42,18.42
		c-0.14,0-0.35-0.09-0.41-0.43c-0.04-0.21-0.04-0.54-0.04-0.75c0-0.23,0-0.46,0.03-0.65c0.07-0.42,0.33-0.45,0.42-0.45
		c0.12,0,0.35,0.06,0.42,0.41c0.04,0.2,0.04,0.47,0.04,0.69c0,0.27,0,0.51-0.04,0.73C20.78,18.31,20.58,18.42,20.42,18.42
		 M21.17,17.28c0-0.28-0.02-0.57-0.14-0.83c-0.16-0.34-0.45-0.4-0.6-0.4c-0.21,0-0.47,0.09-0.62,0.42c-0.11,0.24-0.13,0.52-0.13,0.8
		c0,0.27,0.01,0.58,0.16,0.85c0.15,0.29,0.41,0.36,0.58,0.36c0.19,0,0.46-0.07,0.62-0.41C21.15,17.84,21.17,17.56,21.17,17.28z"/>
</g>
<polygon class="st2" points="43.35,31.72 43.35,31.72 43.35,31.72 43.35,31.72 43.35,31.72 43.35,31.72 43.35,31.72 43.35,31.72 
	43.35,31.72 43.35,31.72 43.35,31.72 43.35,31.72 43.35,31.72 43.35,31.72 43.35,31.72 43.35,31.72 43.35,31.72 43.35,31.72 
	43.35,31.72 43.35,31.72 43.35,31.72 43.35,31.72 43.35,31.72 43.35,31.72 43.35,31.72 43.35,31.72 43.35,31.72 43.35,31.72 
	43.35,31.72 43.35,31.72 43.35,31.72 43.35,31.72 43.35,31.72 43.35,31.72 43.35,31.72 43.35,31.72 43.35,31.72 43.35,31.72 
	43.35,31.72 43.35,31.72 43.35,31.72 43.35,31.72 43.35,31.72 43.35,31.72 43.35,31.72 43.35,31.72 43.35,31.72 43.35,31.72 
	43.35,31.72 43.35,31.72 43.35,31.72 43.35,31.72 43.35,31.72 43.35,31.72 43.35,31.72 43.35,31.72 43.35,31.72 43.35,31.72 
	43.35,31.72 43.35,31.72 43.35,31.72 43.35,31.72 43.35,31.72 43.35,31.72 43.35,31.72 43.35,31.72 43.35,31.72 43.35,31.72 
	43.35,31.72 43.35,31.72 43.35,31.72 43.35,31.72 43.35,31.72 43.35,31.72 43.35,31.72 43.35,31.72 43.35,31.72 43.35,31.72 
	43.35,31.72 43.35,31.72 43.35,31.72 43.35,31.72 43.35,31.72 43.35,31.72 43.35,31.72 "/>
<g>
	<defs>
		<rect id="SVGID_00000008109836380284470560000005611654369737954439_" x="37.99" y="16.06" width="1.62" height="2.42"/>
	</defs>
	<clipPath id="SVGID_00000173129576684025416360000006203153446754222013_">
		<use xlink:href="#SVGID_00000008109836380284470560000005611654369737954439_"  style="overflow:visible;"/>
	</clipPath>
	<path style="opacity:0;clip-path:url(#SVGID_00000173129576684025416360000006203153446754222013_);fill:none;" d="M38.8,17.27
		L38.8,17.27z"/>
	<path style="clip-path:url(#SVGID_00000173129576684025416360000006203153446754222013_);" d="M38.31,18.19l0.38-0.36
		c0.55-0.49,0.76-0.68,0.76-1.03c0-0.4-0.32-0.69-0.75-0.69c-0.4,0-0.66,0.33-0.66,0.64c0,0.2,0.18,0.2,0.19,0.2
		c0.06,0,0.18-0.04,0.18-0.19c0-0.09-0.06-0.18-0.19-0.18c-0.03,0-0.04,0-0.05,0c0.08-0.23,0.27-0.36,0.48-0.36
		c0.32,0,0.47,0.29,0.47,0.58c0,0.28-0.18,0.56-0.37,0.78l-0.68,0.76c-0.04,0.04-0.04,0.05-0.04,0.13h1.31l0.1-0.62h-0.09
		c-0.02,0.11-0.04,0.26-0.08,0.32c-0.02,0.03-0.26,0.03-0.34,0.03H38.31"/>
</g>
<polygon class="st2" points="41.74,38.92 41.74,38.92 41.74,38.92 41.74,38.92 41.74,38.92 41.74,38.92 41.74,38.92 41.74,38.92 
	41.74,38.92 41.74,38.92 41.74,38.92 41.74,38.92 41.74,38.92 41.74,38.92 41.74,38.92 41.74,38.92 41.74,38.92 41.74,38.92 
	41.74,38.92 41.74,38.92 41.74,38.92 41.74,38.92 41.74,38.92 41.74,38.92 41.74,38.92 41.74,38.92 41.74,38.92 41.74,38.92 
	41.74,38.92 41.74,38.92 41.74,38.92 41.74,38.92 41.74,38.92 41.74,38.92 41.74,38.92 41.74,38.92 41.74,38.92 41.74,38.92 
	41.74,38.92 41.74,38.92 41.74,38.92 41.74,38.92 41.74,38.92 41.74,38.92 41.74,38.92 41.74,38.92 41.74,38.92 41.74,38.92 
	41.74,38.92 41.74,38.92 41.74,38.92 41.74,38.92 41.74,38.92 41.74,38.92 41.74,38.92 41.74,38.92 41.74,38.92 41.74,38.92 
	41.74,38.92 41.74,38.92 41.74,38.92 41.74,38.92 41.74,38.92 41.74,38.92 41.74,38.92 41.74,38.92 41.74,38.92 41.74,38.92 
	41.74,38.92 41.74,38.92 41.74,38.92 41.74,38.92 41.74,38.92 41.74,38.92 41.74,38.92 41.74,38.92 41.74,38.92 41.74,38.92 
	41.74,38.92 41.74,38.92 41.74,38.92 41.74,38.92 41.74,38.92 41.74,38.92 41.74,38.92 "/>
<g>
	<defs>
		<rect id="SVGID_00000142858032073997733530000012265663358511198113_" x="40.96" y="37.53" width="1.62" height="2.59"/>
	</defs>
	<clipPath id="SVGID_00000122685616458949768430000018251506590513956019_">
		<use xlink:href="#SVGID_00000142858032073997733530000012265663358511198113_"  style="overflow:visible;"/>
	</clipPath>
	<path style="opacity:0;clip-path:url(#SVGID_00000122685616458949768430000018251506590513956019_);fill:none;" d="M41.77,38.82
		L41.77,38.82z"/>
</g>
<g>
	<defs>
		<rect id="SVGID_00000176749240260436978950000014526009547976107908_" x="37.99" y="23.8" width="1.62" height="2.52"/>
	</defs>
	<clipPath id="SVGID_00000057833984847985596450000016733930838301748115_">
		<use xlink:href="#SVGID_00000176749240260436978950000014526009547976107908_"  style="overflow:visible;"/>
	</clipPath>
	<path style="clip-path:url(#SVGID_00000057833984847985596450000016733930838301748115_);" d="M38.88,24.96
		c0.29-0.1,0.5-0.34,0.5-0.62c0-0.29-0.31-0.49-0.65-0.49c-0.36,0-0.63,0.21-0.63,0.48c0,0.12,0.08,0.18,0.18,0.18
		c0.11,0,0.18-0.08,0.18-0.18c0-0.18-0.17-0.18-0.22-0.18c0.11-0.17,0.34-0.22,0.47-0.22c0.15,0,0.34,0.08,0.34,0.4
		c0,0.04-0.01,0.25-0.1,0.4c-0.11,0.17-0.23,0.18-0.31,0.18c-0.03,0-0.11,0.01-0.14,0.01c-0.03,0-0.05,0.01-0.05,0.04
		c0,0.04,0.03,0.04,0.09,0.04h0.16c0.29,0,0.42,0.24,0.42,0.59c0,0.48-0.24,0.58-0.4,0.58c-0.15,0-0.42-0.06-0.54-0.27
		c0.12,0.02,0.23-0.06,0.23-0.19c0-0.13-0.1-0.2-0.2-0.2c-0.08,0-0.2,0.05-0.2,0.21c0,0.32,0.33,0.56,0.71,0.56
		c0.43,0,0.75-0.32,0.75-0.68C39.48,25.31,39.25,25.03,38.88,24.96"/>
</g>
<g>
	<defs>
		<rect id="SVGID_00000103237888361778615170000017420508650833228940_" x="55.7" y="3.98" width="1.62" height="2.52"/>
	</defs>
	<clipPath id="SVGID_00000145770310026608867870000001811630822725868692_">
		<use xlink:href="#SVGID_00000103237888361778615170000017420508650833228940_"  style="overflow:visible;"/>
	</clipPath>
	<path style="clip-path:url(#SVGID_00000145770310026608867870000001811630822725868692_);" d="M56.45,6.39
		c-0.14,0-0.35-0.09-0.41-0.43C56,5.75,56,5.42,56,5.21c0-0.23,0-0.46,0.03-0.65c0.07-0.42,0.33-0.45,0.42-0.45
		c0.12,0,0.35,0.06,0.42,0.41c0.04,0.2,0.04,0.47,0.04,0.69c0,0.27,0,0.51-0.04,0.73C56.81,6.28,56.61,6.39,56.45,6.39 M57.2,5.25
		c0-0.28-0.02-0.57-0.14-0.83c-0.16-0.34-0.45-0.4-0.6-0.4c-0.21,0-0.47,0.09-0.62,0.42c-0.11,0.24-0.13,0.52-0.13,0.8
		c0,0.27,0.01,0.58,0.16,0.85c0.15,0.29,0.41,0.36,0.58,0.36c0.19,0,0.46-0.07,0.62-0.41C57.18,5.81,57.2,5.53,57.2,5.25z"/>
</g>
<g>
	<defs>
		<rect id="SVGID_00000109019725599571979200000000428171106678812597_" x="74.51" y="4.03" width="1.62" height="2.42"/>
	</defs>
	<clipPath id="SVGID_00000061440693954083008680000017611621130858097545_">
		<use xlink:href="#SVGID_00000109019725599571979200000000428171106678812597_"  style="overflow:visible;"/>
	</clipPath>
	<path style="opacity:0;clip-path:url(#SVGID_00000061440693954083008680000017611621130858097545_);fill:none;" d="M75.31,5.24
		L75.31,5.24z"/>
	<path style="clip-path:url(#SVGID_00000061440693954083008680000017611621130858097545_);" d="M74.83,6.16L75.2,5.8
		c0.55-0.49,0.76-0.68,0.76-1.03c0-0.4-0.32-0.69-0.75-0.69c-0.4,0-0.66,0.33-0.66,0.64c0,0.2,0.18,0.2,0.19,0.2
		c0.06,0,0.18-0.04,0.18-0.19c0-0.09-0.06-0.18-0.19-0.18c-0.03,0-0.04,0-0.05,0c0.08-0.23,0.27-0.36,0.48-0.36
		c0.32,0,0.47,0.29,0.47,0.58c0,0.28-0.18,0.56-0.37,0.78L74.59,6.3c-0.04,0.04-0.04,0.05-0.04,0.13h1.31l0.1-0.62h-0.09
		c-0.02,0.11-0.04,0.26-0.08,0.32c-0.02,0.03-0.26,0.03-0.34,0.03H74.83"/>
</g>
<g>
	<defs>
		<rect id="SVGID_00000107576436620962437550000006371491217892411279_" x="56.1" y="37.18" width="1.3" height="2.42"/>
	</defs>
	<clipPath id="SVGID_00000150094718167509769020000006373666170923088569_">
		<use xlink:href="#SVGID_00000107576436620962437550000006371491217892411279_"  style="overflow:visible;"/>
	</clipPath>
	<path style="clip-path:url(#SVGID_00000150094718167509769020000006373666170923088569_);" d="M56.83,37.32
		c0-0.09,0-0.09-0.08-0.09c-0.22,0.23-0.53,0.23-0.64,0.23v0.11c0.07,0,0.28,0,0.46-0.09v1.83c0,0.13-0.01,0.17-0.33,0.17h-0.11
		v0.11c0.12-0.01,0.43-0.01,0.57-0.01c0.14,0,0.45,0,0.57,0.01v-0.11h-0.11c-0.32,0-0.33-0.04-0.33-0.17V37.32"/>
</g>
<g>
	<defs>
		<rect id="SVGID_00000033361687862928922090000009117021881963935421_" x="74.26" y="36.97" width="1.62" height="2.52"/>
	</defs>
	<clipPath id="SVGID_00000057852704874583143400000007246378175395080336_">
		<use xlink:href="#SVGID_00000033361687862928922090000009117021881963935421_"  style="overflow:visible;"/>
	</clipPath>
	<path style="clip-path:url(#SVGID_00000057852704874583143400000007246378175395080336_);" d="M75.16,38.13
		c0.29-0.1,0.5-0.34,0.5-0.62c0-0.29-0.31-0.49-0.65-0.49c-0.36,0-0.63,0.21-0.63,0.48c0,0.12,0.08,0.18,0.18,0.18
		c0.11,0,0.18-0.08,0.18-0.18c0-0.18-0.17-0.18-0.22-0.18c0.11-0.17,0.34-0.22,0.47-0.22c0.15,0,0.34,0.08,0.34,0.4
		c0,0.04-0.01,0.25-0.1,0.4c-0.11,0.17-0.23,0.18-0.31,0.18c-0.03,0-0.11,0.01-0.14,0.01c-0.03,0-0.05,0.01-0.05,0.04
		c0,0.04,0.03,0.04,0.09,0.04h0.16c0.29,0,0.42,0.24,0.42,0.59c0,0.48-0.24,0.58-0.4,0.58c-0.15,0-0.42-0.06-0.54-0.27
		c0.12,0.02,0.23-0.06,0.23-0.19c0-0.13-0.1-0.2-0.2-0.2c-0.08,0-0.2,0.05-0.2,0.21c0,0.32,0.33,0.56,0.71,0.56
		c0.43,0,0.75-0.32,0.75-0.68C75.75,38.48,75.53,38.2,75.16,38.13"/>
</g>
</svg>
