<?xml version="1.0" encoding="utf-8"?>
<!-- Generator: Adobe Illustrator 27.9.6, SVG Export Plug-In . SVG Version: 9.03 Build 54986)  -->
<svg version="1.1" id="Layer_1" xmlns="http://www.w3.org/2000/svg" xmlns:xlink="http://www.w3.org/1999/xlink" x="0px" y="0px"
	 viewBox="0 0 176.19 90.35" style="enable-background:new 0 0 176.19 90.35;" xml:space="preserve">
<style type="text/css">
	.st0{fill:none;stroke:#BCBEC0;stroke-miterlimit:10;}
	.st1{fill:#BCBEC0;}
	.st2{opacity:0;fill:none;}
	.st3{opacity:0;clip-path:url(#SVGID_00000108285321183528056780000018199007178787580351_);fill:none;}
	.st4{clip-path:url(#SVGID_00000108285321183528056780000018199007178787580351_);}
	.st5{opacity:0;clip-path:url(#SVGID_00000046335146159701106820000010418260428714848944_);fill:none;}
	.st6{clip-path:url(#SVGID_00000046335146159701106820000010418260428714848944_);}
	.st7{opacity:0;clip-path:url(#SVGID_00000166653925221394912850000014514261777698439812_);fill:none;}
	.st8{clip-path:url(#SVGID_00000166653925221394912850000014514261777698439812_);}
	.st9{opacity:0;fill:none;stroke:#000000;stroke-width:1.000000e-06;stroke-miterlimit:10;}
	.st10{opacity:0;clip-path:url(#SVGID_00000067927226519977437470000013690982276652030123_);fill:none;}
	.st11{clip-path:url(#SVGID_00000067927226519977437470000013690982276652030123_);}
	.st12{opacity:0;clip-path:url(#SVGID_00000098910815283360578990000000777350275743977123_);fill:none;}
	.st13{clip-path:url(#SVGID_00000098910815283360578990000000777350275743977123_);}
	
		.st14{opacity:0;clip-path:url(#SVGID_00000137118367751834300100000011658721396360503708_);fill:none;stroke:#000000;stroke-width:1.000000e-06;stroke-miterlimit:10;}
	.st15{opacity:0;clip-path:url(#SVGID_00000078744392493439636610000000428853406801933992_);fill:none;}
	
		.st16{opacity:0;clip-path:url(#SVGID_00000026868739552509249560000016756581469909301892_);fill:none;stroke:#000000;stroke-width:1.000000e-06;stroke-miterlimit:10;}
	.st17{opacity:0;clip-path:url(#SVGID_00000163779786203113122240000003665344144719381902_);fill:none;}
	
		.st18{opacity:0;clip-path:url(#SVGID_00000119798357058684373470000006835167890480964006_);fill:none;stroke:#000000;stroke-width:1.000000e-06;stroke-miterlimit:10;}
	
		.st19{opacity:0;clip-path:url(#SVGID_00000011023174437652537900000012844086880805586069_);fill:none;stroke:#000000;stroke-width:1.000000e-06;stroke-miterlimit:10;}
	
		.st20{opacity:0;clip-path:url(#SVGID_00000015354432490165483210000016625367860762993282_);fill:none;stroke:#000000;stroke-width:1.000000e-06;stroke-miterlimit:10;}
	.st21{clip-path:url(#SVGID_00000039093498009524886900000014521862737719723950_);fill:#E4E4E3;}
	
		.st22{opacity:0;clip-path:url(#SVGID_00000021817923368076485880000017042473097211512761_);fill:none;stroke:#000000;stroke-width:1.000000e-06;stroke-miterlimit:10;}
	.st23{clip-path:url(#SVGID_00000021817923368076485880000017042473097211512761_);fill:#E4E4E3;}
	
		.st24{opacity:0;clip-path:url(#SVGID_00000078752401357329032780000003205429018882624388_);fill:none;stroke:#000000;stroke-width:1.000000e-06;stroke-miterlimit:10;}
	.st25{clip-path:url(#SVGID_00000078752401357329032780000003205429018882624388_);fill:#E4E4E3;}
	.st26{clip-path:url(#SVGID_00000121263528881166225620000013412077470809374853_);fill:#E4E4E3;}
	
		.st27{opacity:0;clip-path:url(#SVGID_00000009553063874363319190000005742941433723331979_);fill:none;stroke:#000000;stroke-width:1.000000e-06;stroke-miterlimit:10;}
	.st28{clip-path:url(#SVGID_00000009553063874363319190000005742941433723331979_);fill:#E4E4E3;}
	
		.st29{opacity:0;clip-path:url(#SVGID_00000115499255974596146960000002640888682838906790_);fill:none;stroke:#000000;stroke-width:1.000000e-06;stroke-miterlimit:10;}
	.st30{clip-path:url(#SVGID_00000115499255974596146960000002640888682838906790_);fill:#E4E4E3;}
	.st31{clip-path:url(#SVGID_00000160190258323028173180000010024656647969664923_);fill:#E4E4E3;}
	.st32{clip-path:url(#SVGID_00000096018421235406994520000002660641564462409648_);fill:#E4E4E3;}
	
		.st33{opacity:0;clip-path:url(#SVGID_00000093152947378521000010000008549184333513098896_);fill:none;stroke:#000000;stroke-width:1.000000e-06;stroke-miterlimit:10;}
	.st34{clip-path:url(#SVGID_00000093152947378521000010000008549184333513098896_);fill:#E4E4E3;}
</style>
<line class="st0" x1="49.5" y1="39.62" x2="32.56" y2="39.62"/>
<g>
	<circle class="st1" cx="59.69" cy="43.93" r="11.19"/>
</g>
<g>
	<path class="st1" d="M32.56,56.4c0,2.2-1.8,4-4,4h-3.95c-2.2,0-4-1.8-4-4V34.17c0-2.2,1.8-4,4-4h3.95c2.2,0,4,1.8,4,4V56.4z"/>
</g>
<line class="st0" x1="49.5" y1="48.21" x2="32.56" y2="48.21"/>
<line class="st0" x1="85.81" y1="39.63" x2="69.87" y2="39.63"/>
<line class="st0" x1="85.81" y1="48.23" x2="69.87" y2="48.23"/>
<polygon class="st2" points="56.91,42.11 56.91,42.11 56.91,42.11 56.91,42.11 56.91,42.11 56.91,42.11 56.91,42.11 56.91,42.11 
	56.91,42.11 56.91,42.11 56.91,42.11 56.91,42.11 56.91,42.11 56.91,42.11 56.91,42.11 56.91,42.11 56.91,42.11 56.91,42.11 
	56.91,42.11 56.91,42.11 56.91,42.11 56.91,42.11 56.91,42.11 56.91,42.11 56.91,42.11 56.91,42.11 56.91,42.11 56.91,42.11 
	56.91,42.11 56.91,42.11 56.91,42.11 56.91,42.11 56.91,42.11 56.91,42.11 56.91,42.11 56.91,42.11 56.91,42.11 56.91,42.11 
	56.91,42.11 56.91,42.11 56.91,42.11 56.91,42.11 56.91,42.11 56.91,42.11 56.91,42.11 56.91,42.11 56.91,42.11 56.91,42.11 
	56.91,42.11 56.91,42.11 56.91,42.11 56.91,42.11 56.91,42.11 56.91,42.11 56.91,42.11 56.91,42.11 56.91,42.11 56.91,42.11 
	56.91,42.11 56.91,42.11 56.91,42.11 56.91,42.11 56.91,42.11 56.91,42.11 56.91,42.11 56.91,42.11 56.91,42.11 56.91,42.11 
	56.91,42.11 56.91,42.11 56.91,42.11 56.91,42.11 56.91,42.11 56.91,42.11 56.91,42.11 56.91,42.11 56.91,42.11 56.91,42.11 
	56.91,42.11 56.91,42.11 56.91,42.11 56.91,42.11 56.91,42.11 56.91,42.11 56.91,42.11 "/>
<polygon class="st2" points="157.79,49.98 157.79,49.98 157.79,49.98 157.79,49.98 157.79,49.98 157.79,49.98 157.79,49.98 
	157.79,49.98 157.79,49.98 157.79,49.98 157.79,49.98 157.79,49.98 157.79,49.98 157.79,49.98 157.79,49.98 157.79,49.98 
	157.79,49.98 157.79,49.98 157.79,49.98 157.79,49.98 157.79,49.98 157.79,49.98 157.79,49.98 157.79,49.98 157.79,49.98 
	157.79,49.98 157.79,49.98 157.79,49.98 157.79,49.98 157.79,49.98 157.79,49.98 157.79,49.98 157.79,49.98 157.79,49.98 
	157.79,49.98 157.79,49.98 157.79,49.98 157.79,49.98 157.79,49.98 157.79,49.98 157.79,49.98 157.79,49.98 157.79,49.98 
	157.79,49.98 157.79,49.98 157.79,49.98 157.79,49.98 157.79,49.98 157.79,49.98 157.79,49.98 157.79,49.98 157.79,49.98 
	157.79,49.98 157.79,49.98 157.79,49.98 157.79,49.98 157.79,49.98 157.79,49.98 157.79,49.98 157.79,49.98 157.79,49.98 
	157.79,49.98 157.79,49.98 157.79,49.98 157.79,49.98 157.79,49.98 157.79,49.98 157.79,49.98 157.79,49.98 157.79,49.98 
	157.79,49.98 157.79,49.98 157.79,49.98 157.79,49.98 157.79,49.98 157.79,49.98 157.79,49.98 157.79,49.98 157.79,49.98 
	157.79,49.98 157.79,49.98 157.79,49.98 157.79,49.98 157.79,49.98 157.79,49.98 "/>
<polygon class="st2" points="59.38,43.75 59.38,43.75 59.38,43.75 59.38,43.75 59.38,43.75 59.38,43.75 59.38,43.75 59.38,43.75 
	59.38,43.75 59.38,43.75 59.38,43.75 59.38,43.75 59.38,43.75 59.38,43.75 59.38,43.75 59.38,43.75 59.38,43.75 59.38,43.75 
	59.38,43.75 59.38,43.75 59.38,43.75 59.38,43.75 59.38,43.75 59.38,43.75 59.38,43.75 59.38,43.75 59.38,43.75 59.38,43.75 
	59.38,43.75 59.38,43.75 59.38,43.75 59.38,43.75 59.38,43.75 59.38,43.75 59.38,43.75 59.38,43.75 59.38,43.75 59.38,43.75 
	59.38,43.75 59.38,43.75 59.38,43.75 59.38,43.75 59.38,43.75 59.38,43.75 59.38,43.75 59.38,43.75 59.38,43.75 59.38,43.75 
	59.38,43.75 59.38,43.75 59.38,43.75 59.38,43.75 59.38,43.75 59.38,43.75 59.38,43.75 59.38,43.75 59.38,43.75 59.38,43.75 
	59.38,43.75 59.38,43.75 59.38,43.75 59.38,43.75 59.38,43.75 59.38,43.75 59.38,43.75 59.38,43.75 59.38,43.75 59.38,43.75 
	59.38,43.75 59.38,43.75 59.38,43.75 59.38,43.75 59.38,43.75 59.38,43.75 59.38,43.75 59.38,43.75 59.38,43.75 59.38,43.75 
	59.38,43.75 59.38,43.75 59.38,43.75 59.38,43.75 59.38,43.75 59.38,43.75 59.38,43.75 "/>
<g>
	<defs>
		<rect id="SVGID_1_" x="55.4" y="40.27" width="7.97" height="6.64"/>
	</defs>
	<clipPath id="SVGID_00000155108383657097210150000004847600770517995928_">
		<use xlink:href="#SVGID_1_"  style="overflow:visible;"/>
	</clipPath>
	<path style="opacity:0;clip-path:url(#SVGID_00000155108383657097210150000004847600770517995928_);fill:none;" d="M59.38,43.59
		L59.38,43.59z"/>
	<path style="clip-path:url(#SVGID_00000155108383657097210150000004847600770517995928_);" d="M59.96,42.94l-0.78-1.84
		c-0.03-0.07-0.05-0.11-0.05-0.12c0-0.06,0.16-0.23,0.55-0.27c0.09-0.01,0.18-0.02,0.18-0.18c0-0.11-0.11-0.11-0.14-0.11
		c-0.38,0-0.78,0.03-1.17,0.03c-0.23,0-0.81-0.03-1.04-0.03c-0.06,0-0.17,0-0.17,0.19c0,0.1,0.09,0.1,0.21,0.1
		c0.56,0,0.61,0.09,0.69,0.3l1.09,2.58l-1.95,2.1l-0.12,0.1c-0.45,0.49-0.89,0.64-1.36,0.67c-0.12,0.01-0.2,0.01-0.2,0.19
		c0,0.01,0,0.1,0.12,0.1c0.28,0,0.58-0.03,0.87-0.03c0.34,0,0.7,0.03,1.04,0.03c0.06,0,0.17,0,0.17-0.19c0-0.09-0.09-0.1-0.11-0.1
		c-0.08-0.01-0.37-0.03-0.37-0.29c0-0.15,0.14-0.3,0.25-0.42l0.94-1l0.83-0.91l0.94,2.21c0.04,0.1,0.05,0.11,0.05,0.13
		c0,0.07-0.18,0.23-0.54,0.27c-0.1,0.01-0.19,0.02-0.19,0.18c0,0.11,0.1,0.11,0.14,0.11c0.26,0,0.91-0.03,1.17-0.03
		c0.23,0,0.8,0.03,1.03,0.03c0.06,0,0.18,0,0.18-0.18c0-0.11-0.09-0.11-0.17-0.11c-0.62-0.01-0.64-0.04-0.8-0.41
		c-0.36-0.86-0.98-2.31-1.19-2.86c0.63-0.65,1.6-1.75,1.9-2.01c0.27-0.22,0.62-0.44,1.18-0.47c0.12-0.01,0.2-0.01,0.2-0.18
		c0-0.01,0-0.1-0.12-0.1c-0.28,0-0.58,0.03-0.87,0.03c-0.34,0-0.69-0.03-1.03-0.03c-0.06,0-0.18,0-0.18,0.19
		c0,0.06,0.05,0.09,0.11,0.1c0.08,0.01,0.37,0.03,0.37,0.29c0,0.13-0.1,0.25-0.18,0.33L59.96,42.94"/>
</g>
<line class="st0" x1="20.61" y1="39.63" x2="4.67" y2="39.63"/>
<line class="st0" x1="20.61" y1="48.23" x2="4.67" y2="48.23"/>
<polygon class="st2" points="27.72,46.77 27.72,46.77 27.72,46.77 27.72,46.77 27.72,46.77 27.72,46.77 27.72,46.77 27.72,46.77 
	27.72,46.77 27.72,46.77 27.72,46.77 27.72,46.77 27.72,46.77 27.72,46.77 27.72,46.77 27.72,46.77 27.72,46.77 27.72,46.77 
	27.72,46.77 27.72,46.77 27.72,46.77 27.72,46.77 27.72,46.77 27.72,46.77 27.72,46.77 27.72,46.77 27.72,46.77 27.72,46.77 
	27.72,46.77 27.72,46.77 27.72,46.77 27.72,46.77 27.72,46.77 27.72,46.77 27.72,46.77 27.72,46.77 27.72,46.77 27.72,46.77 
	27.72,46.77 27.72,46.77 27.72,46.77 27.72,46.77 27.72,46.77 27.72,46.77 27.72,46.77 27.72,46.77 27.72,46.77 27.72,46.77 
	27.72,46.77 27.72,46.77 27.72,46.77 27.72,46.77 27.72,46.77 27.72,46.77 27.72,46.77 27.72,46.77 27.72,46.77 27.72,46.77 
	27.72,46.77 27.72,46.77 27.72,46.77 27.72,46.77 27.72,46.77 27.72,46.77 27.72,46.77 27.72,46.77 27.72,46.77 27.72,46.77 
	27.72,46.77 27.72,46.77 27.72,46.77 27.72,46.77 27.72,46.77 27.72,46.77 27.72,46.77 27.72,46.77 27.72,46.77 27.72,46.77 
	27.72,46.77 27.72,46.77 27.72,46.77 27.72,46.77 27.72,46.77 27.72,46.77 27.72,46.77 "/>
<g>
	<defs>
		<rect id="SVGID_00000005961789576331821850000001879681484539836595_" x="23.23" y="40.63" width="6.64" height="8.63"/>
	</defs>
	<clipPath id="SVGID_00000037656446352538384890000012777116231845360570_">
		<use xlink:href="#SVGID_00000005961789576331821850000001879681484539836595_"  style="overflow:visible;"/>
	</clipPath>
	<path style="opacity:0;clip-path:url(#SVGID_00000037656446352538384890000012777116231845360570_);fill:none;" d="M26.55,44.95
		L26.55,44.95z"/>
	<path style="clip-path:url(#SVGID_00000037656446352538384890000012777116231845360570_);" d="M25.81,47.41
		c-0.13,0-0.43,0-0.43-0.4c0-0.37,0.35-0.74,0.74-0.74c0.39,0,0.56,0.22,0.56,0.79c0,0.14-0.01,0.15-0.1,0.19
		C26.35,47.35,26.07,47.41,25.81,47.41 M25.24,47.31c-0.72-0.29-1.04-1.01-1.04-1.84c0-0.64,0.24-1.95,0.94-2.95
		c0.68-0.94,1.55-1.37,2.22-1.37c0.93,0,1.6,0.72,1.6,1.96c0,0.93-0.47,3.09-2.03,3.96c-0.05-0.32-0.14-1-0.81-1
		c-0.49,0-0.94,0.46-0.94,0.94C25.18,47.2,25.24,47.3,25.24,47.31z M26.99,47.39c1.44-0.55,2.8-2.19,2.8-3.98
		c0-1.49-0.98-2.49-2.36-2.49c-2,0-4.04,2.1-4.04,4.26c0,1.54,1.04,2.47,2.37,2.47c0.23,0,0.55-0.04,0.91-0.14
		c-0.04,0.57-0.04,0.59-0.04,0.71c0,0.3,0,1.02,0.77,1.02c1.1,0,1.55-1.69,1.55-1.8c0-0.06-0.06-0.09-0.1-0.09
		c-0.07,0-0.09,0.05-0.11,0.1c-0.22,0.66-0.76,0.89-1.08,0.89C27.22,48.34,27.08,48.09,26.99,47.39z"/>
</g>
<polygon class="st2" points="97.51,51.84 97.51,51.84 97.51,51.84 97.51,51.84 97.51,51.84 97.51,51.84 97.51,51.84 97.51,51.84 
	97.51,51.84 97.51,51.84 97.51,51.84 97.51,51.84 97.51,51.84 97.51,51.84 97.51,51.84 97.51,51.84 97.51,51.84 97.51,51.84 
	97.51,51.84 97.51,51.84 97.51,51.84 97.51,51.84 97.51,51.84 97.51,51.84 97.51,51.84 97.51,51.84 97.51,51.84 97.51,51.84 
	97.51,51.84 97.51,51.84 97.51,51.84 97.51,51.84 97.51,51.84 97.51,51.84 97.51,51.84 97.51,51.84 97.51,51.84 97.51,51.84 
	97.51,51.84 97.51,51.84 97.51,51.84 97.51,51.84 97.51,51.84 97.51,51.84 97.51,51.84 97.51,51.84 97.51,51.84 97.51,51.84 
	97.51,51.84 97.51,51.84 97.51,51.84 97.51,51.84 97.51,51.84 97.51,51.84 97.51,51.84 97.51,51.84 97.51,51.84 97.51,51.84 
	97.51,51.84 97.51,51.84 97.51,51.84 97.51,51.84 97.51,51.84 97.51,51.84 97.51,51.84 97.51,51.84 97.51,51.84 97.51,51.84 
	97.51,51.84 97.51,51.84 97.51,51.84 97.51,51.84 97.51,51.84 97.51,51.84 97.51,51.84 97.51,51.84 97.51,51.84 97.51,51.84 
	97.51,51.84 97.51,51.84 97.51,51.84 97.51,51.84 97.51,51.84 97.51,51.84 97.51,51.84 97.51,51.84 "/>
<g>
	<circle class="st1" cx="133.87" cy="74.47" r="11.19"/>
</g>
<line class="st0" x1="160.99" y1="15.83" x2="145.05" y2="15.83"/>
<line class="st0" x1="160.99" y1="74.47" x2="145.05" y2="74.47"/>
<polygon class="st2" points="131.09,43.66 131.09,43.66 131.09,43.66 131.09,43.66 131.09,43.66 131.09,43.66 131.09,43.66 
	131.09,43.66 131.09,43.66 131.09,43.66 131.09,43.66 131.09,43.66 131.09,43.66 131.09,43.66 131.09,43.66 131.09,43.66 
	131.09,43.66 131.09,43.66 131.09,43.66 131.09,43.66 131.09,43.66 131.09,43.66 131.09,43.66 131.09,43.66 131.09,43.66 
	131.09,43.66 131.09,43.66 131.09,43.66 131.09,43.66 131.09,43.66 131.09,43.66 131.09,43.66 131.09,43.66 131.09,43.66 
	131.09,43.66 131.09,43.66 131.09,43.66 131.09,43.66 131.09,43.66 131.09,43.66 131.09,43.66 131.09,43.66 131.09,43.66 
	131.09,43.66 131.09,43.66 131.09,43.66 131.09,43.66 131.09,43.66 131.09,43.66 131.09,43.66 131.09,43.66 131.09,43.66 
	131.09,43.66 131.09,43.66 131.09,43.66 131.09,43.66 131.09,43.66 131.09,43.66 131.09,43.66 131.09,43.66 131.09,43.66 
	131.09,43.66 131.09,43.66 131.09,43.66 131.09,43.66 131.09,43.66 131.09,43.66 131.09,43.66 131.09,43.66 131.09,43.66 
	131.09,43.66 131.09,43.66 131.09,43.66 131.09,43.66 131.09,43.66 131.09,43.66 131.09,43.66 131.09,43.66 131.09,43.66 
	131.09,43.66 131.09,43.66 131.09,43.66 131.09,43.66 131.09,43.66 131.09,43.66 "/>
<polygon class="st2" points="133.56,45.3 133.56,45.3 133.56,45.3 133.56,45.3 133.56,45.3 133.56,45.3 133.56,45.3 133.56,45.3 
	133.56,45.3 133.56,45.3 133.56,45.3 133.56,45.3 133.56,45.3 133.56,45.3 133.56,45.3 133.56,45.3 133.56,45.3 133.56,45.3 
	133.56,45.3 133.56,45.3 133.56,45.3 133.56,45.3 133.56,45.3 133.56,45.3 133.56,45.3 133.56,45.3 133.56,45.3 133.56,45.3 
	133.56,45.3 133.56,45.3 133.56,45.3 133.56,45.3 133.56,45.3 133.56,45.3 133.56,45.3 133.56,45.3 133.56,45.3 133.56,45.3 
	133.56,45.3 133.56,45.3 133.56,45.3 133.56,45.3 133.56,45.3 133.56,45.3 133.56,45.3 133.56,45.3 133.56,45.3 133.56,45.3 
	133.56,45.3 133.56,45.3 133.56,45.3 133.56,45.3 133.56,45.3 133.56,45.3 133.56,45.3 133.56,45.3 133.56,45.3 133.56,45.3 
	133.56,45.3 133.56,45.3 133.56,45.3 133.56,45.3 133.56,45.3 133.56,45.3 133.56,45.3 133.56,45.3 133.56,45.3 133.56,45.3 
	133.56,45.3 133.56,45.3 133.56,45.3 133.56,45.3 133.56,45.3 133.56,45.3 133.56,45.3 133.56,45.3 133.56,45.3 133.56,45.3 
	133.56,45.3 133.56,45.3 133.56,45.3 133.56,45.3 133.56,45.3 133.56,45.3 133.56,45.3 "/>
<g>
	<circle class="st1" cx="133.87" cy="15.8" r="11.19"/>
</g>
<g>
	<circle class="st1" cx="133.56" cy="45.28" r="7.8"/>
</g>
<polygon class="st2" points="133.56,15.83 133.56,15.83 133.56,15.83 133.56,15.83 133.56,15.83 133.56,15.83 133.56,15.83 
	133.56,15.83 133.56,15.83 133.56,15.83 133.56,15.83 133.56,15.83 133.56,15.83 133.56,15.83 133.56,15.83 133.56,15.83 
	133.56,15.83 133.56,15.83 133.56,15.83 133.56,15.83 133.56,15.83 133.56,15.83 133.56,15.83 133.56,15.83 133.56,15.83 
	133.56,15.83 133.56,15.83 133.56,15.83 133.56,15.83 133.56,15.83 133.56,15.83 133.56,15.83 133.56,15.83 133.56,15.83 
	133.56,15.83 133.56,15.83 133.56,15.83 133.56,15.83 133.56,15.83 133.56,15.83 133.56,15.83 133.56,15.83 133.56,15.83 
	133.56,15.83 133.56,15.83 133.56,15.83 133.56,15.83 133.56,15.83 133.56,15.83 133.56,15.83 133.56,15.83 133.56,15.83 
	133.56,15.83 133.56,15.83 133.56,15.83 133.56,15.83 133.56,15.83 133.56,15.83 133.56,15.83 133.56,15.83 133.56,15.83 
	133.56,15.83 133.56,15.83 133.56,15.83 133.56,15.83 133.56,15.83 133.56,15.83 133.56,15.83 133.56,15.83 133.56,15.83 
	133.56,15.83 133.56,15.83 133.56,15.83 133.56,15.83 133.56,15.83 133.56,15.83 133.56,15.83 133.56,15.83 133.56,15.83 
	133.56,15.83 133.56,15.83 133.56,15.83 133.56,15.83 133.56,15.83 133.56,15.83 "/>
<g>
	<defs>
		<rect id="SVGID_00000068676841945272709280000002068030718909143735_" x="130.38" y="12.48" width="6.97" height="6.64"/>
	</defs>
	<clipPath id="SVGID_00000056426242221228121210000014163515380799937209_">
		<use xlink:href="#SVGID_00000068676841945272709280000002068030718909143735_"  style="overflow:visible;"/>
	</clipPath>
	<path style="opacity:0;clip-path:url(#SVGID_00000056426242221228121210000014163515380799937209_);fill:none;" d="M133.87,15.8
		L133.87,15.8z"/>
	<path style="clip-path:url(#SVGID_00000056426242221228121210000014163515380799937209_);" d="M135.96,13.54
		c0.09-0.38,0.26-0.66,1-0.69c0.05,0,0.16-0.01,0.16-0.18c0-0.01,0-0.1-0.12-0.1c-0.31,0-0.63,0.03-0.94,0.03
		c-0.31,0-0.66-0.03-0.96-0.03c-0.06,0-0.17,0-0.17,0.19c0,0.1,0.09,0.1,0.17,0.1c0.53,0.01,0.63,0.2,0.63,0.41
		c0,0.03-0.02,0.17-0.03,0.19l-0.83,3.31c-0.31,1.24-1.38,2.05-2.31,2.05c-0.63,0-1.13-0.41-1.13-1.2c0-0.02,0-0.31,0.1-0.72
		l0.9-3.6c0.08-0.33,0.1-0.43,0.78-0.43c0.24,0,0.31,0,0.31-0.18c0-0.1-0.1-0.1-0.13-0.1c-0.26,0-0.93,0.03-1.19,0.03
		c-0.27,0-0.93-0.03-1.19-0.03c-0.07,0-0.18,0-0.18,0.19c0,0.1,0.08,0.1,0.26,0.1c0.02,0,0.19,0,0.35,0.02
		c0.17,0.02,0.25,0.03,0.25,0.15c0,0.06-0.1,0.44-0.16,0.66l-0.2,0.82c-0.08,0.36-0.53,2.11-0.57,2.29
		c-0.06,0.26-0.06,0.4-0.06,0.54c0,1.13,0.84,1.78,1.82,1.78c1.17,0,2.31-1.05,2.62-2.27L135.96,13.54"/>
</g>
<polygon class="st9" points="458.52,55.56 458.52,55.56 458.52,55.56 458.52,55.56 458.52,55.56 458.52,55.56 458.52,55.56 
	458.52,55.56 458.52,55.56 458.52,55.56 458.52,55.56 458.52,55.56 458.52,55.56 458.52,55.56 458.52,55.56 458.52,55.56 
	458.52,55.56 458.52,55.56 458.52,55.56 458.52,55.56 458.52,55.56 458.52,55.56 458.52,55.56 458.52,55.56 458.52,55.56 
	458.52,55.56 458.52,55.56 458.52,55.56 458.52,55.56 458.52,55.56 458.52,55.56 458.52,55.56 458.52,55.56 458.52,55.56 
	458.52,55.56 458.52,55.56 458.52,55.56 458.52,55.56 458.52,55.56 458.52,55.56 458.52,55.56 458.52,55.56 458.52,55.56 
	458.52,55.56 458.52,55.56 458.52,55.56 458.52,55.56 458.52,55.56 458.52,55.56 458.52,55.56 458.52,55.56 458.52,55.56 
	458.52,55.56 458.52,55.56 458.52,55.56 458.52,55.56 458.52,55.56 458.52,55.56 458.52,55.56 458.52,55.56 458.52,55.56 
	458.52,55.56 458.52,55.56 458.52,55.56 458.52,55.56 458.52,55.56 458.52,55.56 458.52,55.56 458.52,55.56 458.52,55.56 
	458.52,55.56 458.52,55.56 458.52,55.56 458.52,55.56 458.52,55.56 458.52,55.56 458.52,55.56 458.52,55.56 458.52,55.56 
	458.52,55.56 458.52,55.56 458.52,55.56 458.52,55.56 458.52,55.56 458.52,55.56 458.52,55.56 "/>
<g>
	<defs>
		<rect id="SVGID_00000116955498615185264780000018266200622013117373_" x="130.57" y="41.98" width="5.98" height="6.64"/>
	</defs>
	<clipPath id="SVGID_00000067919513984764471710000000600976719407725463_">
		<use xlink:href="#SVGID_00000116955498615185264780000018266200622013117373_"  style="overflow:visible;"/>
	</clipPath>
	<path style="opacity:0;clip-path:url(#SVGID_00000067919513984764471710000000600976719407725463_);fill:none;" d="M133.56,45.3
		L133.56,45.3z"/>
	<path style="clip-path:url(#SVGID_00000067919513984764471710000000600976719407725463_);" d="M133.69,45.44
		c0.08-0.09,0.08-0.13,0.08-0.15c0-0.05-0.04-0.09-0.06-0.13l-1.9-2.74h2.14c1.56,0,2.03,0.33,2.22,1.8h0.23l-0.26-2.08H131
		c-0.22,0-0.24,0-0.24,0.21l2.31,3.35l-2.2,2.51c-0.09,0.1-0.09,0.12-0.09,0.15c0,0.1,0.09,0.1,0.23,0.1h5.14l0.26-2.19h-0.23
		c-0.17,1.55-0.8,1.8-2.25,1.8h-2.56L133.69,45.44"/>
</g>
<polygon class="st2" points="133.4,75.28 133.4,75.28 133.4,75.28 133.4,75.28 133.4,75.28 133.4,75.28 133.4,75.28 133.4,75.28 
	133.4,75.28 133.4,75.28 133.4,75.28 133.4,75.28 133.4,75.28 133.4,75.28 133.4,75.28 133.4,75.28 133.4,75.28 133.4,75.28 
	133.4,75.28 133.4,75.28 133.4,75.28 133.4,75.28 133.4,75.28 133.4,75.28 133.4,75.28 133.4,75.28 133.4,75.28 133.4,75.28 
	133.4,75.28 133.4,75.28 133.4,75.28 133.4,75.28 133.4,75.28 133.4,75.28 133.4,75.28 133.4,75.28 133.4,75.28 133.4,75.28 
	133.4,75.28 133.4,75.28 133.4,75.28 133.4,75.28 133.4,75.28 133.4,75.28 133.4,75.28 133.4,75.28 133.4,75.28 133.4,75.28 
	133.4,75.28 133.4,75.28 133.4,75.28 133.4,75.28 133.4,75.28 133.4,75.28 133.4,75.28 133.4,75.28 133.4,75.28 133.4,75.28 
	133.4,75.28 133.4,75.28 133.4,75.28 133.4,75.28 133.4,75.28 133.4,75.28 133.4,75.28 133.4,75.28 133.4,75.28 133.4,75.28 
	133.4,75.28 133.4,75.28 133.4,75.28 133.4,75.28 133.4,75.28 133.4,75.28 133.4,75.28 133.4,75.28 133.4,75.28 133.4,75.28 
	133.4,75.28 133.4,75.28 133.4,75.28 133.4,75.28 133.4,75.28 133.4,75.28 133.4,75.28 "/>
<g>
	<defs>
		<rect id="SVGID_00000067210329908142649480000017860506103944083088_" x="130.39" y="71.26" width="6.97" height="6.64"/>
	</defs>
	<clipPath id="SVGID_00000106851421991085308500000014537937166960148613_">
		<use xlink:href="#SVGID_00000067210329908142649480000017860506103944083088_"  style="overflow:visible;"/>
	</clipPath>
	<path style="opacity:0;clip-path:url(#SVGID_00000106851421991085308500000014537937166960148613_);fill:none;" d="M133.87,74.58
		L133.87,74.58z"/>
	<path style="clip-path:url(#SVGID_00000106851421991085308500000014537937166960148613_);" d="M135.84,72.4
		c0.45-0.72,0.84-0.75,1.19-0.77c0.11-0.01,0.12-0.17,0.12-0.18c0-0.07-0.05-0.11-0.12-0.11c-0.24,0-0.51,0.03-0.76,0.03
		c-0.31,0-0.62-0.03-0.92-0.03c-0.06,0-0.18,0-0.18,0.18c0,0.1,0.08,0.11,0.15,0.11c0.25,0.02,0.43,0.11,0.43,0.31
		c0,0.14-0.14,0.34-0.14,0.35l-2.84,4.52l-0.63-4.9c0-0.16,0.21-0.28,0.64-0.28c0.13,0,0.23,0,0.23-0.18c0-0.08-0.07-0.1-0.13-0.1
		c-0.37,0-0.77,0.03-1.15,0.03c-0.17,0-0.34-0.01-0.51-0.01s-0.34-0.02-0.5-0.02c-0.06,0-0.18,0-0.18,0.18
		c0,0.11,0.08,0.11,0.23,0.11c0.52,0,0.53,0.08,0.56,0.31l0.73,5.71c0.03,0.19,0.06,0.21,0.19,0.21c0.15,0,0.19-0.05,0.26-0.17
		L135.84,72.4"/>
</g>
<line class="st0" x1="133.87" y1="37.49" x2="133.87" y2="26.99"/>
<line class="st0" x1="133.87" y1="63.58" x2="133.87" y2="53.08"/>
<line class="st0" x1="122.68" y1="15.83" x2="106.74" y2="15.83"/>
<line class="st0" x1="122.68" y1="75.28" x2="106.74" y2="75.28"/>
<polygon class="st9" points="673.29,-15.21 673.29,-15.21 673.29,-15.21 673.29,-15.21 673.29,-15.21 673.29,-15.21 673.29,-15.21 
	673.29,-15.21 673.29,-15.21 673.29,-15.21 673.29,-15.21 673.29,-15.21 673.29,-15.21 673.29,-15.21 673.29,-15.21 673.29,-15.21 
	673.29,-15.21 673.29,-15.21 673.29,-15.21 673.29,-15.21 673.29,-15.21 673.29,-15.21 673.29,-15.21 673.29,-15.21 673.29,-15.21 
	673.29,-15.21 673.29,-15.21 673.29,-15.21 673.29,-15.21 673.29,-15.21 673.29,-15.21 673.29,-15.21 673.29,-15.21 673.29,-15.21 
	673.29,-15.21 673.29,-15.21 673.29,-15.21 673.29,-15.21 673.29,-15.21 673.29,-15.21 673.29,-15.21 673.29,-15.21 673.29,-15.21 
	673.29,-15.21 673.29,-15.21 673.29,-15.21 673.29,-15.21 673.29,-15.21 673.29,-15.21 673.29,-15.21 673.29,-15.21 673.29,-15.21 
	673.29,-15.21 673.29,-15.21 673.29,-15.21 673.29,-15.21 673.29,-15.21 673.29,-15.21 673.29,-15.21 673.29,-15.21 673.29,-15.21 
	673.29,-15.21 673.29,-15.21 673.29,-15.21 673.29,-15.21 673.29,-15.21 673.29,-15.21 673.29,-15.21 673.29,-15.21 673.29,-15.21 
	673.29,-15.21 673.29,-15.21 673.29,-15.21 673.29,-15.21 673.29,-15.21 673.29,-15.21 673.29,-15.21 673.29,-15.21 673.29,-15.21 
	673.29,-15.21 673.29,-15.21 673.29,-15.21 673.29,-15.21 673.29,-15.21 673.29,-15.21 "/>
<g>
	<defs>
		<rect id="SVGID_00000035508670227093194640000009297886984750102193_" x="667.19" y="-26.59" width="13" height="21"/>
	</defs>
	<clipPath id="SVGID_00000018930144391296483790000005087447884759355810_">
		<use xlink:href="#SVGID_00000035508670227093194640000009297886984750102193_"  style="overflow:visible;"/>
	</clipPath>
	
		<path style="opacity:0;clip-path:url(#SVGID_00000018930144391296483790000005087447884759355810_);fill:none;stroke:#000000;stroke-width:1.000000e-06;stroke-miterlimit:10;" d="
		M673.69-16.09L673.69-16.09z"/>
</g>
<polygon class="st2" points="68.94,61.78 68.94,61.78 68.94,61.78 68.94,61.78 68.94,61.78 68.94,61.78 68.94,61.78 68.94,61.78 
	68.94,61.78 68.94,61.78 68.94,61.78 68.94,61.78 68.94,61.78 68.94,61.78 68.94,61.78 68.94,61.78 68.94,61.78 68.94,61.78 
	68.94,61.78 68.94,61.78 68.94,61.78 68.94,61.78 68.94,61.78 68.94,61.78 68.94,61.78 68.94,61.78 68.94,61.78 68.94,61.78 
	68.94,61.78 68.94,61.78 68.94,61.78 68.94,61.78 68.94,61.78 68.94,61.78 68.94,61.78 68.94,61.78 68.94,61.78 68.94,61.78 
	68.94,61.78 68.94,61.78 68.94,61.78 68.94,61.78 68.94,61.78 68.94,61.78 68.94,61.78 68.94,61.78 68.94,61.78 68.94,61.78 
	68.94,61.78 68.94,61.78 68.94,61.78 68.94,61.78 68.94,61.78 68.94,61.78 68.94,61.78 68.94,61.78 68.94,61.78 68.94,61.78 
	68.94,61.78 68.94,61.78 68.94,61.78 68.94,61.78 68.94,61.78 68.94,61.78 68.94,61.78 68.94,61.78 68.94,61.78 68.94,61.78 
	68.94,61.78 68.94,61.78 68.94,61.78 68.94,61.78 68.94,61.78 68.94,61.78 68.94,61.78 68.94,61.78 68.94,61.78 68.94,61.78 
	68.94,61.78 68.94,61.78 68.94,61.78 68.94,61.78 68.94,61.78 68.94,61.78 68.94,61.78 "/>
<g>
	<defs>
		<rect id="SVGID_00000077288938659270397780000016501133046437511839_" x="67.77" y="59.25" width="2.99" height="4.98"/>
	</defs>
	<clipPath id="SVGID_00000091008721186103831410000004773349125368460951_">
		<use xlink:href="#SVGID_00000077288938659270397780000016501133046437511839_"  style="overflow:visible;"/>
	</clipPath>
	<path style="opacity:0;clip-path:url(#SVGID_00000091008721186103831410000004773349125368460951_);fill:none;" d="M69.27,61.75
		L69.27,61.75z"/>
</g>
<polygon class="st9" points="489.51,-29.03 489.51,-29.04 489.51,-29.04 489.51,-29.04 489.51,-29.04 489.51,-29.04 489.51,-29.04 
	489.51,-29.04 489.51,-29.04 489.51,-29.04 489.51,-29.04 489.51,-29.04 489.51,-29.04 489.51,-29.04 489.51,-29.04 489.51,-29.04 
	489.51,-29.04 489.51,-29.04 489.51,-29.04 489.51,-29.04 489.51,-29.04 489.51,-29.04 489.51,-29.04 489.51,-29.04 489.51,-29.04 
	489.51,-29.04 489.51,-29.04 489.51,-29.04 489.51,-29.04 489.51,-29.04 489.51,-29.04 489.51,-29.04 489.51,-29.04 489.51,-29.04 
	489.51,-29.04 489.51,-29.04 489.51,-29.04 489.51,-29.04 489.51,-29.04 489.51,-29.04 489.51,-29.04 489.51,-29.04 489.51,-29.04 
	489.51,-29.04 489.51,-29.04 489.51,-29.04 489.51,-29.04 489.51,-29.04 489.51,-29.04 489.51,-29.04 489.51,-29.04 489.51,-29.04 
	489.51,-29.04 489.51,-29.04 489.51,-29.04 489.51,-29.04 489.51,-29.04 489.51,-29.04 489.51,-29.04 489.51,-29.04 489.51,-29.04 
	489.51,-29.04 489.51,-29.04 489.51,-29.04 489.51,-29.04 489.51,-29.04 489.51,-29.04 489.51,-29.04 489.51,-29.04 489.51,-29.04 
	489.51,-29.04 489.51,-29.04 489.51,-29.04 489.51,-29.04 489.51,-29.04 489.51,-29.04 489.51,-29.04 489.51,-29.04 489.51,-29.04 
	489.51,-29.04 489.51,-29.04 489.51,-29.04 489.51,-29.04 489.51,-29.04 489.51,-29.04 "/>
<g>
	<defs>
		<rect id="SVGID_00000028295322149909880560000002236892857402303874_" x="484.6" y="-37.65" width="10" height="16"/>
	</defs>
	<clipPath id="SVGID_00000096028445388745052460000000476349161062839199_">
		<use xlink:href="#SVGID_00000028295322149909880560000002236892857402303874_"  style="overflow:visible;"/>
	</clipPath>
	
		<path style="opacity:0;clip-path:url(#SVGID_00000096028445388745052460000000476349161062839199_);fill:none;stroke:#000000;stroke-width:1.000000e-06;stroke-miterlimit:10;" d="
		M489.6-29.65L489.6-29.65z"/>
</g>
<polygon class="st2" points="87.53,65.53 87.53,65.53 87.53,65.53 87.53,65.53 87.53,65.53 87.53,65.53 87.53,65.53 87.53,65.53 
	87.53,65.53 87.53,65.53 87.53,65.53 87.53,65.53 87.53,65.53 87.53,65.53 87.53,65.53 87.53,65.53 87.53,65.53 87.53,65.53 
	87.53,65.53 87.53,65.53 87.53,65.53 87.53,65.53 87.53,65.53 87.53,65.53 87.53,65.53 87.53,65.53 87.53,65.53 87.53,65.53 
	87.53,65.53 87.53,65.53 87.53,65.53 87.53,65.53 87.53,65.53 87.53,65.53 87.53,65.53 87.53,65.53 87.53,65.53 87.53,65.53 
	87.53,65.53 87.53,65.53 87.53,65.53 87.53,65.53 87.53,65.53 87.53,65.53 87.53,65.53 87.53,65.53 87.53,65.53 87.53,65.53 
	87.53,65.53 87.53,65.53 87.53,65.53 87.53,65.53 87.53,65.53 87.53,65.53 87.53,65.53 87.53,65.53 87.53,65.53 87.53,65.53 
	87.53,65.53 87.53,65.53 87.53,65.53 87.53,65.53 87.53,65.53 87.53,65.53 87.53,65.53 87.53,65.53 87.53,65.53 87.53,65.53 
	87.53,65.53 87.53,65.53 87.53,65.53 87.53,65.53 87.53,65.53 87.53,65.53 87.53,65.53 87.53,65.53 87.53,65.53 87.53,65.53 
	87.53,65.53 87.53,65.53 87.53,65.53 87.53,65.53 87.53,65.53 87.53,65.53 87.53,65.53 "/>
<polygon class="st2" points="84.21,80.33 84.21,80.33 84.21,80.33 84.21,80.33 84.21,80.33 84.21,80.33 84.21,80.33 84.21,80.33 
	84.21,80.33 84.21,80.33 84.21,80.33 84.21,80.33 84.21,80.33 84.21,80.33 84.21,80.33 84.21,80.33 84.21,80.33 84.21,80.33 
	84.21,80.33 84.21,80.33 84.21,80.33 84.21,80.33 84.21,80.33 84.21,80.33 84.21,80.33 84.21,80.33 84.21,80.33 84.21,80.33 
	84.21,80.33 84.21,80.33 84.21,80.33 84.21,80.33 84.21,80.33 84.21,80.33 84.21,80.33 84.21,80.33 84.21,80.33 84.21,80.33 
	84.21,80.33 84.21,80.33 84.21,80.33 84.21,80.33 84.21,80.33 84.21,80.33 84.21,80.33 84.21,80.33 84.21,80.33 84.21,80.33 
	84.21,80.33 84.21,80.33 84.21,80.33 84.21,80.33 84.21,80.33 84.21,80.33 84.21,80.33 84.21,80.33 84.21,80.33 84.21,80.33 
	84.21,80.33 84.21,80.33 84.21,80.33 84.21,80.33 84.21,80.33 84.21,80.33 84.21,80.33 84.21,80.33 84.21,80.33 84.21,80.33 
	84.21,80.33 84.21,80.33 84.21,80.33 84.21,80.33 84.21,80.33 84.21,80.33 84.21,80.33 84.21,80.33 84.21,80.33 84.21,80.33 
	84.21,80.33 84.21,80.33 84.21,80.33 84.21,80.33 84.21,80.33 84.21,80.33 84.21,80.33 "/>
<g>
	<defs>
		<rect id="SVGID_00000051357336036891009900000011157407189090680744_" x="82.61" y="77.47" width="3.32" height="5.31"/>
	</defs>
	<clipPath id="SVGID_00000026845229751795202160000010110202890313173946_">
		<use xlink:href="#SVGID_00000051357336036891009900000011157407189090680744_"  style="overflow:visible;"/>
	</clipPath>
	<path style="opacity:0;clip-path:url(#SVGID_00000026845229751795202160000010110202890313173946_);fill:none;" d="M84.27,80.12
		L84.27,80.12z"/>
</g>
<polygon class="st9" points="79.74,64.42 79.74,64.42 79.74,64.42 79.74,64.42 79.74,64.42 79.74,64.42 79.74,64.42 79.74,64.42 
	79.74,64.42 79.74,64.42 79.74,64.42 79.74,64.42 79.74,64.42 79.74,64.42 79.74,64.42 79.74,64.42 79.74,64.42 79.74,64.42 
	79.74,64.42 79.74,64.42 79.74,64.42 79.74,64.42 79.74,64.42 79.74,64.42 79.74,64.42 79.74,64.42 79.74,64.42 79.74,64.42 
	79.74,64.42 79.74,64.42 79.74,64.42 79.74,64.42 79.74,64.42 79.74,64.42 79.74,64.42 79.74,64.42 79.74,64.42 79.74,64.42 
	79.74,64.42 79.74,64.42 79.74,64.42 79.74,64.42 79.74,64.42 79.74,64.42 79.74,64.42 79.74,64.42 79.74,64.42 79.74,64.42 
	79.74,64.42 79.74,64.42 79.74,64.42 79.74,64.42 79.74,64.42 79.74,64.42 79.74,64.42 79.74,64.42 79.74,64.42 79.74,64.42 
	79.74,64.42 79.74,64.42 79.74,64.42 79.74,64.42 79.74,64.42 79.74,64.42 79.74,64.42 79.74,64.42 79.74,64.42 79.74,64.42 
	79.74,64.42 79.74,64.42 79.74,64.42 79.74,64.42 79.74,64.42 79.74,64.42 79.74,64.42 79.74,64.42 79.74,64.42 79.74,64.42 
	79.74,64.42 79.74,64.42 79.74,64.42 79.74,64.42 79.74,64.42 79.74,64.42 79.74,64.42 "/>
<g>
	<defs>
		<rect id="SVGID_00000037689044589659266410000005240033105982230698_" x="74.91" y="55.81" width="10" height="16"/>
	</defs>
	<clipPath id="SVGID_00000124148493348601610030000012901184873443298959_">
		<use xlink:href="#SVGID_00000037689044589659266410000005240033105982230698_"  style="overflow:visible;"/>
	</clipPath>
	
		<path style="opacity:0;clip-path:url(#SVGID_00000124148493348601610030000012901184873443298959_);fill:none;stroke:#000000;stroke-width:1.000000e-06;stroke-miterlimit:10;" d="
		M79.91,63.81L79.91,63.81z"/>
</g>
<polygon class="st9" points="69.86,66.4 69.86,66.4 69.86,66.4 69.86,66.4 69.86,66.4 69.86,66.4 69.86,66.4 69.86,66.4 69.86,66.4 
	69.86,66.4 69.86,66.4 69.86,66.4 69.86,66.4 69.86,66.4 69.86,66.4 69.86,66.4 69.86,66.4 69.86,66.4 69.86,66.4 69.86,66.4 
	69.86,66.4 69.86,66.4 69.86,66.4 69.86,66.4 69.86,66.4 69.86,66.4 69.86,66.4 69.86,66.4 69.86,66.4 69.86,66.4 69.86,66.4 
	69.86,66.4 69.86,66.4 69.86,66.4 69.86,66.4 69.86,66.4 69.86,66.4 69.86,66.4 69.86,66.4 69.86,66.4 69.86,66.4 69.86,66.4 
	69.86,66.4 69.86,66.4 69.86,66.4 69.86,66.4 69.86,66.4 69.86,66.4 69.86,66.4 69.86,66.4 69.86,66.4 69.86,66.4 69.86,66.4 
	69.86,66.4 69.86,66.4 69.86,66.4 69.86,66.4 69.86,66.4 69.86,66.4 69.86,66.4 69.86,66.4 69.86,66.4 69.86,66.4 69.86,66.4 
	69.86,66.4 69.86,66.4 69.86,66.4 69.86,66.4 69.86,66.4 69.86,66.4 69.86,66.4 69.86,66.4 69.86,66.4 69.86,66.4 69.86,66.4 
	69.86,66.4 69.86,66.4 69.86,66.4 69.86,66.4 69.86,66.4 69.86,66.4 69.86,66.4 69.86,66.4 69.86,66.4 69.86,66.4 69.86,66.4 "/>
<g>
	<defs>
		<rect id="SVGID_00000008848647735910227430000002058801468553692597_" x="65.02" y="57.79" width="10" height="16"/>
	</defs>
	<clipPath id="SVGID_00000138542567553339903210000010475917471139418767_">
		<use xlink:href="#SVGID_00000008848647735910227430000002058801468553692597_"  style="overflow:visible;"/>
	</clipPath>
	
		<path style="opacity:0;clip-path:url(#SVGID_00000138542567553339903210000010475917471139418767_);fill:none;stroke:#000000;stroke-width:1.000000e-06;stroke-miterlimit:10;" d="
		M70.02,65.79L70.02,65.79z"/>
</g>
<polygon class="st9" points="58,83.91 58,83.91 58,83.91 58,83.91 58,83.91 58,83.91 58,83.91 58,83.91 58,83.91 58,83.91 58,83.91 
	58,83.91 58,83.91 58,83.91 58,83.91 58,83.91 58,83.91 58,83.91 58,83.91 58,83.91 58,83.91 58,83.91 58,83.91 58,83.91 58,83.91 
	58,83.91 58,83.91 58,83.91 58,83.91 58,83.91 58,83.91 58,83.91 58,83.91 58,83.91 58,83.91 58,83.91 58,83.91 58,83.91 58,83.91 
	58,83.91 58,83.91 58,83.91 58,83.91 58,83.91 58,83.91 58,83.91 58,83.91 58,83.91 58,83.91 58,83.91 58,83.91 58,83.91 58,83.91 
	58,83.91 58,83.91 58,83.91 58,83.91 58,83.91 58,83.91 58,83.91 58,83.91 58,83.91 58,83.91 58,83.91 58,83.91 58,83.91 58,83.91 
	58,83.91 58,83.91 58,83.91 58,83.91 58,83.91 58,83.91 58,83.91 58,83.91 58,83.91 58,83.91 58,83.91 58,83.91 58,83.91 58,83.91 
	58,83.91 58,83.91 58,83.91 58,83.91 58,83.91 "/>
<g>
	<defs>
		<rect id="SVGID_00000108993371619137926520000012538983379967007401_" x="53.16" y="75.29" width="10" height="16"/>
	</defs>
	<clipPath id="SVGID_00000077291010324073399130000009199641830653794209_">
		<use xlink:href="#SVGID_00000108993371619137926520000012538983379967007401_"  style="overflow:visible;"/>
	</clipPath>
	
		<path style="opacity:0;clip-path:url(#SVGID_00000077291010324073399130000009199641830653794209_);fill:none;stroke:#000000;stroke-width:1.000000e-06;stroke-miterlimit:10;" d="
		M58.16,83.29L58.16,83.29z"/>
</g>
<g>
	<defs>
		<rect id="SVGID_00000160179897647889007250000000478820772236480699_" x="76.58" y="49.19" width="3.16" height="4.93"/>
	</defs>
	<clipPath id="SVGID_00000131332368570041292570000002478302871835038371_">
		<use xlink:href="#SVGID_00000160179897647889007250000000478820772236480699_"  style="overflow:visible;"/>
	</clipPath>
	<path style="clip-path:url(#SVGID_00000131332368570041292570000002478302871835038371_);fill:#E4E4E3;" d="M78.34,51.46
		c0.57-0.19,0.97-0.67,0.97-1.22c0-0.57-0.61-0.95-1.27-0.95c-0.7,0-1.22,0.41-1.22,0.94c0,0.23,0.15,0.36,0.35,0.36
		c0.21,0,0.35-0.15,0.35-0.35c0-0.35-0.32-0.35-0.43-0.35c0.21-0.34,0.67-0.43,0.92-0.43c0.28,0,0.66,0.15,0.66,0.77
		c0,0.08-0.01,0.48-0.19,0.79c-0.21,0.33-0.44,0.35-0.62,0.36c-0.06,0.01-0.22,0.02-0.27,0.02c-0.06,0.01-0.1,0.01-0.1,0.08
		c0,0.08,0.05,0.08,0.17,0.08h0.3c0.57,0,0.82,0.47,0.82,1.15c0,0.94-0.48,1.14-0.78,1.14c-0.3,0-0.82-0.12-1.06-0.53
		c0.24,0.03,0.46-0.12,0.46-0.38c0-0.25-0.19-0.39-0.39-0.39c-0.17,0-0.39,0.1-0.39,0.4c0,0.63,0.64,1.09,1.4,1.09
		c0.84,0,1.47-0.63,1.47-1.33C79.49,52.14,79.06,51.6,78.34,51.46"/>
</g>
<polygon class="st9" points="84.88,34.83 84.88,34.83 84.88,34.83 84.88,34.83 84.88,34.83 84.88,34.83 84.88,34.83 84.88,34.83 
	84.88,34.83 84.88,34.83 84.88,34.83 84.88,34.83 84.88,34.83 84.88,34.83 84.88,34.83 84.88,34.83 84.88,34.83 84.88,34.83 
	84.88,34.83 84.88,34.83 84.88,34.83 84.88,34.83 84.88,34.83 84.88,34.83 84.88,34.83 84.88,34.83 84.88,34.83 84.88,34.83 
	84.88,34.83 84.88,34.83 84.88,34.83 84.88,34.83 84.88,34.83 84.88,34.83 84.88,34.83 84.88,34.83 84.88,34.83 84.88,34.83 
	84.88,34.83 84.88,34.83 84.88,34.83 84.88,34.83 84.88,34.83 84.88,34.83 84.88,34.83 84.88,34.83 84.88,34.83 84.88,34.83 
	84.88,34.83 84.88,34.83 84.88,34.83 84.88,34.83 84.88,34.83 84.88,34.83 84.88,34.83 84.88,34.83 84.88,34.83 84.88,34.83 
	84.88,34.83 84.88,34.83 84.88,34.83 84.88,34.83 84.88,34.83 84.88,34.83 84.88,34.83 84.88,34.83 84.88,34.83 84.88,34.83 
	84.88,34.83 84.88,34.83 84.88,34.83 84.88,34.83 84.88,34.83 84.88,34.83 84.88,34.83 84.88,34.83 84.88,34.83 84.88,34.83 
	84.88,34.83 84.88,34.83 84.88,34.83 84.88,34.83 84.88,34.83 84.88,34.83 84.88,34.83 84.88,34.83 "/>
<g>
	<defs>
		<rect id="SVGID_00000005949400977382145260000002259545926827274370_" x="76.53" y="33.53" width="3.27" height="4.9"/>
	</defs>
	<clipPath id="SVGID_00000036948121402957355570000016402879808513863812_">
		<use xlink:href="#SVGID_00000005949400977382145260000002259545926827274370_"  style="overflow:visible;"/>
	</clipPath>
	
		<path style="opacity:0;clip-path:url(#SVGID_00000036948121402957355570000016402879808513863812_);fill:none;stroke:#000000;stroke-width:1.000000e-06;stroke-miterlimit:10;" d="
		M78.16,35.98L78.16,35.98z"/>
	<path style="clip-path:url(#SVGID_00000036948121402957355570000016402879808513863812_);fill:#E4E4E3;" d="M77.41,37.71l0.69-0.67
		c1.02-0.9,1.41-1.25,1.41-1.9c0-0.74-0.59-1.26-1.38-1.26c-0.74,0-1.22,0.6-1.22,1.18c0,0.36,0.33,0.36,0.35,0.36
		c0.11,0,0.34-0.08,0.34-0.34c0-0.17-0.12-0.34-0.34-0.34c-0.05,0-0.06,0-0.08,0.01c0.15-0.42,0.5-0.66,0.88-0.66
		c0.59,0,0.87,0.53,0.87,1.06c0,0.52-0.33,1.03-0.68,1.44l-1.25,1.39c-0.07,0.07-0.07,0.08-0.07,0.24h2.41l0.18-1.13h-0.16
		c-0.03,0.2-0.08,0.48-0.14,0.58c-0.05,0.05-0.47,0.05-0.62,0.05H77.41"/>
</g>
<polygon class="st9" points="41.53,35.93 41.53,35.93 41.53,35.93 41.53,35.93 41.53,35.93 41.53,35.93 41.53,35.93 41.53,35.93 
	41.53,35.93 41.53,35.93 41.53,35.93 41.53,35.93 41.53,35.93 41.53,35.93 41.53,35.93 41.53,35.93 41.53,35.93 41.53,35.93 
	41.53,35.93 41.53,35.93 41.53,35.93 41.53,35.93 41.53,35.93 41.53,35.93 41.53,35.93 41.53,35.93 41.53,35.93 41.53,35.93 
	41.53,35.93 41.53,35.93 41.53,35.93 41.53,35.93 41.53,35.93 41.53,35.93 41.53,35.93 41.53,35.93 41.53,35.93 41.53,35.93 
	41.53,35.93 41.53,35.93 41.53,35.93 41.53,35.93 41.53,35.93 41.53,35.93 41.53,35.93 41.53,35.93 41.53,35.93 41.53,35.93 
	41.53,35.93 41.53,35.93 41.53,35.93 41.53,35.93 41.53,35.93 41.53,35.93 41.53,35.93 41.53,35.93 41.53,35.93 41.53,35.93 
	41.53,35.93 41.53,35.93 41.53,35.93 41.53,35.93 41.53,35.93 41.53,35.93 41.53,35.93 41.53,35.93 41.53,35.93 41.53,35.93 
	41.53,35.93 41.53,35.93 41.53,35.93 41.53,35.93 41.53,35.93 41.53,35.93 41.53,35.93 41.53,35.93 41.53,35.93 41.53,35.93 
	41.53,35.93 41.53,35.93 41.53,35.93 41.53,35.93 41.53,35.93 41.53,35.93 41.53,35.93 41.53,35.93 "/>
<g>
	<defs>
		<rect id="SVGID_00000027595081369849016390000015284348262779402687_" x="38.75" y="33.17" width="3.56" height="5.34"/>
	</defs>
	<clipPath id="SVGID_00000090983873885080341890000017960139427498954631_">
		<use xlink:href="#SVGID_00000027595081369849016390000015284348262779402687_"  style="overflow:visible;"/>
	</clipPath>
	
		<path style="opacity:0;clip-path:url(#SVGID_00000090983873885080341890000017960139427498954631_);fill:none;stroke:#000000;stroke-width:1.000000e-06;stroke-miterlimit:10;" d="
		M40.53,35.84L40.53,35.84z"/>
	<path style="clip-path:url(#SVGID_00000090983873885080341890000017960139427498954631_);fill:#E4E4E3;" d="M40.57,38.28
		c-0.28,0-0.69-0.18-0.82-0.86c-0.08-0.43-0.08-1.08-0.08-1.5c0-0.45,0-0.92,0.06-1.31c0.13-0.84,0.67-0.91,0.84-0.91
		c0.23,0,0.7,0.13,0.84,0.83c0.07,0.4,0.07,0.94,0.07,1.38c0,0.53,0,1.01-0.08,1.47C41.3,38.06,40.89,38.28,40.57,38.28
		 M42.07,36.01c0-0.57-0.04-1.14-0.28-1.66c-0.33-0.68-0.91-0.79-1.21-0.79c-0.43,0-0.94,0.18-1.23,0.84
		c-0.23,0.49-0.26,1.04-0.26,1.61c0,0.53,0.03,1.17,0.32,1.71c0.31,0.57,0.82,0.72,1.17,0.72c0.38,0,0.92-0.15,1.23-0.82
		C42.04,37.12,42.07,36.57,42.07,36.01z"/>
</g>
<g>
	<defs>
		<rect id="SVGID_00000173873024890702533750000015032978609646365879_" x="39.31" y="48.96" width="2.44" height="5.38"/>
	</defs>
	<clipPath id="SVGID_00000161589374316741704720000014227481571675452351_">
		<use xlink:href="#SVGID_00000173873024890702533750000015032978609646365879_"  style="overflow:visible;"/>
	</clipPath>
	<path style="clip-path:url(#SVGID_00000161589374316741704720000014227481571675452351_);fill:#E4E4E3;" d="M40.79,49.53
		c0-0.17,0-0.19-0.17-0.19c-0.44,0.46-1.08,0.46-1.31,0.46v0.22c0.14,0,0.57,0,0.94-0.19v3.72c0,0.26-0.02,0.34-0.67,0.34h-0.23
		v0.22c0.25-0.02,0.88-0.02,1.16-0.02c0.29,0,0.91,0,1.16,0.02V53.9h-0.23c-0.65,0-0.67-0.08-0.67-0.34V49.53"/>
</g>
<g>
	<defs>
		<rect id="SVGID_00000078006180133521148150000001526362911262299579_" x="112.93" y="9.03" width="3.56" height="5.34"/>
	</defs>
	<clipPath id="SVGID_00000016057262629023933860000015724161240897988230_">
		<use xlink:href="#SVGID_00000078006180133521148150000001526362911262299579_"  style="overflow:visible;"/>
	</clipPath>
	
		<path style="opacity:0;clip-path:url(#SVGID_00000016057262629023933860000015724161240897988230_);fill:none;stroke:#000000;stroke-width:1.000000e-06;stroke-miterlimit:10;" d="
		M114.71,11.7L114.71,11.7z"/>
	<path style="clip-path:url(#SVGID_00000016057262629023933860000015724161240897988230_);fill:#E4E4E3;" d="M114.76,14.14
		c-0.28,0-0.69-0.18-0.82-0.86c-0.08-0.43-0.08-1.08-0.08-1.5c0-0.45,0-0.92,0.06-1.31c0.13-0.84,0.67-0.91,0.84-0.91
		c0.23,0,0.7,0.13,0.84,0.83c0.07,0.4,0.07,0.94,0.07,1.38c0,0.53,0,1.01-0.08,1.47C115.48,13.92,115.07,14.14,114.76,14.14
		 M116.25,11.87c0-0.57-0.04-1.14-0.28-1.66c-0.33-0.68-0.91-0.79-1.21-0.79c-0.43,0-0.94,0.18-1.23,0.84
		c-0.23,0.49-0.26,1.04-0.26,1.61c0,0.53,0.03,1.17,0.32,1.71c0.31,0.57,0.82,0.72,1.17,0.72c0.38,0,0.92-0.15,1.23-0.82
		C116.22,12.98,116.25,12.43,116.25,11.87z"/>
</g>
<g>
	<defs>
		<rect id="SVGID_00000066494156750070239220000018414269119776597377_" x="151.94" y="9.25" width="3.27" height="4.9"/>
	</defs>
	<clipPath id="SVGID_00000031202652581412652350000018174436277270506115_">
		<use xlink:href="#SVGID_00000066494156750070239220000018414269119776597377_"  style="overflow:visible;"/>
	</clipPath>
	
		<path style="opacity:0;clip-path:url(#SVGID_00000031202652581412652350000018174436277270506115_);fill:none;stroke:#000000;stroke-width:1.000000e-06;stroke-miterlimit:10;" d="
		M153.57,11.7L153.57,11.7z"/>
	<path style="clip-path:url(#SVGID_00000031202652581412652350000018174436277270506115_);fill:#E4E4E3;" d="M152.82,13.43
		l0.69-0.67c1.02-0.9,1.41-1.25,1.41-1.9c0-0.74-0.59-1.26-1.38-1.26c-0.74,0-1.22,0.6-1.22,1.18c0,0.36,0.33,0.36,0.35,0.36
		c0.11,0,0.34-0.08,0.34-0.34c0-0.17-0.12-0.34-0.34-0.34c-0.05,0-0.06,0-0.08,0.01c0.15-0.42,0.5-0.66,0.88-0.66
		c0.59,0,0.87,0.53,0.87,1.06c0,0.52-0.33,1.03-0.68,1.44l-1.25,1.39c-0.07,0.07-0.07,0.08-0.07,0.24h2.41l0.18-1.13h-0.16
		c-0.03,0.2-0.08,0.48-0.14,0.58c-0.05,0.05-0.47,0.05-0.62,0.05H152.82"/>
</g>
<g>
	<defs>
		<rect id="SVGID_00000173878365276363235450000008778076144856671133_" x="152.84" y="75.88" width="3.16" height="4.93"/>
	</defs>
	<clipPath id="SVGID_00000065763863969891472830000007623804551124476094_">
		<use xlink:href="#SVGID_00000173878365276363235450000008778076144856671133_"  style="overflow:visible;"/>
	</clipPath>
	<path style="clip-path:url(#SVGID_00000065763863969891472830000007623804551124476094_);fill:#E4E4E3;" d="M154.6,78.15
		c0.57-0.19,0.97-0.67,0.97-1.22c0-0.57-0.61-0.95-1.27-0.95c-0.7,0-1.22,0.41-1.22,0.94c0,0.23,0.15,0.36,0.35,0.36
		c0.21,0,0.35-0.15,0.35-0.35c0-0.35-0.32-0.35-0.43-0.35c0.21-0.34,0.67-0.43,0.92-0.43c0.28,0,0.66,0.15,0.66,0.77
		c0,0.08-0.01,0.48-0.19,0.79c-0.21,0.33-0.44,0.35-0.62,0.36c-0.06,0.01-0.22,0.02-0.27,0.02c-0.06,0.01-0.1,0.01-0.1,0.08
		c0,0.08,0.05,0.08,0.17,0.08h0.3c0.57,0,0.82,0.47,0.82,1.15c0,0.94-0.48,1.14-0.78,1.14c-0.3,0-0.82-0.12-1.06-0.53
		c0.24,0.03,0.46-0.12,0.46-0.38c0-0.25-0.19-0.39-0.39-0.39c-0.17,0-0.39,0.1-0.39,0.4c0,0.63,0.64,1.09,1.4,1.09
		c0.84,0,1.47-0.63,1.47-1.33C155.75,78.83,155.32,78.29,154.6,78.15"/>
</g>
<g>
	<defs>
		<rect id="SVGID_00000000928766252094762680000011942465275240230800_" x="115.57" y="75.88" width="2.44" height="5.38"/>
	</defs>
	<clipPath id="SVGID_00000036945801121023439620000000337310465023623080_">
		<use xlink:href="#SVGID_00000000928766252094762680000011942465275240230800_"  style="overflow:visible;"/>
	</clipPath>
	<path style="clip-path:url(#SVGID_00000036945801121023439620000000337310465023623080_);fill:#E4E4E3;" d="M117.05,76.45
		c0-0.17,0-0.19-0.17-0.19c-0.44,0.46-1.08,0.46-1.31,0.46v0.22c0.14,0,0.57,0,0.94-0.19v3.72c0,0.26-0.02,0.34-0.67,0.34h-0.23
		v0.22c0.25-0.02,0.88-0.02,1.16-0.02c0.29,0,0.91,0,1.16,0.02v-0.22h-0.23c-0.65,0-0.67-0.08-0.67-0.34V76.45"/>
</g>
<polygon class="st9" points="93.17,60.51 93.17,60.51 93.17,60.51 93.17,60.51 93.17,60.51 93.17,60.51 93.17,60.51 93.17,60.51 
	93.17,60.51 93.17,60.51 93.17,60.51 93.17,60.51 93.17,60.51 93.17,60.51 93.17,60.51 93.17,60.51 93.17,60.51 93.17,60.51 
	93.17,60.51 93.17,60.51 93.17,60.51 93.17,60.51 93.17,60.51 93.17,60.51 93.17,60.51 93.17,60.51 93.17,60.51 93.17,60.51 
	93.17,60.51 93.17,60.51 93.17,60.51 93.17,60.51 93.17,60.51 93.17,60.51 93.17,60.51 93.17,60.51 93.17,60.51 93.17,60.51 
	93.17,60.51 93.17,60.51 93.17,60.51 93.17,60.51 93.17,60.51 93.17,60.51 93.17,60.51 93.17,60.51 93.17,60.51 93.17,60.51 
	93.17,60.51 93.17,60.51 93.17,60.51 93.17,60.51 93.17,60.51 93.17,60.51 93.17,60.51 93.17,60.51 93.17,60.51 93.17,60.51 
	93.17,60.51 93.17,60.51 93.17,60.51 93.17,60.51 93.17,60.51 93.17,60.51 93.17,60.51 93.17,60.51 93.17,60.51 93.17,60.51 
	93.17,60.51 93.17,60.51 93.17,60.51 93.17,60.51 93.17,60.51 93.17,60.51 93.17,60.51 93.17,60.51 93.17,60.51 93.17,60.51 
	93.17,60.51 93.17,60.51 93.17,60.51 93.17,60.51 93.17,60.51 93.17,60.51 93.17,60.51 93.17,60.51 93.17,60.51 "/>
<g>
	<defs>
		<rect id="SVGID_00000044864785564352997730000000993263294633787063_" x="94.72" y="41.53" width="7.2" height="4.8"/>
	</defs>
	<clipPath id="SVGID_00000180350850433674215640000009848287597975315878_">
		<use xlink:href="#SVGID_00000044864785564352997730000000993263294633787063_"  style="overflow:visible;"/>
	</clipPath>
	
		<path style="opacity:0;clip-path:url(#SVGID_00000180350850433674215640000009848287597975315878_);fill:none;stroke:#000000;stroke-width:1.000000e-06;stroke-miterlimit:10;" d="
		M98.32,43.93L98.32,43.93z"/>
	<path style="clip-path:url(#SVGID_00000180350850433674215640000009848287597975315878_);fill:#E4E4E3;" d="M101.3,44.73
		c0-0.28-0.12-0.3-0.13-0.3c-0.04,0-0.12,0.05-0.13,0.26c-0.04,0.66-0.71,1.05-1.33,1.05c-0.55,0-1.03-0.3-1.53-0.63
		c-0.52-0.34-1.03-0.69-1.65-0.69c-0.89,0-1.6,0.68-1.6,1.56c0,0.21,0.08,0.29,0.13,0.29c0.1,0,0.13-0.18,0.13-0.22
		c0.05-0.8,0.83-1.09,1.33-1.09c0.55,0,1.03,0.3,1.53,0.63c0.52,0.34,1.03,0.69,1.65,0.69C100.61,46.28,101.3,45.57,101.3,44.73
		 M101.3,42.49c0-0.2-0.07-0.29-0.13-0.29c-0.04,0-0.12,0.04-0.13,0.26c-0.04,0.66-0.71,1.05-1.33,1.05c-0.55,0-1.03-0.3-1.53-0.63
		c-0.52-0.34-1.03-0.69-1.65-0.69c-0.89,0-1.6,0.68-1.6,1.56c0,0.21,0.08,0.29,0.13,0.29c0.1,0,0.13-0.18,0.13-0.22
		c0.05-0.8,0.83-1.09,1.33-1.09c0.55,0,1.03,0.3,1.53,0.63c0.52,0.35,1.03,0.69,1.65,0.69C100.59,44.05,101.3,43.37,101.3,42.49z"/>
</g>
</svg>
